%TF.GenerationSoftware,KiCad,Pcbnew,7.0.5*%
%TF.CreationDate,2023-11-04T19:54:28+08:00*%
%TF.ProjectId,Three2One,54687265-6532-44f6-9e65-2e6b69636164,rev?*%
%TF.SameCoordinates,Original*%
%TF.FileFunction,Drillmap*%
%TF.FilePolarity,Positive*%
%FSLAX45Y45*%
G04 Gerber Fmt 4.5, Leading zero omitted, Abs format (unit mm)*
G04 Created by KiCad (PCBNEW 7.0.5) date 2023-11-04 19:54:28*
%MOMM*%
%LPD*%
G01*
G04 APERTURE LIST*
%ADD10C,0.150000*%
%ADD11C,0.200000*%
%ADD12C,0.040000*%
%ADD13C,0.080000*%
%ADD14C,0.100000*%
%ADD15C,0.109220*%
%ADD16C,0.305000*%
G04 APERTURE END LIST*
D10*
X7231500Y-2572500D02*
X15061000Y-2572500D01*
X15111000Y-3287500D02*
X15151000Y-3327500D01*
X7011500Y-2792500D02*
X7011500Y-8067500D01*
X7011500Y-8067500D02*
G75*
G03*
X7231500Y-8287500I220000J0D01*
G01*
X15061000Y-2572500D02*
X15111000Y-2622500D01*
X15111000Y-2622500D02*
X15111000Y-3287500D01*
X16091000Y-2622500D02*
X16141000Y-2572500D01*
X16300500Y-8287500D02*
G75*
G03*
X16520500Y-8067500I0J220000D01*
G01*
X16520500Y-2572500D02*
X16141000Y-2572500D01*
X16051000Y-3327500D02*
X16091000Y-3287500D01*
X15151000Y-3327500D02*
X16051000Y-3327500D01*
X7231500Y-8287500D02*
X16300500Y-8287500D01*
X7231500Y-2572500D02*
G75*
G03*
X7011500Y-2792500I0J-220000D01*
G01*
X15666000Y-3457500D02*
X16166000Y-3457500D01*
X16166000Y-3807500D01*
X15666000Y-3807500D01*
X15666000Y-3457500D01*
X16091000Y-3287500D02*
X16091000Y-2622500D01*
X16520500Y-2572500D02*
X16520500Y-8067500D01*
D11*
D12*
X8475000Y-4321000D02*
X8515000Y-4361000D01*
X8515000Y-4321000D02*
X8475000Y-4361000D01*
X9398050Y-4416000D02*
X9438050Y-4456000D01*
X9438050Y-4416000D02*
X9398050Y-4456000D01*
X9468000Y-6064000D02*
X9508000Y-6104000D01*
X9508000Y-6064000D02*
X9468000Y-6104000D01*
X10381000Y-4321000D02*
X10421000Y-4361000D01*
X10421000Y-4321000D02*
X10381000Y-4361000D01*
X11303050Y-4386000D02*
X11343050Y-4426000D01*
X11343050Y-4386000D02*
X11303050Y-4426000D01*
X11373000Y-6025050D02*
X11413000Y-6065050D01*
X11413000Y-6025050D02*
X11373000Y-6065050D01*
X12284000Y-4321000D02*
X12324000Y-4361000D01*
X12324000Y-4321000D02*
X12284000Y-4361000D01*
X13006000Y-4359000D02*
X13046000Y-4399000D01*
X13046000Y-4359000D02*
X13006000Y-4399000D01*
X13278000Y-5868635D02*
X13318000Y-5908635D01*
X13318000Y-5868635D02*
X13278000Y-5908635D01*
X13983000Y-5205000D02*
X14023000Y-5245000D01*
X14023000Y-5205000D02*
X13983000Y-5245000D01*
X13999315Y-5718685D02*
X14039315Y-5758685D01*
X14039315Y-5718685D02*
X13999315Y-5758685D01*
X14189000Y-4324950D02*
X14229000Y-4364950D01*
X14229000Y-4324950D02*
X14189000Y-4364950D01*
X14439000Y-5120000D02*
X14479000Y-5160000D01*
X14479000Y-5120000D02*
X14439000Y-5160000D01*
X14439000Y-5983000D02*
X14479000Y-6023000D01*
X14479000Y-5983000D02*
X14439000Y-6023000D01*
X14539538Y-5526462D02*
X14579538Y-5566462D01*
X14579538Y-5526462D02*
X14539538Y-5566462D01*
X14540000Y-5984050D02*
X14580000Y-6024050D01*
X14580000Y-5984050D02*
X14540000Y-6024050D01*
X14719950Y-4897050D02*
X14759950Y-4937050D01*
X14759950Y-4897050D02*
X14719950Y-4937050D01*
X14719950Y-4997000D02*
X14759950Y-5037000D01*
X14759950Y-4997000D02*
X14719950Y-5037000D01*
X15293000Y-6087000D02*
X15333000Y-6127000D01*
X15333000Y-6087000D02*
X15293000Y-6127000D01*
X15399000Y-6087000D02*
X15439000Y-6127000D01*
X15439000Y-6087000D02*
X15399000Y-6127000D01*
X16089000Y-4490000D02*
X16129000Y-4530000D01*
X16129000Y-4490000D02*
X16089000Y-4530000D01*
X16165000Y-5375000D02*
X16205000Y-5415000D01*
X16205000Y-5375000D02*
X16165000Y-5415000D01*
D13*
X14873500Y-5176500D02*
G75*
G03*
X14873500Y-5176500I-40000J0D01*
G01*
X14873500Y-5936500D02*
G75*
G03*
X14873500Y-5936500I-40000J0D01*
G01*
X14873500Y-6276500D02*
G75*
G03*
X14873500Y-6276500I-40000J0D01*
G01*
X14873500Y-7036500D02*
G75*
G03*
X14873500Y-7036500I-40000J0D01*
G01*
X14873500Y-7376500D02*
G75*
G03*
X14873500Y-7376500I-40000J0D01*
G01*
X14873500Y-8136500D02*
G75*
G03*
X14873500Y-8136500I-40000J0D01*
G01*
X15228500Y-5176500D02*
G75*
G03*
X15228500Y-5176500I-40000J0D01*
G01*
X15228500Y-5936500D02*
G75*
G03*
X15228500Y-5936500I-40000J0D01*
G01*
X15228500Y-6276500D02*
G75*
G03*
X15228500Y-6276500I-40000J0D01*
G01*
X15228500Y-7036500D02*
G75*
G03*
X15228500Y-7036500I-40000J0D01*
G01*
X15228500Y-7376500D02*
G75*
G03*
X15228500Y-7376500I-40000J0D01*
G01*
X15228500Y-8136500D02*
G75*
G03*
X15228500Y-8136500I-40000J0D01*
G01*
X15583500Y-5176500D02*
G75*
G03*
X15583500Y-5176500I-40000J0D01*
G01*
X15583500Y-5936500D02*
G75*
G03*
X15583500Y-5936500I-40000J0D01*
G01*
X15583500Y-6276500D02*
G75*
G03*
X15583500Y-6276500I-40000J0D01*
G01*
X15583500Y-7036500D02*
G75*
G03*
X15583500Y-7036500I-40000J0D01*
G01*
X15583500Y-7376500D02*
G75*
G03*
X15583500Y-7376500I-40000J0D01*
G01*
X15583500Y-8136500D02*
G75*
G03*
X15583500Y-8136500I-40000J0D01*
G01*
X15938500Y-5176500D02*
G75*
G03*
X15938500Y-5176500I-40000J0D01*
G01*
X15938500Y-5936500D02*
G75*
G03*
X15938500Y-5936500I-40000J0D01*
G01*
X15938500Y-6276500D02*
G75*
G03*
X15938500Y-6276500I-40000J0D01*
G01*
X15938500Y-7036500D02*
G75*
G03*
X15938500Y-7036500I-40000J0D01*
G01*
X15938500Y-7376500D02*
G75*
G03*
X15938500Y-7376500I-40000J0D01*
G01*
X15938500Y-8136500D02*
G75*
G03*
X15938500Y-8136500I-40000J0D01*
G01*
D14*
X7714000Y-2775000D02*
X7714000Y-2875000D01*
X7664000Y-2825000D02*
X7764000Y-2825000D01*
X7714000Y-4225000D02*
X7714000Y-4325000D01*
X7664000Y-4275000D02*
X7764000Y-4275000D01*
X7964000Y-4225000D02*
X7964000Y-4325000D01*
X7914000Y-4275000D02*
X8014000Y-4275000D01*
X8214000Y-2775000D02*
X8214000Y-2875000D01*
X8164000Y-2825000D02*
X8264000Y-2825000D01*
X8214000Y-4225000D02*
X8214000Y-4325000D01*
X8164000Y-4275000D02*
X8264000Y-4275000D01*
X9619000Y-2775000D02*
X9619000Y-2875000D01*
X9569000Y-2825000D02*
X9669000Y-2825000D01*
X9619000Y-4225000D02*
X9619000Y-4325000D01*
X9569000Y-4275000D02*
X9669000Y-4275000D01*
X9869000Y-4225000D02*
X9869000Y-4325000D01*
X9819000Y-4275000D02*
X9919000Y-4275000D01*
X10119000Y-2775000D02*
X10119000Y-2875000D01*
X10069000Y-2825000D02*
X10169000Y-2825000D01*
X10119000Y-4225000D02*
X10119000Y-4325000D01*
X10069000Y-4275000D02*
X10169000Y-4275000D01*
X11524000Y-2775000D02*
X11524000Y-2875000D01*
X11474000Y-2825000D02*
X11574000Y-2825000D01*
X11524000Y-4225000D02*
X11524000Y-4325000D01*
X11474000Y-4275000D02*
X11574000Y-4275000D01*
X11774000Y-4225000D02*
X11774000Y-4325000D01*
X11724000Y-4275000D02*
X11824000Y-4275000D01*
X12024000Y-2775000D02*
X12024000Y-2875000D01*
X11974000Y-2825000D02*
X12074000Y-2825000D01*
X12024000Y-4225000D02*
X12024000Y-4325000D01*
X11974000Y-4275000D02*
X12074000Y-4275000D01*
X13429000Y-2775000D02*
X13429000Y-2875000D01*
X13379000Y-2825000D02*
X13479000Y-2825000D01*
X13429000Y-4225000D02*
X13429000Y-4325000D01*
X13379000Y-4275000D02*
X13479000Y-4275000D01*
X13679000Y-4225000D02*
X13679000Y-4325000D01*
X13629000Y-4275000D02*
X13729000Y-4275000D01*
X13929000Y-2775000D02*
X13929000Y-2875000D01*
X13879000Y-2825000D02*
X13979000Y-2825000D01*
X13929000Y-4225000D02*
X13929000Y-4325000D01*
X13879000Y-4275000D02*
X13979000Y-4275000D01*
D15*
X14872115Y-2770116D02*
X14872115Y-2692885D01*
X14794884Y-2692885D01*
X14794884Y-2770116D01*
X14872115Y-2770116D01*
X14872115Y-3024115D02*
X14872115Y-2946884D01*
X14794884Y-2946884D01*
X14794884Y-3024115D01*
X14872115Y-3024115D01*
X14872115Y-3278115D02*
X14872115Y-3200884D01*
X14794884Y-3200884D01*
X14794884Y-3278115D01*
X14872115Y-3278115D01*
X14872115Y-3532115D02*
X14872115Y-3454884D01*
X14794884Y-3454884D01*
X14794884Y-3532115D01*
X14872115Y-3532115D01*
X14872115Y-3786115D02*
X14872115Y-3708884D01*
X14794884Y-3708884D01*
X14794884Y-3786115D01*
X14872115Y-3786115D01*
X14872115Y-4040115D02*
X14872115Y-3962884D01*
X14794884Y-3962884D01*
X14794884Y-4040115D01*
X14872115Y-4040115D01*
X14872115Y-4294116D02*
X14872115Y-4216885D01*
X14794884Y-4216885D01*
X14794884Y-4294116D01*
X14872115Y-4294116D01*
X14872115Y-4548116D02*
X14872115Y-4470885D01*
X14794884Y-4470885D01*
X14794884Y-4548116D01*
X14872115Y-4548116D01*
X14872115Y-4802116D02*
X14872115Y-4724885D01*
X14794884Y-4724885D01*
X14794884Y-4802116D01*
X14872115Y-4802116D01*
X15131615Y-4834116D02*
X15131615Y-4756885D01*
X15054384Y-4756885D01*
X15054384Y-4834116D01*
X15131615Y-4834116D01*
X15385615Y-4834116D02*
X15385615Y-4756885D01*
X15308384Y-4756885D01*
X15308384Y-4834116D01*
X15385615Y-4834116D01*
X15639615Y-4834116D02*
X15639615Y-4756885D01*
X15562384Y-4756885D01*
X15562384Y-4834116D01*
X15639615Y-4834116D01*
X15893615Y-4834116D02*
X15893615Y-4756885D01*
X15816384Y-4756885D01*
X15816384Y-4834116D01*
X15893615Y-4834116D01*
X16147615Y-4834116D02*
X16147615Y-4756885D01*
X16070384Y-4756885D01*
X16070384Y-4834116D01*
X16147615Y-4834116D01*
X16407115Y-2770116D02*
X16407115Y-2692885D01*
X16329884Y-2692885D01*
X16329884Y-2770116D01*
X16407115Y-2770116D01*
X16407115Y-3024115D02*
X16407115Y-2946884D01*
X16329884Y-2946884D01*
X16329884Y-3024115D01*
X16407115Y-3024115D01*
X16407115Y-3278115D02*
X16407115Y-3200884D01*
X16329884Y-3200884D01*
X16329884Y-3278115D01*
X16407115Y-3278115D01*
X16407115Y-3532115D02*
X16407115Y-3454884D01*
X16329884Y-3454884D01*
X16329884Y-3532115D01*
X16407115Y-3532115D01*
X16407115Y-3786115D02*
X16407115Y-3708884D01*
X16329884Y-3708884D01*
X16329884Y-3786115D01*
X16407115Y-3786115D01*
X16407115Y-4040115D02*
X16407115Y-3962884D01*
X16329884Y-3962884D01*
X16329884Y-4040115D01*
X16407115Y-4040115D01*
X16407115Y-4294116D02*
X16407115Y-4216885D01*
X16329884Y-4216885D01*
X16329884Y-4294116D01*
X16407115Y-4294116D01*
X16407115Y-4548116D02*
X16407115Y-4470885D01*
X16329884Y-4470885D01*
X16329884Y-4548116D01*
X16407115Y-4548116D01*
X16407115Y-4802116D02*
X16407115Y-4724885D01*
X16329884Y-4724885D01*
X16329884Y-4802116D01*
X16407115Y-4802116D01*
D16*
X7583000Y-3423500D02*
X7735500Y-3271000D01*
X7583000Y-3118500D01*
X7430500Y-3271000D01*
X7583000Y-3423500D01*
X7583000Y-5328500D02*
X7735500Y-5176000D01*
X7583000Y-5023500D01*
X7430500Y-5176000D01*
X7583000Y-5328500D01*
X7583000Y-7233500D02*
X7735500Y-7081000D01*
X7583000Y-6928500D01*
X7430500Y-7081000D01*
X7583000Y-7233500D01*
X8218000Y-3169500D02*
X8370500Y-3017000D01*
X8218000Y-2864500D01*
X8065500Y-3017000D01*
X8218000Y-3169500D01*
X8218000Y-5074500D02*
X8370500Y-4922000D01*
X8218000Y-4769500D01*
X8065500Y-4922000D01*
X8218000Y-5074500D01*
X8218000Y-6979500D02*
X8370500Y-6827000D01*
X8218000Y-6674500D01*
X8065500Y-6827000D01*
X8218000Y-6979500D01*
X9488000Y-3423500D02*
X9640500Y-3271000D01*
X9488000Y-3118500D01*
X9335500Y-3271000D01*
X9488000Y-3423500D01*
X9488000Y-5328500D02*
X9640500Y-5176000D01*
X9488000Y-5023500D01*
X9335500Y-5176000D01*
X9488000Y-5328500D01*
X9488000Y-7233500D02*
X9640500Y-7081000D01*
X9488000Y-6928500D01*
X9335500Y-7081000D01*
X9488000Y-7233500D01*
X10123000Y-3169500D02*
X10275500Y-3017000D01*
X10123000Y-2864500D01*
X9970500Y-3017000D01*
X10123000Y-3169500D01*
X10123000Y-5074500D02*
X10275500Y-4922000D01*
X10123000Y-4769500D01*
X9970500Y-4922000D01*
X10123000Y-5074500D01*
X10123000Y-6979500D02*
X10275500Y-6827000D01*
X10123000Y-6674500D01*
X9970500Y-6827000D01*
X10123000Y-6979500D01*
X11393000Y-3423500D02*
X11545500Y-3271000D01*
X11393000Y-3118500D01*
X11240500Y-3271000D01*
X11393000Y-3423500D01*
X11393000Y-5328500D02*
X11545500Y-5176000D01*
X11393000Y-5023500D01*
X11240500Y-5176000D01*
X11393000Y-5328500D01*
X11393000Y-7233500D02*
X11545500Y-7081000D01*
X11393000Y-6928500D01*
X11240500Y-7081000D01*
X11393000Y-7233500D01*
X12028000Y-3169500D02*
X12180500Y-3017000D01*
X12028000Y-2864500D01*
X11875500Y-3017000D01*
X12028000Y-3169500D01*
X12028000Y-5074500D02*
X12180500Y-4922000D01*
X12028000Y-4769500D01*
X11875500Y-4922000D01*
X12028000Y-5074500D01*
X12028000Y-6979500D02*
X12180500Y-6827000D01*
X12028000Y-6674500D01*
X11875500Y-6827000D01*
X12028000Y-6979500D01*
X13298000Y-3423500D02*
X13450500Y-3271000D01*
X13298000Y-3118500D01*
X13145500Y-3271000D01*
X13298000Y-3423500D01*
X13298000Y-5328500D02*
X13450500Y-5176000D01*
X13298000Y-5023500D01*
X13145500Y-5176000D01*
X13298000Y-5328500D01*
X13298000Y-7233500D02*
X13450500Y-7081000D01*
X13298000Y-6928500D01*
X13145500Y-7081000D01*
X13298000Y-7233500D01*
X13933000Y-3169500D02*
X14085500Y-3017000D01*
X13933000Y-2864500D01*
X13780500Y-3017000D01*
X13933000Y-3169500D01*
X13933000Y-5074500D02*
X14085500Y-4922000D01*
X13933000Y-4769500D01*
X13780500Y-4922000D01*
X13933000Y-5074500D01*
X13933000Y-6979500D02*
X14085500Y-6827000D01*
X13933000Y-6674500D01*
X13780500Y-6827000D01*
X13933000Y-6979500D01*
D11*
X7264777Y-8606484D02*
X7264777Y-8406484D01*
X7264777Y-8406484D02*
X7312396Y-8406484D01*
X7312396Y-8406484D02*
X7340967Y-8416008D01*
X7340967Y-8416008D02*
X7360015Y-8435055D01*
X7360015Y-8435055D02*
X7369539Y-8454103D01*
X7369539Y-8454103D02*
X7379062Y-8492198D01*
X7379062Y-8492198D02*
X7379062Y-8520770D01*
X7379062Y-8520770D02*
X7369539Y-8558865D01*
X7369539Y-8558865D02*
X7360015Y-8577912D01*
X7360015Y-8577912D02*
X7340967Y-8596960D01*
X7340967Y-8596960D02*
X7312396Y-8606484D01*
X7312396Y-8606484D02*
X7264777Y-8606484D01*
X7464777Y-8606484D02*
X7464777Y-8473150D01*
X7464777Y-8511246D02*
X7474301Y-8492198D01*
X7474301Y-8492198D02*
X7483824Y-8482674D01*
X7483824Y-8482674D02*
X7502872Y-8473150D01*
X7502872Y-8473150D02*
X7521920Y-8473150D01*
X7588586Y-8606484D02*
X7588586Y-8473150D01*
X7588586Y-8406484D02*
X7579062Y-8416008D01*
X7579062Y-8416008D02*
X7588586Y-8425531D01*
X7588586Y-8425531D02*
X7598110Y-8416008D01*
X7598110Y-8416008D02*
X7588586Y-8406484D01*
X7588586Y-8406484D02*
X7588586Y-8425531D01*
X7712396Y-8606484D02*
X7693348Y-8596960D01*
X7693348Y-8596960D02*
X7683824Y-8577912D01*
X7683824Y-8577912D02*
X7683824Y-8406484D01*
X7817158Y-8606484D02*
X7798110Y-8596960D01*
X7798110Y-8596960D02*
X7788586Y-8577912D01*
X7788586Y-8577912D02*
X7788586Y-8406484D01*
X8045729Y-8606484D02*
X8045729Y-8406484D01*
X8045729Y-8406484D02*
X8112396Y-8549341D01*
X8112396Y-8549341D02*
X8179062Y-8406484D01*
X8179062Y-8406484D02*
X8179062Y-8606484D01*
X8360015Y-8606484D02*
X8360015Y-8501722D01*
X8360015Y-8501722D02*
X8350491Y-8482674D01*
X8350491Y-8482674D02*
X8331443Y-8473150D01*
X8331443Y-8473150D02*
X8293348Y-8473150D01*
X8293348Y-8473150D02*
X8274301Y-8482674D01*
X8360015Y-8596960D02*
X8340967Y-8606484D01*
X8340967Y-8606484D02*
X8293348Y-8606484D01*
X8293348Y-8606484D02*
X8274301Y-8596960D01*
X8274301Y-8596960D02*
X8264777Y-8577912D01*
X8264777Y-8577912D02*
X8264777Y-8558865D01*
X8264777Y-8558865D02*
X8274301Y-8539817D01*
X8274301Y-8539817D02*
X8293348Y-8530293D01*
X8293348Y-8530293D02*
X8340967Y-8530293D01*
X8340967Y-8530293D02*
X8360015Y-8520770D01*
X8455253Y-8473150D02*
X8455253Y-8673150D01*
X8455253Y-8482674D02*
X8474301Y-8473150D01*
X8474301Y-8473150D02*
X8512396Y-8473150D01*
X8512396Y-8473150D02*
X8531444Y-8482674D01*
X8531444Y-8482674D02*
X8540967Y-8492198D01*
X8540967Y-8492198D02*
X8550491Y-8511246D01*
X8550491Y-8511246D02*
X8550491Y-8568389D01*
X8550491Y-8568389D02*
X8540967Y-8587436D01*
X8540967Y-8587436D02*
X8531444Y-8596960D01*
X8531444Y-8596960D02*
X8512396Y-8606484D01*
X8512396Y-8606484D02*
X8474301Y-8606484D01*
X8474301Y-8606484D02*
X8455253Y-8596960D01*
X8636205Y-8587436D02*
X8645729Y-8596960D01*
X8645729Y-8596960D02*
X8636205Y-8606484D01*
X8636205Y-8606484D02*
X8626682Y-8596960D01*
X8626682Y-8596960D02*
X8636205Y-8587436D01*
X8636205Y-8587436D02*
X8636205Y-8606484D01*
X8636205Y-8482674D02*
X8645729Y-8492198D01*
X8645729Y-8492198D02*
X8636205Y-8501722D01*
X8636205Y-8501722D02*
X8626682Y-8492198D01*
X8626682Y-8492198D02*
X8636205Y-8482674D01*
X8636205Y-8482674D02*
X8636205Y-8501722D01*
D12*
X6964000Y-8915000D02*
X7004000Y-8955000D01*
X7004000Y-8915000D02*
X6964000Y-8955000D01*
D11*
X7302872Y-8826484D02*
X7321920Y-8826484D01*
X7321920Y-8826484D02*
X7340967Y-8836008D01*
X7340967Y-8836008D02*
X7350491Y-8845531D01*
X7350491Y-8845531D02*
X7360015Y-8864579D01*
X7360015Y-8864579D02*
X7369539Y-8902674D01*
X7369539Y-8902674D02*
X7369539Y-8950293D01*
X7369539Y-8950293D02*
X7360015Y-8988389D01*
X7360015Y-8988389D02*
X7350491Y-9007436D01*
X7350491Y-9007436D02*
X7340967Y-9016960D01*
X7340967Y-9016960D02*
X7321920Y-9026484D01*
X7321920Y-9026484D02*
X7302872Y-9026484D01*
X7302872Y-9026484D02*
X7283824Y-9016960D01*
X7283824Y-9016960D02*
X7274301Y-9007436D01*
X7274301Y-9007436D02*
X7264777Y-8988389D01*
X7264777Y-8988389D02*
X7255253Y-8950293D01*
X7255253Y-8950293D02*
X7255253Y-8902674D01*
X7255253Y-8902674D02*
X7264777Y-8864579D01*
X7264777Y-8864579D02*
X7274301Y-8845531D01*
X7274301Y-8845531D02*
X7283824Y-8836008D01*
X7283824Y-8836008D02*
X7302872Y-8826484D01*
X7455253Y-9007436D02*
X7464777Y-9016960D01*
X7464777Y-9016960D02*
X7455253Y-9026484D01*
X7455253Y-9026484D02*
X7445729Y-9016960D01*
X7445729Y-9016960D02*
X7455253Y-9007436D01*
X7455253Y-9007436D02*
X7455253Y-9026484D01*
X7636205Y-8893150D02*
X7636205Y-9026484D01*
X7588586Y-8816960D02*
X7540967Y-8959817D01*
X7540967Y-8959817D02*
X7664777Y-8959817D01*
X7779062Y-8826484D02*
X7798110Y-8826484D01*
X7798110Y-8826484D02*
X7817158Y-8836008D01*
X7817158Y-8836008D02*
X7826682Y-8845531D01*
X7826682Y-8845531D02*
X7836205Y-8864579D01*
X7836205Y-8864579D02*
X7845729Y-8902674D01*
X7845729Y-8902674D02*
X7845729Y-8950293D01*
X7845729Y-8950293D02*
X7836205Y-8988389D01*
X7836205Y-8988389D02*
X7826682Y-9007436D01*
X7826682Y-9007436D02*
X7817158Y-9016960D01*
X7817158Y-9016960D02*
X7798110Y-9026484D01*
X7798110Y-9026484D02*
X7779062Y-9026484D01*
X7779062Y-9026484D02*
X7760015Y-9016960D01*
X7760015Y-9016960D02*
X7750491Y-9007436D01*
X7750491Y-9007436D02*
X7740967Y-8988389D01*
X7740967Y-8988389D02*
X7731443Y-8950293D01*
X7731443Y-8950293D02*
X7731443Y-8902674D01*
X7731443Y-8902674D02*
X7740967Y-8864579D01*
X7740967Y-8864579D02*
X7750491Y-8845531D01*
X7750491Y-8845531D02*
X7760015Y-8836008D01*
X7760015Y-8836008D02*
X7779062Y-8826484D01*
X7969539Y-8826484D02*
X7988586Y-8826484D01*
X7988586Y-8826484D02*
X8007634Y-8836008D01*
X8007634Y-8836008D02*
X8017158Y-8845531D01*
X8017158Y-8845531D02*
X8026682Y-8864579D01*
X8026682Y-8864579D02*
X8036205Y-8902674D01*
X8036205Y-8902674D02*
X8036205Y-8950293D01*
X8036205Y-8950293D02*
X8026682Y-8988389D01*
X8026682Y-8988389D02*
X8017158Y-9007436D01*
X8017158Y-9007436D02*
X8007634Y-9016960D01*
X8007634Y-9016960D02*
X7988586Y-9026484D01*
X7988586Y-9026484D02*
X7969539Y-9026484D01*
X7969539Y-9026484D02*
X7950491Y-9016960D01*
X7950491Y-9016960D02*
X7940967Y-9007436D01*
X7940967Y-9007436D02*
X7931443Y-8988389D01*
X7931443Y-8988389D02*
X7921920Y-8950293D01*
X7921920Y-8950293D02*
X7921920Y-8902674D01*
X7921920Y-8902674D02*
X7931443Y-8864579D01*
X7931443Y-8864579D02*
X7940967Y-8845531D01*
X7940967Y-8845531D02*
X7950491Y-8836008D01*
X7950491Y-8836008D02*
X7969539Y-8826484D01*
X8121920Y-9026484D02*
X8121920Y-8893150D01*
X8121920Y-8912198D02*
X8131443Y-8902674D01*
X8131443Y-8902674D02*
X8150491Y-8893150D01*
X8150491Y-8893150D02*
X8179063Y-8893150D01*
X8179063Y-8893150D02*
X8198110Y-8902674D01*
X8198110Y-8902674D02*
X8207634Y-8921722D01*
X8207634Y-8921722D02*
X8207634Y-9026484D01*
X8207634Y-8921722D02*
X8217158Y-8902674D01*
X8217158Y-8902674D02*
X8236205Y-8893150D01*
X8236205Y-8893150D02*
X8264777Y-8893150D01*
X8264777Y-8893150D02*
X8283824Y-8902674D01*
X8283824Y-8902674D02*
X8293348Y-8921722D01*
X8293348Y-8921722D02*
X8293348Y-9026484D01*
X8388586Y-9026484D02*
X8388586Y-8893150D01*
X8388586Y-8912198D02*
X8398110Y-8902674D01*
X8398110Y-8902674D02*
X8417158Y-8893150D01*
X8417158Y-8893150D02*
X8445729Y-8893150D01*
X8445729Y-8893150D02*
X8464777Y-8902674D01*
X8464777Y-8902674D02*
X8474301Y-8921722D01*
X8474301Y-8921722D02*
X8474301Y-9026484D01*
X8474301Y-8921722D02*
X8483825Y-8902674D01*
X8483825Y-8902674D02*
X8502872Y-8893150D01*
X8502872Y-8893150D02*
X8531444Y-8893150D01*
X8531444Y-8893150D02*
X8550491Y-8902674D01*
X8550491Y-8902674D02*
X8560015Y-8921722D01*
X8560015Y-8921722D02*
X8560015Y-9026484D01*
X8950491Y-8816960D02*
X8779063Y-9074103D01*
X9207634Y-8826484D02*
X9226682Y-8826484D01*
X9226682Y-8826484D02*
X9245729Y-8836008D01*
X9245729Y-8836008D02*
X9255253Y-8845531D01*
X9255253Y-8845531D02*
X9264777Y-8864579D01*
X9264777Y-8864579D02*
X9274301Y-8902674D01*
X9274301Y-8902674D02*
X9274301Y-8950293D01*
X9274301Y-8950293D02*
X9264777Y-8988389D01*
X9264777Y-8988389D02*
X9255253Y-9007436D01*
X9255253Y-9007436D02*
X9245729Y-9016960D01*
X9245729Y-9016960D02*
X9226682Y-9026484D01*
X9226682Y-9026484D02*
X9207634Y-9026484D01*
X9207634Y-9026484D02*
X9188587Y-9016960D01*
X9188587Y-9016960D02*
X9179063Y-9007436D01*
X9179063Y-9007436D02*
X9169539Y-8988389D01*
X9169539Y-8988389D02*
X9160015Y-8950293D01*
X9160015Y-8950293D02*
X9160015Y-8902674D01*
X9160015Y-8902674D02*
X9169539Y-8864579D01*
X9169539Y-8864579D02*
X9179063Y-8845531D01*
X9179063Y-8845531D02*
X9188587Y-8836008D01*
X9188587Y-8836008D02*
X9207634Y-8826484D01*
X9360015Y-9007436D02*
X9369539Y-9016960D01*
X9369539Y-9016960D02*
X9360015Y-9026484D01*
X9360015Y-9026484D02*
X9350491Y-9016960D01*
X9350491Y-9016960D02*
X9360015Y-9007436D01*
X9360015Y-9007436D02*
X9360015Y-9026484D01*
X9493348Y-8826484D02*
X9512396Y-8826484D01*
X9512396Y-8826484D02*
X9531444Y-8836008D01*
X9531444Y-8836008D02*
X9540968Y-8845531D01*
X9540968Y-8845531D02*
X9550491Y-8864579D01*
X9550491Y-8864579D02*
X9560015Y-8902674D01*
X9560015Y-8902674D02*
X9560015Y-8950293D01*
X9560015Y-8950293D02*
X9550491Y-8988389D01*
X9550491Y-8988389D02*
X9540968Y-9007436D01*
X9540968Y-9007436D02*
X9531444Y-9016960D01*
X9531444Y-9016960D02*
X9512396Y-9026484D01*
X9512396Y-9026484D02*
X9493348Y-9026484D01*
X9493348Y-9026484D02*
X9474301Y-9016960D01*
X9474301Y-9016960D02*
X9464777Y-9007436D01*
X9464777Y-9007436D02*
X9455253Y-8988389D01*
X9455253Y-8988389D02*
X9445729Y-8950293D01*
X9445729Y-8950293D02*
X9445729Y-8902674D01*
X9445729Y-8902674D02*
X9455253Y-8864579D01*
X9455253Y-8864579D02*
X9464777Y-8845531D01*
X9464777Y-8845531D02*
X9474301Y-8836008D01*
X9474301Y-8836008D02*
X9493348Y-8826484D01*
X9750491Y-9026484D02*
X9636206Y-9026484D01*
X9693348Y-9026484D02*
X9693348Y-8826484D01*
X9693348Y-8826484D02*
X9674301Y-8855055D01*
X9674301Y-8855055D02*
X9655253Y-8874103D01*
X9655253Y-8874103D02*
X9636206Y-8883627D01*
X9931444Y-8826484D02*
X9836206Y-8826484D01*
X9836206Y-8826484D02*
X9826682Y-8921722D01*
X9826682Y-8921722D02*
X9836206Y-8912198D01*
X9836206Y-8912198D02*
X9855253Y-8902674D01*
X9855253Y-8902674D02*
X9902872Y-8902674D01*
X9902872Y-8902674D02*
X9921920Y-8912198D01*
X9921920Y-8912198D02*
X9931444Y-8921722D01*
X9931444Y-8921722D02*
X9940968Y-8940770D01*
X9940968Y-8940770D02*
X9940968Y-8988389D01*
X9940968Y-8988389D02*
X9931444Y-9007436D01*
X9931444Y-9007436D02*
X9921920Y-9016960D01*
X9921920Y-9016960D02*
X9902872Y-9026484D01*
X9902872Y-9026484D02*
X9855253Y-9026484D01*
X9855253Y-9026484D02*
X9836206Y-9016960D01*
X9836206Y-9016960D02*
X9826682Y-9007436D01*
X10007634Y-8826484D02*
X10140968Y-8826484D01*
X10140968Y-8826484D02*
X10055253Y-9026484D01*
X10207634Y-8826484D02*
X10207634Y-8864579D01*
X10283825Y-8826484D02*
X10283825Y-8864579D01*
X10579063Y-9102674D02*
X10569539Y-9093150D01*
X10569539Y-9093150D02*
X10550491Y-9064579D01*
X10550491Y-9064579D02*
X10540968Y-9045531D01*
X10540968Y-9045531D02*
X10531444Y-9016960D01*
X10531444Y-9016960D02*
X10521920Y-8969341D01*
X10521920Y-8969341D02*
X10521920Y-8931246D01*
X10521920Y-8931246D02*
X10531444Y-8883627D01*
X10531444Y-8883627D02*
X10540968Y-8855055D01*
X10540968Y-8855055D02*
X10550491Y-8836008D01*
X10550491Y-8836008D02*
X10569539Y-8807436D01*
X10569539Y-8807436D02*
X10579063Y-8797912D01*
X10645730Y-8845531D02*
X10655253Y-8836008D01*
X10655253Y-8836008D02*
X10674301Y-8826484D01*
X10674301Y-8826484D02*
X10721920Y-8826484D01*
X10721920Y-8826484D02*
X10740968Y-8836008D01*
X10740968Y-8836008D02*
X10750491Y-8845531D01*
X10750491Y-8845531D02*
X10760015Y-8864579D01*
X10760015Y-8864579D02*
X10760015Y-8883627D01*
X10760015Y-8883627D02*
X10750491Y-8912198D01*
X10750491Y-8912198D02*
X10636206Y-9026484D01*
X10636206Y-9026484D02*
X10760015Y-9026484D01*
X10836206Y-8845531D02*
X10845730Y-8836008D01*
X10845730Y-8836008D02*
X10864777Y-8826484D01*
X10864777Y-8826484D02*
X10912396Y-8826484D01*
X10912396Y-8826484D02*
X10931444Y-8836008D01*
X10931444Y-8836008D02*
X10940968Y-8845531D01*
X10940968Y-8845531D02*
X10950491Y-8864579D01*
X10950491Y-8864579D02*
X10950491Y-8883627D01*
X10950491Y-8883627D02*
X10940968Y-8912198D01*
X10940968Y-8912198D02*
X10826682Y-9026484D01*
X10826682Y-9026484D02*
X10950491Y-9026484D01*
X11188587Y-9026484D02*
X11188587Y-8826484D01*
X11274301Y-9026484D02*
X11274301Y-8921722D01*
X11274301Y-8921722D02*
X11264777Y-8902674D01*
X11264777Y-8902674D02*
X11245730Y-8893150D01*
X11245730Y-8893150D02*
X11217158Y-8893150D01*
X11217158Y-8893150D02*
X11198110Y-8902674D01*
X11198110Y-8902674D02*
X11188587Y-8912198D01*
X11398110Y-9026484D02*
X11379063Y-9016960D01*
X11379063Y-9016960D02*
X11369539Y-9007436D01*
X11369539Y-9007436D02*
X11360015Y-8988389D01*
X11360015Y-8988389D02*
X11360015Y-8931246D01*
X11360015Y-8931246D02*
X11369539Y-8912198D01*
X11369539Y-8912198D02*
X11379063Y-8902674D01*
X11379063Y-8902674D02*
X11398110Y-8893150D01*
X11398110Y-8893150D02*
X11426682Y-8893150D01*
X11426682Y-8893150D02*
X11445730Y-8902674D01*
X11445730Y-8902674D02*
X11455253Y-8912198D01*
X11455253Y-8912198D02*
X11464777Y-8931246D01*
X11464777Y-8931246D02*
X11464777Y-8988389D01*
X11464777Y-8988389D02*
X11455253Y-9007436D01*
X11455253Y-9007436D02*
X11445730Y-9016960D01*
X11445730Y-9016960D02*
X11426682Y-9026484D01*
X11426682Y-9026484D02*
X11398110Y-9026484D01*
X11579063Y-9026484D02*
X11560015Y-9016960D01*
X11560015Y-9016960D02*
X11550491Y-8997912D01*
X11550491Y-8997912D02*
X11550491Y-8826484D01*
X11731444Y-9016960D02*
X11712396Y-9026484D01*
X11712396Y-9026484D02*
X11674301Y-9026484D01*
X11674301Y-9026484D02*
X11655253Y-9016960D01*
X11655253Y-9016960D02*
X11645730Y-8997912D01*
X11645730Y-8997912D02*
X11645730Y-8921722D01*
X11645730Y-8921722D02*
X11655253Y-8902674D01*
X11655253Y-8902674D02*
X11674301Y-8893150D01*
X11674301Y-8893150D02*
X11712396Y-8893150D01*
X11712396Y-8893150D02*
X11731444Y-8902674D01*
X11731444Y-8902674D02*
X11740968Y-8921722D01*
X11740968Y-8921722D02*
X11740968Y-8940770D01*
X11740968Y-8940770D02*
X11645730Y-8959817D01*
X11817158Y-9016960D02*
X11836206Y-9026484D01*
X11836206Y-9026484D02*
X11874301Y-9026484D01*
X11874301Y-9026484D02*
X11893349Y-9016960D01*
X11893349Y-9016960D02*
X11902872Y-8997912D01*
X11902872Y-8997912D02*
X11902872Y-8988389D01*
X11902872Y-8988389D02*
X11893349Y-8969341D01*
X11893349Y-8969341D02*
X11874301Y-8959817D01*
X11874301Y-8959817D02*
X11845730Y-8959817D01*
X11845730Y-8959817D02*
X11826682Y-8950293D01*
X11826682Y-8950293D02*
X11817158Y-8931246D01*
X11817158Y-8931246D02*
X11817158Y-8921722D01*
X11817158Y-8921722D02*
X11826682Y-8902674D01*
X11826682Y-8902674D02*
X11845730Y-8893150D01*
X11845730Y-8893150D02*
X11874301Y-8893150D01*
X11874301Y-8893150D02*
X11893349Y-8902674D01*
X11969539Y-9102674D02*
X11979063Y-9093150D01*
X11979063Y-9093150D02*
X11998111Y-9064579D01*
X11998111Y-9064579D02*
X12007634Y-9045531D01*
X12007634Y-9045531D02*
X12017158Y-9016960D01*
X12017158Y-9016960D02*
X12026682Y-8969341D01*
X12026682Y-8969341D02*
X12026682Y-8931246D01*
X12026682Y-8931246D02*
X12017158Y-8883627D01*
X12017158Y-8883627D02*
X12007634Y-8855055D01*
X12007634Y-8855055D02*
X11998111Y-8836008D01*
X11998111Y-8836008D02*
X11979063Y-8807436D01*
X11979063Y-8807436D02*
X11969539Y-8797912D01*
D13*
X7004000Y-9199000D02*
G75*
G03*
X7004000Y-9199000I-40000J0D01*
G01*
D11*
X7302872Y-9090484D02*
X7321920Y-9090484D01*
X7321920Y-9090484D02*
X7340967Y-9100008D01*
X7340967Y-9100008D02*
X7350491Y-9109531D01*
X7350491Y-9109531D02*
X7360015Y-9128579D01*
X7360015Y-9128579D02*
X7369539Y-9166674D01*
X7369539Y-9166674D02*
X7369539Y-9214293D01*
X7369539Y-9214293D02*
X7360015Y-9252389D01*
X7360015Y-9252389D02*
X7350491Y-9271436D01*
X7350491Y-9271436D02*
X7340967Y-9280960D01*
X7340967Y-9280960D02*
X7321920Y-9290484D01*
X7321920Y-9290484D02*
X7302872Y-9290484D01*
X7302872Y-9290484D02*
X7283824Y-9280960D01*
X7283824Y-9280960D02*
X7274301Y-9271436D01*
X7274301Y-9271436D02*
X7264777Y-9252389D01*
X7264777Y-9252389D02*
X7255253Y-9214293D01*
X7255253Y-9214293D02*
X7255253Y-9166674D01*
X7255253Y-9166674D02*
X7264777Y-9128579D01*
X7264777Y-9128579D02*
X7274301Y-9109531D01*
X7274301Y-9109531D02*
X7283824Y-9100008D01*
X7283824Y-9100008D02*
X7302872Y-9090484D01*
X7455253Y-9271436D02*
X7464777Y-9280960D01*
X7464777Y-9280960D02*
X7455253Y-9290484D01*
X7455253Y-9290484D02*
X7445729Y-9280960D01*
X7445729Y-9280960D02*
X7455253Y-9271436D01*
X7455253Y-9271436D02*
X7455253Y-9290484D01*
X7579062Y-9176198D02*
X7560015Y-9166674D01*
X7560015Y-9166674D02*
X7550491Y-9157150D01*
X7550491Y-9157150D02*
X7540967Y-9138103D01*
X7540967Y-9138103D02*
X7540967Y-9128579D01*
X7540967Y-9128579D02*
X7550491Y-9109531D01*
X7550491Y-9109531D02*
X7560015Y-9100008D01*
X7560015Y-9100008D02*
X7579062Y-9090484D01*
X7579062Y-9090484D02*
X7617158Y-9090484D01*
X7617158Y-9090484D02*
X7636205Y-9100008D01*
X7636205Y-9100008D02*
X7645729Y-9109531D01*
X7645729Y-9109531D02*
X7655253Y-9128579D01*
X7655253Y-9128579D02*
X7655253Y-9138103D01*
X7655253Y-9138103D02*
X7645729Y-9157150D01*
X7645729Y-9157150D02*
X7636205Y-9166674D01*
X7636205Y-9166674D02*
X7617158Y-9176198D01*
X7617158Y-9176198D02*
X7579062Y-9176198D01*
X7579062Y-9176198D02*
X7560015Y-9185722D01*
X7560015Y-9185722D02*
X7550491Y-9195246D01*
X7550491Y-9195246D02*
X7540967Y-9214293D01*
X7540967Y-9214293D02*
X7540967Y-9252389D01*
X7540967Y-9252389D02*
X7550491Y-9271436D01*
X7550491Y-9271436D02*
X7560015Y-9280960D01*
X7560015Y-9280960D02*
X7579062Y-9290484D01*
X7579062Y-9290484D02*
X7617158Y-9290484D01*
X7617158Y-9290484D02*
X7636205Y-9280960D01*
X7636205Y-9280960D02*
X7645729Y-9271436D01*
X7645729Y-9271436D02*
X7655253Y-9252389D01*
X7655253Y-9252389D02*
X7655253Y-9214293D01*
X7655253Y-9214293D02*
X7645729Y-9195246D01*
X7645729Y-9195246D02*
X7636205Y-9185722D01*
X7636205Y-9185722D02*
X7617158Y-9176198D01*
X7779062Y-9090484D02*
X7798110Y-9090484D01*
X7798110Y-9090484D02*
X7817158Y-9100008D01*
X7817158Y-9100008D02*
X7826682Y-9109531D01*
X7826682Y-9109531D02*
X7836205Y-9128579D01*
X7836205Y-9128579D02*
X7845729Y-9166674D01*
X7845729Y-9166674D02*
X7845729Y-9214293D01*
X7845729Y-9214293D02*
X7836205Y-9252389D01*
X7836205Y-9252389D02*
X7826682Y-9271436D01*
X7826682Y-9271436D02*
X7817158Y-9280960D01*
X7817158Y-9280960D02*
X7798110Y-9290484D01*
X7798110Y-9290484D02*
X7779062Y-9290484D01*
X7779062Y-9290484D02*
X7760015Y-9280960D01*
X7760015Y-9280960D02*
X7750491Y-9271436D01*
X7750491Y-9271436D02*
X7740967Y-9252389D01*
X7740967Y-9252389D02*
X7731443Y-9214293D01*
X7731443Y-9214293D02*
X7731443Y-9166674D01*
X7731443Y-9166674D02*
X7740967Y-9128579D01*
X7740967Y-9128579D02*
X7750491Y-9109531D01*
X7750491Y-9109531D02*
X7760015Y-9100008D01*
X7760015Y-9100008D02*
X7779062Y-9090484D01*
X7969539Y-9090484D02*
X7988586Y-9090484D01*
X7988586Y-9090484D02*
X8007634Y-9100008D01*
X8007634Y-9100008D02*
X8017158Y-9109531D01*
X8017158Y-9109531D02*
X8026682Y-9128579D01*
X8026682Y-9128579D02*
X8036205Y-9166674D01*
X8036205Y-9166674D02*
X8036205Y-9214293D01*
X8036205Y-9214293D02*
X8026682Y-9252389D01*
X8026682Y-9252389D02*
X8017158Y-9271436D01*
X8017158Y-9271436D02*
X8007634Y-9280960D01*
X8007634Y-9280960D02*
X7988586Y-9290484D01*
X7988586Y-9290484D02*
X7969539Y-9290484D01*
X7969539Y-9290484D02*
X7950491Y-9280960D01*
X7950491Y-9280960D02*
X7940967Y-9271436D01*
X7940967Y-9271436D02*
X7931443Y-9252389D01*
X7931443Y-9252389D02*
X7921920Y-9214293D01*
X7921920Y-9214293D02*
X7921920Y-9166674D01*
X7921920Y-9166674D02*
X7931443Y-9128579D01*
X7931443Y-9128579D02*
X7940967Y-9109531D01*
X7940967Y-9109531D02*
X7950491Y-9100008D01*
X7950491Y-9100008D02*
X7969539Y-9090484D01*
X8121920Y-9290484D02*
X8121920Y-9157150D01*
X8121920Y-9176198D02*
X8131443Y-9166674D01*
X8131443Y-9166674D02*
X8150491Y-9157150D01*
X8150491Y-9157150D02*
X8179063Y-9157150D01*
X8179063Y-9157150D02*
X8198110Y-9166674D01*
X8198110Y-9166674D02*
X8207634Y-9185722D01*
X8207634Y-9185722D02*
X8207634Y-9290484D01*
X8207634Y-9185722D02*
X8217158Y-9166674D01*
X8217158Y-9166674D02*
X8236205Y-9157150D01*
X8236205Y-9157150D02*
X8264777Y-9157150D01*
X8264777Y-9157150D02*
X8283824Y-9166674D01*
X8283824Y-9166674D02*
X8293348Y-9185722D01*
X8293348Y-9185722D02*
X8293348Y-9290484D01*
X8388586Y-9290484D02*
X8388586Y-9157150D01*
X8388586Y-9176198D02*
X8398110Y-9166674D01*
X8398110Y-9166674D02*
X8417158Y-9157150D01*
X8417158Y-9157150D02*
X8445729Y-9157150D01*
X8445729Y-9157150D02*
X8464777Y-9166674D01*
X8464777Y-9166674D02*
X8474301Y-9185722D01*
X8474301Y-9185722D02*
X8474301Y-9290484D01*
X8474301Y-9185722D02*
X8483825Y-9166674D01*
X8483825Y-9166674D02*
X8502872Y-9157150D01*
X8502872Y-9157150D02*
X8531444Y-9157150D01*
X8531444Y-9157150D02*
X8550491Y-9166674D01*
X8550491Y-9166674D02*
X8560015Y-9185722D01*
X8560015Y-9185722D02*
X8560015Y-9290484D01*
X8950491Y-9080960D02*
X8779063Y-9338103D01*
X9207634Y-9090484D02*
X9226682Y-9090484D01*
X9226682Y-9090484D02*
X9245729Y-9100008D01*
X9245729Y-9100008D02*
X9255253Y-9109531D01*
X9255253Y-9109531D02*
X9264777Y-9128579D01*
X9264777Y-9128579D02*
X9274301Y-9166674D01*
X9274301Y-9166674D02*
X9274301Y-9214293D01*
X9274301Y-9214293D02*
X9264777Y-9252389D01*
X9264777Y-9252389D02*
X9255253Y-9271436D01*
X9255253Y-9271436D02*
X9245729Y-9280960D01*
X9245729Y-9280960D02*
X9226682Y-9290484D01*
X9226682Y-9290484D02*
X9207634Y-9290484D01*
X9207634Y-9290484D02*
X9188587Y-9280960D01*
X9188587Y-9280960D02*
X9179063Y-9271436D01*
X9179063Y-9271436D02*
X9169539Y-9252389D01*
X9169539Y-9252389D02*
X9160015Y-9214293D01*
X9160015Y-9214293D02*
X9160015Y-9166674D01*
X9160015Y-9166674D02*
X9169539Y-9128579D01*
X9169539Y-9128579D02*
X9179063Y-9109531D01*
X9179063Y-9109531D02*
X9188587Y-9100008D01*
X9188587Y-9100008D02*
X9207634Y-9090484D01*
X9360015Y-9271436D02*
X9369539Y-9280960D01*
X9369539Y-9280960D02*
X9360015Y-9290484D01*
X9360015Y-9290484D02*
X9350491Y-9280960D01*
X9350491Y-9280960D02*
X9360015Y-9271436D01*
X9360015Y-9271436D02*
X9360015Y-9290484D01*
X9493348Y-9090484D02*
X9512396Y-9090484D01*
X9512396Y-9090484D02*
X9531444Y-9100008D01*
X9531444Y-9100008D02*
X9540968Y-9109531D01*
X9540968Y-9109531D02*
X9550491Y-9128579D01*
X9550491Y-9128579D02*
X9560015Y-9166674D01*
X9560015Y-9166674D02*
X9560015Y-9214293D01*
X9560015Y-9214293D02*
X9550491Y-9252389D01*
X9550491Y-9252389D02*
X9540968Y-9271436D01*
X9540968Y-9271436D02*
X9531444Y-9280960D01*
X9531444Y-9280960D02*
X9512396Y-9290484D01*
X9512396Y-9290484D02*
X9493348Y-9290484D01*
X9493348Y-9290484D02*
X9474301Y-9280960D01*
X9474301Y-9280960D02*
X9464777Y-9271436D01*
X9464777Y-9271436D02*
X9455253Y-9252389D01*
X9455253Y-9252389D02*
X9445729Y-9214293D01*
X9445729Y-9214293D02*
X9445729Y-9166674D01*
X9445729Y-9166674D02*
X9455253Y-9128579D01*
X9455253Y-9128579D02*
X9464777Y-9109531D01*
X9464777Y-9109531D02*
X9474301Y-9100008D01*
X9474301Y-9100008D02*
X9493348Y-9090484D01*
X9626682Y-9090484D02*
X9750491Y-9090484D01*
X9750491Y-9090484D02*
X9683825Y-9166674D01*
X9683825Y-9166674D02*
X9712396Y-9166674D01*
X9712396Y-9166674D02*
X9731444Y-9176198D01*
X9731444Y-9176198D02*
X9740968Y-9185722D01*
X9740968Y-9185722D02*
X9750491Y-9204770D01*
X9750491Y-9204770D02*
X9750491Y-9252389D01*
X9750491Y-9252389D02*
X9740968Y-9271436D01*
X9740968Y-9271436D02*
X9731444Y-9280960D01*
X9731444Y-9280960D02*
X9712396Y-9290484D01*
X9712396Y-9290484D02*
X9655253Y-9290484D01*
X9655253Y-9290484D02*
X9636206Y-9280960D01*
X9636206Y-9280960D02*
X9626682Y-9271436D01*
X9940968Y-9290484D02*
X9826682Y-9290484D01*
X9883825Y-9290484D02*
X9883825Y-9090484D01*
X9883825Y-9090484D02*
X9864777Y-9119055D01*
X9864777Y-9119055D02*
X9845729Y-9138103D01*
X9845729Y-9138103D02*
X9826682Y-9147627D01*
X10121920Y-9090484D02*
X10026682Y-9090484D01*
X10026682Y-9090484D02*
X10017158Y-9185722D01*
X10017158Y-9185722D02*
X10026682Y-9176198D01*
X10026682Y-9176198D02*
X10045729Y-9166674D01*
X10045729Y-9166674D02*
X10093349Y-9166674D01*
X10093349Y-9166674D02*
X10112396Y-9176198D01*
X10112396Y-9176198D02*
X10121920Y-9185722D01*
X10121920Y-9185722D02*
X10131444Y-9204770D01*
X10131444Y-9204770D02*
X10131444Y-9252389D01*
X10131444Y-9252389D02*
X10121920Y-9271436D01*
X10121920Y-9271436D02*
X10112396Y-9280960D01*
X10112396Y-9280960D02*
X10093349Y-9290484D01*
X10093349Y-9290484D02*
X10045729Y-9290484D01*
X10045729Y-9290484D02*
X10026682Y-9280960D01*
X10026682Y-9280960D02*
X10017158Y-9271436D01*
X10207634Y-9090484D02*
X10207634Y-9128579D01*
X10283825Y-9090484D02*
X10283825Y-9128579D01*
X10579063Y-9366674D02*
X10569539Y-9357150D01*
X10569539Y-9357150D02*
X10550491Y-9328579D01*
X10550491Y-9328579D02*
X10540968Y-9309531D01*
X10540968Y-9309531D02*
X10531444Y-9280960D01*
X10531444Y-9280960D02*
X10521920Y-9233341D01*
X10521920Y-9233341D02*
X10521920Y-9195246D01*
X10521920Y-9195246D02*
X10531444Y-9147627D01*
X10531444Y-9147627D02*
X10540968Y-9119055D01*
X10540968Y-9119055D02*
X10550491Y-9100008D01*
X10550491Y-9100008D02*
X10569539Y-9071436D01*
X10569539Y-9071436D02*
X10579063Y-9061912D01*
X10645730Y-9109531D02*
X10655253Y-9100008D01*
X10655253Y-9100008D02*
X10674301Y-9090484D01*
X10674301Y-9090484D02*
X10721920Y-9090484D01*
X10721920Y-9090484D02*
X10740968Y-9100008D01*
X10740968Y-9100008D02*
X10750491Y-9109531D01*
X10750491Y-9109531D02*
X10760015Y-9128579D01*
X10760015Y-9128579D02*
X10760015Y-9147627D01*
X10760015Y-9147627D02*
X10750491Y-9176198D01*
X10750491Y-9176198D02*
X10636206Y-9290484D01*
X10636206Y-9290484D02*
X10760015Y-9290484D01*
X10931444Y-9157150D02*
X10931444Y-9290484D01*
X10883825Y-9080960D02*
X10836206Y-9223817D01*
X10836206Y-9223817D02*
X10960015Y-9223817D01*
X11188587Y-9290484D02*
X11188587Y-9090484D01*
X11274301Y-9290484D02*
X11274301Y-9185722D01*
X11274301Y-9185722D02*
X11264777Y-9166674D01*
X11264777Y-9166674D02*
X11245730Y-9157150D01*
X11245730Y-9157150D02*
X11217158Y-9157150D01*
X11217158Y-9157150D02*
X11198110Y-9166674D01*
X11198110Y-9166674D02*
X11188587Y-9176198D01*
X11398110Y-9290484D02*
X11379063Y-9280960D01*
X11379063Y-9280960D02*
X11369539Y-9271436D01*
X11369539Y-9271436D02*
X11360015Y-9252389D01*
X11360015Y-9252389D02*
X11360015Y-9195246D01*
X11360015Y-9195246D02*
X11369539Y-9176198D01*
X11369539Y-9176198D02*
X11379063Y-9166674D01*
X11379063Y-9166674D02*
X11398110Y-9157150D01*
X11398110Y-9157150D02*
X11426682Y-9157150D01*
X11426682Y-9157150D02*
X11445730Y-9166674D01*
X11445730Y-9166674D02*
X11455253Y-9176198D01*
X11455253Y-9176198D02*
X11464777Y-9195246D01*
X11464777Y-9195246D02*
X11464777Y-9252389D01*
X11464777Y-9252389D02*
X11455253Y-9271436D01*
X11455253Y-9271436D02*
X11445730Y-9280960D01*
X11445730Y-9280960D02*
X11426682Y-9290484D01*
X11426682Y-9290484D02*
X11398110Y-9290484D01*
X11579063Y-9290484D02*
X11560015Y-9280960D01*
X11560015Y-9280960D02*
X11550491Y-9261912D01*
X11550491Y-9261912D02*
X11550491Y-9090484D01*
X11731444Y-9280960D02*
X11712396Y-9290484D01*
X11712396Y-9290484D02*
X11674301Y-9290484D01*
X11674301Y-9290484D02*
X11655253Y-9280960D01*
X11655253Y-9280960D02*
X11645730Y-9261912D01*
X11645730Y-9261912D02*
X11645730Y-9185722D01*
X11645730Y-9185722D02*
X11655253Y-9166674D01*
X11655253Y-9166674D02*
X11674301Y-9157150D01*
X11674301Y-9157150D02*
X11712396Y-9157150D01*
X11712396Y-9157150D02*
X11731444Y-9166674D01*
X11731444Y-9166674D02*
X11740968Y-9185722D01*
X11740968Y-9185722D02*
X11740968Y-9204770D01*
X11740968Y-9204770D02*
X11645730Y-9223817D01*
X11817158Y-9280960D02*
X11836206Y-9290484D01*
X11836206Y-9290484D02*
X11874301Y-9290484D01*
X11874301Y-9290484D02*
X11893349Y-9280960D01*
X11893349Y-9280960D02*
X11902872Y-9261912D01*
X11902872Y-9261912D02*
X11902872Y-9252389D01*
X11902872Y-9252389D02*
X11893349Y-9233341D01*
X11893349Y-9233341D02*
X11874301Y-9223817D01*
X11874301Y-9223817D02*
X11845730Y-9223817D01*
X11845730Y-9223817D02*
X11826682Y-9214293D01*
X11826682Y-9214293D02*
X11817158Y-9195246D01*
X11817158Y-9195246D02*
X11817158Y-9185722D01*
X11817158Y-9185722D02*
X11826682Y-9166674D01*
X11826682Y-9166674D02*
X11845730Y-9157150D01*
X11845730Y-9157150D02*
X11874301Y-9157150D01*
X11874301Y-9157150D02*
X11893349Y-9166674D01*
X11969539Y-9366674D02*
X11979063Y-9357150D01*
X11979063Y-9357150D02*
X11998111Y-9328579D01*
X11998111Y-9328579D02*
X12007634Y-9309531D01*
X12007634Y-9309531D02*
X12017158Y-9280960D01*
X12017158Y-9280960D02*
X12026682Y-9233341D01*
X12026682Y-9233341D02*
X12026682Y-9195246D01*
X12026682Y-9195246D02*
X12017158Y-9147627D01*
X12017158Y-9147627D02*
X12007634Y-9119055D01*
X12007634Y-9119055D02*
X11998111Y-9100008D01*
X11998111Y-9100008D02*
X11979063Y-9071436D01*
X11979063Y-9071436D02*
X11969539Y-9061912D01*
D14*
X6954000Y-9413000D02*
X6954000Y-9513000D01*
X6904000Y-9463000D02*
X7004000Y-9463000D01*
D11*
X7369539Y-9554484D02*
X7255253Y-9554484D01*
X7312396Y-9554484D02*
X7312396Y-9354484D01*
X7312396Y-9354484D02*
X7293348Y-9383055D01*
X7293348Y-9383055D02*
X7274301Y-9402103D01*
X7274301Y-9402103D02*
X7255253Y-9411627D01*
X7455253Y-9535436D02*
X7464777Y-9544960D01*
X7464777Y-9544960D02*
X7455253Y-9554484D01*
X7455253Y-9554484D02*
X7445729Y-9544960D01*
X7445729Y-9544960D02*
X7455253Y-9535436D01*
X7455253Y-9535436D02*
X7455253Y-9554484D01*
X7588586Y-9354484D02*
X7607634Y-9354484D01*
X7607634Y-9354484D02*
X7626682Y-9364008D01*
X7626682Y-9364008D02*
X7636205Y-9373531D01*
X7636205Y-9373531D02*
X7645729Y-9392579D01*
X7645729Y-9392579D02*
X7655253Y-9430674D01*
X7655253Y-9430674D02*
X7655253Y-9478293D01*
X7655253Y-9478293D02*
X7645729Y-9516389D01*
X7645729Y-9516389D02*
X7636205Y-9535436D01*
X7636205Y-9535436D02*
X7626682Y-9544960D01*
X7626682Y-9544960D02*
X7607634Y-9554484D01*
X7607634Y-9554484D02*
X7588586Y-9554484D01*
X7588586Y-9554484D02*
X7569539Y-9544960D01*
X7569539Y-9544960D02*
X7560015Y-9535436D01*
X7560015Y-9535436D02*
X7550491Y-9516389D01*
X7550491Y-9516389D02*
X7540967Y-9478293D01*
X7540967Y-9478293D02*
X7540967Y-9430674D01*
X7540967Y-9430674D02*
X7550491Y-9392579D01*
X7550491Y-9392579D02*
X7560015Y-9373531D01*
X7560015Y-9373531D02*
X7569539Y-9364008D01*
X7569539Y-9364008D02*
X7588586Y-9354484D01*
X7779062Y-9354484D02*
X7798110Y-9354484D01*
X7798110Y-9354484D02*
X7817158Y-9364008D01*
X7817158Y-9364008D02*
X7826682Y-9373531D01*
X7826682Y-9373531D02*
X7836205Y-9392579D01*
X7836205Y-9392579D02*
X7845729Y-9430674D01*
X7845729Y-9430674D02*
X7845729Y-9478293D01*
X7845729Y-9478293D02*
X7836205Y-9516389D01*
X7836205Y-9516389D02*
X7826682Y-9535436D01*
X7826682Y-9535436D02*
X7817158Y-9544960D01*
X7817158Y-9544960D02*
X7798110Y-9554484D01*
X7798110Y-9554484D02*
X7779062Y-9554484D01*
X7779062Y-9554484D02*
X7760015Y-9544960D01*
X7760015Y-9544960D02*
X7750491Y-9535436D01*
X7750491Y-9535436D02*
X7740967Y-9516389D01*
X7740967Y-9516389D02*
X7731443Y-9478293D01*
X7731443Y-9478293D02*
X7731443Y-9430674D01*
X7731443Y-9430674D02*
X7740967Y-9392579D01*
X7740967Y-9392579D02*
X7750491Y-9373531D01*
X7750491Y-9373531D02*
X7760015Y-9364008D01*
X7760015Y-9364008D02*
X7779062Y-9354484D01*
X7969539Y-9354484D02*
X7988586Y-9354484D01*
X7988586Y-9354484D02*
X8007634Y-9364008D01*
X8007634Y-9364008D02*
X8017158Y-9373531D01*
X8017158Y-9373531D02*
X8026682Y-9392579D01*
X8026682Y-9392579D02*
X8036205Y-9430674D01*
X8036205Y-9430674D02*
X8036205Y-9478293D01*
X8036205Y-9478293D02*
X8026682Y-9516389D01*
X8026682Y-9516389D02*
X8017158Y-9535436D01*
X8017158Y-9535436D02*
X8007634Y-9544960D01*
X8007634Y-9544960D02*
X7988586Y-9554484D01*
X7988586Y-9554484D02*
X7969539Y-9554484D01*
X7969539Y-9554484D02*
X7950491Y-9544960D01*
X7950491Y-9544960D02*
X7940967Y-9535436D01*
X7940967Y-9535436D02*
X7931443Y-9516389D01*
X7931443Y-9516389D02*
X7921920Y-9478293D01*
X7921920Y-9478293D02*
X7921920Y-9430674D01*
X7921920Y-9430674D02*
X7931443Y-9392579D01*
X7931443Y-9392579D02*
X7940967Y-9373531D01*
X7940967Y-9373531D02*
X7950491Y-9364008D01*
X7950491Y-9364008D02*
X7969539Y-9354484D01*
X8121920Y-9554484D02*
X8121920Y-9421150D01*
X8121920Y-9440198D02*
X8131443Y-9430674D01*
X8131443Y-9430674D02*
X8150491Y-9421150D01*
X8150491Y-9421150D02*
X8179063Y-9421150D01*
X8179063Y-9421150D02*
X8198110Y-9430674D01*
X8198110Y-9430674D02*
X8207634Y-9449722D01*
X8207634Y-9449722D02*
X8207634Y-9554484D01*
X8207634Y-9449722D02*
X8217158Y-9430674D01*
X8217158Y-9430674D02*
X8236205Y-9421150D01*
X8236205Y-9421150D02*
X8264777Y-9421150D01*
X8264777Y-9421150D02*
X8283824Y-9430674D01*
X8283824Y-9430674D02*
X8293348Y-9449722D01*
X8293348Y-9449722D02*
X8293348Y-9554484D01*
X8388586Y-9554484D02*
X8388586Y-9421150D01*
X8388586Y-9440198D02*
X8398110Y-9430674D01*
X8398110Y-9430674D02*
X8417158Y-9421150D01*
X8417158Y-9421150D02*
X8445729Y-9421150D01*
X8445729Y-9421150D02*
X8464777Y-9430674D01*
X8464777Y-9430674D02*
X8474301Y-9449722D01*
X8474301Y-9449722D02*
X8474301Y-9554484D01*
X8474301Y-9449722D02*
X8483825Y-9430674D01*
X8483825Y-9430674D02*
X8502872Y-9421150D01*
X8502872Y-9421150D02*
X8531444Y-9421150D01*
X8531444Y-9421150D02*
X8550491Y-9430674D01*
X8550491Y-9430674D02*
X8560015Y-9449722D01*
X8560015Y-9449722D02*
X8560015Y-9554484D01*
X8950491Y-9344960D02*
X8779063Y-9602103D01*
X9207634Y-9354484D02*
X9226682Y-9354484D01*
X9226682Y-9354484D02*
X9245729Y-9364008D01*
X9245729Y-9364008D02*
X9255253Y-9373531D01*
X9255253Y-9373531D02*
X9264777Y-9392579D01*
X9264777Y-9392579D02*
X9274301Y-9430674D01*
X9274301Y-9430674D02*
X9274301Y-9478293D01*
X9274301Y-9478293D02*
X9264777Y-9516389D01*
X9264777Y-9516389D02*
X9255253Y-9535436D01*
X9255253Y-9535436D02*
X9245729Y-9544960D01*
X9245729Y-9544960D02*
X9226682Y-9554484D01*
X9226682Y-9554484D02*
X9207634Y-9554484D01*
X9207634Y-9554484D02*
X9188587Y-9544960D01*
X9188587Y-9544960D02*
X9179063Y-9535436D01*
X9179063Y-9535436D02*
X9169539Y-9516389D01*
X9169539Y-9516389D02*
X9160015Y-9478293D01*
X9160015Y-9478293D02*
X9160015Y-9430674D01*
X9160015Y-9430674D02*
X9169539Y-9392579D01*
X9169539Y-9392579D02*
X9179063Y-9373531D01*
X9179063Y-9373531D02*
X9188587Y-9364008D01*
X9188587Y-9364008D02*
X9207634Y-9354484D01*
X9360015Y-9535436D02*
X9369539Y-9544960D01*
X9369539Y-9544960D02*
X9360015Y-9554484D01*
X9360015Y-9554484D02*
X9350491Y-9544960D01*
X9350491Y-9544960D02*
X9360015Y-9535436D01*
X9360015Y-9535436D02*
X9360015Y-9554484D01*
X9493348Y-9354484D02*
X9512396Y-9354484D01*
X9512396Y-9354484D02*
X9531444Y-9364008D01*
X9531444Y-9364008D02*
X9540968Y-9373531D01*
X9540968Y-9373531D02*
X9550491Y-9392579D01*
X9550491Y-9392579D02*
X9560015Y-9430674D01*
X9560015Y-9430674D02*
X9560015Y-9478293D01*
X9560015Y-9478293D02*
X9550491Y-9516389D01*
X9550491Y-9516389D02*
X9540968Y-9535436D01*
X9540968Y-9535436D02*
X9531444Y-9544960D01*
X9531444Y-9544960D02*
X9512396Y-9554484D01*
X9512396Y-9554484D02*
X9493348Y-9554484D01*
X9493348Y-9554484D02*
X9474301Y-9544960D01*
X9474301Y-9544960D02*
X9464777Y-9535436D01*
X9464777Y-9535436D02*
X9455253Y-9516389D01*
X9455253Y-9516389D02*
X9445729Y-9478293D01*
X9445729Y-9478293D02*
X9445729Y-9430674D01*
X9445729Y-9430674D02*
X9455253Y-9392579D01*
X9455253Y-9392579D02*
X9464777Y-9373531D01*
X9464777Y-9373531D02*
X9474301Y-9364008D01*
X9474301Y-9364008D02*
X9493348Y-9354484D01*
X9626682Y-9354484D02*
X9750491Y-9354484D01*
X9750491Y-9354484D02*
X9683825Y-9430674D01*
X9683825Y-9430674D02*
X9712396Y-9430674D01*
X9712396Y-9430674D02*
X9731444Y-9440198D01*
X9731444Y-9440198D02*
X9740968Y-9449722D01*
X9740968Y-9449722D02*
X9750491Y-9468770D01*
X9750491Y-9468770D02*
X9750491Y-9516389D01*
X9750491Y-9516389D02*
X9740968Y-9535436D01*
X9740968Y-9535436D02*
X9731444Y-9544960D01*
X9731444Y-9544960D02*
X9712396Y-9554484D01*
X9712396Y-9554484D02*
X9655253Y-9554484D01*
X9655253Y-9554484D02*
X9636206Y-9544960D01*
X9636206Y-9544960D02*
X9626682Y-9535436D01*
X9845729Y-9554484D02*
X9883825Y-9554484D01*
X9883825Y-9554484D02*
X9902872Y-9544960D01*
X9902872Y-9544960D02*
X9912396Y-9535436D01*
X9912396Y-9535436D02*
X9931444Y-9506865D01*
X9931444Y-9506865D02*
X9940968Y-9468770D01*
X9940968Y-9468770D02*
X9940968Y-9392579D01*
X9940968Y-9392579D02*
X9931444Y-9373531D01*
X9931444Y-9373531D02*
X9921920Y-9364008D01*
X9921920Y-9364008D02*
X9902872Y-9354484D01*
X9902872Y-9354484D02*
X9864777Y-9354484D01*
X9864777Y-9354484D02*
X9845729Y-9364008D01*
X9845729Y-9364008D02*
X9836206Y-9373531D01*
X9836206Y-9373531D02*
X9826682Y-9392579D01*
X9826682Y-9392579D02*
X9826682Y-9440198D01*
X9826682Y-9440198D02*
X9836206Y-9459246D01*
X9836206Y-9459246D02*
X9845729Y-9468770D01*
X9845729Y-9468770D02*
X9864777Y-9478293D01*
X9864777Y-9478293D02*
X9902872Y-9478293D01*
X9902872Y-9478293D02*
X9921920Y-9468770D01*
X9921920Y-9468770D02*
X9931444Y-9459246D01*
X9931444Y-9459246D02*
X9940968Y-9440198D01*
X10112396Y-9421150D02*
X10112396Y-9554484D01*
X10064777Y-9344960D02*
X10017158Y-9487817D01*
X10017158Y-9487817D02*
X10140968Y-9487817D01*
X10207634Y-9354484D02*
X10207634Y-9392579D01*
X10283825Y-9354484D02*
X10283825Y-9392579D01*
X10579063Y-9630674D02*
X10569539Y-9621150D01*
X10569539Y-9621150D02*
X10550491Y-9592579D01*
X10550491Y-9592579D02*
X10540968Y-9573531D01*
X10540968Y-9573531D02*
X10531444Y-9544960D01*
X10531444Y-9544960D02*
X10521920Y-9497341D01*
X10521920Y-9497341D02*
X10521920Y-9459246D01*
X10521920Y-9459246D02*
X10531444Y-9411627D01*
X10531444Y-9411627D02*
X10540968Y-9383055D01*
X10540968Y-9383055D02*
X10550491Y-9364008D01*
X10550491Y-9364008D02*
X10569539Y-9335436D01*
X10569539Y-9335436D02*
X10579063Y-9325912D01*
X10645730Y-9373531D02*
X10655253Y-9364008D01*
X10655253Y-9364008D02*
X10674301Y-9354484D01*
X10674301Y-9354484D02*
X10721920Y-9354484D01*
X10721920Y-9354484D02*
X10740968Y-9364008D01*
X10740968Y-9364008D02*
X10750491Y-9373531D01*
X10750491Y-9373531D02*
X10760015Y-9392579D01*
X10760015Y-9392579D02*
X10760015Y-9411627D01*
X10760015Y-9411627D02*
X10750491Y-9440198D01*
X10750491Y-9440198D02*
X10636206Y-9554484D01*
X10636206Y-9554484D02*
X10760015Y-9554484D01*
X10883825Y-9354484D02*
X10902872Y-9354484D01*
X10902872Y-9354484D02*
X10921920Y-9364008D01*
X10921920Y-9364008D02*
X10931444Y-9373531D01*
X10931444Y-9373531D02*
X10940968Y-9392579D01*
X10940968Y-9392579D02*
X10950491Y-9430674D01*
X10950491Y-9430674D02*
X10950491Y-9478293D01*
X10950491Y-9478293D02*
X10940968Y-9516389D01*
X10940968Y-9516389D02*
X10931444Y-9535436D01*
X10931444Y-9535436D02*
X10921920Y-9544960D01*
X10921920Y-9544960D02*
X10902872Y-9554484D01*
X10902872Y-9554484D02*
X10883825Y-9554484D01*
X10883825Y-9554484D02*
X10864777Y-9544960D01*
X10864777Y-9544960D02*
X10855253Y-9535436D01*
X10855253Y-9535436D02*
X10845730Y-9516389D01*
X10845730Y-9516389D02*
X10836206Y-9478293D01*
X10836206Y-9478293D02*
X10836206Y-9430674D01*
X10836206Y-9430674D02*
X10845730Y-9392579D01*
X10845730Y-9392579D02*
X10855253Y-9373531D01*
X10855253Y-9373531D02*
X10864777Y-9364008D01*
X10864777Y-9364008D02*
X10883825Y-9354484D01*
X11188587Y-9554484D02*
X11188587Y-9354484D01*
X11274301Y-9554484D02*
X11274301Y-9449722D01*
X11274301Y-9449722D02*
X11264777Y-9430674D01*
X11264777Y-9430674D02*
X11245730Y-9421150D01*
X11245730Y-9421150D02*
X11217158Y-9421150D01*
X11217158Y-9421150D02*
X11198110Y-9430674D01*
X11198110Y-9430674D02*
X11188587Y-9440198D01*
X11398110Y-9554484D02*
X11379063Y-9544960D01*
X11379063Y-9544960D02*
X11369539Y-9535436D01*
X11369539Y-9535436D02*
X11360015Y-9516389D01*
X11360015Y-9516389D02*
X11360015Y-9459246D01*
X11360015Y-9459246D02*
X11369539Y-9440198D01*
X11369539Y-9440198D02*
X11379063Y-9430674D01*
X11379063Y-9430674D02*
X11398110Y-9421150D01*
X11398110Y-9421150D02*
X11426682Y-9421150D01*
X11426682Y-9421150D02*
X11445730Y-9430674D01*
X11445730Y-9430674D02*
X11455253Y-9440198D01*
X11455253Y-9440198D02*
X11464777Y-9459246D01*
X11464777Y-9459246D02*
X11464777Y-9516389D01*
X11464777Y-9516389D02*
X11455253Y-9535436D01*
X11455253Y-9535436D02*
X11445730Y-9544960D01*
X11445730Y-9544960D02*
X11426682Y-9554484D01*
X11426682Y-9554484D02*
X11398110Y-9554484D01*
X11579063Y-9554484D02*
X11560015Y-9544960D01*
X11560015Y-9544960D02*
X11550491Y-9525912D01*
X11550491Y-9525912D02*
X11550491Y-9354484D01*
X11731444Y-9544960D02*
X11712396Y-9554484D01*
X11712396Y-9554484D02*
X11674301Y-9554484D01*
X11674301Y-9554484D02*
X11655253Y-9544960D01*
X11655253Y-9544960D02*
X11645730Y-9525912D01*
X11645730Y-9525912D02*
X11645730Y-9449722D01*
X11645730Y-9449722D02*
X11655253Y-9430674D01*
X11655253Y-9430674D02*
X11674301Y-9421150D01*
X11674301Y-9421150D02*
X11712396Y-9421150D01*
X11712396Y-9421150D02*
X11731444Y-9430674D01*
X11731444Y-9430674D02*
X11740968Y-9449722D01*
X11740968Y-9449722D02*
X11740968Y-9468770D01*
X11740968Y-9468770D02*
X11645730Y-9487817D01*
X11817158Y-9544960D02*
X11836206Y-9554484D01*
X11836206Y-9554484D02*
X11874301Y-9554484D01*
X11874301Y-9554484D02*
X11893349Y-9544960D01*
X11893349Y-9544960D02*
X11902872Y-9525912D01*
X11902872Y-9525912D02*
X11902872Y-9516389D01*
X11902872Y-9516389D02*
X11893349Y-9497341D01*
X11893349Y-9497341D02*
X11874301Y-9487817D01*
X11874301Y-9487817D02*
X11845730Y-9487817D01*
X11845730Y-9487817D02*
X11826682Y-9478293D01*
X11826682Y-9478293D02*
X11817158Y-9459246D01*
X11817158Y-9459246D02*
X11817158Y-9449722D01*
X11817158Y-9449722D02*
X11826682Y-9430674D01*
X11826682Y-9430674D02*
X11845730Y-9421150D01*
X11845730Y-9421150D02*
X11874301Y-9421150D01*
X11874301Y-9421150D02*
X11893349Y-9430674D01*
X11969539Y-9630674D02*
X11979063Y-9621150D01*
X11979063Y-9621150D02*
X11998111Y-9592579D01*
X11998111Y-9592579D02*
X12007634Y-9573531D01*
X12007634Y-9573531D02*
X12017158Y-9544960D01*
X12017158Y-9544960D02*
X12026682Y-9497341D01*
X12026682Y-9497341D02*
X12026682Y-9459246D01*
X12026682Y-9459246D02*
X12017158Y-9411627D01*
X12017158Y-9411627D02*
X12007634Y-9383055D01*
X12007634Y-9383055D02*
X11998111Y-9364008D01*
X11998111Y-9364008D02*
X11979063Y-9335436D01*
X11979063Y-9335436D02*
X11969539Y-9325912D01*
D15*
X6988005Y-9765616D02*
X6988005Y-9688385D01*
X6910774Y-9688385D01*
X6910774Y-9765616D01*
X6988005Y-9765616D01*
D11*
X7369539Y-9818484D02*
X7255253Y-9818484D01*
X7312396Y-9818484D02*
X7312396Y-9618484D01*
X7312396Y-9618484D02*
X7293348Y-9647055D01*
X7293348Y-9647055D02*
X7274301Y-9666103D01*
X7274301Y-9666103D02*
X7255253Y-9675627D01*
X7455253Y-9799436D02*
X7464777Y-9808960D01*
X7464777Y-9808960D02*
X7455253Y-9818484D01*
X7455253Y-9818484D02*
X7445729Y-9808960D01*
X7445729Y-9808960D02*
X7455253Y-9799436D01*
X7455253Y-9799436D02*
X7455253Y-9818484D01*
X7588586Y-9618484D02*
X7607634Y-9618484D01*
X7607634Y-9618484D02*
X7626682Y-9628008D01*
X7626682Y-9628008D02*
X7636205Y-9637531D01*
X7636205Y-9637531D02*
X7645729Y-9656579D01*
X7645729Y-9656579D02*
X7655253Y-9694674D01*
X7655253Y-9694674D02*
X7655253Y-9742293D01*
X7655253Y-9742293D02*
X7645729Y-9780389D01*
X7645729Y-9780389D02*
X7636205Y-9799436D01*
X7636205Y-9799436D02*
X7626682Y-9808960D01*
X7626682Y-9808960D02*
X7607634Y-9818484D01*
X7607634Y-9818484D02*
X7588586Y-9818484D01*
X7588586Y-9818484D02*
X7569539Y-9808960D01*
X7569539Y-9808960D02*
X7560015Y-9799436D01*
X7560015Y-9799436D02*
X7550491Y-9780389D01*
X7550491Y-9780389D02*
X7540967Y-9742293D01*
X7540967Y-9742293D02*
X7540967Y-9694674D01*
X7540967Y-9694674D02*
X7550491Y-9656579D01*
X7550491Y-9656579D02*
X7560015Y-9637531D01*
X7560015Y-9637531D02*
X7569539Y-9628008D01*
X7569539Y-9628008D02*
X7588586Y-9618484D01*
X7750491Y-9818484D02*
X7788586Y-9818484D01*
X7788586Y-9818484D02*
X7807634Y-9808960D01*
X7807634Y-9808960D02*
X7817158Y-9799436D01*
X7817158Y-9799436D02*
X7836205Y-9770865D01*
X7836205Y-9770865D02*
X7845729Y-9732770D01*
X7845729Y-9732770D02*
X7845729Y-9656579D01*
X7845729Y-9656579D02*
X7836205Y-9637531D01*
X7836205Y-9637531D02*
X7826682Y-9628008D01*
X7826682Y-9628008D02*
X7807634Y-9618484D01*
X7807634Y-9618484D02*
X7769539Y-9618484D01*
X7769539Y-9618484D02*
X7750491Y-9628008D01*
X7750491Y-9628008D02*
X7740967Y-9637531D01*
X7740967Y-9637531D02*
X7731443Y-9656579D01*
X7731443Y-9656579D02*
X7731443Y-9704198D01*
X7731443Y-9704198D02*
X7740967Y-9723246D01*
X7740967Y-9723246D02*
X7750491Y-9732770D01*
X7750491Y-9732770D02*
X7769539Y-9742293D01*
X7769539Y-9742293D02*
X7807634Y-9742293D01*
X7807634Y-9742293D02*
X7826682Y-9732770D01*
X7826682Y-9732770D02*
X7836205Y-9723246D01*
X7836205Y-9723246D02*
X7845729Y-9704198D01*
X7921920Y-9637531D02*
X7931443Y-9628008D01*
X7931443Y-9628008D02*
X7950491Y-9618484D01*
X7950491Y-9618484D02*
X7998110Y-9618484D01*
X7998110Y-9618484D02*
X8017158Y-9628008D01*
X8017158Y-9628008D02*
X8026682Y-9637531D01*
X8026682Y-9637531D02*
X8036205Y-9656579D01*
X8036205Y-9656579D02*
X8036205Y-9675627D01*
X8036205Y-9675627D02*
X8026682Y-9704198D01*
X8026682Y-9704198D02*
X7912396Y-9818484D01*
X7912396Y-9818484D02*
X8036205Y-9818484D01*
X8121920Y-9818484D02*
X8121920Y-9685150D01*
X8121920Y-9704198D02*
X8131443Y-9694674D01*
X8131443Y-9694674D02*
X8150491Y-9685150D01*
X8150491Y-9685150D02*
X8179063Y-9685150D01*
X8179063Y-9685150D02*
X8198110Y-9694674D01*
X8198110Y-9694674D02*
X8207634Y-9713722D01*
X8207634Y-9713722D02*
X8207634Y-9818484D01*
X8207634Y-9713722D02*
X8217158Y-9694674D01*
X8217158Y-9694674D02*
X8236205Y-9685150D01*
X8236205Y-9685150D02*
X8264777Y-9685150D01*
X8264777Y-9685150D02*
X8283824Y-9694674D01*
X8283824Y-9694674D02*
X8293348Y-9713722D01*
X8293348Y-9713722D02*
X8293348Y-9818484D01*
X8388586Y-9818484D02*
X8388586Y-9685150D01*
X8388586Y-9704198D02*
X8398110Y-9694674D01*
X8398110Y-9694674D02*
X8417158Y-9685150D01*
X8417158Y-9685150D02*
X8445729Y-9685150D01*
X8445729Y-9685150D02*
X8464777Y-9694674D01*
X8464777Y-9694674D02*
X8474301Y-9713722D01*
X8474301Y-9713722D02*
X8474301Y-9818484D01*
X8474301Y-9713722D02*
X8483825Y-9694674D01*
X8483825Y-9694674D02*
X8502872Y-9685150D01*
X8502872Y-9685150D02*
X8531444Y-9685150D01*
X8531444Y-9685150D02*
X8550491Y-9694674D01*
X8550491Y-9694674D02*
X8560015Y-9713722D01*
X8560015Y-9713722D02*
X8560015Y-9818484D01*
X8950491Y-9608960D02*
X8779063Y-9866103D01*
X9207634Y-9618484D02*
X9226682Y-9618484D01*
X9226682Y-9618484D02*
X9245729Y-9628008D01*
X9245729Y-9628008D02*
X9255253Y-9637531D01*
X9255253Y-9637531D02*
X9264777Y-9656579D01*
X9264777Y-9656579D02*
X9274301Y-9694674D01*
X9274301Y-9694674D02*
X9274301Y-9742293D01*
X9274301Y-9742293D02*
X9264777Y-9780389D01*
X9264777Y-9780389D02*
X9255253Y-9799436D01*
X9255253Y-9799436D02*
X9245729Y-9808960D01*
X9245729Y-9808960D02*
X9226682Y-9818484D01*
X9226682Y-9818484D02*
X9207634Y-9818484D01*
X9207634Y-9818484D02*
X9188587Y-9808960D01*
X9188587Y-9808960D02*
X9179063Y-9799436D01*
X9179063Y-9799436D02*
X9169539Y-9780389D01*
X9169539Y-9780389D02*
X9160015Y-9742293D01*
X9160015Y-9742293D02*
X9160015Y-9694674D01*
X9160015Y-9694674D02*
X9169539Y-9656579D01*
X9169539Y-9656579D02*
X9179063Y-9637531D01*
X9179063Y-9637531D02*
X9188587Y-9628008D01*
X9188587Y-9628008D02*
X9207634Y-9618484D01*
X9360015Y-9799436D02*
X9369539Y-9808960D01*
X9369539Y-9808960D02*
X9360015Y-9818484D01*
X9360015Y-9818484D02*
X9350491Y-9808960D01*
X9350491Y-9808960D02*
X9360015Y-9799436D01*
X9360015Y-9799436D02*
X9360015Y-9818484D01*
X9493348Y-9618484D02*
X9512396Y-9618484D01*
X9512396Y-9618484D02*
X9531444Y-9628008D01*
X9531444Y-9628008D02*
X9540968Y-9637531D01*
X9540968Y-9637531D02*
X9550491Y-9656579D01*
X9550491Y-9656579D02*
X9560015Y-9694674D01*
X9560015Y-9694674D02*
X9560015Y-9742293D01*
X9560015Y-9742293D02*
X9550491Y-9780389D01*
X9550491Y-9780389D02*
X9540968Y-9799436D01*
X9540968Y-9799436D02*
X9531444Y-9808960D01*
X9531444Y-9808960D02*
X9512396Y-9818484D01*
X9512396Y-9818484D02*
X9493348Y-9818484D01*
X9493348Y-9818484D02*
X9474301Y-9808960D01*
X9474301Y-9808960D02*
X9464777Y-9799436D01*
X9464777Y-9799436D02*
X9455253Y-9780389D01*
X9455253Y-9780389D02*
X9445729Y-9742293D01*
X9445729Y-9742293D02*
X9445729Y-9694674D01*
X9445729Y-9694674D02*
X9455253Y-9656579D01*
X9455253Y-9656579D02*
X9464777Y-9637531D01*
X9464777Y-9637531D02*
X9474301Y-9628008D01*
X9474301Y-9628008D02*
X9493348Y-9618484D01*
X9731444Y-9685150D02*
X9731444Y-9818484D01*
X9683825Y-9608960D02*
X9636206Y-9751817D01*
X9636206Y-9751817D02*
X9760015Y-9751817D01*
X9817158Y-9618484D02*
X9940968Y-9618484D01*
X9940968Y-9618484D02*
X9874301Y-9694674D01*
X9874301Y-9694674D02*
X9902872Y-9694674D01*
X9902872Y-9694674D02*
X9921920Y-9704198D01*
X9921920Y-9704198D02*
X9931444Y-9713722D01*
X9931444Y-9713722D02*
X9940968Y-9732770D01*
X9940968Y-9732770D02*
X9940968Y-9780389D01*
X9940968Y-9780389D02*
X9931444Y-9799436D01*
X9931444Y-9799436D02*
X9921920Y-9808960D01*
X9921920Y-9808960D02*
X9902872Y-9818484D01*
X9902872Y-9818484D02*
X9845729Y-9818484D01*
X9845729Y-9818484D02*
X9826682Y-9808960D01*
X9826682Y-9808960D02*
X9817158Y-9799436D01*
X10064777Y-9618484D02*
X10083825Y-9618484D01*
X10083825Y-9618484D02*
X10102872Y-9628008D01*
X10102872Y-9628008D02*
X10112396Y-9637531D01*
X10112396Y-9637531D02*
X10121920Y-9656579D01*
X10121920Y-9656579D02*
X10131444Y-9694674D01*
X10131444Y-9694674D02*
X10131444Y-9742293D01*
X10131444Y-9742293D02*
X10121920Y-9780389D01*
X10121920Y-9780389D02*
X10112396Y-9799436D01*
X10112396Y-9799436D02*
X10102872Y-9808960D01*
X10102872Y-9808960D02*
X10083825Y-9818484D01*
X10083825Y-9818484D02*
X10064777Y-9818484D01*
X10064777Y-9818484D02*
X10045729Y-9808960D01*
X10045729Y-9808960D02*
X10036206Y-9799436D01*
X10036206Y-9799436D02*
X10026682Y-9780389D01*
X10026682Y-9780389D02*
X10017158Y-9742293D01*
X10017158Y-9742293D02*
X10017158Y-9694674D01*
X10017158Y-9694674D02*
X10026682Y-9656579D01*
X10026682Y-9656579D02*
X10036206Y-9637531D01*
X10036206Y-9637531D02*
X10045729Y-9628008D01*
X10045729Y-9628008D02*
X10064777Y-9618484D01*
X10207634Y-9618484D02*
X10207634Y-9656579D01*
X10283825Y-9618484D02*
X10283825Y-9656579D01*
X10579063Y-9894674D02*
X10569539Y-9885150D01*
X10569539Y-9885150D02*
X10550491Y-9856579D01*
X10550491Y-9856579D02*
X10540968Y-9837531D01*
X10540968Y-9837531D02*
X10531444Y-9808960D01*
X10531444Y-9808960D02*
X10521920Y-9761341D01*
X10521920Y-9761341D02*
X10521920Y-9723246D01*
X10521920Y-9723246D02*
X10531444Y-9675627D01*
X10531444Y-9675627D02*
X10540968Y-9647055D01*
X10540968Y-9647055D02*
X10550491Y-9628008D01*
X10550491Y-9628008D02*
X10569539Y-9599436D01*
X10569539Y-9599436D02*
X10579063Y-9589912D01*
X10645730Y-9637531D02*
X10655253Y-9628008D01*
X10655253Y-9628008D02*
X10674301Y-9618484D01*
X10674301Y-9618484D02*
X10721920Y-9618484D01*
X10721920Y-9618484D02*
X10740968Y-9628008D01*
X10740968Y-9628008D02*
X10750491Y-9637531D01*
X10750491Y-9637531D02*
X10760015Y-9656579D01*
X10760015Y-9656579D02*
X10760015Y-9675627D01*
X10760015Y-9675627D02*
X10750491Y-9704198D01*
X10750491Y-9704198D02*
X10636206Y-9818484D01*
X10636206Y-9818484D02*
X10760015Y-9818484D01*
X10826682Y-9618484D02*
X10950491Y-9618484D01*
X10950491Y-9618484D02*
X10883825Y-9694674D01*
X10883825Y-9694674D02*
X10912396Y-9694674D01*
X10912396Y-9694674D02*
X10931444Y-9704198D01*
X10931444Y-9704198D02*
X10940968Y-9713722D01*
X10940968Y-9713722D02*
X10950491Y-9732770D01*
X10950491Y-9732770D02*
X10950491Y-9780389D01*
X10950491Y-9780389D02*
X10940968Y-9799436D01*
X10940968Y-9799436D02*
X10931444Y-9808960D01*
X10931444Y-9808960D02*
X10912396Y-9818484D01*
X10912396Y-9818484D02*
X10855253Y-9818484D01*
X10855253Y-9818484D02*
X10836206Y-9808960D01*
X10836206Y-9808960D02*
X10826682Y-9799436D01*
X11188587Y-9818484D02*
X11188587Y-9618484D01*
X11274301Y-9818484D02*
X11274301Y-9713722D01*
X11274301Y-9713722D02*
X11264777Y-9694674D01*
X11264777Y-9694674D02*
X11245730Y-9685150D01*
X11245730Y-9685150D02*
X11217158Y-9685150D01*
X11217158Y-9685150D02*
X11198110Y-9694674D01*
X11198110Y-9694674D02*
X11188587Y-9704198D01*
X11398110Y-9818484D02*
X11379063Y-9808960D01*
X11379063Y-9808960D02*
X11369539Y-9799436D01*
X11369539Y-9799436D02*
X11360015Y-9780389D01*
X11360015Y-9780389D02*
X11360015Y-9723246D01*
X11360015Y-9723246D02*
X11369539Y-9704198D01*
X11369539Y-9704198D02*
X11379063Y-9694674D01*
X11379063Y-9694674D02*
X11398110Y-9685150D01*
X11398110Y-9685150D02*
X11426682Y-9685150D01*
X11426682Y-9685150D02*
X11445730Y-9694674D01*
X11445730Y-9694674D02*
X11455253Y-9704198D01*
X11455253Y-9704198D02*
X11464777Y-9723246D01*
X11464777Y-9723246D02*
X11464777Y-9780389D01*
X11464777Y-9780389D02*
X11455253Y-9799436D01*
X11455253Y-9799436D02*
X11445730Y-9808960D01*
X11445730Y-9808960D02*
X11426682Y-9818484D01*
X11426682Y-9818484D02*
X11398110Y-9818484D01*
X11579063Y-9818484D02*
X11560015Y-9808960D01*
X11560015Y-9808960D02*
X11550491Y-9789912D01*
X11550491Y-9789912D02*
X11550491Y-9618484D01*
X11731444Y-9808960D02*
X11712396Y-9818484D01*
X11712396Y-9818484D02*
X11674301Y-9818484D01*
X11674301Y-9818484D02*
X11655253Y-9808960D01*
X11655253Y-9808960D02*
X11645730Y-9789912D01*
X11645730Y-9789912D02*
X11645730Y-9713722D01*
X11645730Y-9713722D02*
X11655253Y-9694674D01*
X11655253Y-9694674D02*
X11674301Y-9685150D01*
X11674301Y-9685150D02*
X11712396Y-9685150D01*
X11712396Y-9685150D02*
X11731444Y-9694674D01*
X11731444Y-9694674D02*
X11740968Y-9713722D01*
X11740968Y-9713722D02*
X11740968Y-9732770D01*
X11740968Y-9732770D02*
X11645730Y-9751817D01*
X11817158Y-9808960D02*
X11836206Y-9818484D01*
X11836206Y-9818484D02*
X11874301Y-9818484D01*
X11874301Y-9818484D02*
X11893349Y-9808960D01*
X11893349Y-9808960D02*
X11902872Y-9789912D01*
X11902872Y-9789912D02*
X11902872Y-9780389D01*
X11902872Y-9780389D02*
X11893349Y-9761341D01*
X11893349Y-9761341D02*
X11874301Y-9751817D01*
X11874301Y-9751817D02*
X11845730Y-9751817D01*
X11845730Y-9751817D02*
X11826682Y-9742293D01*
X11826682Y-9742293D02*
X11817158Y-9723246D01*
X11817158Y-9723246D02*
X11817158Y-9713722D01*
X11817158Y-9713722D02*
X11826682Y-9694674D01*
X11826682Y-9694674D02*
X11845730Y-9685150D01*
X11845730Y-9685150D02*
X11874301Y-9685150D01*
X11874301Y-9685150D02*
X11893349Y-9694674D01*
X11969539Y-9894674D02*
X11979063Y-9885150D01*
X11979063Y-9885150D02*
X11998111Y-9856579D01*
X11998111Y-9856579D02*
X12007634Y-9837531D01*
X12007634Y-9837531D02*
X12017158Y-9808960D01*
X12017158Y-9808960D02*
X12026682Y-9761341D01*
X12026682Y-9761341D02*
X12026682Y-9723246D01*
X12026682Y-9723246D02*
X12017158Y-9675627D01*
X12017158Y-9675627D02*
X12007634Y-9647055D01*
X12007634Y-9647055D02*
X11998111Y-9628008D01*
X11998111Y-9628008D02*
X11979063Y-9599436D01*
X11979063Y-9599436D02*
X11969539Y-9589912D01*
X6904000Y-10091000D02*
X7004000Y-9991000D01*
X6904000Y-9891000D01*
X6804000Y-9991000D01*
X6904000Y-10091000D01*
X7245729Y-9882484D02*
X7369539Y-9882484D01*
X7369539Y-9882484D02*
X7302872Y-9958674D01*
X7302872Y-9958674D02*
X7331443Y-9958674D01*
X7331443Y-9958674D02*
X7350491Y-9968198D01*
X7350491Y-9968198D02*
X7360015Y-9977722D01*
X7360015Y-9977722D02*
X7369539Y-9996770D01*
X7369539Y-9996770D02*
X7369539Y-10044389D01*
X7369539Y-10044389D02*
X7360015Y-10063436D01*
X7360015Y-10063436D02*
X7350491Y-10072960D01*
X7350491Y-10072960D02*
X7331443Y-10082484D01*
X7331443Y-10082484D02*
X7274301Y-10082484D01*
X7274301Y-10082484D02*
X7255253Y-10072960D01*
X7255253Y-10072960D02*
X7245729Y-10063436D01*
X7455253Y-10063436D02*
X7464777Y-10072960D01*
X7464777Y-10072960D02*
X7455253Y-10082484D01*
X7455253Y-10082484D02*
X7445729Y-10072960D01*
X7445729Y-10072960D02*
X7455253Y-10063436D01*
X7455253Y-10063436D02*
X7455253Y-10082484D01*
X7588586Y-9882484D02*
X7607634Y-9882484D01*
X7607634Y-9882484D02*
X7626682Y-9892008D01*
X7626682Y-9892008D02*
X7636205Y-9901531D01*
X7636205Y-9901531D02*
X7645729Y-9920579D01*
X7645729Y-9920579D02*
X7655253Y-9958674D01*
X7655253Y-9958674D02*
X7655253Y-10006293D01*
X7655253Y-10006293D02*
X7645729Y-10044389D01*
X7645729Y-10044389D02*
X7636205Y-10063436D01*
X7636205Y-10063436D02*
X7626682Y-10072960D01*
X7626682Y-10072960D02*
X7607634Y-10082484D01*
X7607634Y-10082484D02*
X7588586Y-10082484D01*
X7588586Y-10082484D02*
X7569539Y-10072960D01*
X7569539Y-10072960D02*
X7560015Y-10063436D01*
X7560015Y-10063436D02*
X7550491Y-10044389D01*
X7550491Y-10044389D02*
X7540967Y-10006293D01*
X7540967Y-10006293D02*
X7540967Y-9958674D01*
X7540967Y-9958674D02*
X7550491Y-9920579D01*
X7550491Y-9920579D02*
X7560015Y-9901531D01*
X7560015Y-9901531D02*
X7569539Y-9892008D01*
X7569539Y-9892008D02*
X7588586Y-9882484D01*
X7836205Y-9882484D02*
X7740967Y-9882484D01*
X7740967Y-9882484D02*
X7731443Y-9977722D01*
X7731443Y-9977722D02*
X7740967Y-9968198D01*
X7740967Y-9968198D02*
X7760015Y-9958674D01*
X7760015Y-9958674D02*
X7807634Y-9958674D01*
X7807634Y-9958674D02*
X7826682Y-9968198D01*
X7826682Y-9968198D02*
X7836205Y-9977722D01*
X7836205Y-9977722D02*
X7845729Y-9996770D01*
X7845729Y-9996770D02*
X7845729Y-10044389D01*
X7845729Y-10044389D02*
X7836205Y-10063436D01*
X7836205Y-10063436D02*
X7826682Y-10072960D01*
X7826682Y-10072960D02*
X7807634Y-10082484D01*
X7807634Y-10082484D02*
X7760015Y-10082484D01*
X7760015Y-10082484D02*
X7740967Y-10072960D01*
X7740967Y-10072960D02*
X7731443Y-10063436D01*
X7969539Y-9882484D02*
X7988586Y-9882484D01*
X7988586Y-9882484D02*
X8007634Y-9892008D01*
X8007634Y-9892008D02*
X8017158Y-9901531D01*
X8017158Y-9901531D02*
X8026682Y-9920579D01*
X8026682Y-9920579D02*
X8036205Y-9958674D01*
X8036205Y-9958674D02*
X8036205Y-10006293D01*
X8036205Y-10006293D02*
X8026682Y-10044389D01*
X8026682Y-10044389D02*
X8017158Y-10063436D01*
X8017158Y-10063436D02*
X8007634Y-10072960D01*
X8007634Y-10072960D02*
X7988586Y-10082484D01*
X7988586Y-10082484D02*
X7969539Y-10082484D01*
X7969539Y-10082484D02*
X7950491Y-10072960D01*
X7950491Y-10072960D02*
X7940967Y-10063436D01*
X7940967Y-10063436D02*
X7931443Y-10044389D01*
X7931443Y-10044389D02*
X7921920Y-10006293D01*
X7921920Y-10006293D02*
X7921920Y-9958674D01*
X7921920Y-9958674D02*
X7931443Y-9920579D01*
X7931443Y-9920579D02*
X7940967Y-9901531D01*
X7940967Y-9901531D02*
X7950491Y-9892008D01*
X7950491Y-9892008D02*
X7969539Y-9882484D01*
X8121920Y-10082484D02*
X8121920Y-9949150D01*
X8121920Y-9968198D02*
X8131443Y-9958674D01*
X8131443Y-9958674D02*
X8150491Y-9949150D01*
X8150491Y-9949150D02*
X8179063Y-9949150D01*
X8179063Y-9949150D02*
X8198110Y-9958674D01*
X8198110Y-9958674D02*
X8207634Y-9977722D01*
X8207634Y-9977722D02*
X8207634Y-10082484D01*
X8207634Y-9977722D02*
X8217158Y-9958674D01*
X8217158Y-9958674D02*
X8236205Y-9949150D01*
X8236205Y-9949150D02*
X8264777Y-9949150D01*
X8264777Y-9949150D02*
X8283824Y-9958674D01*
X8283824Y-9958674D02*
X8293348Y-9977722D01*
X8293348Y-9977722D02*
X8293348Y-10082484D01*
X8388586Y-10082484D02*
X8388586Y-9949150D01*
X8388586Y-9968198D02*
X8398110Y-9958674D01*
X8398110Y-9958674D02*
X8417158Y-9949150D01*
X8417158Y-9949150D02*
X8445729Y-9949150D01*
X8445729Y-9949150D02*
X8464777Y-9958674D01*
X8464777Y-9958674D02*
X8474301Y-9977722D01*
X8474301Y-9977722D02*
X8474301Y-10082484D01*
X8474301Y-9977722D02*
X8483825Y-9958674D01*
X8483825Y-9958674D02*
X8502872Y-9949150D01*
X8502872Y-9949150D02*
X8531444Y-9949150D01*
X8531444Y-9949150D02*
X8550491Y-9958674D01*
X8550491Y-9958674D02*
X8560015Y-9977722D01*
X8560015Y-9977722D02*
X8560015Y-10082484D01*
X8950491Y-9872960D02*
X8779063Y-10130103D01*
X9207634Y-9882484D02*
X9226682Y-9882484D01*
X9226682Y-9882484D02*
X9245729Y-9892008D01*
X9245729Y-9892008D02*
X9255253Y-9901531D01*
X9255253Y-9901531D02*
X9264777Y-9920579D01*
X9264777Y-9920579D02*
X9274301Y-9958674D01*
X9274301Y-9958674D02*
X9274301Y-10006293D01*
X9274301Y-10006293D02*
X9264777Y-10044389D01*
X9264777Y-10044389D02*
X9255253Y-10063436D01*
X9255253Y-10063436D02*
X9245729Y-10072960D01*
X9245729Y-10072960D02*
X9226682Y-10082484D01*
X9226682Y-10082484D02*
X9207634Y-10082484D01*
X9207634Y-10082484D02*
X9188587Y-10072960D01*
X9188587Y-10072960D02*
X9179063Y-10063436D01*
X9179063Y-10063436D02*
X9169539Y-10044389D01*
X9169539Y-10044389D02*
X9160015Y-10006293D01*
X9160015Y-10006293D02*
X9160015Y-9958674D01*
X9160015Y-9958674D02*
X9169539Y-9920579D01*
X9169539Y-9920579D02*
X9179063Y-9901531D01*
X9179063Y-9901531D02*
X9188587Y-9892008D01*
X9188587Y-9892008D02*
X9207634Y-9882484D01*
X9360015Y-10063436D02*
X9369539Y-10072960D01*
X9369539Y-10072960D02*
X9360015Y-10082484D01*
X9360015Y-10082484D02*
X9350491Y-10072960D01*
X9350491Y-10072960D02*
X9360015Y-10063436D01*
X9360015Y-10063436D02*
X9360015Y-10082484D01*
X9560015Y-10082484D02*
X9445729Y-10082484D01*
X9502872Y-10082484D02*
X9502872Y-9882484D01*
X9502872Y-9882484D02*
X9483825Y-9911055D01*
X9483825Y-9911055D02*
X9464777Y-9930103D01*
X9464777Y-9930103D02*
X9445729Y-9939627D01*
X9636206Y-9901531D02*
X9645729Y-9892008D01*
X9645729Y-9892008D02*
X9664777Y-9882484D01*
X9664777Y-9882484D02*
X9712396Y-9882484D01*
X9712396Y-9882484D02*
X9731444Y-9892008D01*
X9731444Y-9892008D02*
X9740968Y-9901531D01*
X9740968Y-9901531D02*
X9750491Y-9920579D01*
X9750491Y-9920579D02*
X9750491Y-9939627D01*
X9750491Y-9939627D02*
X9740968Y-9968198D01*
X9740968Y-9968198D02*
X9626682Y-10082484D01*
X9626682Y-10082484D02*
X9750491Y-10082484D01*
X9874301Y-9882484D02*
X9893349Y-9882484D01*
X9893349Y-9882484D02*
X9912396Y-9892008D01*
X9912396Y-9892008D02*
X9921920Y-9901531D01*
X9921920Y-9901531D02*
X9931444Y-9920579D01*
X9931444Y-9920579D02*
X9940968Y-9958674D01*
X9940968Y-9958674D02*
X9940968Y-10006293D01*
X9940968Y-10006293D02*
X9931444Y-10044389D01*
X9931444Y-10044389D02*
X9921920Y-10063436D01*
X9921920Y-10063436D02*
X9912396Y-10072960D01*
X9912396Y-10072960D02*
X9893349Y-10082484D01*
X9893349Y-10082484D02*
X9874301Y-10082484D01*
X9874301Y-10082484D02*
X9855253Y-10072960D01*
X9855253Y-10072960D02*
X9845729Y-10063436D01*
X9845729Y-10063436D02*
X9836206Y-10044389D01*
X9836206Y-10044389D02*
X9826682Y-10006293D01*
X9826682Y-10006293D02*
X9826682Y-9958674D01*
X9826682Y-9958674D02*
X9836206Y-9920579D01*
X9836206Y-9920579D02*
X9845729Y-9901531D01*
X9845729Y-9901531D02*
X9855253Y-9892008D01*
X9855253Y-9892008D02*
X9874301Y-9882484D01*
X10131444Y-10082484D02*
X10017158Y-10082484D01*
X10074301Y-10082484D02*
X10074301Y-9882484D01*
X10074301Y-9882484D02*
X10055253Y-9911055D01*
X10055253Y-9911055D02*
X10036206Y-9930103D01*
X10036206Y-9930103D02*
X10017158Y-9939627D01*
X10207634Y-9882484D02*
X10207634Y-9920579D01*
X10283825Y-9882484D02*
X10283825Y-9920579D01*
X10579063Y-10158674D02*
X10569539Y-10149150D01*
X10569539Y-10149150D02*
X10550491Y-10120579D01*
X10550491Y-10120579D02*
X10540968Y-10101531D01*
X10540968Y-10101531D02*
X10531444Y-10072960D01*
X10531444Y-10072960D02*
X10521920Y-10025341D01*
X10521920Y-10025341D02*
X10521920Y-9987246D01*
X10521920Y-9987246D02*
X10531444Y-9939627D01*
X10531444Y-9939627D02*
X10540968Y-9911055D01*
X10540968Y-9911055D02*
X10550491Y-9892008D01*
X10550491Y-9892008D02*
X10569539Y-9863436D01*
X10569539Y-9863436D02*
X10579063Y-9853912D01*
X10645730Y-9901531D02*
X10655253Y-9892008D01*
X10655253Y-9892008D02*
X10674301Y-9882484D01*
X10674301Y-9882484D02*
X10721920Y-9882484D01*
X10721920Y-9882484D02*
X10740968Y-9892008D01*
X10740968Y-9892008D02*
X10750491Y-9901531D01*
X10750491Y-9901531D02*
X10760015Y-9920579D01*
X10760015Y-9920579D02*
X10760015Y-9939627D01*
X10760015Y-9939627D02*
X10750491Y-9968198D01*
X10750491Y-9968198D02*
X10636206Y-10082484D01*
X10636206Y-10082484D02*
X10760015Y-10082484D01*
X10931444Y-9949150D02*
X10931444Y-10082484D01*
X10883825Y-9872960D02*
X10836206Y-10015817D01*
X10836206Y-10015817D02*
X10960015Y-10015817D01*
X11188587Y-10082484D02*
X11188587Y-9882484D01*
X11274301Y-10082484D02*
X11274301Y-9977722D01*
X11274301Y-9977722D02*
X11264777Y-9958674D01*
X11264777Y-9958674D02*
X11245730Y-9949150D01*
X11245730Y-9949150D02*
X11217158Y-9949150D01*
X11217158Y-9949150D02*
X11198110Y-9958674D01*
X11198110Y-9958674D02*
X11188587Y-9968198D01*
X11398110Y-10082484D02*
X11379063Y-10072960D01*
X11379063Y-10072960D02*
X11369539Y-10063436D01*
X11369539Y-10063436D02*
X11360015Y-10044389D01*
X11360015Y-10044389D02*
X11360015Y-9987246D01*
X11360015Y-9987246D02*
X11369539Y-9968198D01*
X11369539Y-9968198D02*
X11379063Y-9958674D01*
X11379063Y-9958674D02*
X11398110Y-9949150D01*
X11398110Y-9949150D02*
X11426682Y-9949150D01*
X11426682Y-9949150D02*
X11445730Y-9958674D01*
X11445730Y-9958674D02*
X11455253Y-9968198D01*
X11455253Y-9968198D02*
X11464777Y-9987246D01*
X11464777Y-9987246D02*
X11464777Y-10044389D01*
X11464777Y-10044389D02*
X11455253Y-10063436D01*
X11455253Y-10063436D02*
X11445730Y-10072960D01*
X11445730Y-10072960D02*
X11426682Y-10082484D01*
X11426682Y-10082484D02*
X11398110Y-10082484D01*
X11579063Y-10082484D02*
X11560015Y-10072960D01*
X11560015Y-10072960D02*
X11550491Y-10053912D01*
X11550491Y-10053912D02*
X11550491Y-9882484D01*
X11731444Y-10072960D02*
X11712396Y-10082484D01*
X11712396Y-10082484D02*
X11674301Y-10082484D01*
X11674301Y-10082484D02*
X11655253Y-10072960D01*
X11655253Y-10072960D02*
X11645730Y-10053912D01*
X11645730Y-10053912D02*
X11645730Y-9977722D01*
X11645730Y-9977722D02*
X11655253Y-9958674D01*
X11655253Y-9958674D02*
X11674301Y-9949150D01*
X11674301Y-9949150D02*
X11712396Y-9949150D01*
X11712396Y-9949150D02*
X11731444Y-9958674D01*
X11731444Y-9958674D02*
X11740968Y-9977722D01*
X11740968Y-9977722D02*
X11740968Y-9996770D01*
X11740968Y-9996770D02*
X11645730Y-10015817D01*
X11817158Y-10072960D02*
X11836206Y-10082484D01*
X11836206Y-10082484D02*
X11874301Y-10082484D01*
X11874301Y-10082484D02*
X11893349Y-10072960D01*
X11893349Y-10072960D02*
X11902872Y-10053912D01*
X11902872Y-10053912D02*
X11902872Y-10044389D01*
X11902872Y-10044389D02*
X11893349Y-10025341D01*
X11893349Y-10025341D02*
X11874301Y-10015817D01*
X11874301Y-10015817D02*
X11845730Y-10015817D01*
X11845730Y-10015817D02*
X11826682Y-10006293D01*
X11826682Y-10006293D02*
X11817158Y-9987246D01*
X11817158Y-9987246D02*
X11817158Y-9977722D01*
X11817158Y-9977722D02*
X11826682Y-9958674D01*
X11826682Y-9958674D02*
X11845730Y-9949150D01*
X11845730Y-9949150D02*
X11874301Y-9949150D01*
X11874301Y-9949150D02*
X11893349Y-9958674D01*
X11969539Y-10158674D02*
X11979063Y-10149150D01*
X11979063Y-10149150D02*
X11998111Y-10120579D01*
X11998111Y-10120579D02*
X12007634Y-10101531D01*
X12007634Y-10101531D02*
X12017158Y-10072960D01*
X12017158Y-10072960D02*
X12026682Y-10025341D01*
X12026682Y-10025341D02*
X12026682Y-9987246D01*
X12026682Y-9987246D02*
X12017158Y-9939627D01*
X12017158Y-9939627D02*
X12007634Y-9911055D01*
X12007634Y-9911055D02*
X11998111Y-9892008D01*
X11998111Y-9892008D02*
X11979063Y-9863436D01*
X11979063Y-9863436D02*
X11969539Y-9853912D01*
M02*
