%TF.GenerationSoftware,KiCad,Pcbnew,7.0.5*%
%TF.CreationDate,2023-11-04T19:54:29+08:00*%
%TF.ProjectId,Three2One,54687265-6532-44f6-9e65-2e6b69636164,rev?*%
%TF.SameCoordinates,Original*%
%TF.FileFunction,Soldermask,Bot*%
%TF.FilePolarity,Negative*%
%FSLAX46Y46*%
G04 Gerber Fmt 4.6, Leading zero omitted, Abs format (unit mm)*
G04 Created by KiCad (PCBNEW 7.0.5) date 2023-11-04 19:54:29*
%MOMM*%
%LPD*%
G01*
G04 APERTURE LIST*
G04 Aperture macros list*
%AMRoundRect*
0 Rectangle with rounded corners*
0 $1 Rounding radius*
0 $2 $3 $4 $5 $6 $7 $8 $9 X,Y pos of 4 corners*
0 Add a 4 corners polygon primitive as box body*
4,1,4,$2,$3,$4,$5,$6,$7,$8,$9,$2,$3,0*
0 Add four circle primitives for the rounded corners*
1,1,$1+$1,$2,$3*
1,1,$1+$1,$4,$5*
1,1,$1+$1,$6,$7*
1,1,$1+$1,$8,$9*
0 Add four rect primitives between the rounded corners*
20,1,$1+$1,$2,$3,$4,$5,0*
20,1,$1+$1,$4,$5,$6,$7,0*
20,1,$1+$1,$6,$7,$8,$9,0*
20,1,$1+$1,$8,$9,$2,$3,0*%
G04 Aperture macros list end*
%ADD10R,1.600000X1.600000*%
%ADD11O,1.600000X1.600000*%
%ADD12C,2.200000*%
%ADD13RoundRect,0.250000X-1.025000X-1.000000X1.025000X-1.000000X1.025000X1.000000X-1.025000X1.000000X0*%
%ADD14O,1.500000X2.600000*%
%ADD15C,1.750000*%
%ADD16C,4.000000*%
%ADD17R,2.000000X2.000000*%
%ADD18C,2.000000*%
%ADD19C,3.600000*%
%ADD20C,3.500000*%
%ADD21R,1.752600X1.752600*%
%ADD22RoundRect,0.438150X0.438150X0.438150X-0.438150X0.438150X-0.438150X-0.438150X0.438150X-0.438150X0*%
%ADD23C,1.752600*%
G04 APERTURE END LIST*
D10*
%TO.C,D5*%
X148335000Y-62765000D03*
D11*
X148335000Y-70365000D03*
%TD*%
D10*
%TO.C,D10*%
X151885000Y-73765000D03*
D11*
X151885000Y-81365000D03*
%TD*%
D12*
%TO.C,H6*%
X163005000Y-80675000D03*
%TD*%
D10*
%TO.C,D11*%
X155435000Y-73765000D03*
D11*
X155435000Y-81365000D03*
%TD*%
D13*
%TO.C,RE3*%
X110655000Y-32710000D03*
D14*
X112140000Y-35250000D03*
D15*
X112660000Y-35250000D03*
D16*
X117740000Y-35250000D03*
D15*
X122820000Y-35250000D03*
D14*
X123340000Y-35250000D03*
D13*
X123582000Y-30170000D03*
D17*
X115240000Y-42750000D03*
D18*
X120240000Y-42750000D03*
X117740000Y-42750000D03*
X120240000Y-28250000D03*
D19*
X120280000Y-30170000D03*
X113930000Y-32710000D03*
D18*
X115240000Y-28250000D03*
%TD*%
D13*
%TO.C,RE4*%
X129705000Y-32710000D03*
D14*
X131190000Y-35250000D03*
D15*
X131710000Y-35250000D03*
D16*
X136790000Y-35250000D03*
D15*
X141870000Y-35250000D03*
D14*
X142390000Y-35250000D03*
D13*
X142632000Y-30170000D03*
D17*
X134290000Y-42750000D03*
D18*
X139290000Y-42750000D03*
X136790000Y-42750000D03*
X139290000Y-28250000D03*
D19*
X139330000Y-30170000D03*
X132980000Y-32710000D03*
D18*
X134290000Y-28250000D03*
%TD*%
D12*
%TO.C,H5*%
X163005000Y-52475000D03*
%TD*%
D10*
%TO.C,D8*%
X158985000Y-62765000D03*
D11*
X158985000Y-70365000D03*
%TD*%
D13*
%TO.C,SW9*%
X72555000Y-70810000D03*
D15*
X74560000Y-73350000D03*
D16*
X79640000Y-73350000D03*
D15*
X84720000Y-73350000D03*
D13*
X85482000Y-68270000D03*
D19*
X75830000Y-70810000D03*
X82180000Y-68270000D03*
%TD*%
D20*
%TO.C,H2*%
X127265000Y-44775000D03*
%TD*%
D13*
%TO.C,SW6*%
X91605000Y-51760000D03*
D15*
X93610000Y-54300000D03*
D16*
X98690000Y-54300000D03*
D15*
X103770000Y-54300000D03*
D13*
X104532000Y-49220000D03*
D19*
X94880000Y-51760000D03*
X101230000Y-49220000D03*
%TD*%
D13*
%TO.C,SW8*%
X129705000Y-51760000D03*
D15*
X131710000Y-54300000D03*
D16*
X136790000Y-54300000D03*
D15*
X141870000Y-54300000D03*
D13*
X142632000Y-49220000D03*
D19*
X132980000Y-51760000D03*
X139330000Y-49220000D03*
%TD*%
D20*
%TO.C,H4*%
X127265000Y-63825000D03*
%TD*%
D10*
%TO.C,D6*%
X151885000Y-62765000D03*
D11*
X151885000Y-70365000D03*
%TD*%
D13*
%TO.C,RE1*%
X72555000Y-32710000D03*
D14*
X74040000Y-35250000D03*
D15*
X74560000Y-35250000D03*
D16*
X79640000Y-35250000D03*
D15*
X84720000Y-35250000D03*
D14*
X85240000Y-35250000D03*
D13*
X85482000Y-30170000D03*
D17*
X77140000Y-42750000D03*
D18*
X82140000Y-42750000D03*
X79640000Y-42750000D03*
X82140000Y-28250000D03*
D19*
X82180000Y-30170000D03*
X75830000Y-32710000D03*
D18*
X77140000Y-28250000D03*
%TD*%
D10*
%TO.C,D9*%
X148335000Y-73765000D03*
D11*
X148335000Y-81365000D03*
%TD*%
D10*
%TO.C,D2*%
X151885000Y-51765000D03*
D11*
X151885000Y-59365000D03*
%TD*%
D10*
%TO.C,D3*%
X155435000Y-51765000D03*
D11*
X155435000Y-59365000D03*
%TD*%
D10*
%TO.C,D7*%
X155435000Y-62765000D03*
D11*
X155435000Y-70365000D03*
%TD*%
D13*
%TO.C,SW12*%
X129705000Y-70810000D03*
D15*
X131710000Y-73350000D03*
D16*
X136790000Y-73350000D03*
D15*
X141870000Y-73350000D03*
D13*
X142632000Y-68270000D03*
D19*
X132980000Y-70810000D03*
X139330000Y-68270000D03*
%TD*%
D13*
%TO.C,SW10*%
X91605000Y-70810000D03*
D15*
X93610000Y-73350000D03*
D16*
X98690000Y-73350000D03*
D15*
X103770000Y-73350000D03*
D13*
X104532000Y-68270000D03*
D19*
X94880000Y-70810000D03*
X101230000Y-68270000D03*
%TD*%
D13*
%TO.C,RE2*%
X91605000Y-32710000D03*
D14*
X93090000Y-35250000D03*
D15*
X93610000Y-35250000D03*
D16*
X98690000Y-35250000D03*
D15*
X103770000Y-35250000D03*
D14*
X104290000Y-35250000D03*
D13*
X104532000Y-30170000D03*
D17*
X96190000Y-42750000D03*
D18*
X101190000Y-42750000D03*
X98690000Y-42750000D03*
X101190000Y-28250000D03*
D19*
X101230000Y-30170000D03*
X94880000Y-32710000D03*
D18*
X96190000Y-28250000D03*
%TD*%
D13*
%TO.C,SW7*%
X110655000Y-51760000D03*
D15*
X112660000Y-54300000D03*
D16*
X117740000Y-54300000D03*
D15*
X122820000Y-54300000D03*
D13*
X123582000Y-49220000D03*
D19*
X113930000Y-51760000D03*
X120280000Y-49220000D03*
%TD*%
D13*
%TO.C,SW11*%
X110655000Y-70810000D03*
D15*
X112660000Y-73350000D03*
D16*
X117740000Y-73350000D03*
D15*
X122820000Y-73350000D03*
D13*
X123582000Y-68270000D03*
D19*
X113930000Y-70810000D03*
X120280000Y-68270000D03*
%TD*%
D13*
%TO.C,SW5*%
X72555000Y-51760000D03*
D15*
X74560000Y-54300000D03*
D16*
X79640000Y-54300000D03*
D15*
X84720000Y-54300000D03*
D13*
X85482000Y-49220000D03*
D19*
X75830000Y-51760000D03*
X82180000Y-49220000D03*
%TD*%
D20*
%TO.C,H1*%
X89165000Y-44775000D03*
%TD*%
%TO.C,H3*%
X89165000Y-63825000D03*
%TD*%
D10*
%TO.C,D1*%
X148335000Y-51765000D03*
D11*
X148335000Y-59365000D03*
%TD*%
D10*
%TO.C,D12*%
X158985000Y-73765000D03*
D11*
X158985000Y-81365000D03*
%TD*%
D10*
%TO.C,D4*%
X158985000Y-51765000D03*
D11*
X158985000Y-59365000D03*
%TD*%
D21*
%TO.C,U1*%
X163685000Y-27315000D03*
D22*
X163685000Y-29855000D03*
D21*
X163685000Y-32395000D03*
D23*
X163685000Y-34935000D03*
X163685000Y-37475000D03*
X163685000Y-40015000D03*
X163685000Y-42555000D03*
X163685000Y-45095000D03*
X163685000Y-47635000D03*
X148335000Y-27315000D03*
X148335000Y-29855000D03*
X148335000Y-32395000D03*
X148335000Y-34935000D03*
X148335000Y-37475000D03*
X148335000Y-40015000D03*
X148335000Y-42555000D03*
X148335000Y-45095000D03*
X148335000Y-47635000D03*
X150930000Y-47955000D03*
X153470000Y-47955000D03*
X156010000Y-47955000D03*
X158550000Y-47955000D03*
X161090000Y-47955000D03*
%TD*%
M02*
