%TF.GenerationSoftware,KiCad,Pcbnew,7.0.5*%
%TF.CreationDate,2023-11-04T19:54:29+08:00*%
%TF.ProjectId,Three2One,54687265-6532-44f6-9e65-2e6b69636164,rev?*%
%TF.SameCoordinates,Original*%
%TF.FileFunction,Legend,Bot*%
%TF.FilePolarity,Positive*%
%FSLAX46Y46*%
G04 Gerber Fmt 4.6, Leading zero omitted, Abs format (unit mm)*
G04 Created by KiCad (PCBNEW 7.0.5) date 2023-11-04 19:54:29*
%MOMM*%
%LPD*%
G01*
G04 APERTURE LIST*
%ADD10C,0.200000*%
%ADD11C,0.150000*%
%ADD12C,0.120000*%
%ADD13C,0.010000*%
G04 APERTURE END LIST*
D10*
X85254136Y-79942742D02*
X84568422Y-79942742D01*
X84911279Y-81142742D02*
X84911279Y-79942742D01*
X84168421Y-81142742D02*
X84168421Y-79942742D01*
X83654136Y-81142742D02*
X83654136Y-80514171D01*
X83654136Y-80514171D02*
X83711278Y-80399885D01*
X83711278Y-80399885D02*
X83825564Y-80342742D01*
X83825564Y-80342742D02*
X83996993Y-80342742D01*
X83996993Y-80342742D02*
X84111278Y-80399885D01*
X84111278Y-80399885D02*
X84168421Y-80457028D01*
X83082707Y-81142742D02*
X83082707Y-80342742D01*
X83082707Y-80571314D02*
X83025564Y-80457028D01*
X83025564Y-80457028D02*
X82968422Y-80399885D01*
X82968422Y-80399885D02*
X82854136Y-80342742D01*
X82854136Y-80342742D02*
X82739850Y-80342742D01*
X81882707Y-81085600D02*
X81996993Y-81142742D01*
X81996993Y-81142742D02*
X82225565Y-81142742D01*
X82225565Y-81142742D02*
X82339850Y-81085600D01*
X82339850Y-81085600D02*
X82396993Y-80971314D01*
X82396993Y-80971314D02*
X82396993Y-80514171D01*
X82396993Y-80514171D02*
X82339850Y-80399885D01*
X82339850Y-80399885D02*
X82225565Y-80342742D01*
X82225565Y-80342742D02*
X81996993Y-80342742D01*
X81996993Y-80342742D02*
X81882707Y-80399885D01*
X81882707Y-80399885D02*
X81825565Y-80514171D01*
X81825565Y-80514171D02*
X81825565Y-80628457D01*
X81825565Y-80628457D02*
X82396993Y-80742742D01*
X80854136Y-81085600D02*
X80968422Y-81142742D01*
X80968422Y-81142742D02*
X81196994Y-81142742D01*
X81196994Y-81142742D02*
X81311279Y-81085600D01*
X81311279Y-81085600D02*
X81368422Y-80971314D01*
X81368422Y-80971314D02*
X81368422Y-80514171D01*
X81368422Y-80514171D02*
X81311279Y-80399885D01*
X81311279Y-80399885D02*
X81196994Y-80342742D01*
X81196994Y-80342742D02*
X80968422Y-80342742D01*
X80968422Y-80342742D02*
X80854136Y-80399885D01*
X80854136Y-80399885D02*
X80796994Y-80514171D01*
X80796994Y-80514171D02*
X80796994Y-80628457D01*
X80796994Y-80628457D02*
X81368422Y-80742742D01*
X80339851Y-80057028D02*
X80282708Y-79999885D01*
X80282708Y-79999885D02*
X80168423Y-79942742D01*
X80168423Y-79942742D02*
X79882708Y-79942742D01*
X79882708Y-79942742D02*
X79768423Y-79999885D01*
X79768423Y-79999885D02*
X79711280Y-80057028D01*
X79711280Y-80057028D02*
X79654137Y-80171314D01*
X79654137Y-80171314D02*
X79654137Y-80285600D01*
X79654137Y-80285600D02*
X79711280Y-80457028D01*
X79711280Y-80457028D02*
X80396994Y-81142742D01*
X80396994Y-81142742D02*
X79654137Y-81142742D01*
X78911280Y-79942742D02*
X78682708Y-79942742D01*
X78682708Y-79942742D02*
X78568423Y-79999885D01*
X78568423Y-79999885D02*
X78454137Y-80114171D01*
X78454137Y-80114171D02*
X78396994Y-80342742D01*
X78396994Y-80342742D02*
X78396994Y-80742742D01*
X78396994Y-80742742D02*
X78454137Y-80971314D01*
X78454137Y-80971314D02*
X78568423Y-81085600D01*
X78568423Y-81085600D02*
X78682708Y-81142742D01*
X78682708Y-81142742D02*
X78911280Y-81142742D01*
X78911280Y-81142742D02*
X79025566Y-81085600D01*
X79025566Y-81085600D02*
X79139851Y-80971314D01*
X79139851Y-80971314D02*
X79196994Y-80742742D01*
X79196994Y-80742742D02*
X79196994Y-80342742D01*
X79196994Y-80342742D02*
X79139851Y-80114171D01*
X79139851Y-80114171D02*
X79025566Y-79999885D01*
X79025566Y-79999885D02*
X78911280Y-79942742D01*
X77882708Y-80342742D02*
X77882708Y-81142742D01*
X77882708Y-80457028D02*
X77825565Y-80399885D01*
X77825565Y-80399885D02*
X77711280Y-80342742D01*
X77711280Y-80342742D02*
X77539851Y-80342742D01*
X77539851Y-80342742D02*
X77425565Y-80399885D01*
X77425565Y-80399885D02*
X77368423Y-80514171D01*
X77368423Y-80514171D02*
X77368423Y-81142742D01*
X76339851Y-81085600D02*
X76454137Y-81142742D01*
X76454137Y-81142742D02*
X76682709Y-81142742D01*
X76682709Y-81142742D02*
X76796994Y-81085600D01*
X76796994Y-81085600D02*
X76854137Y-80971314D01*
X76854137Y-80971314D02*
X76854137Y-80514171D01*
X76854137Y-80514171D02*
X76796994Y-80399885D01*
X76796994Y-80399885D02*
X76682709Y-80342742D01*
X76682709Y-80342742D02*
X76454137Y-80342742D01*
X76454137Y-80342742D02*
X76339851Y-80399885D01*
X76339851Y-80399885D02*
X76282709Y-80514171D01*
X76282709Y-80514171D02*
X76282709Y-80628457D01*
X76282709Y-80628457D02*
X76854137Y-80742742D01*
X74854137Y-81142742D02*
X74854137Y-79942742D01*
X74854137Y-79942742D02*
X74396994Y-79942742D01*
X74396994Y-79942742D02*
X74282709Y-79999885D01*
X74282709Y-79999885D02*
X74225566Y-80057028D01*
X74225566Y-80057028D02*
X74168423Y-80171314D01*
X74168423Y-80171314D02*
X74168423Y-80342742D01*
X74168423Y-80342742D02*
X74225566Y-80457028D01*
X74225566Y-80457028D02*
X74282709Y-80514171D01*
X74282709Y-80514171D02*
X74396994Y-80571314D01*
X74396994Y-80571314D02*
X74854137Y-80571314D01*
X73139852Y-81142742D02*
X73139852Y-80514171D01*
X73139852Y-80514171D02*
X73196994Y-80399885D01*
X73196994Y-80399885D02*
X73311280Y-80342742D01*
X73311280Y-80342742D02*
X73539852Y-80342742D01*
X73539852Y-80342742D02*
X73654137Y-80399885D01*
X73139852Y-81085600D02*
X73254137Y-81142742D01*
X73254137Y-81142742D02*
X73539852Y-81142742D01*
X73539852Y-81142742D02*
X73654137Y-81085600D01*
X73654137Y-81085600D02*
X73711280Y-80971314D01*
X73711280Y-80971314D02*
X73711280Y-80857028D01*
X73711280Y-80857028D02*
X73654137Y-80742742D01*
X73654137Y-80742742D02*
X73539852Y-80685600D01*
X73539852Y-80685600D02*
X73254137Y-80685600D01*
X73254137Y-80685600D02*
X73139852Y-80628457D01*
X72054138Y-81142742D02*
X72054138Y-79942742D01*
X72054138Y-81085600D02*
X72168423Y-81142742D01*
X72168423Y-81142742D02*
X72396995Y-81142742D01*
X72396995Y-81142742D02*
X72511280Y-81085600D01*
X72511280Y-81085600D02*
X72568423Y-81028457D01*
X72568423Y-81028457D02*
X72625566Y-80914171D01*
X72625566Y-80914171D02*
X72625566Y-80571314D01*
X72625566Y-80571314D02*
X72568423Y-80457028D01*
X72568423Y-80457028D02*
X72511280Y-80399885D01*
X72511280Y-80399885D02*
X72396995Y-80342742D01*
X72396995Y-80342742D02*
X72168423Y-80342742D01*
X72168423Y-80342742D02*
X72054138Y-80399885D01*
D11*
%TO.C,U1*%
X161507295Y-31404523D02*
X161507295Y-31899761D01*
X161507295Y-31899761D02*
X161812057Y-31633095D01*
X161812057Y-31633095D02*
X161812057Y-31747380D01*
X161812057Y-31747380D02*
X161850152Y-31823571D01*
X161850152Y-31823571D02*
X161888247Y-31861666D01*
X161888247Y-31861666D02*
X161964438Y-31899761D01*
X161964438Y-31899761D02*
X162154914Y-31899761D01*
X162154914Y-31899761D02*
X162231104Y-31861666D01*
X162231104Y-31861666D02*
X162269200Y-31823571D01*
X162269200Y-31823571D02*
X162307295Y-31747380D01*
X162307295Y-31747380D02*
X162307295Y-31518809D01*
X162307295Y-31518809D02*
X162269200Y-31442618D01*
X162269200Y-31442618D02*
X162231104Y-31404523D01*
X161507295Y-32128333D02*
X162307295Y-32395000D01*
X162307295Y-32395000D02*
X161507295Y-32661666D01*
X161507295Y-32852142D02*
X161507295Y-33347380D01*
X161507295Y-33347380D02*
X161812057Y-33080714D01*
X161812057Y-33080714D02*
X161812057Y-33194999D01*
X161812057Y-33194999D02*
X161850152Y-33271190D01*
X161850152Y-33271190D02*
X161888247Y-33309285D01*
X161888247Y-33309285D02*
X161964438Y-33347380D01*
X161964438Y-33347380D02*
X162154914Y-33347380D01*
X162154914Y-33347380D02*
X162231104Y-33309285D01*
X162231104Y-33309285D02*
X162269200Y-33271190D01*
X162269200Y-33271190D02*
X162307295Y-33194999D01*
X162307295Y-33194999D02*
X162307295Y-32966428D01*
X162307295Y-32966428D02*
X162269200Y-32890237D01*
X162269200Y-32890237D02*
X162231104Y-32852142D01*
X161507295Y-27162619D02*
X161507295Y-26781667D01*
X161507295Y-26781667D02*
X161888247Y-26743571D01*
X161888247Y-26743571D02*
X161850152Y-26781667D01*
X161850152Y-26781667D02*
X161812057Y-26857857D01*
X161812057Y-26857857D02*
X161812057Y-27048333D01*
X161812057Y-27048333D02*
X161850152Y-27124524D01*
X161850152Y-27124524D02*
X161888247Y-27162619D01*
X161888247Y-27162619D02*
X161964438Y-27200714D01*
X161964438Y-27200714D02*
X162154914Y-27200714D01*
X162154914Y-27200714D02*
X162231104Y-27162619D01*
X162231104Y-27162619D02*
X162269200Y-27124524D01*
X162269200Y-27124524D02*
X162307295Y-27048333D01*
X162307295Y-27048333D02*
X162307295Y-26857857D01*
X162307295Y-26857857D02*
X162269200Y-26781667D01*
X162269200Y-26781667D02*
X162231104Y-26743571D01*
X161507295Y-27429286D02*
X162307295Y-27695953D01*
X162307295Y-27695953D02*
X161507295Y-27962619D01*
X161545390Y-29245476D02*
X161507295Y-29169286D01*
X161507295Y-29169286D02*
X161507295Y-29055000D01*
X161507295Y-29055000D02*
X161545390Y-28940714D01*
X161545390Y-28940714D02*
X161621580Y-28864524D01*
X161621580Y-28864524D02*
X161697771Y-28826429D01*
X161697771Y-28826429D02*
X161850152Y-28788333D01*
X161850152Y-28788333D02*
X161964438Y-28788333D01*
X161964438Y-28788333D02*
X162116819Y-28826429D01*
X162116819Y-28826429D02*
X162193009Y-28864524D01*
X162193009Y-28864524D02*
X162269200Y-28940714D01*
X162269200Y-28940714D02*
X162307295Y-29055000D01*
X162307295Y-29055000D02*
X162307295Y-29131191D01*
X162307295Y-29131191D02*
X162269200Y-29245476D01*
X162269200Y-29245476D02*
X162231104Y-29283572D01*
X162231104Y-29283572D02*
X161964438Y-29283572D01*
X161964438Y-29283572D02*
X161964438Y-29131191D01*
X162307295Y-29626429D02*
X161507295Y-29626429D01*
X161507295Y-29626429D02*
X162307295Y-30083572D01*
X162307295Y-30083572D02*
X161507295Y-30083572D01*
X162307295Y-30464524D02*
X161507295Y-30464524D01*
X161507295Y-30464524D02*
X161507295Y-30655000D01*
X161507295Y-30655000D02*
X161545390Y-30769286D01*
X161545390Y-30769286D02*
X161621580Y-30845476D01*
X161621580Y-30845476D02*
X161697771Y-30883571D01*
X161697771Y-30883571D02*
X161850152Y-30921667D01*
X161850152Y-30921667D02*
X161964438Y-30921667D01*
X161964438Y-30921667D02*
X162116819Y-30883571D01*
X162116819Y-30883571D02*
X162193009Y-30845476D01*
X162193009Y-30845476D02*
X162269200Y-30769286D01*
X162269200Y-30769286D02*
X162307295Y-30655000D01*
X162307295Y-30655000D02*
X162307295Y-30464524D01*
D12*
%TO.C,RE3*%
X113640000Y-28350000D02*
X118740000Y-28350000D01*
X117540000Y-32550000D02*
X122640000Y-32550000D01*
X113640000Y-28350000D02*
G75*
G03*
X111640000Y-30350000I-1J-1999999D01*
G01*
X117540000Y-32550000D02*
G75*
G03*
X115540000Y-34550000I-1J-1999999D01*
G01*
%TO.C,RE4*%
X132690000Y-28350000D02*
X137790000Y-28350000D01*
X136590000Y-32550000D02*
X141690000Y-32550000D01*
X132690000Y-28350000D02*
G75*
G03*
X130690000Y-30350000I-1J-1999999D01*
G01*
X136590000Y-32550000D02*
G75*
G03*
X134590000Y-34550000I-1J-1999999D01*
G01*
%TO.C,SW9*%
X75540000Y-66450000D02*
X80640000Y-66450000D01*
X79440000Y-70650000D02*
X84540000Y-70650000D01*
X75540000Y-66450000D02*
G75*
G03*
X73540000Y-68450000I-1J-1999999D01*
G01*
X79440000Y-70650000D02*
G75*
G03*
X77440000Y-72650000I-1J-1999999D01*
G01*
%TO.C,SW6*%
X94590000Y-47400000D02*
X99690000Y-47400000D01*
X98490000Y-51600000D02*
X103590000Y-51600000D01*
X94590000Y-47400000D02*
G75*
G03*
X92590000Y-49400000I-1J-1999999D01*
G01*
X98490000Y-51600000D02*
G75*
G03*
X96490000Y-53600000I-1J-1999999D01*
G01*
%TO.C,SW8*%
X132690000Y-47400000D02*
X137790000Y-47400000D01*
X136590000Y-51600000D02*
X141690000Y-51600000D01*
X132690000Y-47400000D02*
G75*
G03*
X130690000Y-49400000I-1J-1999999D01*
G01*
X136590000Y-51600000D02*
G75*
G03*
X134590000Y-53600000I-1J-1999999D01*
G01*
%TO.C,RE1*%
X75540000Y-28350000D02*
X80640000Y-28350000D01*
X79440000Y-32550000D02*
X84540000Y-32550000D01*
X75540000Y-28350000D02*
G75*
G03*
X73540000Y-30350000I-1J-1999999D01*
G01*
X79440000Y-32550000D02*
G75*
G03*
X77440000Y-34550000I-1J-1999999D01*
G01*
%TO.C,SW12*%
X132690000Y-66450000D02*
X137790000Y-66450000D01*
X136590000Y-70650000D02*
X141690000Y-70650000D01*
X132690000Y-66450000D02*
G75*
G03*
X130690000Y-68450000I-1J-1999999D01*
G01*
X136590000Y-70650000D02*
G75*
G03*
X134590000Y-72650000I-1J-1999999D01*
G01*
%TO.C,SW10*%
X94590000Y-66450000D02*
X99690000Y-66450000D01*
X98490000Y-70650000D02*
X103590000Y-70650000D01*
X94590000Y-66450000D02*
G75*
G03*
X92590000Y-68450000I-1J-1999999D01*
G01*
X98490000Y-70650000D02*
G75*
G03*
X96490000Y-72650000I-1J-1999999D01*
G01*
%TO.C,RE2*%
X94590000Y-28350000D02*
X99690000Y-28350000D01*
X98490000Y-32550000D02*
X103590000Y-32550000D01*
X94590000Y-28350000D02*
G75*
G03*
X92590000Y-30350000I-1J-1999999D01*
G01*
X98490000Y-32550000D02*
G75*
G03*
X96490000Y-34550000I-1J-1999999D01*
G01*
%TO.C,SW7*%
X113640000Y-47400000D02*
X118740000Y-47400000D01*
X117540000Y-51600000D02*
X122640000Y-51600000D01*
X113640000Y-47400000D02*
G75*
G03*
X111640000Y-49400000I-1J-1999999D01*
G01*
X117540000Y-51600000D02*
G75*
G03*
X115540000Y-53600000I-1J-1999999D01*
G01*
%TO.C,SW11*%
X113640000Y-66450000D02*
X118740000Y-66450000D01*
X117540000Y-70650000D02*
X122640000Y-70650000D01*
X113640000Y-66450000D02*
G75*
G03*
X111640000Y-68450000I-1J-1999999D01*
G01*
X117540000Y-70650000D02*
G75*
G03*
X115540000Y-72650000I-1J-1999999D01*
G01*
%TO.C,SW5*%
X75540000Y-47400000D02*
X80640000Y-47400000D01*
X79440000Y-51600000D02*
X84540000Y-51600000D01*
X75540000Y-47400000D02*
G75*
G03*
X73540000Y-49400000I-1J-1999999D01*
G01*
X79440000Y-51600000D02*
G75*
G03*
X77440000Y-53600000I-1J-1999999D01*
G01*
%TO.C,REF\u002A\u002A*%
D13*
X88613933Y-78042371D02*
X88689856Y-78042865D01*
X88744491Y-78044135D01*
X88781500Y-78046547D01*
X88804547Y-78050467D01*
X88817296Y-78056262D01*
X88823411Y-78064299D01*
X88826556Y-78074943D01*
X88826646Y-78075325D01*
X88831814Y-78100347D01*
X88841209Y-78148681D01*
X88853867Y-78215260D01*
X88868825Y-78295014D01*
X88885119Y-78382875D01*
X88886448Y-78390064D01*
X88902691Y-78475340D01*
X88917805Y-78550242D01*
X88930808Y-78610219D01*
X88940715Y-78650717D01*
X88946544Y-78667184D01*
X88946575Y-78667210D01*
X88964943Y-78676320D01*
X89002640Y-78691457D01*
X89051543Y-78709358D01*
X89054297Y-78710330D01*
X89116817Y-78733959D01*
X89189543Y-78763595D01*
X89257294Y-78793062D01*
X89368703Y-78843626D01*
X89615399Y-78675160D01*
X89632775Y-78663311D01*
X89707202Y-78612947D01*
X89773614Y-78568612D01*
X89828039Y-78532916D01*
X89866506Y-78508471D01*
X89885042Y-78497889D01*
X89897743Y-78500315D01*
X89926579Y-78519110D01*
X89971143Y-78556330D01*
X90032670Y-78613020D01*
X90112398Y-78690227D01*
X90119532Y-78697255D01*
X90182796Y-78760222D01*
X90238990Y-78817268D01*
X90284677Y-78864817D01*
X90316414Y-78899297D01*
X90330764Y-78917131D01*
X90330810Y-78917217D01*
X90332633Y-78930795D01*
X90325910Y-78952820D01*
X90308946Y-78986304D01*
X90280044Y-79034261D01*
X90237508Y-79099704D01*
X90179644Y-79185645D01*
X90169783Y-79200151D01*
X90119913Y-79273635D01*
X90075905Y-79338687D01*
X90040380Y-79391417D01*
X90015959Y-79427936D01*
X90005264Y-79444356D01*
X90004458Y-79447834D01*
X90009518Y-79473785D01*
X90024677Y-79516159D01*
X90047463Y-79567728D01*
X90078429Y-79635170D01*
X90113004Y-79715195D01*
X90142366Y-79787629D01*
X90149645Y-79806377D01*
X90168710Y-79854246D01*
X90182715Y-79887596D01*
X90189041Y-79900114D01*
X90196025Y-79901050D01*
X90227413Y-79906461D01*
X90278787Y-79915806D01*
X90344802Y-79928069D01*
X90420113Y-79942232D01*
X90499375Y-79957280D01*
X90577243Y-79972195D01*
X90648370Y-79985961D01*
X90707412Y-79997562D01*
X90749022Y-80005980D01*
X90767857Y-80010199D01*
X90770980Y-80011389D01*
X90778591Y-80017805D01*
X90784254Y-80031465D01*
X90788251Y-80055999D01*
X90790866Y-80095038D01*
X90792384Y-80152213D01*
X90793086Y-80231154D01*
X90793257Y-80335492D01*
X90793257Y-80652799D01*
X90717057Y-80667839D01*
X90707840Y-80669642D01*
X90658891Y-80678980D01*
X90591205Y-80691669D01*
X90512478Y-80706273D01*
X90430400Y-80721355D01*
X90398078Y-80727422D01*
X90325855Y-80742181D01*
X90265666Y-80756137D01*
X90223040Y-80767952D01*
X90203510Y-80776287D01*
X90194660Y-80789905D01*
X90178548Y-80825938D01*
X90162065Y-80872572D01*
X90156263Y-80890034D01*
X90134906Y-80947358D01*
X90107359Y-81015201D01*
X90078107Y-81082355D01*
X90062463Y-81117430D01*
X90040174Y-81169822D01*
X90024857Y-81209058D01*
X90019162Y-81228563D01*
X90019478Y-81230036D01*
X90030281Y-81250729D01*
X90054638Y-81290665D01*
X90090081Y-81345972D01*
X90134136Y-81412781D01*
X90184332Y-81487220D01*
X90349501Y-81729623D01*
X90132503Y-81946983D01*
X90111516Y-81967899D01*
X90047342Y-82030505D01*
X89989990Y-82084495D01*
X89942820Y-82126826D01*
X89909192Y-82154457D01*
X89892467Y-82164343D01*
X89874303Y-82156821D01*
X89836265Y-82135227D01*
X89782726Y-82102151D01*
X89717884Y-82060191D01*
X89645940Y-82011943D01*
X89575275Y-81964291D01*
X89511526Y-81922328D01*
X89459513Y-81889165D01*
X89423279Y-81867378D01*
X89406867Y-81859543D01*
X89405905Y-81859614D01*
X89384103Y-81867338D01*
X89345440Y-81885323D01*
X89297612Y-81910013D01*
X89297110Y-81910284D01*
X89233587Y-81942099D01*
X89190060Y-81957642D01*
X89163052Y-81957685D01*
X89149090Y-81943000D01*
X89143180Y-81928544D01*
X89127229Y-81889831D01*
X89102660Y-81830316D01*
X89070779Y-81753165D01*
X89032893Y-81661541D01*
X88990310Y-81558607D01*
X88944337Y-81447526D01*
X88902667Y-81346472D01*
X88860268Y-81242780D01*
X88822756Y-81150119D01*
X88791388Y-81071642D01*
X88767425Y-81010500D01*
X88752123Y-80969843D01*
X88746743Y-80952825D01*
X88757018Y-80937219D01*
X88785563Y-80911162D01*
X88825971Y-80880887D01*
X88922979Y-80801684D01*
X89009793Y-80700475D01*
X89073322Y-80589116D01*
X89113177Y-80470893D01*
X89128965Y-80349095D01*
X89120296Y-80227010D01*
X89086778Y-80107925D01*
X89028021Y-79995129D01*
X88943632Y-79891911D01*
X88899631Y-79851713D01*
X88794211Y-79780638D01*
X88681410Y-79734301D01*
X88564525Y-79711599D01*
X88446853Y-79711428D01*
X88331690Y-79732687D01*
X88222335Y-79774270D01*
X88122083Y-79835076D01*
X88034233Y-79914001D01*
X87962080Y-80009941D01*
X87908922Y-80121795D01*
X87878057Y-80248457D01*
X87872392Y-80309507D01*
X87880185Y-80441776D01*
X87915284Y-80567266D01*
X87976649Y-80683759D01*
X88063243Y-80789039D01*
X88174029Y-80880887D01*
X88212931Y-80909930D01*
X88242104Y-80936272D01*
X88253257Y-80952800D01*
X88248810Y-80967209D01*
X88234378Y-81005815D01*
X88211173Y-81065201D01*
X88180452Y-81142215D01*
X88143474Y-81233703D01*
X88101496Y-81336516D01*
X88055778Y-81447502D01*
X88014178Y-81548072D01*
X87971222Y-81651947D01*
X87932829Y-81744819D01*
X87900305Y-81823525D01*
X87874958Y-81884899D01*
X87858095Y-81925779D01*
X87851025Y-81943000D01*
X87850943Y-81943204D01*
X87836798Y-81957745D01*
X87809659Y-81957579D01*
X87766023Y-81941927D01*
X87702388Y-81910013D01*
X87697379Y-81907326D01*
X87650125Y-81883150D01*
X87612811Y-81866037D01*
X87593133Y-81859543D01*
X87577005Y-81867218D01*
X87540959Y-81888871D01*
X87489092Y-81921928D01*
X87425445Y-81963810D01*
X87354060Y-82011943D01*
X87283724Y-82059131D01*
X87218670Y-82101267D01*
X87164820Y-82134578D01*
X87126374Y-82156469D01*
X87107534Y-82164343D01*
X87104325Y-82163343D01*
X87081954Y-82147584D01*
X87043733Y-82115033D01*
X86993021Y-82068733D01*
X86933181Y-82011726D01*
X86867571Y-81947058D01*
X86650648Y-81729772D01*
X86819601Y-81481253D01*
X86988553Y-81232733D01*
X86937183Y-81121595D01*
X86937031Y-81121266D01*
X86906183Y-81050418D01*
X86874661Y-80971523D01*
X86849266Y-80901600D01*
X86845423Y-80890322D01*
X86826047Y-80837967D01*
X86808574Y-80797283D01*
X86796388Y-80776287D01*
X86791426Y-80773322D01*
X86761634Y-80763375D01*
X86711047Y-80750505D01*
X86645194Y-80736053D01*
X86569600Y-80721355D01*
X86546957Y-80717210D01*
X86465038Y-80702116D01*
X86388600Y-80687899D01*
X86325337Y-80675995D01*
X86282943Y-80667839D01*
X86206743Y-80652799D01*
X86206743Y-80335492D01*
X86206760Y-80296476D01*
X86207082Y-80201292D01*
X86208033Y-80130255D01*
X86209896Y-80079734D01*
X86212955Y-80046098D01*
X86217494Y-80025718D01*
X86223795Y-80014962D01*
X86232143Y-80010199D01*
X86240224Y-80008270D01*
X86273172Y-80001445D01*
X86325736Y-79991022D01*
X86392569Y-79978018D01*
X86468328Y-79963449D01*
X86547665Y-79948333D01*
X86625237Y-79933685D01*
X86695698Y-79920523D01*
X86753702Y-79909863D01*
X86793904Y-79902721D01*
X86810959Y-79900114D01*
X86812112Y-79898541D01*
X86821385Y-79878119D01*
X86837432Y-79839045D01*
X86857635Y-79787629D01*
X86885672Y-79718353D01*
X86920186Y-79638290D01*
X86952538Y-79567728D01*
X86959952Y-79551889D01*
X86980755Y-79502293D01*
X86993219Y-79464038D01*
X86994863Y-79444356D01*
X86994015Y-79442962D01*
X86980548Y-79422420D01*
X86953850Y-79382516D01*
X86916539Y-79327140D01*
X86871234Y-79260177D01*
X86820552Y-79185517D01*
X86763445Y-79100692D01*
X86720607Y-79034800D01*
X86691460Y-78986478D01*
X86674317Y-78952733D01*
X86667495Y-78930572D01*
X86669306Y-78917002D01*
X86669915Y-78915984D01*
X86686297Y-78896210D01*
X86719695Y-78860175D01*
X86766671Y-78811451D01*
X86823786Y-78753612D01*
X86887603Y-78690227D01*
X86953802Y-78625905D01*
X87018648Y-78565447D01*
X87066299Y-78524655D01*
X87097990Y-78502484D01*
X87114958Y-78497889D01*
X87117175Y-78498921D01*
X87140524Y-78512837D01*
X87182912Y-78540030D01*
X87240369Y-78577889D01*
X87308923Y-78623803D01*
X87384601Y-78675160D01*
X87631298Y-78843626D01*
X87742706Y-78793062D01*
X87745943Y-78791597D01*
X87814343Y-78761965D01*
X87886907Y-78732493D01*
X87948457Y-78709358D01*
X87948729Y-78709262D01*
X87997595Y-78691367D01*
X88035212Y-78676253D01*
X88053457Y-78667184D01*
X88053752Y-78666855D01*
X88059946Y-78648282D01*
X88070139Y-78606045D01*
X88083348Y-78544696D01*
X88098590Y-78468789D01*
X88114881Y-78382875D01*
X88115449Y-78379796D01*
X88131713Y-78292128D01*
X88146608Y-78212741D01*
X88159171Y-78146701D01*
X88168438Y-78099079D01*
X88173444Y-78074943D01*
X88173764Y-78073605D01*
X88177060Y-78063273D01*
X88183738Y-78055506D01*
X88197462Y-78049940D01*
X88221895Y-78046207D01*
X88260702Y-78043942D01*
X88317546Y-78042778D01*
X88396090Y-78042348D01*
X88500000Y-78042286D01*
X88513056Y-78042286D01*
X88613933Y-78042371D01*
G36*
X88613933Y-78042371D02*
G01*
X88689856Y-78042865D01*
X88744491Y-78044135D01*
X88781500Y-78046547D01*
X88804547Y-78050467D01*
X88817296Y-78056262D01*
X88823411Y-78064299D01*
X88826556Y-78074943D01*
X88826646Y-78075325D01*
X88831814Y-78100347D01*
X88841209Y-78148681D01*
X88853867Y-78215260D01*
X88868825Y-78295014D01*
X88885119Y-78382875D01*
X88886448Y-78390064D01*
X88902691Y-78475340D01*
X88917805Y-78550242D01*
X88930808Y-78610219D01*
X88940715Y-78650717D01*
X88946544Y-78667184D01*
X88946575Y-78667210D01*
X88964943Y-78676320D01*
X89002640Y-78691457D01*
X89051543Y-78709358D01*
X89054297Y-78710330D01*
X89116817Y-78733959D01*
X89189543Y-78763595D01*
X89257294Y-78793062D01*
X89368703Y-78843626D01*
X89615399Y-78675160D01*
X89632775Y-78663311D01*
X89707202Y-78612947D01*
X89773614Y-78568612D01*
X89828039Y-78532916D01*
X89866506Y-78508471D01*
X89885042Y-78497889D01*
X89897743Y-78500315D01*
X89926579Y-78519110D01*
X89971143Y-78556330D01*
X90032670Y-78613020D01*
X90112398Y-78690227D01*
X90119532Y-78697255D01*
X90182796Y-78760222D01*
X90238990Y-78817268D01*
X90284677Y-78864817D01*
X90316414Y-78899297D01*
X90330764Y-78917131D01*
X90330810Y-78917217D01*
X90332633Y-78930795D01*
X90325910Y-78952820D01*
X90308946Y-78986304D01*
X90280044Y-79034261D01*
X90237508Y-79099704D01*
X90179644Y-79185645D01*
X90169783Y-79200151D01*
X90119913Y-79273635D01*
X90075905Y-79338687D01*
X90040380Y-79391417D01*
X90015959Y-79427936D01*
X90005264Y-79444356D01*
X90004458Y-79447834D01*
X90009518Y-79473785D01*
X90024677Y-79516159D01*
X90047463Y-79567728D01*
X90078429Y-79635170D01*
X90113004Y-79715195D01*
X90142366Y-79787629D01*
X90149645Y-79806377D01*
X90168710Y-79854246D01*
X90182715Y-79887596D01*
X90189041Y-79900114D01*
X90196025Y-79901050D01*
X90227413Y-79906461D01*
X90278787Y-79915806D01*
X90344802Y-79928069D01*
X90420113Y-79942232D01*
X90499375Y-79957280D01*
X90577243Y-79972195D01*
X90648370Y-79985961D01*
X90707412Y-79997562D01*
X90749022Y-80005980D01*
X90767857Y-80010199D01*
X90770980Y-80011389D01*
X90778591Y-80017805D01*
X90784254Y-80031465D01*
X90788251Y-80055999D01*
X90790866Y-80095038D01*
X90792384Y-80152213D01*
X90793086Y-80231154D01*
X90793257Y-80335492D01*
X90793257Y-80652799D01*
X90717057Y-80667839D01*
X90707840Y-80669642D01*
X90658891Y-80678980D01*
X90591205Y-80691669D01*
X90512478Y-80706273D01*
X90430400Y-80721355D01*
X90398078Y-80727422D01*
X90325855Y-80742181D01*
X90265666Y-80756137D01*
X90223040Y-80767952D01*
X90203510Y-80776287D01*
X90194660Y-80789905D01*
X90178548Y-80825938D01*
X90162065Y-80872572D01*
X90156263Y-80890034D01*
X90134906Y-80947358D01*
X90107359Y-81015201D01*
X90078107Y-81082355D01*
X90062463Y-81117430D01*
X90040174Y-81169822D01*
X90024857Y-81209058D01*
X90019162Y-81228563D01*
X90019478Y-81230036D01*
X90030281Y-81250729D01*
X90054638Y-81290665D01*
X90090081Y-81345972D01*
X90134136Y-81412781D01*
X90184332Y-81487220D01*
X90349501Y-81729623D01*
X90132503Y-81946983D01*
X90111516Y-81967899D01*
X90047342Y-82030505D01*
X89989990Y-82084495D01*
X89942820Y-82126826D01*
X89909192Y-82154457D01*
X89892467Y-82164343D01*
X89874303Y-82156821D01*
X89836265Y-82135227D01*
X89782726Y-82102151D01*
X89717884Y-82060191D01*
X89645940Y-82011943D01*
X89575275Y-81964291D01*
X89511526Y-81922328D01*
X89459513Y-81889165D01*
X89423279Y-81867378D01*
X89406867Y-81859543D01*
X89405905Y-81859614D01*
X89384103Y-81867338D01*
X89345440Y-81885323D01*
X89297612Y-81910013D01*
X89297110Y-81910284D01*
X89233587Y-81942099D01*
X89190060Y-81957642D01*
X89163052Y-81957685D01*
X89149090Y-81943000D01*
X89143180Y-81928544D01*
X89127229Y-81889831D01*
X89102660Y-81830316D01*
X89070779Y-81753165D01*
X89032893Y-81661541D01*
X88990310Y-81558607D01*
X88944337Y-81447526D01*
X88902667Y-81346472D01*
X88860268Y-81242780D01*
X88822756Y-81150119D01*
X88791388Y-81071642D01*
X88767425Y-81010500D01*
X88752123Y-80969843D01*
X88746743Y-80952825D01*
X88757018Y-80937219D01*
X88785563Y-80911162D01*
X88825971Y-80880887D01*
X88922979Y-80801684D01*
X89009793Y-80700475D01*
X89073322Y-80589116D01*
X89113177Y-80470893D01*
X89128965Y-80349095D01*
X89120296Y-80227010D01*
X89086778Y-80107925D01*
X89028021Y-79995129D01*
X88943632Y-79891911D01*
X88899631Y-79851713D01*
X88794211Y-79780638D01*
X88681410Y-79734301D01*
X88564525Y-79711599D01*
X88446853Y-79711428D01*
X88331690Y-79732687D01*
X88222335Y-79774270D01*
X88122083Y-79835076D01*
X88034233Y-79914001D01*
X87962080Y-80009941D01*
X87908922Y-80121795D01*
X87878057Y-80248457D01*
X87872392Y-80309507D01*
X87880185Y-80441776D01*
X87915284Y-80567266D01*
X87976649Y-80683759D01*
X88063243Y-80789039D01*
X88174029Y-80880887D01*
X88212931Y-80909930D01*
X88242104Y-80936272D01*
X88253257Y-80952800D01*
X88248810Y-80967209D01*
X88234378Y-81005815D01*
X88211173Y-81065201D01*
X88180452Y-81142215D01*
X88143474Y-81233703D01*
X88101496Y-81336516D01*
X88055778Y-81447502D01*
X88014178Y-81548072D01*
X87971222Y-81651947D01*
X87932829Y-81744819D01*
X87900305Y-81823525D01*
X87874958Y-81884899D01*
X87858095Y-81925779D01*
X87851025Y-81943000D01*
X87850943Y-81943204D01*
X87836798Y-81957745D01*
X87809659Y-81957579D01*
X87766023Y-81941927D01*
X87702388Y-81910013D01*
X87697379Y-81907326D01*
X87650125Y-81883150D01*
X87612811Y-81866037D01*
X87593133Y-81859543D01*
X87577005Y-81867218D01*
X87540959Y-81888871D01*
X87489092Y-81921928D01*
X87425445Y-81963810D01*
X87354060Y-82011943D01*
X87283724Y-82059131D01*
X87218670Y-82101267D01*
X87164820Y-82134578D01*
X87126374Y-82156469D01*
X87107534Y-82164343D01*
X87104325Y-82163343D01*
X87081954Y-82147584D01*
X87043733Y-82115033D01*
X86993021Y-82068733D01*
X86933181Y-82011726D01*
X86867571Y-81947058D01*
X86650648Y-81729772D01*
X86819601Y-81481253D01*
X86988553Y-81232733D01*
X86937183Y-81121595D01*
X86937031Y-81121266D01*
X86906183Y-81050418D01*
X86874661Y-80971523D01*
X86849266Y-80901600D01*
X86845423Y-80890322D01*
X86826047Y-80837967D01*
X86808574Y-80797283D01*
X86796388Y-80776287D01*
X86791426Y-80773322D01*
X86761634Y-80763375D01*
X86711047Y-80750505D01*
X86645194Y-80736053D01*
X86569600Y-80721355D01*
X86546957Y-80717210D01*
X86465038Y-80702116D01*
X86388600Y-80687899D01*
X86325337Y-80675995D01*
X86282943Y-80667839D01*
X86206743Y-80652799D01*
X86206743Y-80335492D01*
X86206760Y-80296476D01*
X86207082Y-80201292D01*
X86208033Y-80130255D01*
X86209896Y-80079734D01*
X86212955Y-80046098D01*
X86217494Y-80025718D01*
X86223795Y-80014962D01*
X86232143Y-80010199D01*
X86240224Y-80008270D01*
X86273172Y-80001445D01*
X86325736Y-79991022D01*
X86392569Y-79978018D01*
X86468328Y-79963449D01*
X86547665Y-79948333D01*
X86625237Y-79933685D01*
X86695698Y-79920523D01*
X86753702Y-79909863D01*
X86793904Y-79902721D01*
X86810959Y-79900114D01*
X86812112Y-79898541D01*
X86821385Y-79878119D01*
X86837432Y-79839045D01*
X86857635Y-79787629D01*
X86885672Y-79718353D01*
X86920186Y-79638290D01*
X86952538Y-79567728D01*
X86959952Y-79551889D01*
X86980755Y-79502293D01*
X86993219Y-79464038D01*
X86994863Y-79444356D01*
X86994015Y-79442962D01*
X86980548Y-79422420D01*
X86953850Y-79382516D01*
X86916539Y-79327140D01*
X86871234Y-79260177D01*
X86820552Y-79185517D01*
X86763445Y-79100692D01*
X86720607Y-79034800D01*
X86691460Y-78986478D01*
X86674317Y-78952733D01*
X86667495Y-78930572D01*
X86669306Y-78917002D01*
X86669915Y-78915984D01*
X86686297Y-78896210D01*
X86719695Y-78860175D01*
X86766671Y-78811451D01*
X86823786Y-78753612D01*
X86887603Y-78690227D01*
X86953802Y-78625905D01*
X87018648Y-78565447D01*
X87066299Y-78524655D01*
X87097990Y-78502484D01*
X87114958Y-78497889D01*
X87117175Y-78498921D01*
X87140524Y-78512837D01*
X87182912Y-78540030D01*
X87240369Y-78577889D01*
X87308923Y-78623803D01*
X87384601Y-78675160D01*
X87631298Y-78843626D01*
X87742706Y-78793062D01*
X87745943Y-78791597D01*
X87814343Y-78761965D01*
X87886907Y-78732493D01*
X87948457Y-78709358D01*
X87948729Y-78709262D01*
X87997595Y-78691367D01*
X88035212Y-78676253D01*
X88053457Y-78667184D01*
X88053752Y-78666855D01*
X88059946Y-78648282D01*
X88070139Y-78606045D01*
X88083348Y-78544696D01*
X88098590Y-78468789D01*
X88114881Y-78382875D01*
X88115449Y-78379796D01*
X88131713Y-78292128D01*
X88146608Y-78212741D01*
X88159171Y-78146701D01*
X88168438Y-78099079D01*
X88173444Y-78074943D01*
X88173764Y-78073605D01*
X88177060Y-78063273D01*
X88183738Y-78055506D01*
X88197462Y-78049940D01*
X88221895Y-78046207D01*
X88260702Y-78043942D01*
X88317546Y-78042778D01*
X88396090Y-78042348D01*
X88500000Y-78042286D01*
X88513056Y-78042286D01*
X88613933Y-78042371D01*
G37*
%TD*%
M02*
