%TF.GenerationSoftware,KiCad,Pcbnew,7.0.5*%
%TF.CreationDate,2023-11-04T19:54:29+08:00*%
%TF.ProjectId,Three2One,54687265-6532-44f6-9e65-2e6b69636164,rev?*%
%TF.SameCoordinates,Original*%
%TF.FileFunction,Legend,Top*%
%TF.FilePolarity,Positive*%
%FSLAX46Y46*%
G04 Gerber Fmt 4.6, Leading zero omitted, Abs format (unit mm)*
G04 Created by KiCad (PCBNEW 7.0.5) date 2023-11-04 19:54:29*
%MOMM*%
%LPD*%
G01*
G04 APERTURE LIST*
%ADD10C,0.150000*%
%ADD11C,0.120000*%
%ADD12C,0.100000*%
G04 APERTURE END LIST*
D10*
%TO.C,U1*%
X161507295Y-27467380D02*
X161507295Y-27848332D01*
X161507295Y-27848332D02*
X161888247Y-27886428D01*
X161888247Y-27886428D02*
X161850152Y-27848332D01*
X161850152Y-27848332D02*
X161812057Y-27772142D01*
X161812057Y-27772142D02*
X161812057Y-27581666D01*
X161812057Y-27581666D02*
X161850152Y-27505475D01*
X161850152Y-27505475D02*
X161888247Y-27467380D01*
X161888247Y-27467380D02*
X161964438Y-27429285D01*
X161964438Y-27429285D02*
X162154914Y-27429285D01*
X162154914Y-27429285D02*
X162231104Y-27467380D01*
X162231104Y-27467380D02*
X162269200Y-27505475D01*
X162269200Y-27505475D02*
X162307295Y-27581666D01*
X162307295Y-27581666D02*
X162307295Y-27772142D01*
X162307295Y-27772142D02*
X162269200Y-27848332D01*
X162269200Y-27848332D02*
X162231104Y-27886428D01*
X161507295Y-27200713D02*
X162307295Y-26934046D01*
X162307295Y-26934046D02*
X161507295Y-26667380D01*
X161545390Y-30464523D02*
X161507295Y-30540713D01*
X161507295Y-30540713D02*
X161507295Y-30654999D01*
X161507295Y-30654999D02*
X161545390Y-30769285D01*
X161545390Y-30769285D02*
X161621580Y-30845475D01*
X161621580Y-30845475D02*
X161697771Y-30883570D01*
X161697771Y-30883570D02*
X161850152Y-30921666D01*
X161850152Y-30921666D02*
X161964438Y-30921666D01*
X161964438Y-30921666D02*
X162116819Y-30883570D01*
X162116819Y-30883570D02*
X162193009Y-30845475D01*
X162193009Y-30845475D02*
X162269200Y-30769285D01*
X162269200Y-30769285D02*
X162307295Y-30654999D01*
X162307295Y-30654999D02*
X162307295Y-30578808D01*
X162307295Y-30578808D02*
X162269200Y-30464523D01*
X162269200Y-30464523D02*
X162231104Y-30426427D01*
X162231104Y-30426427D02*
X161964438Y-30426427D01*
X161964438Y-30426427D02*
X161964438Y-30578808D01*
X162307295Y-30083570D02*
X161507295Y-30083570D01*
X161507295Y-30083570D02*
X162307295Y-29626427D01*
X162307295Y-29626427D02*
X161507295Y-29626427D01*
X162307295Y-29245475D02*
X161507295Y-29245475D01*
X161507295Y-29245475D02*
X161507295Y-29054999D01*
X161507295Y-29054999D02*
X161545390Y-28940713D01*
X161545390Y-28940713D02*
X161621580Y-28864523D01*
X161621580Y-28864523D02*
X161697771Y-28826428D01*
X161697771Y-28826428D02*
X161850152Y-28788332D01*
X161850152Y-28788332D02*
X161964438Y-28788332D01*
X161964438Y-28788332D02*
X162116819Y-28826428D01*
X162116819Y-28826428D02*
X162193009Y-28864523D01*
X162193009Y-28864523D02*
X162269200Y-28940713D01*
X162269200Y-28940713D02*
X162307295Y-29054999D01*
X162307295Y-29054999D02*
X162307295Y-29245475D01*
X161507295Y-33385476D02*
X161507295Y-32890238D01*
X161507295Y-32890238D02*
X161812057Y-33156904D01*
X161812057Y-33156904D02*
X161812057Y-33042619D01*
X161812057Y-33042619D02*
X161850152Y-32966428D01*
X161850152Y-32966428D02*
X161888247Y-32928333D01*
X161888247Y-32928333D02*
X161964438Y-32890238D01*
X161964438Y-32890238D02*
X162154914Y-32890238D01*
X162154914Y-32890238D02*
X162231104Y-32928333D01*
X162231104Y-32928333D02*
X162269200Y-32966428D01*
X162269200Y-32966428D02*
X162307295Y-33042619D01*
X162307295Y-33042619D02*
X162307295Y-33271190D01*
X162307295Y-33271190D02*
X162269200Y-33347381D01*
X162269200Y-33347381D02*
X162231104Y-33385476D01*
X161507295Y-32661666D02*
X162307295Y-32394999D01*
X162307295Y-32394999D02*
X161507295Y-32128333D01*
X161507295Y-31937857D02*
X161507295Y-31442619D01*
X161507295Y-31442619D02*
X161812057Y-31709285D01*
X161812057Y-31709285D02*
X161812057Y-31595000D01*
X161812057Y-31595000D02*
X161850152Y-31518809D01*
X161850152Y-31518809D02*
X161888247Y-31480714D01*
X161888247Y-31480714D02*
X161964438Y-31442619D01*
X161964438Y-31442619D02*
X162154914Y-31442619D01*
X162154914Y-31442619D02*
X162231104Y-31480714D01*
X162231104Y-31480714D02*
X162269200Y-31518809D01*
X162269200Y-31518809D02*
X162307295Y-31595000D01*
X162307295Y-31595000D02*
X162307295Y-31823571D01*
X162307295Y-31823571D02*
X162269200Y-31899762D01*
X162269200Y-31899762D02*
X162231104Y-31937857D01*
D11*
%TO.C,D5*%
X148335000Y-63805000D02*
X148335000Y-64265000D01*
D12*
X148335000Y-65839400D02*
X148335000Y-66239400D01*
X148335000Y-66239400D02*
X148885000Y-66239400D01*
X148335000Y-66239400D02*
X147785000Y-66239400D01*
X148335000Y-66239400D02*
X148735000Y-66839400D01*
X148735000Y-66839400D02*
X147935000Y-66839400D01*
X148335000Y-66839400D02*
X148335000Y-67339400D01*
X147935000Y-66839400D02*
X148335000Y-66239400D01*
D11*
X148335000Y-69345000D02*
X148335000Y-68865000D01*
%TO.C,D10*%
X151885000Y-74805000D02*
X151885000Y-75265000D01*
D12*
X151885000Y-76839400D02*
X151885000Y-77239400D01*
X151885000Y-77239400D02*
X152435000Y-77239400D01*
X151885000Y-77239400D02*
X151335000Y-77239400D01*
X151885000Y-77239400D02*
X152285000Y-77839400D01*
X152285000Y-77839400D02*
X151485000Y-77839400D01*
X151885000Y-77839400D02*
X151885000Y-78339400D01*
X151485000Y-77839400D02*
X151885000Y-77239400D01*
D11*
X151885000Y-80345000D02*
X151885000Y-79865000D01*
%TO.C,D11*%
X155435000Y-74805000D02*
X155435000Y-75265000D01*
D12*
X155435000Y-76839400D02*
X155435000Y-77239400D01*
X155435000Y-77239400D02*
X155985000Y-77239400D01*
X155435000Y-77239400D02*
X154885000Y-77239400D01*
X155435000Y-77239400D02*
X155835000Y-77839400D01*
X155835000Y-77839400D02*
X155035000Y-77839400D01*
X155435000Y-77839400D02*
X155435000Y-78339400D01*
X155035000Y-77839400D02*
X155435000Y-77239400D01*
D11*
X155435000Y-80345000D02*
X155435000Y-79865000D01*
%TO.C,RE3*%
X111840000Y-29150000D02*
X114240000Y-29150000D01*
X111840000Y-33250000D02*
X111840000Y-29150000D01*
X111840000Y-37250000D02*
X111840000Y-41350000D01*
X111840000Y-41350000D02*
X123640000Y-41350000D01*
X113640000Y-42450000D02*
X113940000Y-42750000D01*
X113640000Y-43050000D02*
X113640000Y-42450000D01*
X113940000Y-42750000D02*
X113640000Y-43050000D01*
X116440000Y-29150000D02*
X118540000Y-29150000D01*
X121240000Y-29150000D02*
X123640000Y-29150000D01*
X123640000Y-29150000D02*
X123640000Y-33250000D01*
X123640000Y-37250000D02*
X123640000Y-41350000D01*
X120240020Y-35250000D02*
G75*
G03*
X120240020Y-35250000I-2500020J0D01*
G01*
%TO.C,RE4*%
X130890000Y-29150000D02*
X133290000Y-29150000D01*
X130890000Y-33250000D02*
X130890000Y-29150000D01*
X130890000Y-37250000D02*
X130890000Y-41350000D01*
X130890000Y-41350000D02*
X142690000Y-41350000D01*
X132690000Y-42450000D02*
X132990000Y-42750000D01*
X132690000Y-43050000D02*
X132690000Y-42450000D01*
X132990000Y-42750000D02*
X132690000Y-43050000D01*
X135490000Y-29150000D02*
X137590000Y-29150000D01*
X140290000Y-29150000D02*
X142690000Y-29150000D01*
X142690000Y-29150000D02*
X142690000Y-33250000D01*
X142690000Y-37250000D02*
X142690000Y-41350000D01*
X139290020Y-35250000D02*
G75*
G03*
X139290020Y-35250000I-2500020J0D01*
G01*
%TO.C,D8*%
X158985000Y-63805000D02*
X158985000Y-64265000D01*
D12*
X158985000Y-65839400D02*
X158985000Y-66239400D01*
X158985000Y-66239400D02*
X159535000Y-66239400D01*
X158985000Y-66239400D02*
X158435000Y-66239400D01*
X158985000Y-66239400D02*
X159385000Y-66839400D01*
X159385000Y-66839400D02*
X158585000Y-66839400D01*
X158985000Y-66839400D02*
X158985000Y-67339400D01*
X158585000Y-66839400D02*
X158985000Y-66239400D01*
D11*
X158985000Y-69345000D02*
X158985000Y-68865000D01*
%TO.C,D6*%
X151885000Y-63805000D02*
X151885000Y-64265000D01*
D12*
X151885000Y-65839400D02*
X151885000Y-66239400D01*
X151885000Y-66239400D02*
X152435000Y-66239400D01*
X151885000Y-66239400D02*
X151335000Y-66239400D01*
X151885000Y-66239400D02*
X152285000Y-66839400D01*
X152285000Y-66839400D02*
X151485000Y-66839400D01*
X151885000Y-66839400D02*
X151885000Y-67339400D01*
X151485000Y-66839400D02*
X151885000Y-66239400D01*
D11*
X151885000Y-69345000D02*
X151885000Y-68865000D01*
%TO.C,RE1*%
X73740000Y-29150000D02*
X76140000Y-29150000D01*
X73740000Y-33250000D02*
X73740000Y-29150000D01*
X73740000Y-37250000D02*
X73740000Y-41350000D01*
X73740000Y-41350000D02*
X85540000Y-41350000D01*
X75540000Y-42450000D02*
X75840000Y-42750000D01*
X75540000Y-43050000D02*
X75540000Y-42450000D01*
X75840000Y-42750000D02*
X75540000Y-43050000D01*
X78340000Y-29150000D02*
X80440000Y-29150000D01*
X83140000Y-29150000D02*
X85540000Y-29150000D01*
X85540000Y-29150000D02*
X85540000Y-33250000D01*
X85540000Y-37250000D02*
X85540000Y-41350000D01*
X82140020Y-35250000D02*
G75*
G03*
X82140020Y-35250000I-2500020J0D01*
G01*
%TO.C,D9*%
X148335000Y-74805000D02*
X148335000Y-75265000D01*
D12*
X148335000Y-76839400D02*
X148335000Y-77239400D01*
X148335000Y-77239400D02*
X148885000Y-77239400D01*
X148335000Y-77239400D02*
X147785000Y-77239400D01*
X148335000Y-77239400D02*
X148735000Y-77839400D01*
X148735000Y-77839400D02*
X147935000Y-77839400D01*
X148335000Y-77839400D02*
X148335000Y-78339400D01*
X147935000Y-77839400D02*
X148335000Y-77239400D01*
D11*
X148335000Y-80345000D02*
X148335000Y-79865000D01*
%TO.C,D2*%
X151885000Y-52805000D02*
X151885000Y-53265000D01*
D12*
X151885000Y-54839400D02*
X151885000Y-55239400D01*
X151885000Y-55239400D02*
X152435000Y-55239400D01*
X151885000Y-55239400D02*
X151335000Y-55239400D01*
X151885000Y-55239400D02*
X152285000Y-55839400D01*
X152285000Y-55839400D02*
X151485000Y-55839400D01*
X151885000Y-55839400D02*
X151885000Y-56339400D01*
X151485000Y-55839400D02*
X151885000Y-55239400D01*
D11*
X151885000Y-58345000D02*
X151885000Y-57865000D01*
%TO.C,D3*%
X155435000Y-52805000D02*
X155435000Y-53265000D01*
D12*
X155435000Y-54839400D02*
X155435000Y-55239400D01*
X155435000Y-55239400D02*
X155985000Y-55239400D01*
X155435000Y-55239400D02*
X154885000Y-55239400D01*
X155435000Y-55239400D02*
X155835000Y-55839400D01*
X155835000Y-55839400D02*
X155035000Y-55839400D01*
X155435000Y-55839400D02*
X155435000Y-56339400D01*
X155035000Y-55839400D02*
X155435000Y-55239400D01*
D11*
X155435000Y-58345000D02*
X155435000Y-57865000D01*
%TO.C,D7*%
X155435000Y-63805000D02*
X155435000Y-64265000D01*
D12*
X155435000Y-65839400D02*
X155435000Y-66239400D01*
X155435000Y-66239400D02*
X155985000Y-66239400D01*
X155435000Y-66239400D02*
X154885000Y-66239400D01*
X155435000Y-66239400D02*
X155835000Y-66839400D01*
X155835000Y-66839400D02*
X155035000Y-66839400D01*
X155435000Y-66839400D02*
X155435000Y-67339400D01*
X155035000Y-66839400D02*
X155435000Y-66239400D01*
D11*
X155435000Y-69345000D02*
X155435000Y-68865000D01*
%TO.C,RE2*%
X92790000Y-29150000D02*
X95190000Y-29150000D01*
X92790000Y-33250000D02*
X92790000Y-29150000D01*
X92790000Y-37250000D02*
X92790000Y-41350000D01*
X92790000Y-41350000D02*
X104590000Y-41350000D01*
X94590000Y-42450000D02*
X94890000Y-42750000D01*
X94590000Y-43050000D02*
X94590000Y-42450000D01*
X94890000Y-42750000D02*
X94590000Y-43050000D01*
X97390000Y-29150000D02*
X99490000Y-29150000D01*
X102190000Y-29150000D02*
X104590000Y-29150000D01*
X104590000Y-29150000D02*
X104590000Y-33250000D01*
X104590000Y-37250000D02*
X104590000Y-41350000D01*
X101190020Y-35250000D02*
G75*
G03*
X101190020Y-35250000I-2500020J0D01*
G01*
%TO.C,D1*%
X148335000Y-52805000D02*
X148335000Y-53265000D01*
D12*
X148335000Y-54839400D02*
X148335000Y-55239400D01*
X148335000Y-55239400D02*
X148885000Y-55239400D01*
X148335000Y-55239400D02*
X147785000Y-55239400D01*
X148335000Y-55239400D02*
X148735000Y-55839400D01*
X148735000Y-55839400D02*
X147935000Y-55839400D01*
X148335000Y-55839400D02*
X148335000Y-56339400D01*
X147935000Y-55839400D02*
X148335000Y-55239400D01*
D11*
X148335000Y-58345000D02*
X148335000Y-57865000D01*
%TO.C,D12*%
X158985000Y-74805000D02*
X158985000Y-75265000D01*
D12*
X158985000Y-76839400D02*
X158985000Y-77239400D01*
X158985000Y-77239400D02*
X159535000Y-77239400D01*
X158985000Y-77239400D02*
X158435000Y-77239400D01*
X158985000Y-77239400D02*
X159385000Y-77839400D01*
X159385000Y-77839400D02*
X158585000Y-77839400D01*
X158985000Y-77839400D02*
X158985000Y-78339400D01*
X158585000Y-77839400D02*
X158985000Y-77239400D01*
D11*
X158985000Y-80345000D02*
X158985000Y-79865000D01*
%TO.C,D4*%
X158985000Y-52805000D02*
X158985000Y-53265000D01*
D12*
X158985000Y-54839400D02*
X158985000Y-55239400D01*
X158985000Y-55239400D02*
X159535000Y-55239400D01*
X158985000Y-55239400D02*
X158435000Y-55239400D01*
X158985000Y-55239400D02*
X159385000Y-55839400D01*
X159385000Y-55839400D02*
X158585000Y-55839400D01*
X158985000Y-55839400D02*
X158985000Y-56339400D01*
X158585000Y-55839400D02*
X158985000Y-55239400D01*
D11*
X158985000Y-58345000D02*
X158985000Y-57865000D01*
%TD*%
M02*
