M48
; DRILL file {KiCad 7.0.5} date Sat Nov  4 19:54:28 2023
; FORMAT={-:-/ absolute / metric / decimal}
; #@! TF.CreationDate,2023-11-04T19:54:28+08:00
; #@! TF.GenerationSoftware,Kicad,Pcbnew,7.0.5
; #@! TF.FileFunction,Plated,1,2,PTH
FMAT,2
METRIC
; #@! TA.AperFunction,Plated,PTH,ViaDrill
T1C0.400
; #@! TA.AperFunction,Plated,PTH,ComponentDrill
T2C0.800
; #@! TA.AperFunction,Plated,PTH,ComponentDrill
T3C1.000
; #@! TA.AperFunction,Plated,PTH,ComponentDrill
T4C1.092
; #@! TA.AperFunction,Plated,PTH,ComponentDrill
T5C3.050
%
G90
G05
T1
X84.95Y-43.41
X94.18Y-44.36
X94.88Y-60.84
X104.01Y-43.41
X113.23Y-44.06
X113.93Y-60.45
X123.04Y-43.41
X130.26Y-43.79
X132.98Y-58.886
X140.03Y-52.25
X140.193Y-57.387
X142.09Y-43.45
X144.59Y-51.4
X144.59Y-60.03
X145.595Y-55.465
X145.6Y-60.04
X147.399Y-49.17
X147.399Y-50.17
X153.13Y-61.07
X154.19Y-61.07
X161.09Y-45.1
X161.85Y-53.95
T2
X148.335Y-51.765
X148.335Y-59.365
X148.335Y-62.765
X148.335Y-70.365
X148.335Y-73.765
X148.335Y-81.365
X151.885Y-51.765
X151.885Y-59.365
X151.885Y-62.765
X151.885Y-70.365
X151.885Y-73.765
X151.885Y-81.365
X155.435Y-51.765
X155.435Y-59.365
X155.435Y-62.765
X155.435Y-70.365
X155.435Y-73.765
X155.435Y-81.365
X158.985Y-51.765
X158.985Y-59.365
X158.985Y-62.765
X158.985Y-70.365
X158.985Y-73.765
X158.985Y-81.365
T3
X77.14Y-28.25
X77.14Y-42.75
X79.64Y-42.75
X82.14Y-28.25
X82.14Y-42.75
X96.19Y-28.25
X96.19Y-42.75
X98.69Y-42.75
X101.19Y-28.25
X101.19Y-42.75
X115.24Y-28.25
X115.24Y-42.75
X117.74Y-42.75
X120.24Y-28.25
X120.24Y-42.75
X134.29Y-28.25
X134.29Y-42.75
X136.79Y-42.75
X139.29Y-28.25
X139.29Y-42.75
T4
X148.335Y-27.315
X148.335Y-29.855
X148.335Y-32.395
X148.335Y-34.935
X148.335Y-37.475
X148.335Y-40.015
X148.335Y-42.555
X148.335Y-45.095
X148.335Y-47.635
X150.93Y-47.955
X153.47Y-47.955
X156.01Y-47.955
X158.55Y-47.955
X161.09Y-47.955
X163.685Y-27.315
X163.685Y-29.855
X163.685Y-32.395
X163.685Y-34.935
X163.685Y-37.475
X163.685Y-40.015
X163.685Y-42.555
X163.685Y-45.095
X163.685Y-47.635
T5
X75.83Y-32.71
X75.83Y-51.76
X75.83Y-70.81
X82.18Y-30.17
X82.18Y-49.22
X82.18Y-68.27
X94.88Y-32.71
X94.88Y-51.76
X94.88Y-70.81
X101.23Y-30.17
X101.23Y-49.22
X101.23Y-68.27
X113.93Y-32.71
X113.93Y-51.76
X113.93Y-70.81
X120.28Y-30.17
X120.28Y-49.22
X120.28Y-68.27
X132.98Y-32.71
X132.98Y-51.76
X132.98Y-70.81
X139.33Y-30.17
X139.33Y-49.22
X139.33Y-68.27
T0
M30
