%TF.GenerationSoftware,KiCad,Pcbnew,7.0.5*%
%TF.CreationDate,2023-11-04T19:54:28+08:00*%
%TF.ProjectId,Three2One,54687265-6532-44f6-9e65-2e6b69636164,rev?*%
%TF.SameCoordinates,Original*%
%TF.FileFunction,Drillmap*%
%TF.FilePolarity,Positive*%
%FSLAX45Y45*%
G04 Gerber Fmt 4.5, Leading zero omitted, Abs format (unit mm)*
G04 Created by KiCad (PCBNEW 7.0.5) date 2023-11-04 19:54:28*
%MOMM*%
%LPD*%
G01*
G04 APERTURE LIST*
%ADD10C,0.150000*%
%ADD11C,0.200000*%
%ADD12C,0.175000*%
%ADD13C,0.220000*%
%ADD14C,0.350000*%
%ADD15C,0.400000*%
G04 APERTURE END LIST*
D10*
X7231500Y-2572500D02*
X15061000Y-2572500D01*
X15111000Y-3287500D02*
X15151000Y-3327500D01*
X7011500Y-2792500D02*
X7011500Y-8067500D01*
X7011500Y-8067500D02*
G75*
G03*
X7231500Y-8287500I220000J0D01*
G01*
X15061000Y-2572500D02*
X15111000Y-2622500D01*
X15111000Y-2622500D02*
X15111000Y-3287500D01*
X16091000Y-2622500D02*
X16141000Y-2572500D01*
X16300500Y-8287500D02*
G75*
G03*
X16520500Y-8067500I0J220000D01*
G01*
X16520500Y-2572500D02*
X16141000Y-2572500D01*
X16051000Y-3327500D02*
X16091000Y-3287500D01*
X15151000Y-3327500D02*
X16051000Y-3327500D01*
X7231500Y-8287500D02*
X16300500Y-8287500D01*
X7231500Y-2572500D02*
G75*
G03*
X7011500Y-2792500I0J-220000D01*
G01*
X15666000Y-3457500D02*
X16166000Y-3457500D01*
X16166000Y-3807500D01*
X15666000Y-3807500D01*
X15666000Y-3457500D01*
X16091000Y-3287500D02*
X16091000Y-2622500D01*
X16520500Y-2572500D02*
X16520500Y-8067500D01*
D11*
D10*
X7329000Y-3450000D02*
X7479000Y-3600000D01*
X7479000Y-3450000D02*
X7329000Y-3600000D01*
D11*
X7479000Y-3580000D02*
X7479000Y-3470000D01*
X7479000Y-3470000D02*
G75*
G03*
X7329000Y-3470000I-75000J0D01*
G01*
X7329000Y-3470000D02*
X7329000Y-3580000D01*
X7329000Y-3580000D02*
G75*
G03*
X7479000Y-3580000I75000J0D01*
G01*
D10*
X8449000Y-3450000D02*
X8599000Y-3600000D01*
X8599000Y-3450000D02*
X8449000Y-3600000D01*
D11*
X8599000Y-3580000D02*
X8599000Y-3470000D01*
X8599000Y-3470000D02*
G75*
G03*
X8449000Y-3470000I-75000J0D01*
G01*
X8449000Y-3470000D02*
X8449000Y-3580000D01*
X8449000Y-3580000D02*
G75*
G03*
X8599000Y-3580000I75000J0D01*
G01*
D10*
X9234000Y-3450000D02*
X9384000Y-3600000D01*
X9384000Y-3450000D02*
X9234000Y-3600000D01*
D11*
X9384000Y-3580000D02*
X9384000Y-3470000D01*
X9384000Y-3470000D02*
G75*
G03*
X9234000Y-3470000I-75000J0D01*
G01*
X9234000Y-3470000D02*
X9234000Y-3580000D01*
X9234000Y-3580000D02*
G75*
G03*
X9384000Y-3580000I75000J0D01*
G01*
D10*
X10354000Y-3450000D02*
X10504000Y-3600000D01*
X10504000Y-3450000D02*
X10354000Y-3600000D01*
D11*
X10504000Y-3580000D02*
X10504000Y-3470000D01*
X10504000Y-3470000D02*
G75*
G03*
X10354000Y-3470000I-75000J0D01*
G01*
X10354000Y-3470000D02*
X10354000Y-3580000D01*
X10354000Y-3580000D02*
G75*
G03*
X10504000Y-3580000I75000J0D01*
G01*
D10*
X11139000Y-3450000D02*
X11289000Y-3600000D01*
X11289000Y-3450000D02*
X11139000Y-3600000D01*
D11*
X11289000Y-3580000D02*
X11289000Y-3470000D01*
X11289000Y-3470000D02*
G75*
G03*
X11139000Y-3470000I-75000J0D01*
G01*
X11139000Y-3470000D02*
X11139000Y-3580000D01*
X11139000Y-3580000D02*
G75*
G03*
X11289000Y-3580000I75000J0D01*
G01*
D10*
X12259000Y-3450000D02*
X12409000Y-3600000D01*
X12409000Y-3450000D02*
X12259000Y-3600000D01*
D11*
X12409000Y-3580000D02*
X12409000Y-3470000D01*
X12409000Y-3470000D02*
G75*
G03*
X12259000Y-3470000I-75000J0D01*
G01*
X12259000Y-3470000D02*
X12259000Y-3580000D01*
X12259000Y-3580000D02*
G75*
G03*
X12409000Y-3580000I75000J0D01*
G01*
D10*
X13044000Y-3450000D02*
X13194000Y-3600000D01*
X13194000Y-3450000D02*
X13044000Y-3600000D01*
D11*
X13194000Y-3580000D02*
X13194000Y-3470000D01*
X13194000Y-3470000D02*
G75*
G03*
X13044000Y-3470000I-75000J0D01*
G01*
X13044000Y-3470000D02*
X13044000Y-3580000D01*
X13044000Y-3580000D02*
G75*
G03*
X13194000Y-3580000I75000J0D01*
G01*
D10*
X14164000Y-3450000D02*
X14314000Y-3600000D01*
X14314000Y-3450000D02*
X14164000Y-3600000D01*
D11*
X14314000Y-3580000D02*
X14314000Y-3470000D01*
X14314000Y-3470000D02*
G75*
G03*
X14164000Y-3470000I-75000J0D01*
G01*
X14164000Y-3470000D02*
X14164000Y-3580000D01*
X14164000Y-3580000D02*
G75*
G03*
X14314000Y-3580000I75000J0D01*
G01*
D12*
X7543500Y-3525000D02*
G75*
G03*
X7543500Y-3525000I-87500J0D01*
G01*
X7543500Y-5430000D02*
G75*
G03*
X7543500Y-5430000I-87500J0D01*
G01*
X7543500Y-7335000D02*
G75*
G03*
X7543500Y-7335000I-87500J0D01*
G01*
X8559500Y-3525000D02*
G75*
G03*
X8559500Y-3525000I-87500J0D01*
G01*
X8559500Y-5430000D02*
G75*
G03*
X8559500Y-5430000I-87500J0D01*
G01*
X8559500Y-7335000D02*
G75*
G03*
X8559500Y-7335000I-87500J0D01*
G01*
X9448500Y-3525000D02*
G75*
G03*
X9448500Y-3525000I-87500J0D01*
G01*
X9448500Y-5430000D02*
G75*
G03*
X9448500Y-5430000I-87500J0D01*
G01*
X9448500Y-7335000D02*
G75*
G03*
X9448500Y-7335000I-87500J0D01*
G01*
X10464500Y-3525000D02*
G75*
G03*
X10464500Y-3525000I-87500J0D01*
G01*
X10464500Y-5430000D02*
G75*
G03*
X10464500Y-5430000I-87500J0D01*
G01*
X10464500Y-7335000D02*
G75*
G03*
X10464500Y-7335000I-87500J0D01*
G01*
X11353500Y-3525000D02*
G75*
G03*
X11353500Y-3525000I-87500J0D01*
G01*
X11353500Y-5430000D02*
G75*
G03*
X11353500Y-5430000I-87500J0D01*
G01*
X11353500Y-7335000D02*
G75*
G03*
X11353500Y-7335000I-87500J0D01*
G01*
X12369500Y-3525000D02*
G75*
G03*
X12369500Y-3525000I-87500J0D01*
G01*
X12369500Y-5430000D02*
G75*
G03*
X12369500Y-5430000I-87500J0D01*
G01*
X12369500Y-7335000D02*
G75*
G03*
X12369500Y-7335000I-87500J0D01*
G01*
X13258500Y-3525000D02*
G75*
G03*
X13258500Y-3525000I-87500J0D01*
G01*
X13258500Y-5430000D02*
G75*
G03*
X13258500Y-5430000I-87500J0D01*
G01*
X13258500Y-7335000D02*
G75*
G03*
X13258500Y-7335000I-87500J0D01*
G01*
X14274500Y-3525000D02*
G75*
G03*
X14274500Y-3525000I-87500J0D01*
G01*
X14274500Y-5430000D02*
G75*
G03*
X14274500Y-5430000I-87500J0D01*
G01*
X14274500Y-7335000D02*
G75*
G03*
X14274500Y-7335000I-87500J0D01*
G01*
D13*
X16300500Y-5137500D02*
X16300500Y-5357500D01*
X16190500Y-5247500D02*
X16410500Y-5247500D01*
X16300500Y-7957500D02*
X16300500Y-8177500D01*
X16190500Y-8067500D02*
X16410500Y-8067500D01*
D14*
X9040245Y-4601245D02*
X9040245Y-4353755D01*
X8792755Y-4353755D01*
X8792755Y-4601245D01*
X9040245Y-4601245D01*
X9040245Y-6506245D02*
X9040245Y-6258755D01*
X8792755Y-6258755D01*
X8792755Y-6506245D01*
X9040245Y-6506245D01*
X12850245Y-4601245D02*
X12850245Y-4353755D01*
X12602755Y-4353755D01*
X12602755Y-4601245D01*
X12850245Y-4601245D01*
X12850245Y-6506245D02*
X12850245Y-6258755D01*
X12602755Y-6258755D01*
X12602755Y-6506245D01*
X12850245Y-6506245D01*
D15*
X7964000Y-3725000D02*
X8164000Y-3525000D01*
X7964000Y-3325000D01*
X7764000Y-3525000D01*
X7964000Y-3725000D01*
X7964000Y-5630000D02*
X8164000Y-5430000D01*
X7964000Y-5230000D01*
X7764000Y-5430000D01*
X7964000Y-5630000D01*
X7964000Y-7535000D02*
X8164000Y-7335000D01*
X7964000Y-7135000D01*
X7764000Y-7335000D01*
X7964000Y-7535000D01*
X9869000Y-3725000D02*
X10069000Y-3525000D01*
X9869000Y-3325000D01*
X9669000Y-3525000D01*
X9869000Y-3725000D01*
X9869000Y-5630000D02*
X10069000Y-5430000D01*
X9869000Y-5230000D01*
X9669000Y-5430000D01*
X9869000Y-5630000D01*
X9869000Y-7535000D02*
X10069000Y-7335000D01*
X9869000Y-7135000D01*
X9669000Y-7335000D01*
X9869000Y-7535000D01*
X11774000Y-3725000D02*
X11974000Y-3525000D01*
X11774000Y-3325000D01*
X11574000Y-3525000D01*
X11774000Y-3725000D01*
X11774000Y-5630000D02*
X11974000Y-5430000D01*
X11774000Y-5230000D01*
X11574000Y-5430000D01*
X11774000Y-5630000D01*
X11774000Y-7535000D02*
X11974000Y-7335000D01*
X11774000Y-7135000D01*
X11574000Y-7335000D01*
X11774000Y-7535000D01*
X13679000Y-3725000D02*
X13879000Y-3525000D01*
X13679000Y-3325000D01*
X13479000Y-3525000D01*
X13679000Y-3725000D01*
X13679000Y-5630000D02*
X13879000Y-5430000D01*
X13679000Y-5230000D01*
X13479000Y-5430000D01*
X13679000Y-5630000D01*
X13679000Y-7535000D02*
X13879000Y-7335000D01*
X13679000Y-7135000D01*
X13479000Y-7335000D01*
X13679000Y-7535000D01*
D11*
X7264777Y-8606484D02*
X7264777Y-8406484D01*
X7264777Y-8406484D02*
X7312396Y-8406484D01*
X7312396Y-8406484D02*
X7340967Y-8416008D01*
X7340967Y-8416008D02*
X7360015Y-8435055D01*
X7360015Y-8435055D02*
X7369539Y-8454103D01*
X7369539Y-8454103D02*
X7379062Y-8492198D01*
X7379062Y-8492198D02*
X7379062Y-8520770D01*
X7379062Y-8520770D02*
X7369539Y-8558865D01*
X7369539Y-8558865D02*
X7360015Y-8577912D01*
X7360015Y-8577912D02*
X7340967Y-8596960D01*
X7340967Y-8596960D02*
X7312396Y-8606484D01*
X7312396Y-8606484D02*
X7264777Y-8606484D01*
X7464777Y-8606484D02*
X7464777Y-8473150D01*
X7464777Y-8511246D02*
X7474301Y-8492198D01*
X7474301Y-8492198D02*
X7483824Y-8482674D01*
X7483824Y-8482674D02*
X7502872Y-8473150D01*
X7502872Y-8473150D02*
X7521920Y-8473150D01*
X7588586Y-8606484D02*
X7588586Y-8473150D01*
X7588586Y-8406484D02*
X7579062Y-8416008D01*
X7579062Y-8416008D02*
X7588586Y-8425531D01*
X7588586Y-8425531D02*
X7598110Y-8416008D01*
X7598110Y-8416008D02*
X7588586Y-8406484D01*
X7588586Y-8406484D02*
X7588586Y-8425531D01*
X7712396Y-8606484D02*
X7693348Y-8596960D01*
X7693348Y-8596960D02*
X7683824Y-8577912D01*
X7683824Y-8577912D02*
X7683824Y-8406484D01*
X7817158Y-8606484D02*
X7798110Y-8596960D01*
X7798110Y-8596960D02*
X7788586Y-8577912D01*
X7788586Y-8577912D02*
X7788586Y-8406484D01*
X8045729Y-8606484D02*
X8045729Y-8406484D01*
X8045729Y-8406484D02*
X8112396Y-8549341D01*
X8112396Y-8549341D02*
X8179062Y-8406484D01*
X8179062Y-8406484D02*
X8179062Y-8606484D01*
X8360015Y-8606484D02*
X8360015Y-8501722D01*
X8360015Y-8501722D02*
X8350491Y-8482674D01*
X8350491Y-8482674D02*
X8331443Y-8473150D01*
X8331443Y-8473150D02*
X8293348Y-8473150D01*
X8293348Y-8473150D02*
X8274301Y-8482674D01*
X8360015Y-8596960D02*
X8340967Y-8606484D01*
X8340967Y-8606484D02*
X8293348Y-8606484D01*
X8293348Y-8606484D02*
X8274301Y-8596960D01*
X8274301Y-8596960D02*
X8264777Y-8577912D01*
X8264777Y-8577912D02*
X8264777Y-8558865D01*
X8264777Y-8558865D02*
X8274301Y-8539817D01*
X8274301Y-8539817D02*
X8293348Y-8530293D01*
X8293348Y-8530293D02*
X8340967Y-8530293D01*
X8340967Y-8530293D02*
X8360015Y-8520770D01*
X8455253Y-8473150D02*
X8455253Y-8673150D01*
X8455253Y-8482674D02*
X8474301Y-8473150D01*
X8474301Y-8473150D02*
X8512396Y-8473150D01*
X8512396Y-8473150D02*
X8531444Y-8482674D01*
X8531444Y-8482674D02*
X8540967Y-8492198D01*
X8540967Y-8492198D02*
X8550491Y-8511246D01*
X8550491Y-8511246D02*
X8550491Y-8568389D01*
X8550491Y-8568389D02*
X8540967Y-8587436D01*
X8540967Y-8587436D02*
X8531444Y-8596960D01*
X8531444Y-8596960D02*
X8512396Y-8606484D01*
X8512396Y-8606484D02*
X8474301Y-8606484D01*
X8474301Y-8606484D02*
X8455253Y-8596960D01*
X8636205Y-8587436D02*
X8645729Y-8596960D01*
X8645729Y-8596960D02*
X8636205Y-8606484D01*
X8636205Y-8606484D02*
X8626682Y-8596960D01*
X8626682Y-8596960D02*
X8636205Y-8587436D01*
X8636205Y-8587436D02*
X8636205Y-8606484D01*
X8636205Y-8482674D02*
X8645729Y-8492198D01*
X8645729Y-8492198D02*
X8636205Y-8501722D01*
X8636205Y-8501722D02*
X8626682Y-8492198D01*
X8626682Y-8492198D02*
X8636205Y-8482674D01*
X8636205Y-8482674D02*
X8636205Y-8501722D01*
D10*
X6854000Y-8860000D02*
X7004000Y-9010000D01*
X7004000Y-8860000D02*
X6854000Y-9010000D01*
D11*
X7369539Y-9026484D02*
X7255253Y-9026484D01*
X7312396Y-9026484D02*
X7312396Y-8826484D01*
X7312396Y-8826484D02*
X7293348Y-8855055D01*
X7293348Y-8855055D02*
X7274301Y-8874103D01*
X7274301Y-8874103D02*
X7255253Y-8883627D01*
X7455253Y-9007436D02*
X7464777Y-9016960D01*
X7464777Y-9016960D02*
X7455253Y-9026484D01*
X7455253Y-9026484D02*
X7445729Y-9016960D01*
X7445729Y-9016960D02*
X7455253Y-9007436D01*
X7455253Y-9007436D02*
X7455253Y-9026484D01*
X7645729Y-8826484D02*
X7550491Y-8826484D01*
X7550491Y-8826484D02*
X7540967Y-8921722D01*
X7540967Y-8921722D02*
X7550491Y-8912198D01*
X7550491Y-8912198D02*
X7569539Y-8902674D01*
X7569539Y-8902674D02*
X7617158Y-8902674D01*
X7617158Y-8902674D02*
X7636205Y-8912198D01*
X7636205Y-8912198D02*
X7645729Y-8921722D01*
X7645729Y-8921722D02*
X7655253Y-8940770D01*
X7655253Y-8940770D02*
X7655253Y-8988389D01*
X7655253Y-8988389D02*
X7645729Y-9007436D01*
X7645729Y-9007436D02*
X7636205Y-9016960D01*
X7636205Y-9016960D02*
X7617158Y-9026484D01*
X7617158Y-9026484D02*
X7569539Y-9026484D01*
X7569539Y-9026484D02*
X7550491Y-9016960D01*
X7550491Y-9016960D02*
X7540967Y-9007436D01*
X7779062Y-8826484D02*
X7798110Y-8826484D01*
X7798110Y-8826484D02*
X7817158Y-8836008D01*
X7817158Y-8836008D02*
X7826682Y-8845531D01*
X7826682Y-8845531D02*
X7836205Y-8864579D01*
X7836205Y-8864579D02*
X7845729Y-8902674D01*
X7845729Y-8902674D02*
X7845729Y-8950293D01*
X7845729Y-8950293D02*
X7836205Y-8988389D01*
X7836205Y-8988389D02*
X7826682Y-9007436D01*
X7826682Y-9007436D02*
X7817158Y-9016960D01*
X7817158Y-9016960D02*
X7798110Y-9026484D01*
X7798110Y-9026484D02*
X7779062Y-9026484D01*
X7779062Y-9026484D02*
X7760015Y-9016960D01*
X7760015Y-9016960D02*
X7750491Y-9007436D01*
X7750491Y-9007436D02*
X7740967Y-8988389D01*
X7740967Y-8988389D02*
X7731443Y-8950293D01*
X7731443Y-8950293D02*
X7731443Y-8902674D01*
X7731443Y-8902674D02*
X7740967Y-8864579D01*
X7740967Y-8864579D02*
X7750491Y-8845531D01*
X7750491Y-8845531D02*
X7760015Y-8836008D01*
X7760015Y-8836008D02*
X7779062Y-8826484D01*
X7969539Y-8826484D02*
X7988586Y-8826484D01*
X7988586Y-8826484D02*
X8007634Y-8836008D01*
X8007634Y-8836008D02*
X8017158Y-8845531D01*
X8017158Y-8845531D02*
X8026682Y-8864579D01*
X8026682Y-8864579D02*
X8036205Y-8902674D01*
X8036205Y-8902674D02*
X8036205Y-8950293D01*
X8036205Y-8950293D02*
X8026682Y-8988389D01*
X8026682Y-8988389D02*
X8017158Y-9007436D01*
X8017158Y-9007436D02*
X8007634Y-9016960D01*
X8007634Y-9016960D02*
X7988586Y-9026484D01*
X7988586Y-9026484D02*
X7969539Y-9026484D01*
X7969539Y-9026484D02*
X7950491Y-9016960D01*
X7950491Y-9016960D02*
X7940967Y-9007436D01*
X7940967Y-9007436D02*
X7931443Y-8988389D01*
X7931443Y-8988389D02*
X7921920Y-8950293D01*
X7921920Y-8950293D02*
X7921920Y-8902674D01*
X7921920Y-8902674D02*
X7931443Y-8864579D01*
X7931443Y-8864579D02*
X7940967Y-8845531D01*
X7940967Y-8845531D02*
X7950491Y-8836008D01*
X7950491Y-8836008D02*
X7969539Y-8826484D01*
X8121920Y-9026484D02*
X8121920Y-8893150D01*
X8121920Y-8912198D02*
X8131443Y-8902674D01*
X8131443Y-8902674D02*
X8150491Y-8893150D01*
X8150491Y-8893150D02*
X8179063Y-8893150D01*
X8179063Y-8893150D02*
X8198110Y-8902674D01*
X8198110Y-8902674D02*
X8207634Y-8921722D01*
X8207634Y-8921722D02*
X8207634Y-9026484D01*
X8207634Y-8921722D02*
X8217158Y-8902674D01*
X8217158Y-8902674D02*
X8236205Y-8893150D01*
X8236205Y-8893150D02*
X8264777Y-8893150D01*
X8264777Y-8893150D02*
X8283824Y-8902674D01*
X8283824Y-8902674D02*
X8293348Y-8921722D01*
X8293348Y-8921722D02*
X8293348Y-9026484D01*
X8388586Y-9026484D02*
X8388586Y-8893150D01*
X8388586Y-8912198D02*
X8398110Y-8902674D01*
X8398110Y-8902674D02*
X8417158Y-8893150D01*
X8417158Y-8893150D02*
X8445729Y-8893150D01*
X8445729Y-8893150D02*
X8464777Y-8902674D01*
X8464777Y-8902674D02*
X8474301Y-8921722D01*
X8474301Y-8921722D02*
X8474301Y-9026484D01*
X8474301Y-8921722D02*
X8483825Y-8902674D01*
X8483825Y-8902674D02*
X8502872Y-8893150D01*
X8502872Y-8893150D02*
X8531444Y-8893150D01*
X8531444Y-8893150D02*
X8550491Y-8902674D01*
X8550491Y-8902674D02*
X8560015Y-8921722D01*
X8560015Y-8921722D02*
X8560015Y-9026484D01*
X8950491Y-8816960D02*
X8779063Y-9074103D01*
X9207634Y-8826484D02*
X9226682Y-8826484D01*
X9226682Y-8826484D02*
X9245729Y-8836008D01*
X9245729Y-8836008D02*
X9255253Y-8845531D01*
X9255253Y-8845531D02*
X9264777Y-8864579D01*
X9264777Y-8864579D02*
X9274301Y-8902674D01*
X9274301Y-8902674D02*
X9274301Y-8950293D01*
X9274301Y-8950293D02*
X9264777Y-8988389D01*
X9264777Y-8988389D02*
X9255253Y-9007436D01*
X9255253Y-9007436D02*
X9245729Y-9016960D01*
X9245729Y-9016960D02*
X9226682Y-9026484D01*
X9226682Y-9026484D02*
X9207634Y-9026484D01*
X9207634Y-9026484D02*
X9188587Y-9016960D01*
X9188587Y-9016960D02*
X9179063Y-9007436D01*
X9179063Y-9007436D02*
X9169539Y-8988389D01*
X9169539Y-8988389D02*
X9160015Y-8950293D01*
X9160015Y-8950293D02*
X9160015Y-8902674D01*
X9160015Y-8902674D02*
X9169539Y-8864579D01*
X9169539Y-8864579D02*
X9179063Y-8845531D01*
X9179063Y-8845531D02*
X9188587Y-8836008D01*
X9188587Y-8836008D02*
X9207634Y-8826484D01*
X9360015Y-9007436D02*
X9369539Y-9016960D01*
X9369539Y-9016960D02*
X9360015Y-9026484D01*
X9360015Y-9026484D02*
X9350491Y-9016960D01*
X9350491Y-9016960D02*
X9360015Y-9007436D01*
X9360015Y-9007436D02*
X9360015Y-9026484D01*
X9493348Y-8826484D02*
X9512396Y-8826484D01*
X9512396Y-8826484D02*
X9531444Y-8836008D01*
X9531444Y-8836008D02*
X9540968Y-8845531D01*
X9540968Y-8845531D02*
X9550491Y-8864579D01*
X9550491Y-8864579D02*
X9560015Y-8902674D01*
X9560015Y-8902674D02*
X9560015Y-8950293D01*
X9560015Y-8950293D02*
X9550491Y-8988389D01*
X9550491Y-8988389D02*
X9540968Y-9007436D01*
X9540968Y-9007436D02*
X9531444Y-9016960D01*
X9531444Y-9016960D02*
X9512396Y-9026484D01*
X9512396Y-9026484D02*
X9493348Y-9026484D01*
X9493348Y-9026484D02*
X9474301Y-9016960D01*
X9474301Y-9016960D02*
X9464777Y-9007436D01*
X9464777Y-9007436D02*
X9455253Y-8988389D01*
X9455253Y-8988389D02*
X9445729Y-8950293D01*
X9445729Y-8950293D02*
X9445729Y-8902674D01*
X9445729Y-8902674D02*
X9455253Y-8864579D01*
X9455253Y-8864579D02*
X9464777Y-8845531D01*
X9464777Y-8845531D02*
X9474301Y-8836008D01*
X9474301Y-8836008D02*
X9493348Y-8826484D01*
X9740968Y-8826484D02*
X9645729Y-8826484D01*
X9645729Y-8826484D02*
X9636206Y-8921722D01*
X9636206Y-8921722D02*
X9645729Y-8912198D01*
X9645729Y-8912198D02*
X9664777Y-8902674D01*
X9664777Y-8902674D02*
X9712396Y-8902674D01*
X9712396Y-8902674D02*
X9731444Y-8912198D01*
X9731444Y-8912198D02*
X9740968Y-8921722D01*
X9740968Y-8921722D02*
X9750491Y-8940770D01*
X9750491Y-8940770D02*
X9750491Y-8988389D01*
X9750491Y-8988389D02*
X9740968Y-9007436D01*
X9740968Y-9007436D02*
X9731444Y-9016960D01*
X9731444Y-9016960D02*
X9712396Y-9026484D01*
X9712396Y-9026484D02*
X9664777Y-9026484D01*
X9664777Y-9026484D02*
X9645729Y-9016960D01*
X9645729Y-9016960D02*
X9636206Y-9007436D01*
X9845729Y-9026484D02*
X9883825Y-9026484D01*
X9883825Y-9026484D02*
X9902872Y-9016960D01*
X9902872Y-9016960D02*
X9912396Y-9007436D01*
X9912396Y-9007436D02*
X9931444Y-8978865D01*
X9931444Y-8978865D02*
X9940968Y-8940770D01*
X9940968Y-8940770D02*
X9940968Y-8864579D01*
X9940968Y-8864579D02*
X9931444Y-8845531D01*
X9931444Y-8845531D02*
X9921920Y-8836008D01*
X9921920Y-8836008D02*
X9902872Y-8826484D01*
X9902872Y-8826484D02*
X9864777Y-8826484D01*
X9864777Y-8826484D02*
X9845729Y-8836008D01*
X9845729Y-8836008D02*
X9836206Y-8845531D01*
X9836206Y-8845531D02*
X9826682Y-8864579D01*
X9826682Y-8864579D02*
X9826682Y-8912198D01*
X9826682Y-8912198D02*
X9836206Y-8931246D01*
X9836206Y-8931246D02*
X9845729Y-8940770D01*
X9845729Y-8940770D02*
X9864777Y-8950293D01*
X9864777Y-8950293D02*
X9902872Y-8950293D01*
X9902872Y-8950293D02*
X9921920Y-8940770D01*
X9921920Y-8940770D02*
X9931444Y-8931246D01*
X9931444Y-8931246D02*
X9940968Y-8912198D01*
X10131444Y-9026484D02*
X10017158Y-9026484D01*
X10074301Y-9026484D02*
X10074301Y-8826484D01*
X10074301Y-8826484D02*
X10055253Y-8855055D01*
X10055253Y-8855055D02*
X10036206Y-8874103D01*
X10036206Y-8874103D02*
X10017158Y-8883627D01*
X10207634Y-8826484D02*
X10207634Y-8864579D01*
X10283825Y-8826484D02*
X10283825Y-8864579D01*
X10579063Y-9102674D02*
X10569539Y-9093150D01*
X10569539Y-9093150D02*
X10550491Y-9064579D01*
X10550491Y-9064579D02*
X10540968Y-9045531D01*
X10540968Y-9045531D02*
X10531444Y-9016960D01*
X10531444Y-9016960D02*
X10521920Y-8969341D01*
X10521920Y-8969341D02*
X10521920Y-8931246D01*
X10521920Y-8931246D02*
X10531444Y-8883627D01*
X10531444Y-8883627D02*
X10540968Y-8855055D01*
X10540968Y-8855055D02*
X10550491Y-8836008D01*
X10550491Y-8836008D02*
X10569539Y-8807436D01*
X10569539Y-8807436D02*
X10579063Y-8797912D01*
X10693349Y-8826484D02*
X10712396Y-8826484D01*
X10712396Y-8826484D02*
X10731444Y-8836008D01*
X10731444Y-8836008D02*
X10740968Y-8845531D01*
X10740968Y-8845531D02*
X10750491Y-8864579D01*
X10750491Y-8864579D02*
X10760015Y-8902674D01*
X10760015Y-8902674D02*
X10760015Y-8950293D01*
X10760015Y-8950293D02*
X10750491Y-8988389D01*
X10750491Y-8988389D02*
X10740968Y-9007436D01*
X10740968Y-9007436D02*
X10731444Y-9016960D01*
X10731444Y-9016960D02*
X10712396Y-9026484D01*
X10712396Y-9026484D02*
X10693349Y-9026484D01*
X10693349Y-9026484D02*
X10674301Y-9016960D01*
X10674301Y-9016960D02*
X10664777Y-9007436D01*
X10664777Y-9007436D02*
X10655253Y-8988389D01*
X10655253Y-8988389D02*
X10645730Y-8950293D01*
X10645730Y-8950293D02*
X10645730Y-8902674D01*
X10645730Y-8902674D02*
X10655253Y-8864579D01*
X10655253Y-8864579D02*
X10664777Y-8845531D01*
X10664777Y-8845531D02*
X10674301Y-8836008D01*
X10674301Y-8836008D02*
X10693349Y-8826484D01*
X10998111Y-9026484D02*
X10998111Y-8826484D01*
X11083825Y-9026484D02*
X11083825Y-8921722D01*
X11083825Y-8921722D02*
X11074301Y-8902674D01*
X11074301Y-8902674D02*
X11055253Y-8893150D01*
X11055253Y-8893150D02*
X11026682Y-8893150D01*
X11026682Y-8893150D02*
X11007634Y-8902674D01*
X11007634Y-8902674D02*
X10998111Y-8912198D01*
X11207634Y-9026484D02*
X11188587Y-9016960D01*
X11188587Y-9016960D02*
X11179063Y-9007436D01*
X11179063Y-9007436D02*
X11169539Y-8988389D01*
X11169539Y-8988389D02*
X11169539Y-8931246D01*
X11169539Y-8931246D02*
X11179063Y-8912198D01*
X11179063Y-8912198D02*
X11188587Y-8902674D01*
X11188587Y-8902674D02*
X11207634Y-8893150D01*
X11207634Y-8893150D02*
X11236206Y-8893150D01*
X11236206Y-8893150D02*
X11255253Y-8902674D01*
X11255253Y-8902674D02*
X11264777Y-8912198D01*
X11264777Y-8912198D02*
X11274301Y-8931246D01*
X11274301Y-8931246D02*
X11274301Y-8988389D01*
X11274301Y-8988389D02*
X11264777Y-9007436D01*
X11264777Y-9007436D02*
X11255253Y-9016960D01*
X11255253Y-9016960D02*
X11236206Y-9026484D01*
X11236206Y-9026484D02*
X11207634Y-9026484D01*
X11388587Y-9026484D02*
X11369539Y-9016960D01*
X11369539Y-9016960D02*
X11360015Y-8997912D01*
X11360015Y-8997912D02*
X11360015Y-8826484D01*
X11540968Y-9016960D02*
X11521920Y-9026484D01*
X11521920Y-9026484D02*
X11483825Y-9026484D01*
X11483825Y-9026484D02*
X11464777Y-9016960D01*
X11464777Y-9016960D02*
X11455253Y-8997912D01*
X11455253Y-8997912D02*
X11455253Y-8921722D01*
X11455253Y-8921722D02*
X11464777Y-8902674D01*
X11464777Y-8902674D02*
X11483825Y-8893150D01*
X11483825Y-8893150D02*
X11521920Y-8893150D01*
X11521920Y-8893150D02*
X11540968Y-8902674D01*
X11540968Y-8902674D02*
X11550491Y-8921722D01*
X11550491Y-8921722D02*
X11550491Y-8940770D01*
X11550491Y-8940770D02*
X11455253Y-8959817D01*
X11626682Y-9016960D02*
X11645730Y-9026484D01*
X11645730Y-9026484D02*
X11683825Y-9026484D01*
X11683825Y-9026484D02*
X11702872Y-9016960D01*
X11702872Y-9016960D02*
X11712396Y-8997912D01*
X11712396Y-8997912D02*
X11712396Y-8988389D01*
X11712396Y-8988389D02*
X11702872Y-8969341D01*
X11702872Y-8969341D02*
X11683825Y-8959817D01*
X11683825Y-8959817D02*
X11655253Y-8959817D01*
X11655253Y-8959817D02*
X11636206Y-8950293D01*
X11636206Y-8950293D02*
X11626682Y-8931246D01*
X11626682Y-8931246D02*
X11626682Y-8921722D01*
X11626682Y-8921722D02*
X11636206Y-8902674D01*
X11636206Y-8902674D02*
X11655253Y-8893150D01*
X11655253Y-8893150D02*
X11683825Y-8893150D01*
X11683825Y-8893150D02*
X11702872Y-8902674D01*
X11950492Y-8950293D02*
X12102873Y-8950293D01*
X12026682Y-9026484D02*
X12026682Y-8874103D01*
X12379063Y-8912198D02*
X12360015Y-8902674D01*
X12360015Y-8902674D02*
X12350492Y-8893150D01*
X12350492Y-8893150D02*
X12340968Y-8874103D01*
X12340968Y-8874103D02*
X12340968Y-8864579D01*
X12340968Y-8864579D02*
X12350492Y-8845531D01*
X12350492Y-8845531D02*
X12360015Y-8836008D01*
X12360015Y-8836008D02*
X12379063Y-8826484D01*
X12379063Y-8826484D02*
X12417158Y-8826484D01*
X12417158Y-8826484D02*
X12436206Y-8836008D01*
X12436206Y-8836008D02*
X12445730Y-8845531D01*
X12445730Y-8845531D02*
X12455253Y-8864579D01*
X12455253Y-8864579D02*
X12455253Y-8874103D01*
X12455253Y-8874103D02*
X12445730Y-8893150D01*
X12445730Y-8893150D02*
X12436206Y-8902674D01*
X12436206Y-8902674D02*
X12417158Y-8912198D01*
X12417158Y-8912198D02*
X12379063Y-8912198D01*
X12379063Y-8912198D02*
X12360015Y-8921722D01*
X12360015Y-8921722D02*
X12350492Y-8931246D01*
X12350492Y-8931246D02*
X12340968Y-8950293D01*
X12340968Y-8950293D02*
X12340968Y-8988389D01*
X12340968Y-8988389D02*
X12350492Y-9007436D01*
X12350492Y-9007436D02*
X12360015Y-9016960D01*
X12360015Y-9016960D02*
X12379063Y-9026484D01*
X12379063Y-9026484D02*
X12417158Y-9026484D01*
X12417158Y-9026484D02*
X12436206Y-9016960D01*
X12436206Y-9016960D02*
X12445730Y-9007436D01*
X12445730Y-9007436D02*
X12455253Y-8988389D01*
X12455253Y-8988389D02*
X12455253Y-8950293D01*
X12455253Y-8950293D02*
X12445730Y-8931246D01*
X12445730Y-8931246D02*
X12436206Y-8921722D01*
X12436206Y-8921722D02*
X12417158Y-8912198D01*
X12683825Y-9016960D02*
X12702873Y-9026484D01*
X12702873Y-9026484D02*
X12740968Y-9026484D01*
X12740968Y-9026484D02*
X12760015Y-9016960D01*
X12760015Y-9016960D02*
X12769539Y-8997912D01*
X12769539Y-8997912D02*
X12769539Y-8988389D01*
X12769539Y-8988389D02*
X12760015Y-8969341D01*
X12760015Y-8969341D02*
X12740968Y-8959817D01*
X12740968Y-8959817D02*
X12712396Y-8959817D01*
X12712396Y-8959817D02*
X12693349Y-8950293D01*
X12693349Y-8950293D02*
X12683825Y-8931246D01*
X12683825Y-8931246D02*
X12683825Y-8921722D01*
X12683825Y-8921722D02*
X12693349Y-8902674D01*
X12693349Y-8902674D02*
X12712396Y-8893150D01*
X12712396Y-8893150D02*
X12740968Y-8893150D01*
X12740968Y-8893150D02*
X12760015Y-8902674D01*
X12883825Y-9026484D02*
X12864777Y-9016960D01*
X12864777Y-9016960D02*
X12855254Y-8997912D01*
X12855254Y-8997912D02*
X12855254Y-8826484D01*
X12988587Y-9026484D02*
X12969539Y-9016960D01*
X12969539Y-9016960D02*
X12960015Y-9007436D01*
X12960015Y-9007436D02*
X12950492Y-8988389D01*
X12950492Y-8988389D02*
X12950492Y-8931246D01*
X12950492Y-8931246D02*
X12960015Y-8912198D01*
X12960015Y-8912198D02*
X12969539Y-8902674D01*
X12969539Y-8902674D02*
X12988587Y-8893150D01*
X12988587Y-8893150D02*
X13017158Y-8893150D01*
X13017158Y-8893150D02*
X13036206Y-8902674D01*
X13036206Y-8902674D02*
X13045730Y-8912198D01*
X13045730Y-8912198D02*
X13055254Y-8931246D01*
X13055254Y-8931246D02*
X13055254Y-8988389D01*
X13055254Y-8988389D02*
X13045730Y-9007436D01*
X13045730Y-9007436D02*
X13036206Y-9016960D01*
X13036206Y-9016960D02*
X13017158Y-9026484D01*
X13017158Y-9026484D02*
X12988587Y-9026484D01*
X13112396Y-8893150D02*
X13188587Y-8893150D01*
X13140968Y-8826484D02*
X13140968Y-8997912D01*
X13140968Y-8997912D02*
X13150492Y-9016960D01*
X13150492Y-9016960D02*
X13169539Y-9026484D01*
X13169539Y-9026484D02*
X13188587Y-9026484D01*
X13245730Y-9016960D02*
X13264777Y-9026484D01*
X13264777Y-9026484D02*
X13302873Y-9026484D01*
X13302873Y-9026484D02*
X13321920Y-9016960D01*
X13321920Y-9016960D02*
X13331444Y-8997912D01*
X13331444Y-8997912D02*
X13331444Y-8988389D01*
X13331444Y-8988389D02*
X13321920Y-8969341D01*
X13321920Y-8969341D02*
X13302873Y-8959817D01*
X13302873Y-8959817D02*
X13274301Y-8959817D01*
X13274301Y-8959817D02*
X13255254Y-8950293D01*
X13255254Y-8950293D02*
X13245730Y-8931246D01*
X13245730Y-8931246D02*
X13245730Y-8921722D01*
X13245730Y-8921722D02*
X13255254Y-8902674D01*
X13255254Y-8902674D02*
X13274301Y-8893150D01*
X13274301Y-8893150D02*
X13302873Y-8893150D01*
X13302873Y-8893150D02*
X13321920Y-8902674D01*
X13398111Y-9102674D02*
X13407635Y-9093150D01*
X13407635Y-9093150D02*
X13426682Y-9064579D01*
X13426682Y-9064579D02*
X13436206Y-9045531D01*
X13436206Y-9045531D02*
X13445730Y-9016960D01*
X13445730Y-9016960D02*
X13455254Y-8969341D01*
X13455254Y-8969341D02*
X13455254Y-8931246D01*
X13455254Y-8931246D02*
X13445730Y-8883627D01*
X13445730Y-8883627D02*
X13436206Y-8855055D01*
X13436206Y-8855055D02*
X13426682Y-8836008D01*
X13426682Y-8836008D02*
X13407635Y-8807436D01*
X13407635Y-8807436D02*
X13398111Y-8797912D01*
X13760016Y-9102674D02*
X13750492Y-9093150D01*
X13750492Y-9093150D02*
X13731444Y-9064579D01*
X13731444Y-9064579D02*
X13721920Y-9045531D01*
X13721920Y-9045531D02*
X13712396Y-9016960D01*
X13712396Y-9016960D02*
X13702873Y-8969341D01*
X13702873Y-8969341D02*
X13702873Y-8931246D01*
X13702873Y-8931246D02*
X13712396Y-8883627D01*
X13712396Y-8883627D02*
X13721920Y-8855055D01*
X13721920Y-8855055D02*
X13731444Y-8836008D01*
X13731444Y-8836008D02*
X13750492Y-8807436D01*
X13750492Y-8807436D02*
X13760016Y-8797912D01*
X13836206Y-8893150D02*
X13836206Y-9026484D01*
X13836206Y-8912198D02*
X13845730Y-8902674D01*
X13845730Y-8902674D02*
X13864777Y-8893150D01*
X13864777Y-8893150D02*
X13893349Y-8893150D01*
X13893349Y-8893150D02*
X13912396Y-8902674D01*
X13912396Y-8902674D02*
X13921920Y-8921722D01*
X13921920Y-8921722D02*
X13921920Y-9026484D01*
X14045730Y-9026484D02*
X14026682Y-9016960D01*
X14026682Y-9016960D02*
X14017158Y-9007436D01*
X14017158Y-9007436D02*
X14007635Y-8988389D01*
X14007635Y-8988389D02*
X14007635Y-8931246D01*
X14007635Y-8931246D02*
X14017158Y-8912198D01*
X14017158Y-8912198D02*
X14026682Y-8902674D01*
X14026682Y-8902674D02*
X14045730Y-8893150D01*
X14045730Y-8893150D02*
X14074301Y-8893150D01*
X14074301Y-8893150D02*
X14093349Y-8902674D01*
X14093349Y-8902674D02*
X14102873Y-8912198D01*
X14102873Y-8912198D02*
X14112396Y-8931246D01*
X14112396Y-8931246D02*
X14112396Y-8988389D01*
X14112396Y-8988389D02*
X14102873Y-9007436D01*
X14102873Y-9007436D02*
X14093349Y-9016960D01*
X14093349Y-9016960D02*
X14074301Y-9026484D01*
X14074301Y-9026484D02*
X14045730Y-9026484D01*
X14169539Y-8893150D02*
X14245730Y-8893150D01*
X14198111Y-8826484D02*
X14198111Y-8997912D01*
X14198111Y-8997912D02*
X14207635Y-9016960D01*
X14207635Y-9016960D02*
X14226682Y-9026484D01*
X14226682Y-9026484D02*
X14245730Y-9026484D01*
X14464777Y-8893150D02*
X14464777Y-9093150D01*
X14464777Y-8902674D02*
X14483825Y-8893150D01*
X14483825Y-8893150D02*
X14521920Y-8893150D01*
X14521920Y-8893150D02*
X14540968Y-8902674D01*
X14540968Y-8902674D02*
X14550492Y-8912198D01*
X14550492Y-8912198D02*
X14560016Y-8931246D01*
X14560016Y-8931246D02*
X14560016Y-8988389D01*
X14560016Y-8988389D02*
X14550492Y-9007436D01*
X14550492Y-9007436D02*
X14540968Y-9016960D01*
X14540968Y-9016960D02*
X14521920Y-9026484D01*
X14521920Y-9026484D02*
X14483825Y-9026484D01*
X14483825Y-9026484D02*
X14464777Y-9016960D01*
X14674301Y-9026484D02*
X14655254Y-9016960D01*
X14655254Y-9016960D02*
X14645730Y-8997912D01*
X14645730Y-8997912D02*
X14645730Y-8826484D01*
X14836206Y-9026484D02*
X14836206Y-8921722D01*
X14836206Y-8921722D02*
X14826682Y-8902674D01*
X14826682Y-8902674D02*
X14807635Y-8893150D01*
X14807635Y-8893150D02*
X14769539Y-8893150D01*
X14769539Y-8893150D02*
X14750492Y-8902674D01*
X14836206Y-9016960D02*
X14817158Y-9026484D01*
X14817158Y-9026484D02*
X14769539Y-9026484D01*
X14769539Y-9026484D02*
X14750492Y-9016960D01*
X14750492Y-9016960D02*
X14740968Y-8997912D01*
X14740968Y-8997912D02*
X14740968Y-8978865D01*
X14740968Y-8978865D02*
X14750492Y-8959817D01*
X14750492Y-8959817D02*
X14769539Y-8950293D01*
X14769539Y-8950293D02*
X14817158Y-8950293D01*
X14817158Y-8950293D02*
X14836206Y-8940770D01*
X14902873Y-8893150D02*
X14979063Y-8893150D01*
X14931444Y-8826484D02*
X14931444Y-8997912D01*
X14931444Y-8997912D02*
X14940968Y-9016960D01*
X14940968Y-9016960D02*
X14960016Y-9026484D01*
X14960016Y-9026484D02*
X14979063Y-9026484D01*
X15121920Y-9016960D02*
X15102873Y-9026484D01*
X15102873Y-9026484D02*
X15064777Y-9026484D01*
X15064777Y-9026484D02*
X15045730Y-9016960D01*
X15045730Y-9016960D02*
X15036206Y-8997912D01*
X15036206Y-8997912D02*
X15036206Y-8921722D01*
X15036206Y-8921722D02*
X15045730Y-8902674D01*
X15045730Y-8902674D02*
X15064777Y-8893150D01*
X15064777Y-8893150D02*
X15102873Y-8893150D01*
X15102873Y-8893150D02*
X15121920Y-8902674D01*
X15121920Y-8902674D02*
X15131444Y-8921722D01*
X15131444Y-8921722D02*
X15131444Y-8940770D01*
X15131444Y-8940770D02*
X15036206Y-8959817D01*
X15302873Y-9026484D02*
X15302873Y-8826484D01*
X15302873Y-9016960D02*
X15283825Y-9026484D01*
X15283825Y-9026484D02*
X15245730Y-9026484D01*
X15245730Y-9026484D02*
X15226682Y-9016960D01*
X15226682Y-9016960D02*
X15217158Y-9007436D01*
X15217158Y-9007436D02*
X15207635Y-8988389D01*
X15207635Y-8988389D02*
X15207635Y-8931246D01*
X15207635Y-8931246D02*
X15217158Y-8912198D01*
X15217158Y-8912198D02*
X15226682Y-8902674D01*
X15226682Y-8902674D02*
X15245730Y-8893150D01*
X15245730Y-8893150D02*
X15283825Y-8893150D01*
X15283825Y-8893150D02*
X15302873Y-8902674D01*
X15379063Y-9102674D02*
X15388587Y-9093150D01*
X15388587Y-9093150D02*
X15407635Y-9064579D01*
X15407635Y-9064579D02*
X15417158Y-9045531D01*
X15417158Y-9045531D02*
X15426682Y-9016960D01*
X15426682Y-9016960D02*
X15436206Y-8969341D01*
X15436206Y-8969341D02*
X15436206Y-8931246D01*
X15436206Y-8931246D02*
X15426682Y-8883627D01*
X15426682Y-8883627D02*
X15417158Y-8855055D01*
X15417158Y-8855055D02*
X15407635Y-8836008D01*
X15407635Y-8836008D02*
X15388587Y-8807436D01*
X15388587Y-8807436D02*
X15379063Y-8797912D01*
D12*
X7004000Y-9205000D02*
G75*
G03*
X7004000Y-9205000I-87500J0D01*
G01*
D11*
X7369539Y-9296484D02*
X7255253Y-9296484D01*
X7312396Y-9296484D02*
X7312396Y-9096484D01*
X7312396Y-9096484D02*
X7293348Y-9125055D01*
X7293348Y-9125055D02*
X7274301Y-9144103D01*
X7274301Y-9144103D02*
X7255253Y-9153627D01*
X7455253Y-9277436D02*
X7464777Y-9286960D01*
X7464777Y-9286960D02*
X7455253Y-9296484D01*
X7455253Y-9296484D02*
X7445729Y-9286960D01*
X7445729Y-9286960D02*
X7455253Y-9277436D01*
X7455253Y-9277436D02*
X7455253Y-9296484D01*
X7531443Y-9096484D02*
X7664777Y-9096484D01*
X7664777Y-9096484D02*
X7579062Y-9296484D01*
X7836205Y-9096484D02*
X7740967Y-9096484D01*
X7740967Y-9096484D02*
X7731443Y-9191722D01*
X7731443Y-9191722D02*
X7740967Y-9182198D01*
X7740967Y-9182198D02*
X7760015Y-9172674D01*
X7760015Y-9172674D02*
X7807634Y-9172674D01*
X7807634Y-9172674D02*
X7826682Y-9182198D01*
X7826682Y-9182198D02*
X7836205Y-9191722D01*
X7836205Y-9191722D02*
X7845729Y-9210770D01*
X7845729Y-9210770D02*
X7845729Y-9258389D01*
X7845729Y-9258389D02*
X7836205Y-9277436D01*
X7836205Y-9277436D02*
X7826682Y-9286960D01*
X7826682Y-9286960D02*
X7807634Y-9296484D01*
X7807634Y-9296484D02*
X7760015Y-9296484D01*
X7760015Y-9296484D02*
X7740967Y-9286960D01*
X7740967Y-9286960D02*
X7731443Y-9277436D01*
X7969539Y-9096484D02*
X7988586Y-9096484D01*
X7988586Y-9096484D02*
X8007634Y-9106008D01*
X8007634Y-9106008D02*
X8017158Y-9115531D01*
X8017158Y-9115531D02*
X8026682Y-9134579D01*
X8026682Y-9134579D02*
X8036205Y-9172674D01*
X8036205Y-9172674D02*
X8036205Y-9220293D01*
X8036205Y-9220293D02*
X8026682Y-9258389D01*
X8026682Y-9258389D02*
X8017158Y-9277436D01*
X8017158Y-9277436D02*
X8007634Y-9286960D01*
X8007634Y-9286960D02*
X7988586Y-9296484D01*
X7988586Y-9296484D02*
X7969539Y-9296484D01*
X7969539Y-9296484D02*
X7950491Y-9286960D01*
X7950491Y-9286960D02*
X7940967Y-9277436D01*
X7940967Y-9277436D02*
X7931443Y-9258389D01*
X7931443Y-9258389D02*
X7921920Y-9220293D01*
X7921920Y-9220293D02*
X7921920Y-9172674D01*
X7921920Y-9172674D02*
X7931443Y-9134579D01*
X7931443Y-9134579D02*
X7940967Y-9115531D01*
X7940967Y-9115531D02*
X7950491Y-9106008D01*
X7950491Y-9106008D02*
X7969539Y-9096484D01*
X8121920Y-9296484D02*
X8121920Y-9163150D01*
X8121920Y-9182198D02*
X8131443Y-9172674D01*
X8131443Y-9172674D02*
X8150491Y-9163150D01*
X8150491Y-9163150D02*
X8179063Y-9163150D01*
X8179063Y-9163150D02*
X8198110Y-9172674D01*
X8198110Y-9172674D02*
X8207634Y-9191722D01*
X8207634Y-9191722D02*
X8207634Y-9296484D01*
X8207634Y-9191722D02*
X8217158Y-9172674D01*
X8217158Y-9172674D02*
X8236205Y-9163150D01*
X8236205Y-9163150D02*
X8264777Y-9163150D01*
X8264777Y-9163150D02*
X8283824Y-9172674D01*
X8283824Y-9172674D02*
X8293348Y-9191722D01*
X8293348Y-9191722D02*
X8293348Y-9296484D01*
X8388586Y-9296484D02*
X8388586Y-9163150D01*
X8388586Y-9182198D02*
X8398110Y-9172674D01*
X8398110Y-9172674D02*
X8417158Y-9163150D01*
X8417158Y-9163150D02*
X8445729Y-9163150D01*
X8445729Y-9163150D02*
X8464777Y-9172674D01*
X8464777Y-9172674D02*
X8474301Y-9191722D01*
X8474301Y-9191722D02*
X8474301Y-9296484D01*
X8474301Y-9191722D02*
X8483825Y-9172674D01*
X8483825Y-9172674D02*
X8502872Y-9163150D01*
X8502872Y-9163150D02*
X8531444Y-9163150D01*
X8531444Y-9163150D02*
X8550491Y-9172674D01*
X8550491Y-9172674D02*
X8560015Y-9191722D01*
X8560015Y-9191722D02*
X8560015Y-9296484D01*
X8950491Y-9086960D02*
X8779063Y-9344103D01*
X9207634Y-9096484D02*
X9226682Y-9096484D01*
X9226682Y-9096484D02*
X9245729Y-9106008D01*
X9245729Y-9106008D02*
X9255253Y-9115531D01*
X9255253Y-9115531D02*
X9264777Y-9134579D01*
X9264777Y-9134579D02*
X9274301Y-9172674D01*
X9274301Y-9172674D02*
X9274301Y-9220293D01*
X9274301Y-9220293D02*
X9264777Y-9258389D01*
X9264777Y-9258389D02*
X9255253Y-9277436D01*
X9255253Y-9277436D02*
X9245729Y-9286960D01*
X9245729Y-9286960D02*
X9226682Y-9296484D01*
X9226682Y-9296484D02*
X9207634Y-9296484D01*
X9207634Y-9296484D02*
X9188587Y-9286960D01*
X9188587Y-9286960D02*
X9179063Y-9277436D01*
X9179063Y-9277436D02*
X9169539Y-9258389D01*
X9169539Y-9258389D02*
X9160015Y-9220293D01*
X9160015Y-9220293D02*
X9160015Y-9172674D01*
X9160015Y-9172674D02*
X9169539Y-9134579D01*
X9169539Y-9134579D02*
X9179063Y-9115531D01*
X9179063Y-9115531D02*
X9188587Y-9106008D01*
X9188587Y-9106008D02*
X9207634Y-9096484D01*
X9360015Y-9277436D02*
X9369539Y-9286960D01*
X9369539Y-9286960D02*
X9360015Y-9296484D01*
X9360015Y-9296484D02*
X9350491Y-9286960D01*
X9350491Y-9286960D02*
X9360015Y-9277436D01*
X9360015Y-9277436D02*
X9360015Y-9296484D01*
X9493348Y-9096484D02*
X9512396Y-9096484D01*
X9512396Y-9096484D02*
X9531444Y-9106008D01*
X9531444Y-9106008D02*
X9540968Y-9115531D01*
X9540968Y-9115531D02*
X9550491Y-9134579D01*
X9550491Y-9134579D02*
X9560015Y-9172674D01*
X9560015Y-9172674D02*
X9560015Y-9220293D01*
X9560015Y-9220293D02*
X9550491Y-9258389D01*
X9550491Y-9258389D02*
X9540968Y-9277436D01*
X9540968Y-9277436D02*
X9531444Y-9286960D01*
X9531444Y-9286960D02*
X9512396Y-9296484D01*
X9512396Y-9296484D02*
X9493348Y-9296484D01*
X9493348Y-9296484D02*
X9474301Y-9286960D01*
X9474301Y-9286960D02*
X9464777Y-9277436D01*
X9464777Y-9277436D02*
X9455253Y-9258389D01*
X9455253Y-9258389D02*
X9445729Y-9220293D01*
X9445729Y-9220293D02*
X9445729Y-9172674D01*
X9445729Y-9172674D02*
X9455253Y-9134579D01*
X9455253Y-9134579D02*
X9464777Y-9115531D01*
X9464777Y-9115531D02*
X9474301Y-9106008D01*
X9474301Y-9106008D02*
X9493348Y-9096484D01*
X9731444Y-9096484D02*
X9693348Y-9096484D01*
X9693348Y-9096484D02*
X9674301Y-9106008D01*
X9674301Y-9106008D02*
X9664777Y-9115531D01*
X9664777Y-9115531D02*
X9645729Y-9144103D01*
X9645729Y-9144103D02*
X9636206Y-9182198D01*
X9636206Y-9182198D02*
X9636206Y-9258389D01*
X9636206Y-9258389D02*
X9645729Y-9277436D01*
X9645729Y-9277436D02*
X9655253Y-9286960D01*
X9655253Y-9286960D02*
X9674301Y-9296484D01*
X9674301Y-9296484D02*
X9712396Y-9296484D01*
X9712396Y-9296484D02*
X9731444Y-9286960D01*
X9731444Y-9286960D02*
X9740968Y-9277436D01*
X9740968Y-9277436D02*
X9750491Y-9258389D01*
X9750491Y-9258389D02*
X9750491Y-9210770D01*
X9750491Y-9210770D02*
X9740968Y-9191722D01*
X9740968Y-9191722D02*
X9731444Y-9182198D01*
X9731444Y-9182198D02*
X9712396Y-9172674D01*
X9712396Y-9172674D02*
X9674301Y-9172674D01*
X9674301Y-9172674D02*
X9655253Y-9182198D01*
X9655253Y-9182198D02*
X9645729Y-9191722D01*
X9645729Y-9191722D02*
X9636206Y-9210770D01*
X9864777Y-9182198D02*
X9845729Y-9172674D01*
X9845729Y-9172674D02*
X9836206Y-9163150D01*
X9836206Y-9163150D02*
X9826682Y-9144103D01*
X9826682Y-9144103D02*
X9826682Y-9134579D01*
X9826682Y-9134579D02*
X9836206Y-9115531D01*
X9836206Y-9115531D02*
X9845729Y-9106008D01*
X9845729Y-9106008D02*
X9864777Y-9096484D01*
X9864777Y-9096484D02*
X9902872Y-9096484D01*
X9902872Y-9096484D02*
X9921920Y-9106008D01*
X9921920Y-9106008D02*
X9931444Y-9115531D01*
X9931444Y-9115531D02*
X9940968Y-9134579D01*
X9940968Y-9134579D02*
X9940968Y-9144103D01*
X9940968Y-9144103D02*
X9931444Y-9163150D01*
X9931444Y-9163150D02*
X9921920Y-9172674D01*
X9921920Y-9172674D02*
X9902872Y-9182198D01*
X9902872Y-9182198D02*
X9864777Y-9182198D01*
X9864777Y-9182198D02*
X9845729Y-9191722D01*
X9845729Y-9191722D02*
X9836206Y-9201246D01*
X9836206Y-9201246D02*
X9826682Y-9220293D01*
X9826682Y-9220293D02*
X9826682Y-9258389D01*
X9826682Y-9258389D02*
X9836206Y-9277436D01*
X9836206Y-9277436D02*
X9845729Y-9286960D01*
X9845729Y-9286960D02*
X9864777Y-9296484D01*
X9864777Y-9296484D02*
X9902872Y-9296484D01*
X9902872Y-9296484D02*
X9921920Y-9286960D01*
X9921920Y-9286960D02*
X9931444Y-9277436D01*
X9931444Y-9277436D02*
X9940968Y-9258389D01*
X9940968Y-9258389D02*
X9940968Y-9220293D01*
X9940968Y-9220293D02*
X9931444Y-9201246D01*
X9931444Y-9201246D02*
X9921920Y-9191722D01*
X9921920Y-9191722D02*
X9902872Y-9182198D01*
X10036206Y-9296484D02*
X10074301Y-9296484D01*
X10074301Y-9296484D02*
X10093349Y-9286960D01*
X10093349Y-9286960D02*
X10102872Y-9277436D01*
X10102872Y-9277436D02*
X10121920Y-9248865D01*
X10121920Y-9248865D02*
X10131444Y-9210770D01*
X10131444Y-9210770D02*
X10131444Y-9134579D01*
X10131444Y-9134579D02*
X10121920Y-9115531D01*
X10121920Y-9115531D02*
X10112396Y-9106008D01*
X10112396Y-9106008D02*
X10093349Y-9096484D01*
X10093349Y-9096484D02*
X10055253Y-9096484D01*
X10055253Y-9096484D02*
X10036206Y-9106008D01*
X10036206Y-9106008D02*
X10026682Y-9115531D01*
X10026682Y-9115531D02*
X10017158Y-9134579D01*
X10017158Y-9134579D02*
X10017158Y-9182198D01*
X10017158Y-9182198D02*
X10026682Y-9201246D01*
X10026682Y-9201246D02*
X10036206Y-9210770D01*
X10036206Y-9210770D02*
X10055253Y-9220293D01*
X10055253Y-9220293D02*
X10093349Y-9220293D01*
X10093349Y-9220293D02*
X10112396Y-9210770D01*
X10112396Y-9210770D02*
X10121920Y-9201246D01*
X10121920Y-9201246D02*
X10131444Y-9182198D01*
X10207634Y-9096484D02*
X10207634Y-9134579D01*
X10283825Y-9096484D02*
X10283825Y-9134579D01*
X10579063Y-9372674D02*
X10569539Y-9363150D01*
X10569539Y-9363150D02*
X10550491Y-9334579D01*
X10550491Y-9334579D02*
X10540968Y-9315531D01*
X10540968Y-9315531D02*
X10531444Y-9286960D01*
X10531444Y-9286960D02*
X10521920Y-9239341D01*
X10521920Y-9239341D02*
X10521920Y-9201246D01*
X10521920Y-9201246D02*
X10531444Y-9153627D01*
X10531444Y-9153627D02*
X10540968Y-9125055D01*
X10540968Y-9125055D02*
X10550491Y-9106008D01*
X10550491Y-9106008D02*
X10569539Y-9077436D01*
X10569539Y-9077436D02*
X10579063Y-9067912D01*
X10645730Y-9115531D02*
X10655253Y-9106008D01*
X10655253Y-9106008D02*
X10674301Y-9096484D01*
X10674301Y-9096484D02*
X10721920Y-9096484D01*
X10721920Y-9096484D02*
X10740968Y-9106008D01*
X10740968Y-9106008D02*
X10750491Y-9115531D01*
X10750491Y-9115531D02*
X10760015Y-9134579D01*
X10760015Y-9134579D02*
X10760015Y-9153627D01*
X10760015Y-9153627D02*
X10750491Y-9182198D01*
X10750491Y-9182198D02*
X10636206Y-9296484D01*
X10636206Y-9296484D02*
X10760015Y-9296484D01*
X10931444Y-9163150D02*
X10931444Y-9296484D01*
X10883825Y-9086960D02*
X10836206Y-9229817D01*
X10836206Y-9229817D02*
X10960015Y-9229817D01*
X11188587Y-9296484D02*
X11188587Y-9096484D01*
X11274301Y-9296484D02*
X11274301Y-9191722D01*
X11274301Y-9191722D02*
X11264777Y-9172674D01*
X11264777Y-9172674D02*
X11245730Y-9163150D01*
X11245730Y-9163150D02*
X11217158Y-9163150D01*
X11217158Y-9163150D02*
X11198110Y-9172674D01*
X11198110Y-9172674D02*
X11188587Y-9182198D01*
X11398110Y-9296484D02*
X11379063Y-9286960D01*
X11379063Y-9286960D02*
X11369539Y-9277436D01*
X11369539Y-9277436D02*
X11360015Y-9258389D01*
X11360015Y-9258389D02*
X11360015Y-9201246D01*
X11360015Y-9201246D02*
X11369539Y-9182198D01*
X11369539Y-9182198D02*
X11379063Y-9172674D01*
X11379063Y-9172674D02*
X11398110Y-9163150D01*
X11398110Y-9163150D02*
X11426682Y-9163150D01*
X11426682Y-9163150D02*
X11445730Y-9172674D01*
X11445730Y-9172674D02*
X11455253Y-9182198D01*
X11455253Y-9182198D02*
X11464777Y-9201246D01*
X11464777Y-9201246D02*
X11464777Y-9258389D01*
X11464777Y-9258389D02*
X11455253Y-9277436D01*
X11455253Y-9277436D02*
X11445730Y-9286960D01*
X11445730Y-9286960D02*
X11426682Y-9296484D01*
X11426682Y-9296484D02*
X11398110Y-9296484D01*
X11579063Y-9296484D02*
X11560015Y-9286960D01*
X11560015Y-9286960D02*
X11550491Y-9267912D01*
X11550491Y-9267912D02*
X11550491Y-9096484D01*
X11731444Y-9286960D02*
X11712396Y-9296484D01*
X11712396Y-9296484D02*
X11674301Y-9296484D01*
X11674301Y-9296484D02*
X11655253Y-9286960D01*
X11655253Y-9286960D02*
X11645730Y-9267912D01*
X11645730Y-9267912D02*
X11645730Y-9191722D01*
X11645730Y-9191722D02*
X11655253Y-9172674D01*
X11655253Y-9172674D02*
X11674301Y-9163150D01*
X11674301Y-9163150D02*
X11712396Y-9163150D01*
X11712396Y-9163150D02*
X11731444Y-9172674D01*
X11731444Y-9172674D02*
X11740968Y-9191722D01*
X11740968Y-9191722D02*
X11740968Y-9210770D01*
X11740968Y-9210770D02*
X11645730Y-9229817D01*
X11817158Y-9286960D02*
X11836206Y-9296484D01*
X11836206Y-9296484D02*
X11874301Y-9296484D01*
X11874301Y-9296484D02*
X11893349Y-9286960D01*
X11893349Y-9286960D02*
X11902872Y-9267912D01*
X11902872Y-9267912D02*
X11902872Y-9258389D01*
X11902872Y-9258389D02*
X11893349Y-9239341D01*
X11893349Y-9239341D02*
X11874301Y-9229817D01*
X11874301Y-9229817D02*
X11845730Y-9229817D01*
X11845730Y-9229817D02*
X11826682Y-9220293D01*
X11826682Y-9220293D02*
X11817158Y-9201246D01*
X11817158Y-9201246D02*
X11817158Y-9191722D01*
X11817158Y-9191722D02*
X11826682Y-9172674D01*
X11826682Y-9172674D02*
X11845730Y-9163150D01*
X11845730Y-9163150D02*
X11874301Y-9163150D01*
X11874301Y-9163150D02*
X11893349Y-9172674D01*
X11969539Y-9372674D02*
X11979063Y-9363150D01*
X11979063Y-9363150D02*
X11998111Y-9334579D01*
X11998111Y-9334579D02*
X12007634Y-9315531D01*
X12007634Y-9315531D02*
X12017158Y-9286960D01*
X12017158Y-9286960D02*
X12026682Y-9239341D01*
X12026682Y-9239341D02*
X12026682Y-9201246D01*
X12026682Y-9201246D02*
X12017158Y-9153627D01*
X12017158Y-9153627D02*
X12007634Y-9125055D01*
X12007634Y-9125055D02*
X11998111Y-9106008D01*
X11998111Y-9106008D02*
X11979063Y-9077436D01*
X11979063Y-9077436D02*
X11969539Y-9067912D01*
X12331444Y-9372674D02*
X12321920Y-9363150D01*
X12321920Y-9363150D02*
X12302872Y-9334579D01*
X12302872Y-9334579D02*
X12293349Y-9315531D01*
X12293349Y-9315531D02*
X12283825Y-9286960D01*
X12283825Y-9286960D02*
X12274301Y-9239341D01*
X12274301Y-9239341D02*
X12274301Y-9201246D01*
X12274301Y-9201246D02*
X12283825Y-9153627D01*
X12283825Y-9153627D02*
X12293349Y-9125055D01*
X12293349Y-9125055D02*
X12302872Y-9106008D01*
X12302872Y-9106008D02*
X12321920Y-9077436D01*
X12321920Y-9077436D02*
X12331444Y-9067912D01*
X12407634Y-9163150D02*
X12407634Y-9296484D01*
X12407634Y-9182198D02*
X12417158Y-9172674D01*
X12417158Y-9172674D02*
X12436206Y-9163150D01*
X12436206Y-9163150D02*
X12464777Y-9163150D01*
X12464777Y-9163150D02*
X12483825Y-9172674D01*
X12483825Y-9172674D02*
X12493349Y-9191722D01*
X12493349Y-9191722D02*
X12493349Y-9296484D01*
X12617158Y-9296484D02*
X12598111Y-9286960D01*
X12598111Y-9286960D02*
X12588587Y-9277436D01*
X12588587Y-9277436D02*
X12579063Y-9258389D01*
X12579063Y-9258389D02*
X12579063Y-9201246D01*
X12579063Y-9201246D02*
X12588587Y-9182198D01*
X12588587Y-9182198D02*
X12598111Y-9172674D01*
X12598111Y-9172674D02*
X12617158Y-9163150D01*
X12617158Y-9163150D02*
X12645730Y-9163150D01*
X12645730Y-9163150D02*
X12664777Y-9172674D01*
X12664777Y-9172674D02*
X12674301Y-9182198D01*
X12674301Y-9182198D02*
X12683825Y-9201246D01*
X12683825Y-9201246D02*
X12683825Y-9258389D01*
X12683825Y-9258389D02*
X12674301Y-9277436D01*
X12674301Y-9277436D02*
X12664777Y-9286960D01*
X12664777Y-9286960D02*
X12645730Y-9296484D01*
X12645730Y-9296484D02*
X12617158Y-9296484D01*
X12740968Y-9163150D02*
X12817158Y-9163150D01*
X12769539Y-9096484D02*
X12769539Y-9267912D01*
X12769539Y-9267912D02*
X12779063Y-9286960D01*
X12779063Y-9286960D02*
X12798111Y-9296484D01*
X12798111Y-9296484D02*
X12817158Y-9296484D01*
X13036206Y-9163150D02*
X13036206Y-9363150D01*
X13036206Y-9172674D02*
X13055253Y-9163150D01*
X13055253Y-9163150D02*
X13093349Y-9163150D01*
X13093349Y-9163150D02*
X13112396Y-9172674D01*
X13112396Y-9172674D02*
X13121920Y-9182198D01*
X13121920Y-9182198D02*
X13131444Y-9201246D01*
X13131444Y-9201246D02*
X13131444Y-9258389D01*
X13131444Y-9258389D02*
X13121920Y-9277436D01*
X13121920Y-9277436D02*
X13112396Y-9286960D01*
X13112396Y-9286960D02*
X13093349Y-9296484D01*
X13093349Y-9296484D02*
X13055253Y-9296484D01*
X13055253Y-9296484D02*
X13036206Y-9286960D01*
X13245730Y-9296484D02*
X13226682Y-9286960D01*
X13226682Y-9286960D02*
X13217158Y-9267912D01*
X13217158Y-9267912D02*
X13217158Y-9096484D01*
X13407634Y-9296484D02*
X13407634Y-9191722D01*
X13407634Y-9191722D02*
X13398111Y-9172674D01*
X13398111Y-9172674D02*
X13379063Y-9163150D01*
X13379063Y-9163150D02*
X13340968Y-9163150D01*
X13340968Y-9163150D02*
X13321920Y-9172674D01*
X13407634Y-9286960D02*
X13388587Y-9296484D01*
X13388587Y-9296484D02*
X13340968Y-9296484D01*
X13340968Y-9296484D02*
X13321920Y-9286960D01*
X13321920Y-9286960D02*
X13312396Y-9267912D01*
X13312396Y-9267912D02*
X13312396Y-9248865D01*
X13312396Y-9248865D02*
X13321920Y-9229817D01*
X13321920Y-9229817D02*
X13340968Y-9220293D01*
X13340968Y-9220293D02*
X13388587Y-9220293D01*
X13388587Y-9220293D02*
X13407634Y-9210770D01*
X13474301Y-9163150D02*
X13550492Y-9163150D01*
X13502873Y-9096484D02*
X13502873Y-9267912D01*
X13502873Y-9267912D02*
X13512396Y-9286960D01*
X13512396Y-9286960D02*
X13531444Y-9296484D01*
X13531444Y-9296484D02*
X13550492Y-9296484D01*
X13693349Y-9286960D02*
X13674301Y-9296484D01*
X13674301Y-9296484D02*
X13636206Y-9296484D01*
X13636206Y-9296484D02*
X13617158Y-9286960D01*
X13617158Y-9286960D02*
X13607634Y-9267912D01*
X13607634Y-9267912D02*
X13607634Y-9191722D01*
X13607634Y-9191722D02*
X13617158Y-9172674D01*
X13617158Y-9172674D02*
X13636206Y-9163150D01*
X13636206Y-9163150D02*
X13674301Y-9163150D01*
X13674301Y-9163150D02*
X13693349Y-9172674D01*
X13693349Y-9172674D02*
X13702873Y-9191722D01*
X13702873Y-9191722D02*
X13702873Y-9210770D01*
X13702873Y-9210770D02*
X13607634Y-9229817D01*
X13874301Y-9296484D02*
X13874301Y-9096484D01*
X13874301Y-9286960D02*
X13855254Y-9296484D01*
X13855254Y-9296484D02*
X13817158Y-9296484D01*
X13817158Y-9296484D02*
X13798111Y-9286960D01*
X13798111Y-9286960D02*
X13788587Y-9277436D01*
X13788587Y-9277436D02*
X13779063Y-9258389D01*
X13779063Y-9258389D02*
X13779063Y-9201246D01*
X13779063Y-9201246D02*
X13788587Y-9182198D01*
X13788587Y-9182198D02*
X13798111Y-9172674D01*
X13798111Y-9172674D02*
X13817158Y-9163150D01*
X13817158Y-9163150D02*
X13855254Y-9163150D01*
X13855254Y-9163150D02*
X13874301Y-9172674D01*
X13950492Y-9372674D02*
X13960015Y-9363150D01*
X13960015Y-9363150D02*
X13979063Y-9334579D01*
X13979063Y-9334579D02*
X13988587Y-9315531D01*
X13988587Y-9315531D02*
X13998111Y-9286960D01*
X13998111Y-9286960D02*
X14007634Y-9239341D01*
X14007634Y-9239341D02*
X14007634Y-9201246D01*
X14007634Y-9201246D02*
X13998111Y-9153627D01*
X13998111Y-9153627D02*
X13988587Y-9125055D01*
X13988587Y-9125055D02*
X13979063Y-9106008D01*
X13979063Y-9106008D02*
X13960015Y-9077436D01*
X13960015Y-9077436D02*
X13950492Y-9067912D01*
X6904000Y-9400000D02*
X6904000Y-9600000D01*
X6804000Y-9500000D02*
X7004000Y-9500000D01*
X7255253Y-9410531D02*
X7264777Y-9401008D01*
X7264777Y-9401008D02*
X7283824Y-9391484D01*
X7283824Y-9391484D02*
X7331443Y-9391484D01*
X7331443Y-9391484D02*
X7350491Y-9401008D01*
X7350491Y-9401008D02*
X7360015Y-9410531D01*
X7360015Y-9410531D02*
X7369539Y-9429579D01*
X7369539Y-9429579D02*
X7369539Y-9448627D01*
X7369539Y-9448627D02*
X7360015Y-9477198D01*
X7360015Y-9477198D02*
X7245729Y-9591484D01*
X7245729Y-9591484D02*
X7369539Y-9591484D01*
X7455253Y-9572436D02*
X7464777Y-9581960D01*
X7464777Y-9581960D02*
X7455253Y-9591484D01*
X7455253Y-9591484D02*
X7445729Y-9581960D01*
X7445729Y-9581960D02*
X7455253Y-9572436D01*
X7455253Y-9572436D02*
X7455253Y-9591484D01*
X7540967Y-9410531D02*
X7550491Y-9401008D01*
X7550491Y-9401008D02*
X7569539Y-9391484D01*
X7569539Y-9391484D02*
X7617158Y-9391484D01*
X7617158Y-9391484D02*
X7636205Y-9401008D01*
X7636205Y-9401008D02*
X7645729Y-9410531D01*
X7645729Y-9410531D02*
X7655253Y-9429579D01*
X7655253Y-9429579D02*
X7655253Y-9448627D01*
X7655253Y-9448627D02*
X7645729Y-9477198D01*
X7645729Y-9477198D02*
X7531443Y-9591484D01*
X7531443Y-9591484D02*
X7655253Y-9591484D01*
X7779062Y-9391484D02*
X7798110Y-9391484D01*
X7798110Y-9391484D02*
X7817158Y-9401008D01*
X7817158Y-9401008D02*
X7826682Y-9410531D01*
X7826682Y-9410531D02*
X7836205Y-9429579D01*
X7836205Y-9429579D02*
X7845729Y-9467674D01*
X7845729Y-9467674D02*
X7845729Y-9515293D01*
X7845729Y-9515293D02*
X7836205Y-9553389D01*
X7836205Y-9553389D02*
X7826682Y-9572436D01*
X7826682Y-9572436D02*
X7817158Y-9581960D01*
X7817158Y-9581960D02*
X7798110Y-9591484D01*
X7798110Y-9591484D02*
X7779062Y-9591484D01*
X7779062Y-9591484D02*
X7760015Y-9581960D01*
X7760015Y-9581960D02*
X7750491Y-9572436D01*
X7750491Y-9572436D02*
X7740967Y-9553389D01*
X7740967Y-9553389D02*
X7731443Y-9515293D01*
X7731443Y-9515293D02*
X7731443Y-9467674D01*
X7731443Y-9467674D02*
X7740967Y-9429579D01*
X7740967Y-9429579D02*
X7750491Y-9410531D01*
X7750491Y-9410531D02*
X7760015Y-9401008D01*
X7760015Y-9401008D02*
X7779062Y-9391484D01*
X7969539Y-9391484D02*
X7988586Y-9391484D01*
X7988586Y-9391484D02*
X8007634Y-9401008D01*
X8007634Y-9401008D02*
X8017158Y-9410531D01*
X8017158Y-9410531D02*
X8026682Y-9429579D01*
X8026682Y-9429579D02*
X8036205Y-9467674D01*
X8036205Y-9467674D02*
X8036205Y-9515293D01*
X8036205Y-9515293D02*
X8026682Y-9553389D01*
X8026682Y-9553389D02*
X8017158Y-9572436D01*
X8017158Y-9572436D02*
X8007634Y-9581960D01*
X8007634Y-9581960D02*
X7988586Y-9591484D01*
X7988586Y-9591484D02*
X7969539Y-9591484D01*
X7969539Y-9591484D02*
X7950491Y-9581960D01*
X7950491Y-9581960D02*
X7940967Y-9572436D01*
X7940967Y-9572436D02*
X7931443Y-9553389D01*
X7931443Y-9553389D02*
X7921920Y-9515293D01*
X7921920Y-9515293D02*
X7921920Y-9467674D01*
X7921920Y-9467674D02*
X7931443Y-9429579D01*
X7931443Y-9429579D02*
X7940967Y-9410531D01*
X7940967Y-9410531D02*
X7950491Y-9401008D01*
X7950491Y-9401008D02*
X7969539Y-9391484D01*
X8121920Y-9591484D02*
X8121920Y-9458150D01*
X8121920Y-9477198D02*
X8131443Y-9467674D01*
X8131443Y-9467674D02*
X8150491Y-9458150D01*
X8150491Y-9458150D02*
X8179063Y-9458150D01*
X8179063Y-9458150D02*
X8198110Y-9467674D01*
X8198110Y-9467674D02*
X8207634Y-9486722D01*
X8207634Y-9486722D02*
X8207634Y-9591484D01*
X8207634Y-9486722D02*
X8217158Y-9467674D01*
X8217158Y-9467674D02*
X8236205Y-9458150D01*
X8236205Y-9458150D02*
X8264777Y-9458150D01*
X8264777Y-9458150D02*
X8283824Y-9467674D01*
X8283824Y-9467674D02*
X8293348Y-9486722D01*
X8293348Y-9486722D02*
X8293348Y-9591484D01*
X8388586Y-9591484D02*
X8388586Y-9458150D01*
X8388586Y-9477198D02*
X8398110Y-9467674D01*
X8398110Y-9467674D02*
X8417158Y-9458150D01*
X8417158Y-9458150D02*
X8445729Y-9458150D01*
X8445729Y-9458150D02*
X8464777Y-9467674D01*
X8464777Y-9467674D02*
X8474301Y-9486722D01*
X8474301Y-9486722D02*
X8474301Y-9591484D01*
X8474301Y-9486722D02*
X8483825Y-9467674D01*
X8483825Y-9467674D02*
X8502872Y-9458150D01*
X8502872Y-9458150D02*
X8531444Y-9458150D01*
X8531444Y-9458150D02*
X8550491Y-9467674D01*
X8550491Y-9467674D02*
X8560015Y-9486722D01*
X8560015Y-9486722D02*
X8560015Y-9591484D01*
X8950491Y-9381960D02*
X8779063Y-9639103D01*
X9207634Y-9391484D02*
X9226682Y-9391484D01*
X9226682Y-9391484D02*
X9245729Y-9401008D01*
X9245729Y-9401008D02*
X9255253Y-9410531D01*
X9255253Y-9410531D02*
X9264777Y-9429579D01*
X9264777Y-9429579D02*
X9274301Y-9467674D01*
X9274301Y-9467674D02*
X9274301Y-9515293D01*
X9274301Y-9515293D02*
X9264777Y-9553389D01*
X9264777Y-9553389D02*
X9255253Y-9572436D01*
X9255253Y-9572436D02*
X9245729Y-9581960D01*
X9245729Y-9581960D02*
X9226682Y-9591484D01*
X9226682Y-9591484D02*
X9207634Y-9591484D01*
X9207634Y-9591484D02*
X9188587Y-9581960D01*
X9188587Y-9581960D02*
X9179063Y-9572436D01*
X9179063Y-9572436D02*
X9169539Y-9553389D01*
X9169539Y-9553389D02*
X9160015Y-9515293D01*
X9160015Y-9515293D02*
X9160015Y-9467674D01*
X9160015Y-9467674D02*
X9169539Y-9429579D01*
X9169539Y-9429579D02*
X9179063Y-9410531D01*
X9179063Y-9410531D02*
X9188587Y-9401008D01*
X9188587Y-9401008D02*
X9207634Y-9391484D01*
X9360015Y-9572436D02*
X9369539Y-9581960D01*
X9369539Y-9581960D02*
X9360015Y-9591484D01*
X9360015Y-9591484D02*
X9350491Y-9581960D01*
X9350491Y-9581960D02*
X9360015Y-9572436D01*
X9360015Y-9572436D02*
X9360015Y-9591484D01*
X9493348Y-9391484D02*
X9512396Y-9391484D01*
X9512396Y-9391484D02*
X9531444Y-9401008D01*
X9531444Y-9401008D02*
X9540968Y-9410531D01*
X9540968Y-9410531D02*
X9550491Y-9429579D01*
X9550491Y-9429579D02*
X9560015Y-9467674D01*
X9560015Y-9467674D02*
X9560015Y-9515293D01*
X9560015Y-9515293D02*
X9550491Y-9553389D01*
X9550491Y-9553389D02*
X9540968Y-9572436D01*
X9540968Y-9572436D02*
X9531444Y-9581960D01*
X9531444Y-9581960D02*
X9512396Y-9591484D01*
X9512396Y-9591484D02*
X9493348Y-9591484D01*
X9493348Y-9591484D02*
X9474301Y-9581960D01*
X9474301Y-9581960D02*
X9464777Y-9572436D01*
X9464777Y-9572436D02*
X9455253Y-9553389D01*
X9455253Y-9553389D02*
X9445729Y-9515293D01*
X9445729Y-9515293D02*
X9445729Y-9467674D01*
X9445729Y-9467674D02*
X9455253Y-9429579D01*
X9455253Y-9429579D02*
X9464777Y-9410531D01*
X9464777Y-9410531D02*
X9474301Y-9401008D01*
X9474301Y-9401008D02*
X9493348Y-9391484D01*
X9674301Y-9477198D02*
X9655253Y-9467674D01*
X9655253Y-9467674D02*
X9645729Y-9458150D01*
X9645729Y-9458150D02*
X9636206Y-9439103D01*
X9636206Y-9439103D02*
X9636206Y-9429579D01*
X9636206Y-9429579D02*
X9645729Y-9410531D01*
X9645729Y-9410531D02*
X9655253Y-9401008D01*
X9655253Y-9401008D02*
X9674301Y-9391484D01*
X9674301Y-9391484D02*
X9712396Y-9391484D01*
X9712396Y-9391484D02*
X9731444Y-9401008D01*
X9731444Y-9401008D02*
X9740968Y-9410531D01*
X9740968Y-9410531D02*
X9750491Y-9429579D01*
X9750491Y-9429579D02*
X9750491Y-9439103D01*
X9750491Y-9439103D02*
X9740968Y-9458150D01*
X9740968Y-9458150D02*
X9731444Y-9467674D01*
X9731444Y-9467674D02*
X9712396Y-9477198D01*
X9712396Y-9477198D02*
X9674301Y-9477198D01*
X9674301Y-9477198D02*
X9655253Y-9486722D01*
X9655253Y-9486722D02*
X9645729Y-9496246D01*
X9645729Y-9496246D02*
X9636206Y-9515293D01*
X9636206Y-9515293D02*
X9636206Y-9553389D01*
X9636206Y-9553389D02*
X9645729Y-9572436D01*
X9645729Y-9572436D02*
X9655253Y-9581960D01*
X9655253Y-9581960D02*
X9674301Y-9591484D01*
X9674301Y-9591484D02*
X9712396Y-9591484D01*
X9712396Y-9591484D02*
X9731444Y-9581960D01*
X9731444Y-9581960D02*
X9740968Y-9572436D01*
X9740968Y-9572436D02*
X9750491Y-9553389D01*
X9750491Y-9553389D02*
X9750491Y-9515293D01*
X9750491Y-9515293D02*
X9740968Y-9496246D01*
X9740968Y-9496246D02*
X9731444Y-9486722D01*
X9731444Y-9486722D02*
X9712396Y-9477198D01*
X9921920Y-9391484D02*
X9883825Y-9391484D01*
X9883825Y-9391484D02*
X9864777Y-9401008D01*
X9864777Y-9401008D02*
X9855253Y-9410531D01*
X9855253Y-9410531D02*
X9836206Y-9439103D01*
X9836206Y-9439103D02*
X9826682Y-9477198D01*
X9826682Y-9477198D02*
X9826682Y-9553389D01*
X9826682Y-9553389D02*
X9836206Y-9572436D01*
X9836206Y-9572436D02*
X9845729Y-9581960D01*
X9845729Y-9581960D02*
X9864777Y-9591484D01*
X9864777Y-9591484D02*
X9902872Y-9591484D01*
X9902872Y-9591484D02*
X9921920Y-9581960D01*
X9921920Y-9581960D02*
X9931444Y-9572436D01*
X9931444Y-9572436D02*
X9940968Y-9553389D01*
X9940968Y-9553389D02*
X9940968Y-9505770D01*
X9940968Y-9505770D02*
X9931444Y-9486722D01*
X9931444Y-9486722D02*
X9921920Y-9477198D01*
X9921920Y-9477198D02*
X9902872Y-9467674D01*
X9902872Y-9467674D02*
X9864777Y-9467674D01*
X9864777Y-9467674D02*
X9845729Y-9477198D01*
X9845729Y-9477198D02*
X9836206Y-9486722D01*
X9836206Y-9486722D02*
X9826682Y-9505770D01*
X10112396Y-9391484D02*
X10074301Y-9391484D01*
X10074301Y-9391484D02*
X10055253Y-9401008D01*
X10055253Y-9401008D02*
X10045729Y-9410531D01*
X10045729Y-9410531D02*
X10026682Y-9439103D01*
X10026682Y-9439103D02*
X10017158Y-9477198D01*
X10017158Y-9477198D02*
X10017158Y-9553389D01*
X10017158Y-9553389D02*
X10026682Y-9572436D01*
X10026682Y-9572436D02*
X10036206Y-9581960D01*
X10036206Y-9581960D02*
X10055253Y-9591484D01*
X10055253Y-9591484D02*
X10093349Y-9591484D01*
X10093349Y-9591484D02*
X10112396Y-9581960D01*
X10112396Y-9581960D02*
X10121920Y-9572436D01*
X10121920Y-9572436D02*
X10131444Y-9553389D01*
X10131444Y-9553389D02*
X10131444Y-9505770D01*
X10131444Y-9505770D02*
X10121920Y-9486722D01*
X10121920Y-9486722D02*
X10112396Y-9477198D01*
X10112396Y-9477198D02*
X10093349Y-9467674D01*
X10093349Y-9467674D02*
X10055253Y-9467674D01*
X10055253Y-9467674D02*
X10036206Y-9477198D01*
X10036206Y-9477198D02*
X10026682Y-9486722D01*
X10026682Y-9486722D02*
X10017158Y-9505770D01*
X10207634Y-9391484D02*
X10207634Y-9429579D01*
X10283825Y-9391484D02*
X10283825Y-9429579D01*
X10579063Y-9667674D02*
X10569539Y-9658150D01*
X10569539Y-9658150D02*
X10550491Y-9629579D01*
X10550491Y-9629579D02*
X10540968Y-9610531D01*
X10540968Y-9610531D02*
X10531444Y-9581960D01*
X10531444Y-9581960D02*
X10521920Y-9534341D01*
X10521920Y-9534341D02*
X10521920Y-9496246D01*
X10521920Y-9496246D02*
X10531444Y-9448627D01*
X10531444Y-9448627D02*
X10540968Y-9420055D01*
X10540968Y-9420055D02*
X10550491Y-9401008D01*
X10550491Y-9401008D02*
X10569539Y-9372436D01*
X10569539Y-9372436D02*
X10579063Y-9362912D01*
X10645730Y-9410531D02*
X10655253Y-9401008D01*
X10655253Y-9401008D02*
X10674301Y-9391484D01*
X10674301Y-9391484D02*
X10721920Y-9391484D01*
X10721920Y-9391484D02*
X10740968Y-9401008D01*
X10740968Y-9401008D02*
X10750491Y-9410531D01*
X10750491Y-9410531D02*
X10760015Y-9429579D01*
X10760015Y-9429579D02*
X10760015Y-9448627D01*
X10760015Y-9448627D02*
X10750491Y-9477198D01*
X10750491Y-9477198D02*
X10636206Y-9591484D01*
X10636206Y-9591484D02*
X10760015Y-9591484D01*
X10998111Y-9591484D02*
X10998111Y-9391484D01*
X11083825Y-9591484D02*
X11083825Y-9486722D01*
X11083825Y-9486722D02*
X11074301Y-9467674D01*
X11074301Y-9467674D02*
X11055253Y-9458150D01*
X11055253Y-9458150D02*
X11026682Y-9458150D01*
X11026682Y-9458150D02*
X11007634Y-9467674D01*
X11007634Y-9467674D02*
X10998111Y-9477198D01*
X11207634Y-9591484D02*
X11188587Y-9581960D01*
X11188587Y-9581960D02*
X11179063Y-9572436D01*
X11179063Y-9572436D02*
X11169539Y-9553389D01*
X11169539Y-9553389D02*
X11169539Y-9496246D01*
X11169539Y-9496246D02*
X11179063Y-9477198D01*
X11179063Y-9477198D02*
X11188587Y-9467674D01*
X11188587Y-9467674D02*
X11207634Y-9458150D01*
X11207634Y-9458150D02*
X11236206Y-9458150D01*
X11236206Y-9458150D02*
X11255253Y-9467674D01*
X11255253Y-9467674D02*
X11264777Y-9477198D01*
X11264777Y-9477198D02*
X11274301Y-9496246D01*
X11274301Y-9496246D02*
X11274301Y-9553389D01*
X11274301Y-9553389D02*
X11264777Y-9572436D01*
X11264777Y-9572436D02*
X11255253Y-9581960D01*
X11255253Y-9581960D02*
X11236206Y-9591484D01*
X11236206Y-9591484D02*
X11207634Y-9591484D01*
X11388587Y-9591484D02*
X11369539Y-9581960D01*
X11369539Y-9581960D02*
X11360015Y-9562912D01*
X11360015Y-9562912D02*
X11360015Y-9391484D01*
X11540968Y-9581960D02*
X11521920Y-9591484D01*
X11521920Y-9591484D02*
X11483825Y-9591484D01*
X11483825Y-9591484D02*
X11464777Y-9581960D01*
X11464777Y-9581960D02*
X11455253Y-9562912D01*
X11455253Y-9562912D02*
X11455253Y-9486722D01*
X11455253Y-9486722D02*
X11464777Y-9467674D01*
X11464777Y-9467674D02*
X11483825Y-9458150D01*
X11483825Y-9458150D02*
X11521920Y-9458150D01*
X11521920Y-9458150D02*
X11540968Y-9467674D01*
X11540968Y-9467674D02*
X11550491Y-9486722D01*
X11550491Y-9486722D02*
X11550491Y-9505770D01*
X11550491Y-9505770D02*
X11455253Y-9524817D01*
X11626682Y-9581960D02*
X11645730Y-9591484D01*
X11645730Y-9591484D02*
X11683825Y-9591484D01*
X11683825Y-9591484D02*
X11702872Y-9581960D01*
X11702872Y-9581960D02*
X11712396Y-9562912D01*
X11712396Y-9562912D02*
X11712396Y-9553389D01*
X11712396Y-9553389D02*
X11702872Y-9534341D01*
X11702872Y-9534341D02*
X11683825Y-9524817D01*
X11683825Y-9524817D02*
X11655253Y-9524817D01*
X11655253Y-9524817D02*
X11636206Y-9515293D01*
X11636206Y-9515293D02*
X11626682Y-9496246D01*
X11626682Y-9496246D02*
X11626682Y-9486722D01*
X11626682Y-9486722D02*
X11636206Y-9467674D01*
X11636206Y-9467674D02*
X11655253Y-9458150D01*
X11655253Y-9458150D02*
X11683825Y-9458150D01*
X11683825Y-9458150D02*
X11702872Y-9467674D01*
X11779063Y-9667674D02*
X11788587Y-9658150D01*
X11788587Y-9658150D02*
X11807634Y-9629579D01*
X11807634Y-9629579D02*
X11817158Y-9610531D01*
X11817158Y-9610531D02*
X11826682Y-9581960D01*
X11826682Y-9581960D02*
X11836206Y-9534341D01*
X11836206Y-9534341D02*
X11836206Y-9496246D01*
X11836206Y-9496246D02*
X11826682Y-9448627D01*
X11826682Y-9448627D02*
X11817158Y-9420055D01*
X11817158Y-9420055D02*
X11807634Y-9401008D01*
X11807634Y-9401008D02*
X11788587Y-9372436D01*
X11788587Y-9372436D02*
X11779063Y-9362912D01*
X12140968Y-9667674D02*
X12131444Y-9658150D01*
X12131444Y-9658150D02*
X12112396Y-9629579D01*
X12112396Y-9629579D02*
X12102872Y-9610531D01*
X12102872Y-9610531D02*
X12093349Y-9581960D01*
X12093349Y-9581960D02*
X12083825Y-9534341D01*
X12083825Y-9534341D02*
X12083825Y-9496246D01*
X12083825Y-9496246D02*
X12093349Y-9448627D01*
X12093349Y-9448627D02*
X12102872Y-9420055D01*
X12102872Y-9420055D02*
X12112396Y-9401008D01*
X12112396Y-9401008D02*
X12131444Y-9372436D01*
X12131444Y-9372436D02*
X12140968Y-9362912D01*
X12217158Y-9458150D02*
X12217158Y-9591484D01*
X12217158Y-9477198D02*
X12226682Y-9467674D01*
X12226682Y-9467674D02*
X12245730Y-9458150D01*
X12245730Y-9458150D02*
X12274301Y-9458150D01*
X12274301Y-9458150D02*
X12293349Y-9467674D01*
X12293349Y-9467674D02*
X12302872Y-9486722D01*
X12302872Y-9486722D02*
X12302872Y-9591484D01*
X12426682Y-9591484D02*
X12407634Y-9581960D01*
X12407634Y-9581960D02*
X12398111Y-9572436D01*
X12398111Y-9572436D02*
X12388587Y-9553389D01*
X12388587Y-9553389D02*
X12388587Y-9496246D01*
X12388587Y-9496246D02*
X12398111Y-9477198D01*
X12398111Y-9477198D02*
X12407634Y-9467674D01*
X12407634Y-9467674D02*
X12426682Y-9458150D01*
X12426682Y-9458150D02*
X12455253Y-9458150D01*
X12455253Y-9458150D02*
X12474301Y-9467674D01*
X12474301Y-9467674D02*
X12483825Y-9477198D01*
X12483825Y-9477198D02*
X12493349Y-9496246D01*
X12493349Y-9496246D02*
X12493349Y-9553389D01*
X12493349Y-9553389D02*
X12483825Y-9572436D01*
X12483825Y-9572436D02*
X12474301Y-9581960D01*
X12474301Y-9581960D02*
X12455253Y-9591484D01*
X12455253Y-9591484D02*
X12426682Y-9591484D01*
X12550492Y-9458150D02*
X12626682Y-9458150D01*
X12579063Y-9391484D02*
X12579063Y-9562912D01*
X12579063Y-9562912D02*
X12588587Y-9581960D01*
X12588587Y-9581960D02*
X12607634Y-9591484D01*
X12607634Y-9591484D02*
X12626682Y-9591484D01*
X12845730Y-9458150D02*
X12845730Y-9658150D01*
X12845730Y-9467674D02*
X12864777Y-9458150D01*
X12864777Y-9458150D02*
X12902873Y-9458150D01*
X12902873Y-9458150D02*
X12921920Y-9467674D01*
X12921920Y-9467674D02*
X12931444Y-9477198D01*
X12931444Y-9477198D02*
X12940968Y-9496246D01*
X12940968Y-9496246D02*
X12940968Y-9553389D01*
X12940968Y-9553389D02*
X12931444Y-9572436D01*
X12931444Y-9572436D02*
X12921920Y-9581960D01*
X12921920Y-9581960D02*
X12902873Y-9591484D01*
X12902873Y-9591484D02*
X12864777Y-9591484D01*
X12864777Y-9591484D02*
X12845730Y-9581960D01*
X13055253Y-9591484D02*
X13036206Y-9581960D01*
X13036206Y-9581960D02*
X13026682Y-9562912D01*
X13026682Y-9562912D02*
X13026682Y-9391484D01*
X13217158Y-9591484D02*
X13217158Y-9486722D01*
X13217158Y-9486722D02*
X13207634Y-9467674D01*
X13207634Y-9467674D02*
X13188587Y-9458150D01*
X13188587Y-9458150D02*
X13150492Y-9458150D01*
X13150492Y-9458150D02*
X13131444Y-9467674D01*
X13217158Y-9581960D02*
X13198111Y-9591484D01*
X13198111Y-9591484D02*
X13150492Y-9591484D01*
X13150492Y-9591484D02*
X13131444Y-9581960D01*
X13131444Y-9581960D02*
X13121920Y-9562912D01*
X13121920Y-9562912D02*
X13121920Y-9543865D01*
X13121920Y-9543865D02*
X13131444Y-9524817D01*
X13131444Y-9524817D02*
X13150492Y-9515293D01*
X13150492Y-9515293D02*
X13198111Y-9515293D01*
X13198111Y-9515293D02*
X13217158Y-9505770D01*
X13283825Y-9458150D02*
X13360015Y-9458150D01*
X13312396Y-9391484D02*
X13312396Y-9562912D01*
X13312396Y-9562912D02*
X13321920Y-9581960D01*
X13321920Y-9581960D02*
X13340968Y-9591484D01*
X13340968Y-9591484D02*
X13360015Y-9591484D01*
X13502873Y-9581960D02*
X13483825Y-9591484D01*
X13483825Y-9591484D02*
X13445730Y-9591484D01*
X13445730Y-9591484D02*
X13426682Y-9581960D01*
X13426682Y-9581960D02*
X13417158Y-9562912D01*
X13417158Y-9562912D02*
X13417158Y-9486722D01*
X13417158Y-9486722D02*
X13426682Y-9467674D01*
X13426682Y-9467674D02*
X13445730Y-9458150D01*
X13445730Y-9458150D02*
X13483825Y-9458150D01*
X13483825Y-9458150D02*
X13502873Y-9467674D01*
X13502873Y-9467674D02*
X13512396Y-9486722D01*
X13512396Y-9486722D02*
X13512396Y-9505770D01*
X13512396Y-9505770D02*
X13417158Y-9524817D01*
X13683825Y-9591484D02*
X13683825Y-9391484D01*
X13683825Y-9581960D02*
X13664777Y-9591484D01*
X13664777Y-9591484D02*
X13626682Y-9591484D01*
X13626682Y-9591484D02*
X13607634Y-9581960D01*
X13607634Y-9581960D02*
X13598111Y-9572436D01*
X13598111Y-9572436D02*
X13588587Y-9553389D01*
X13588587Y-9553389D02*
X13588587Y-9496246D01*
X13588587Y-9496246D02*
X13598111Y-9477198D01*
X13598111Y-9477198D02*
X13607634Y-9467674D01*
X13607634Y-9467674D02*
X13626682Y-9458150D01*
X13626682Y-9458150D02*
X13664777Y-9458150D01*
X13664777Y-9458150D02*
X13683825Y-9467674D01*
X13760015Y-9667674D02*
X13769539Y-9658150D01*
X13769539Y-9658150D02*
X13788587Y-9629579D01*
X13788587Y-9629579D02*
X13798111Y-9610531D01*
X13798111Y-9610531D02*
X13807634Y-9581960D01*
X13807634Y-9581960D02*
X13817158Y-9534341D01*
X13817158Y-9534341D02*
X13817158Y-9496246D01*
X13817158Y-9496246D02*
X13807634Y-9448627D01*
X13807634Y-9448627D02*
X13798111Y-9420055D01*
X13798111Y-9420055D02*
X13788587Y-9401008D01*
X13788587Y-9401008D02*
X13769539Y-9372436D01*
X13769539Y-9372436D02*
X13760015Y-9362912D01*
X6974711Y-9890711D02*
X6974711Y-9749289D01*
X6833289Y-9749289D01*
X6833289Y-9890711D01*
X6974711Y-9890711D01*
X7245729Y-9711484D02*
X7369539Y-9711484D01*
X7369539Y-9711484D02*
X7302872Y-9787674D01*
X7302872Y-9787674D02*
X7331443Y-9787674D01*
X7331443Y-9787674D02*
X7350491Y-9797198D01*
X7350491Y-9797198D02*
X7360015Y-9806722D01*
X7360015Y-9806722D02*
X7369539Y-9825770D01*
X7369539Y-9825770D02*
X7369539Y-9873389D01*
X7369539Y-9873389D02*
X7360015Y-9892436D01*
X7360015Y-9892436D02*
X7350491Y-9901960D01*
X7350491Y-9901960D02*
X7331443Y-9911484D01*
X7331443Y-9911484D02*
X7274301Y-9911484D01*
X7274301Y-9911484D02*
X7255253Y-9901960D01*
X7255253Y-9901960D02*
X7245729Y-9892436D01*
X7455253Y-9892436D02*
X7464777Y-9901960D01*
X7464777Y-9901960D02*
X7455253Y-9911484D01*
X7455253Y-9911484D02*
X7445729Y-9901960D01*
X7445729Y-9901960D02*
X7455253Y-9892436D01*
X7455253Y-9892436D02*
X7455253Y-9911484D01*
X7645729Y-9711484D02*
X7550491Y-9711484D01*
X7550491Y-9711484D02*
X7540967Y-9806722D01*
X7540967Y-9806722D02*
X7550491Y-9797198D01*
X7550491Y-9797198D02*
X7569539Y-9787674D01*
X7569539Y-9787674D02*
X7617158Y-9787674D01*
X7617158Y-9787674D02*
X7636205Y-9797198D01*
X7636205Y-9797198D02*
X7645729Y-9806722D01*
X7645729Y-9806722D02*
X7655253Y-9825770D01*
X7655253Y-9825770D02*
X7655253Y-9873389D01*
X7655253Y-9873389D02*
X7645729Y-9892436D01*
X7645729Y-9892436D02*
X7636205Y-9901960D01*
X7636205Y-9901960D02*
X7617158Y-9911484D01*
X7617158Y-9911484D02*
X7569539Y-9911484D01*
X7569539Y-9911484D02*
X7550491Y-9901960D01*
X7550491Y-9901960D02*
X7540967Y-9892436D01*
X7779062Y-9711484D02*
X7798110Y-9711484D01*
X7798110Y-9711484D02*
X7817158Y-9721008D01*
X7817158Y-9721008D02*
X7826682Y-9730531D01*
X7826682Y-9730531D02*
X7836205Y-9749579D01*
X7836205Y-9749579D02*
X7845729Y-9787674D01*
X7845729Y-9787674D02*
X7845729Y-9835293D01*
X7845729Y-9835293D02*
X7836205Y-9873389D01*
X7836205Y-9873389D02*
X7826682Y-9892436D01*
X7826682Y-9892436D02*
X7817158Y-9901960D01*
X7817158Y-9901960D02*
X7798110Y-9911484D01*
X7798110Y-9911484D02*
X7779062Y-9911484D01*
X7779062Y-9911484D02*
X7760015Y-9901960D01*
X7760015Y-9901960D02*
X7750491Y-9892436D01*
X7750491Y-9892436D02*
X7740967Y-9873389D01*
X7740967Y-9873389D02*
X7731443Y-9835293D01*
X7731443Y-9835293D02*
X7731443Y-9787674D01*
X7731443Y-9787674D02*
X7740967Y-9749579D01*
X7740967Y-9749579D02*
X7750491Y-9730531D01*
X7750491Y-9730531D02*
X7760015Y-9721008D01*
X7760015Y-9721008D02*
X7779062Y-9711484D01*
X7969539Y-9711484D02*
X7988586Y-9711484D01*
X7988586Y-9711484D02*
X8007634Y-9721008D01*
X8007634Y-9721008D02*
X8017158Y-9730531D01*
X8017158Y-9730531D02*
X8026682Y-9749579D01*
X8026682Y-9749579D02*
X8036205Y-9787674D01*
X8036205Y-9787674D02*
X8036205Y-9835293D01*
X8036205Y-9835293D02*
X8026682Y-9873389D01*
X8026682Y-9873389D02*
X8017158Y-9892436D01*
X8017158Y-9892436D02*
X8007634Y-9901960D01*
X8007634Y-9901960D02*
X7988586Y-9911484D01*
X7988586Y-9911484D02*
X7969539Y-9911484D01*
X7969539Y-9911484D02*
X7950491Y-9901960D01*
X7950491Y-9901960D02*
X7940967Y-9892436D01*
X7940967Y-9892436D02*
X7931443Y-9873389D01*
X7931443Y-9873389D02*
X7921920Y-9835293D01*
X7921920Y-9835293D02*
X7921920Y-9787674D01*
X7921920Y-9787674D02*
X7931443Y-9749579D01*
X7931443Y-9749579D02*
X7940967Y-9730531D01*
X7940967Y-9730531D02*
X7950491Y-9721008D01*
X7950491Y-9721008D02*
X7969539Y-9711484D01*
X8121920Y-9911484D02*
X8121920Y-9778150D01*
X8121920Y-9797198D02*
X8131443Y-9787674D01*
X8131443Y-9787674D02*
X8150491Y-9778150D01*
X8150491Y-9778150D02*
X8179063Y-9778150D01*
X8179063Y-9778150D02*
X8198110Y-9787674D01*
X8198110Y-9787674D02*
X8207634Y-9806722D01*
X8207634Y-9806722D02*
X8207634Y-9911484D01*
X8207634Y-9806722D02*
X8217158Y-9787674D01*
X8217158Y-9787674D02*
X8236205Y-9778150D01*
X8236205Y-9778150D02*
X8264777Y-9778150D01*
X8264777Y-9778150D02*
X8283824Y-9787674D01*
X8283824Y-9787674D02*
X8293348Y-9806722D01*
X8293348Y-9806722D02*
X8293348Y-9911484D01*
X8388586Y-9911484D02*
X8388586Y-9778150D01*
X8388586Y-9797198D02*
X8398110Y-9787674D01*
X8398110Y-9787674D02*
X8417158Y-9778150D01*
X8417158Y-9778150D02*
X8445729Y-9778150D01*
X8445729Y-9778150D02*
X8464777Y-9787674D01*
X8464777Y-9787674D02*
X8474301Y-9806722D01*
X8474301Y-9806722D02*
X8474301Y-9911484D01*
X8474301Y-9806722D02*
X8483825Y-9787674D01*
X8483825Y-9787674D02*
X8502872Y-9778150D01*
X8502872Y-9778150D02*
X8531444Y-9778150D01*
X8531444Y-9778150D02*
X8550491Y-9787674D01*
X8550491Y-9787674D02*
X8560015Y-9806722D01*
X8560015Y-9806722D02*
X8560015Y-9911484D01*
X8950491Y-9701960D02*
X8779063Y-9959103D01*
X9207634Y-9711484D02*
X9226682Y-9711484D01*
X9226682Y-9711484D02*
X9245729Y-9721008D01*
X9245729Y-9721008D02*
X9255253Y-9730531D01*
X9255253Y-9730531D02*
X9264777Y-9749579D01*
X9264777Y-9749579D02*
X9274301Y-9787674D01*
X9274301Y-9787674D02*
X9274301Y-9835293D01*
X9274301Y-9835293D02*
X9264777Y-9873389D01*
X9264777Y-9873389D02*
X9255253Y-9892436D01*
X9255253Y-9892436D02*
X9245729Y-9901960D01*
X9245729Y-9901960D02*
X9226682Y-9911484D01*
X9226682Y-9911484D02*
X9207634Y-9911484D01*
X9207634Y-9911484D02*
X9188587Y-9901960D01*
X9188587Y-9901960D02*
X9179063Y-9892436D01*
X9179063Y-9892436D02*
X9169539Y-9873389D01*
X9169539Y-9873389D02*
X9160015Y-9835293D01*
X9160015Y-9835293D02*
X9160015Y-9787674D01*
X9160015Y-9787674D02*
X9169539Y-9749579D01*
X9169539Y-9749579D02*
X9179063Y-9730531D01*
X9179063Y-9730531D02*
X9188587Y-9721008D01*
X9188587Y-9721008D02*
X9207634Y-9711484D01*
X9360015Y-9892436D02*
X9369539Y-9901960D01*
X9369539Y-9901960D02*
X9360015Y-9911484D01*
X9360015Y-9911484D02*
X9350491Y-9901960D01*
X9350491Y-9901960D02*
X9360015Y-9892436D01*
X9360015Y-9892436D02*
X9360015Y-9911484D01*
X9560015Y-9911484D02*
X9445729Y-9911484D01*
X9502872Y-9911484D02*
X9502872Y-9711484D01*
X9502872Y-9711484D02*
X9483825Y-9740055D01*
X9483825Y-9740055D02*
X9464777Y-9759103D01*
X9464777Y-9759103D02*
X9445729Y-9768627D01*
X9626682Y-9711484D02*
X9750491Y-9711484D01*
X9750491Y-9711484D02*
X9683825Y-9787674D01*
X9683825Y-9787674D02*
X9712396Y-9787674D01*
X9712396Y-9787674D02*
X9731444Y-9797198D01*
X9731444Y-9797198D02*
X9740968Y-9806722D01*
X9740968Y-9806722D02*
X9750491Y-9825770D01*
X9750491Y-9825770D02*
X9750491Y-9873389D01*
X9750491Y-9873389D02*
X9740968Y-9892436D01*
X9740968Y-9892436D02*
X9731444Y-9901960D01*
X9731444Y-9901960D02*
X9712396Y-9911484D01*
X9712396Y-9911484D02*
X9655253Y-9911484D01*
X9655253Y-9911484D02*
X9636206Y-9901960D01*
X9636206Y-9901960D02*
X9626682Y-9892436D01*
X9817158Y-9711484D02*
X9950491Y-9711484D01*
X9950491Y-9711484D02*
X9864777Y-9911484D01*
X10055253Y-9797198D02*
X10036206Y-9787674D01*
X10036206Y-9787674D02*
X10026682Y-9778150D01*
X10026682Y-9778150D02*
X10017158Y-9759103D01*
X10017158Y-9759103D02*
X10017158Y-9749579D01*
X10017158Y-9749579D02*
X10026682Y-9730531D01*
X10026682Y-9730531D02*
X10036206Y-9721008D01*
X10036206Y-9721008D02*
X10055253Y-9711484D01*
X10055253Y-9711484D02*
X10093349Y-9711484D01*
X10093349Y-9711484D02*
X10112396Y-9721008D01*
X10112396Y-9721008D02*
X10121920Y-9730531D01*
X10121920Y-9730531D02*
X10131444Y-9749579D01*
X10131444Y-9749579D02*
X10131444Y-9759103D01*
X10131444Y-9759103D02*
X10121920Y-9778150D01*
X10121920Y-9778150D02*
X10112396Y-9787674D01*
X10112396Y-9787674D02*
X10093349Y-9797198D01*
X10093349Y-9797198D02*
X10055253Y-9797198D01*
X10055253Y-9797198D02*
X10036206Y-9806722D01*
X10036206Y-9806722D02*
X10026682Y-9816246D01*
X10026682Y-9816246D02*
X10017158Y-9835293D01*
X10017158Y-9835293D02*
X10017158Y-9873389D01*
X10017158Y-9873389D02*
X10026682Y-9892436D01*
X10026682Y-9892436D02*
X10036206Y-9901960D01*
X10036206Y-9901960D02*
X10055253Y-9911484D01*
X10055253Y-9911484D02*
X10093349Y-9911484D01*
X10093349Y-9911484D02*
X10112396Y-9901960D01*
X10112396Y-9901960D02*
X10121920Y-9892436D01*
X10121920Y-9892436D02*
X10131444Y-9873389D01*
X10131444Y-9873389D02*
X10131444Y-9835293D01*
X10131444Y-9835293D02*
X10121920Y-9816246D01*
X10121920Y-9816246D02*
X10112396Y-9806722D01*
X10112396Y-9806722D02*
X10093349Y-9797198D01*
X10207634Y-9711484D02*
X10207634Y-9749579D01*
X10283825Y-9711484D02*
X10283825Y-9749579D01*
X10579063Y-9987674D02*
X10569539Y-9978150D01*
X10569539Y-9978150D02*
X10550491Y-9949579D01*
X10550491Y-9949579D02*
X10540968Y-9930531D01*
X10540968Y-9930531D02*
X10531444Y-9901960D01*
X10531444Y-9901960D02*
X10521920Y-9854341D01*
X10521920Y-9854341D02*
X10521920Y-9816246D01*
X10521920Y-9816246D02*
X10531444Y-9768627D01*
X10531444Y-9768627D02*
X10540968Y-9740055D01*
X10540968Y-9740055D02*
X10550491Y-9721008D01*
X10550491Y-9721008D02*
X10569539Y-9692436D01*
X10569539Y-9692436D02*
X10579063Y-9682912D01*
X10740968Y-9778150D02*
X10740968Y-9911484D01*
X10693349Y-9701960D02*
X10645730Y-9844817D01*
X10645730Y-9844817D02*
X10769539Y-9844817D01*
X10998111Y-9911484D02*
X10998111Y-9711484D01*
X11083825Y-9911484D02*
X11083825Y-9806722D01*
X11083825Y-9806722D02*
X11074301Y-9787674D01*
X11074301Y-9787674D02*
X11055253Y-9778150D01*
X11055253Y-9778150D02*
X11026682Y-9778150D01*
X11026682Y-9778150D02*
X11007634Y-9787674D01*
X11007634Y-9787674D02*
X10998111Y-9797198D01*
X11207634Y-9911484D02*
X11188587Y-9901960D01*
X11188587Y-9901960D02*
X11179063Y-9892436D01*
X11179063Y-9892436D02*
X11169539Y-9873389D01*
X11169539Y-9873389D02*
X11169539Y-9816246D01*
X11169539Y-9816246D02*
X11179063Y-9797198D01*
X11179063Y-9797198D02*
X11188587Y-9787674D01*
X11188587Y-9787674D02*
X11207634Y-9778150D01*
X11207634Y-9778150D02*
X11236206Y-9778150D01*
X11236206Y-9778150D02*
X11255253Y-9787674D01*
X11255253Y-9787674D02*
X11264777Y-9797198D01*
X11264777Y-9797198D02*
X11274301Y-9816246D01*
X11274301Y-9816246D02*
X11274301Y-9873389D01*
X11274301Y-9873389D02*
X11264777Y-9892436D01*
X11264777Y-9892436D02*
X11255253Y-9901960D01*
X11255253Y-9901960D02*
X11236206Y-9911484D01*
X11236206Y-9911484D02*
X11207634Y-9911484D01*
X11388587Y-9911484D02*
X11369539Y-9901960D01*
X11369539Y-9901960D02*
X11360015Y-9882912D01*
X11360015Y-9882912D02*
X11360015Y-9711484D01*
X11540968Y-9901960D02*
X11521920Y-9911484D01*
X11521920Y-9911484D02*
X11483825Y-9911484D01*
X11483825Y-9911484D02*
X11464777Y-9901960D01*
X11464777Y-9901960D02*
X11455253Y-9882912D01*
X11455253Y-9882912D02*
X11455253Y-9806722D01*
X11455253Y-9806722D02*
X11464777Y-9787674D01*
X11464777Y-9787674D02*
X11483825Y-9778150D01*
X11483825Y-9778150D02*
X11521920Y-9778150D01*
X11521920Y-9778150D02*
X11540968Y-9787674D01*
X11540968Y-9787674D02*
X11550491Y-9806722D01*
X11550491Y-9806722D02*
X11550491Y-9825770D01*
X11550491Y-9825770D02*
X11455253Y-9844817D01*
X11626682Y-9901960D02*
X11645730Y-9911484D01*
X11645730Y-9911484D02*
X11683825Y-9911484D01*
X11683825Y-9911484D02*
X11702872Y-9901960D01*
X11702872Y-9901960D02*
X11712396Y-9882912D01*
X11712396Y-9882912D02*
X11712396Y-9873389D01*
X11712396Y-9873389D02*
X11702872Y-9854341D01*
X11702872Y-9854341D02*
X11683825Y-9844817D01*
X11683825Y-9844817D02*
X11655253Y-9844817D01*
X11655253Y-9844817D02*
X11636206Y-9835293D01*
X11636206Y-9835293D02*
X11626682Y-9816246D01*
X11626682Y-9816246D02*
X11626682Y-9806722D01*
X11626682Y-9806722D02*
X11636206Y-9787674D01*
X11636206Y-9787674D02*
X11655253Y-9778150D01*
X11655253Y-9778150D02*
X11683825Y-9778150D01*
X11683825Y-9778150D02*
X11702872Y-9787674D01*
X11779063Y-9987674D02*
X11788587Y-9978150D01*
X11788587Y-9978150D02*
X11807634Y-9949579D01*
X11807634Y-9949579D02*
X11817158Y-9930531D01*
X11817158Y-9930531D02*
X11826682Y-9901960D01*
X11826682Y-9901960D02*
X11836206Y-9854341D01*
X11836206Y-9854341D02*
X11836206Y-9816246D01*
X11836206Y-9816246D02*
X11826682Y-9768627D01*
X11826682Y-9768627D02*
X11817158Y-9740055D01*
X11817158Y-9740055D02*
X11807634Y-9721008D01*
X11807634Y-9721008D02*
X11788587Y-9692436D01*
X11788587Y-9692436D02*
X11779063Y-9682912D01*
X12140968Y-9987674D02*
X12131444Y-9978150D01*
X12131444Y-9978150D02*
X12112396Y-9949579D01*
X12112396Y-9949579D02*
X12102872Y-9930531D01*
X12102872Y-9930531D02*
X12093349Y-9901960D01*
X12093349Y-9901960D02*
X12083825Y-9854341D01*
X12083825Y-9854341D02*
X12083825Y-9816246D01*
X12083825Y-9816246D02*
X12093349Y-9768627D01*
X12093349Y-9768627D02*
X12102872Y-9740055D01*
X12102872Y-9740055D02*
X12112396Y-9721008D01*
X12112396Y-9721008D02*
X12131444Y-9692436D01*
X12131444Y-9692436D02*
X12140968Y-9682912D01*
X12217158Y-9778150D02*
X12217158Y-9911484D01*
X12217158Y-9797198D02*
X12226682Y-9787674D01*
X12226682Y-9787674D02*
X12245730Y-9778150D01*
X12245730Y-9778150D02*
X12274301Y-9778150D01*
X12274301Y-9778150D02*
X12293349Y-9787674D01*
X12293349Y-9787674D02*
X12302872Y-9806722D01*
X12302872Y-9806722D02*
X12302872Y-9911484D01*
X12426682Y-9911484D02*
X12407634Y-9901960D01*
X12407634Y-9901960D02*
X12398111Y-9892436D01*
X12398111Y-9892436D02*
X12388587Y-9873389D01*
X12388587Y-9873389D02*
X12388587Y-9816246D01*
X12388587Y-9816246D02*
X12398111Y-9797198D01*
X12398111Y-9797198D02*
X12407634Y-9787674D01*
X12407634Y-9787674D02*
X12426682Y-9778150D01*
X12426682Y-9778150D02*
X12455253Y-9778150D01*
X12455253Y-9778150D02*
X12474301Y-9787674D01*
X12474301Y-9787674D02*
X12483825Y-9797198D01*
X12483825Y-9797198D02*
X12493349Y-9816246D01*
X12493349Y-9816246D02*
X12493349Y-9873389D01*
X12493349Y-9873389D02*
X12483825Y-9892436D01*
X12483825Y-9892436D02*
X12474301Y-9901960D01*
X12474301Y-9901960D02*
X12455253Y-9911484D01*
X12455253Y-9911484D02*
X12426682Y-9911484D01*
X12550492Y-9778150D02*
X12626682Y-9778150D01*
X12579063Y-9711484D02*
X12579063Y-9882912D01*
X12579063Y-9882912D02*
X12588587Y-9901960D01*
X12588587Y-9901960D02*
X12607634Y-9911484D01*
X12607634Y-9911484D02*
X12626682Y-9911484D01*
X12845730Y-9778150D02*
X12845730Y-9978150D01*
X12845730Y-9787674D02*
X12864777Y-9778150D01*
X12864777Y-9778150D02*
X12902873Y-9778150D01*
X12902873Y-9778150D02*
X12921920Y-9787674D01*
X12921920Y-9787674D02*
X12931444Y-9797198D01*
X12931444Y-9797198D02*
X12940968Y-9816246D01*
X12940968Y-9816246D02*
X12940968Y-9873389D01*
X12940968Y-9873389D02*
X12931444Y-9892436D01*
X12931444Y-9892436D02*
X12921920Y-9901960D01*
X12921920Y-9901960D02*
X12902873Y-9911484D01*
X12902873Y-9911484D02*
X12864777Y-9911484D01*
X12864777Y-9911484D02*
X12845730Y-9901960D01*
X13055253Y-9911484D02*
X13036206Y-9901960D01*
X13036206Y-9901960D02*
X13026682Y-9882912D01*
X13026682Y-9882912D02*
X13026682Y-9711484D01*
X13217158Y-9911484D02*
X13217158Y-9806722D01*
X13217158Y-9806722D02*
X13207634Y-9787674D01*
X13207634Y-9787674D02*
X13188587Y-9778150D01*
X13188587Y-9778150D02*
X13150492Y-9778150D01*
X13150492Y-9778150D02*
X13131444Y-9787674D01*
X13217158Y-9901960D02*
X13198111Y-9911484D01*
X13198111Y-9911484D02*
X13150492Y-9911484D01*
X13150492Y-9911484D02*
X13131444Y-9901960D01*
X13131444Y-9901960D02*
X13121920Y-9882912D01*
X13121920Y-9882912D02*
X13121920Y-9863865D01*
X13121920Y-9863865D02*
X13131444Y-9844817D01*
X13131444Y-9844817D02*
X13150492Y-9835293D01*
X13150492Y-9835293D02*
X13198111Y-9835293D01*
X13198111Y-9835293D02*
X13217158Y-9825770D01*
X13283825Y-9778150D02*
X13360015Y-9778150D01*
X13312396Y-9711484D02*
X13312396Y-9882912D01*
X13312396Y-9882912D02*
X13321920Y-9901960D01*
X13321920Y-9901960D02*
X13340968Y-9911484D01*
X13340968Y-9911484D02*
X13360015Y-9911484D01*
X13502873Y-9901960D02*
X13483825Y-9911484D01*
X13483825Y-9911484D02*
X13445730Y-9911484D01*
X13445730Y-9911484D02*
X13426682Y-9901960D01*
X13426682Y-9901960D02*
X13417158Y-9882912D01*
X13417158Y-9882912D02*
X13417158Y-9806722D01*
X13417158Y-9806722D02*
X13426682Y-9787674D01*
X13426682Y-9787674D02*
X13445730Y-9778150D01*
X13445730Y-9778150D02*
X13483825Y-9778150D01*
X13483825Y-9778150D02*
X13502873Y-9787674D01*
X13502873Y-9787674D02*
X13512396Y-9806722D01*
X13512396Y-9806722D02*
X13512396Y-9825770D01*
X13512396Y-9825770D02*
X13417158Y-9844817D01*
X13683825Y-9911484D02*
X13683825Y-9711484D01*
X13683825Y-9901960D02*
X13664777Y-9911484D01*
X13664777Y-9911484D02*
X13626682Y-9911484D01*
X13626682Y-9911484D02*
X13607634Y-9901960D01*
X13607634Y-9901960D02*
X13598111Y-9892436D01*
X13598111Y-9892436D02*
X13588587Y-9873389D01*
X13588587Y-9873389D02*
X13588587Y-9816246D01*
X13588587Y-9816246D02*
X13598111Y-9797198D01*
X13598111Y-9797198D02*
X13607634Y-9787674D01*
X13607634Y-9787674D02*
X13626682Y-9778150D01*
X13626682Y-9778150D02*
X13664777Y-9778150D01*
X13664777Y-9778150D02*
X13683825Y-9787674D01*
X13760015Y-9987674D02*
X13769539Y-9978150D01*
X13769539Y-9978150D02*
X13788587Y-9949579D01*
X13788587Y-9949579D02*
X13798111Y-9930531D01*
X13798111Y-9930531D02*
X13807634Y-9901960D01*
X13807634Y-9901960D02*
X13817158Y-9854341D01*
X13817158Y-9854341D02*
X13817158Y-9816246D01*
X13817158Y-9816246D02*
X13807634Y-9768627D01*
X13807634Y-9768627D02*
X13798111Y-9740055D01*
X13798111Y-9740055D02*
X13788587Y-9721008D01*
X13788587Y-9721008D02*
X13769539Y-9692436D01*
X13769539Y-9692436D02*
X13760015Y-9682912D01*
X6904000Y-10240000D02*
X7004000Y-10140000D01*
X6904000Y-10040000D01*
X6804000Y-10140000D01*
X6904000Y-10240000D01*
X7350491Y-10098150D02*
X7350491Y-10231484D01*
X7302872Y-10021960D02*
X7255253Y-10164817D01*
X7255253Y-10164817D02*
X7379062Y-10164817D01*
X7455253Y-10212436D02*
X7464777Y-10221960D01*
X7464777Y-10221960D02*
X7455253Y-10231484D01*
X7455253Y-10231484D02*
X7445729Y-10221960D01*
X7445729Y-10221960D02*
X7455253Y-10212436D01*
X7455253Y-10212436D02*
X7455253Y-10231484D01*
X7588586Y-10031484D02*
X7607634Y-10031484D01*
X7607634Y-10031484D02*
X7626682Y-10041008D01*
X7626682Y-10041008D02*
X7636205Y-10050531D01*
X7636205Y-10050531D02*
X7645729Y-10069579D01*
X7645729Y-10069579D02*
X7655253Y-10107674D01*
X7655253Y-10107674D02*
X7655253Y-10155293D01*
X7655253Y-10155293D02*
X7645729Y-10193389D01*
X7645729Y-10193389D02*
X7636205Y-10212436D01*
X7636205Y-10212436D02*
X7626682Y-10221960D01*
X7626682Y-10221960D02*
X7607634Y-10231484D01*
X7607634Y-10231484D02*
X7588586Y-10231484D01*
X7588586Y-10231484D02*
X7569539Y-10221960D01*
X7569539Y-10221960D02*
X7560015Y-10212436D01*
X7560015Y-10212436D02*
X7550491Y-10193389D01*
X7550491Y-10193389D02*
X7540967Y-10155293D01*
X7540967Y-10155293D02*
X7540967Y-10107674D01*
X7540967Y-10107674D02*
X7550491Y-10069579D01*
X7550491Y-10069579D02*
X7560015Y-10050531D01*
X7560015Y-10050531D02*
X7569539Y-10041008D01*
X7569539Y-10041008D02*
X7588586Y-10031484D01*
X7779062Y-10031484D02*
X7798110Y-10031484D01*
X7798110Y-10031484D02*
X7817158Y-10041008D01*
X7817158Y-10041008D02*
X7826682Y-10050531D01*
X7826682Y-10050531D02*
X7836205Y-10069579D01*
X7836205Y-10069579D02*
X7845729Y-10107674D01*
X7845729Y-10107674D02*
X7845729Y-10155293D01*
X7845729Y-10155293D02*
X7836205Y-10193389D01*
X7836205Y-10193389D02*
X7826682Y-10212436D01*
X7826682Y-10212436D02*
X7817158Y-10221960D01*
X7817158Y-10221960D02*
X7798110Y-10231484D01*
X7798110Y-10231484D02*
X7779062Y-10231484D01*
X7779062Y-10231484D02*
X7760015Y-10221960D01*
X7760015Y-10221960D02*
X7750491Y-10212436D01*
X7750491Y-10212436D02*
X7740967Y-10193389D01*
X7740967Y-10193389D02*
X7731443Y-10155293D01*
X7731443Y-10155293D02*
X7731443Y-10107674D01*
X7731443Y-10107674D02*
X7740967Y-10069579D01*
X7740967Y-10069579D02*
X7750491Y-10050531D01*
X7750491Y-10050531D02*
X7760015Y-10041008D01*
X7760015Y-10041008D02*
X7779062Y-10031484D01*
X7969539Y-10031484D02*
X7988586Y-10031484D01*
X7988586Y-10031484D02*
X8007634Y-10041008D01*
X8007634Y-10041008D02*
X8017158Y-10050531D01*
X8017158Y-10050531D02*
X8026682Y-10069579D01*
X8026682Y-10069579D02*
X8036205Y-10107674D01*
X8036205Y-10107674D02*
X8036205Y-10155293D01*
X8036205Y-10155293D02*
X8026682Y-10193389D01*
X8026682Y-10193389D02*
X8017158Y-10212436D01*
X8017158Y-10212436D02*
X8007634Y-10221960D01*
X8007634Y-10221960D02*
X7988586Y-10231484D01*
X7988586Y-10231484D02*
X7969539Y-10231484D01*
X7969539Y-10231484D02*
X7950491Y-10221960D01*
X7950491Y-10221960D02*
X7940967Y-10212436D01*
X7940967Y-10212436D02*
X7931443Y-10193389D01*
X7931443Y-10193389D02*
X7921920Y-10155293D01*
X7921920Y-10155293D02*
X7921920Y-10107674D01*
X7921920Y-10107674D02*
X7931443Y-10069579D01*
X7931443Y-10069579D02*
X7940967Y-10050531D01*
X7940967Y-10050531D02*
X7950491Y-10041008D01*
X7950491Y-10041008D02*
X7969539Y-10031484D01*
X8121920Y-10231484D02*
X8121920Y-10098150D01*
X8121920Y-10117198D02*
X8131443Y-10107674D01*
X8131443Y-10107674D02*
X8150491Y-10098150D01*
X8150491Y-10098150D02*
X8179063Y-10098150D01*
X8179063Y-10098150D02*
X8198110Y-10107674D01*
X8198110Y-10107674D02*
X8207634Y-10126722D01*
X8207634Y-10126722D02*
X8207634Y-10231484D01*
X8207634Y-10126722D02*
X8217158Y-10107674D01*
X8217158Y-10107674D02*
X8236205Y-10098150D01*
X8236205Y-10098150D02*
X8264777Y-10098150D01*
X8264777Y-10098150D02*
X8283824Y-10107674D01*
X8283824Y-10107674D02*
X8293348Y-10126722D01*
X8293348Y-10126722D02*
X8293348Y-10231484D01*
X8388586Y-10231484D02*
X8388586Y-10098150D01*
X8388586Y-10117198D02*
X8398110Y-10107674D01*
X8398110Y-10107674D02*
X8417158Y-10098150D01*
X8417158Y-10098150D02*
X8445729Y-10098150D01*
X8445729Y-10098150D02*
X8464777Y-10107674D01*
X8464777Y-10107674D02*
X8474301Y-10126722D01*
X8474301Y-10126722D02*
X8474301Y-10231484D01*
X8474301Y-10126722D02*
X8483825Y-10107674D01*
X8483825Y-10107674D02*
X8502872Y-10098150D01*
X8502872Y-10098150D02*
X8531444Y-10098150D01*
X8531444Y-10098150D02*
X8550491Y-10107674D01*
X8550491Y-10107674D02*
X8560015Y-10126722D01*
X8560015Y-10126722D02*
X8560015Y-10231484D01*
X8950491Y-10021960D02*
X8779063Y-10279103D01*
X9207634Y-10031484D02*
X9226682Y-10031484D01*
X9226682Y-10031484D02*
X9245729Y-10041008D01*
X9245729Y-10041008D02*
X9255253Y-10050531D01*
X9255253Y-10050531D02*
X9264777Y-10069579D01*
X9264777Y-10069579D02*
X9274301Y-10107674D01*
X9274301Y-10107674D02*
X9274301Y-10155293D01*
X9274301Y-10155293D02*
X9264777Y-10193389D01*
X9264777Y-10193389D02*
X9255253Y-10212436D01*
X9255253Y-10212436D02*
X9245729Y-10221960D01*
X9245729Y-10221960D02*
X9226682Y-10231484D01*
X9226682Y-10231484D02*
X9207634Y-10231484D01*
X9207634Y-10231484D02*
X9188587Y-10221960D01*
X9188587Y-10221960D02*
X9179063Y-10212436D01*
X9179063Y-10212436D02*
X9169539Y-10193389D01*
X9169539Y-10193389D02*
X9160015Y-10155293D01*
X9160015Y-10155293D02*
X9160015Y-10107674D01*
X9160015Y-10107674D02*
X9169539Y-10069579D01*
X9169539Y-10069579D02*
X9179063Y-10050531D01*
X9179063Y-10050531D02*
X9188587Y-10041008D01*
X9188587Y-10041008D02*
X9207634Y-10031484D01*
X9360015Y-10212436D02*
X9369539Y-10221960D01*
X9369539Y-10221960D02*
X9360015Y-10231484D01*
X9360015Y-10231484D02*
X9350491Y-10221960D01*
X9350491Y-10221960D02*
X9360015Y-10212436D01*
X9360015Y-10212436D02*
X9360015Y-10231484D01*
X9560015Y-10231484D02*
X9445729Y-10231484D01*
X9502872Y-10231484D02*
X9502872Y-10031484D01*
X9502872Y-10031484D02*
X9483825Y-10060055D01*
X9483825Y-10060055D02*
X9464777Y-10079103D01*
X9464777Y-10079103D02*
X9445729Y-10088627D01*
X9740968Y-10031484D02*
X9645729Y-10031484D01*
X9645729Y-10031484D02*
X9636206Y-10126722D01*
X9636206Y-10126722D02*
X9645729Y-10117198D01*
X9645729Y-10117198D02*
X9664777Y-10107674D01*
X9664777Y-10107674D02*
X9712396Y-10107674D01*
X9712396Y-10107674D02*
X9731444Y-10117198D01*
X9731444Y-10117198D02*
X9740968Y-10126722D01*
X9740968Y-10126722D02*
X9750491Y-10145770D01*
X9750491Y-10145770D02*
X9750491Y-10193389D01*
X9750491Y-10193389D02*
X9740968Y-10212436D01*
X9740968Y-10212436D02*
X9731444Y-10221960D01*
X9731444Y-10221960D02*
X9712396Y-10231484D01*
X9712396Y-10231484D02*
X9664777Y-10231484D01*
X9664777Y-10231484D02*
X9645729Y-10221960D01*
X9645729Y-10221960D02*
X9636206Y-10212436D01*
X9817158Y-10031484D02*
X9950491Y-10031484D01*
X9950491Y-10031484D02*
X9864777Y-10231484D01*
X10121920Y-10031484D02*
X10026682Y-10031484D01*
X10026682Y-10031484D02*
X10017158Y-10126722D01*
X10017158Y-10126722D02*
X10026682Y-10117198D01*
X10026682Y-10117198D02*
X10045729Y-10107674D01*
X10045729Y-10107674D02*
X10093349Y-10107674D01*
X10093349Y-10107674D02*
X10112396Y-10117198D01*
X10112396Y-10117198D02*
X10121920Y-10126722D01*
X10121920Y-10126722D02*
X10131444Y-10145770D01*
X10131444Y-10145770D02*
X10131444Y-10193389D01*
X10131444Y-10193389D02*
X10121920Y-10212436D01*
X10121920Y-10212436D02*
X10112396Y-10221960D01*
X10112396Y-10221960D02*
X10093349Y-10231484D01*
X10093349Y-10231484D02*
X10045729Y-10231484D01*
X10045729Y-10231484D02*
X10026682Y-10221960D01*
X10026682Y-10221960D02*
X10017158Y-10212436D01*
X10207634Y-10031484D02*
X10207634Y-10069579D01*
X10283825Y-10031484D02*
X10283825Y-10069579D01*
X10579063Y-10307674D02*
X10569539Y-10298150D01*
X10569539Y-10298150D02*
X10550491Y-10269579D01*
X10550491Y-10269579D02*
X10540968Y-10250531D01*
X10540968Y-10250531D02*
X10531444Y-10221960D01*
X10531444Y-10221960D02*
X10521920Y-10174341D01*
X10521920Y-10174341D02*
X10521920Y-10136246D01*
X10521920Y-10136246D02*
X10531444Y-10088627D01*
X10531444Y-10088627D02*
X10540968Y-10060055D01*
X10540968Y-10060055D02*
X10550491Y-10041008D01*
X10550491Y-10041008D02*
X10569539Y-10012436D01*
X10569539Y-10012436D02*
X10579063Y-10002912D01*
X10760015Y-10231484D02*
X10645730Y-10231484D01*
X10702872Y-10231484D02*
X10702872Y-10031484D01*
X10702872Y-10031484D02*
X10683825Y-10060055D01*
X10683825Y-10060055D02*
X10664777Y-10079103D01*
X10664777Y-10079103D02*
X10645730Y-10088627D01*
X10836206Y-10050531D02*
X10845730Y-10041008D01*
X10845730Y-10041008D02*
X10864777Y-10031484D01*
X10864777Y-10031484D02*
X10912396Y-10031484D01*
X10912396Y-10031484D02*
X10931444Y-10041008D01*
X10931444Y-10041008D02*
X10940968Y-10050531D01*
X10940968Y-10050531D02*
X10950491Y-10069579D01*
X10950491Y-10069579D02*
X10950491Y-10088627D01*
X10950491Y-10088627D02*
X10940968Y-10117198D01*
X10940968Y-10117198D02*
X10826682Y-10231484D01*
X10826682Y-10231484D02*
X10950491Y-10231484D01*
X11188587Y-10231484D02*
X11188587Y-10031484D01*
X11274301Y-10231484D02*
X11274301Y-10126722D01*
X11274301Y-10126722D02*
X11264777Y-10107674D01*
X11264777Y-10107674D02*
X11245730Y-10098150D01*
X11245730Y-10098150D02*
X11217158Y-10098150D01*
X11217158Y-10098150D02*
X11198110Y-10107674D01*
X11198110Y-10107674D02*
X11188587Y-10117198D01*
X11398110Y-10231484D02*
X11379063Y-10221960D01*
X11379063Y-10221960D02*
X11369539Y-10212436D01*
X11369539Y-10212436D02*
X11360015Y-10193389D01*
X11360015Y-10193389D02*
X11360015Y-10136246D01*
X11360015Y-10136246D02*
X11369539Y-10117198D01*
X11369539Y-10117198D02*
X11379063Y-10107674D01*
X11379063Y-10107674D02*
X11398110Y-10098150D01*
X11398110Y-10098150D02*
X11426682Y-10098150D01*
X11426682Y-10098150D02*
X11445730Y-10107674D01*
X11445730Y-10107674D02*
X11455253Y-10117198D01*
X11455253Y-10117198D02*
X11464777Y-10136246D01*
X11464777Y-10136246D02*
X11464777Y-10193389D01*
X11464777Y-10193389D02*
X11455253Y-10212436D01*
X11455253Y-10212436D02*
X11445730Y-10221960D01*
X11445730Y-10221960D02*
X11426682Y-10231484D01*
X11426682Y-10231484D02*
X11398110Y-10231484D01*
X11579063Y-10231484D02*
X11560015Y-10221960D01*
X11560015Y-10221960D02*
X11550491Y-10202912D01*
X11550491Y-10202912D02*
X11550491Y-10031484D01*
X11731444Y-10221960D02*
X11712396Y-10231484D01*
X11712396Y-10231484D02*
X11674301Y-10231484D01*
X11674301Y-10231484D02*
X11655253Y-10221960D01*
X11655253Y-10221960D02*
X11645730Y-10202912D01*
X11645730Y-10202912D02*
X11645730Y-10126722D01*
X11645730Y-10126722D02*
X11655253Y-10107674D01*
X11655253Y-10107674D02*
X11674301Y-10098150D01*
X11674301Y-10098150D02*
X11712396Y-10098150D01*
X11712396Y-10098150D02*
X11731444Y-10107674D01*
X11731444Y-10107674D02*
X11740968Y-10126722D01*
X11740968Y-10126722D02*
X11740968Y-10145770D01*
X11740968Y-10145770D02*
X11645730Y-10164817D01*
X11817158Y-10221960D02*
X11836206Y-10231484D01*
X11836206Y-10231484D02*
X11874301Y-10231484D01*
X11874301Y-10231484D02*
X11893349Y-10221960D01*
X11893349Y-10221960D02*
X11902872Y-10202912D01*
X11902872Y-10202912D02*
X11902872Y-10193389D01*
X11902872Y-10193389D02*
X11893349Y-10174341D01*
X11893349Y-10174341D02*
X11874301Y-10164817D01*
X11874301Y-10164817D02*
X11845730Y-10164817D01*
X11845730Y-10164817D02*
X11826682Y-10155293D01*
X11826682Y-10155293D02*
X11817158Y-10136246D01*
X11817158Y-10136246D02*
X11817158Y-10126722D01*
X11817158Y-10126722D02*
X11826682Y-10107674D01*
X11826682Y-10107674D02*
X11845730Y-10098150D01*
X11845730Y-10098150D02*
X11874301Y-10098150D01*
X11874301Y-10098150D02*
X11893349Y-10107674D01*
X11969539Y-10307674D02*
X11979063Y-10298150D01*
X11979063Y-10298150D02*
X11998111Y-10269579D01*
X11998111Y-10269579D02*
X12007634Y-10250531D01*
X12007634Y-10250531D02*
X12017158Y-10221960D01*
X12017158Y-10221960D02*
X12026682Y-10174341D01*
X12026682Y-10174341D02*
X12026682Y-10136246D01*
X12026682Y-10136246D02*
X12017158Y-10088627D01*
X12017158Y-10088627D02*
X12007634Y-10060055D01*
X12007634Y-10060055D02*
X11998111Y-10041008D01*
X11998111Y-10041008D02*
X11979063Y-10012436D01*
X11979063Y-10012436D02*
X11969539Y-10002912D01*
X12331444Y-10307674D02*
X12321920Y-10298150D01*
X12321920Y-10298150D02*
X12302872Y-10269579D01*
X12302872Y-10269579D02*
X12293349Y-10250531D01*
X12293349Y-10250531D02*
X12283825Y-10221960D01*
X12283825Y-10221960D02*
X12274301Y-10174341D01*
X12274301Y-10174341D02*
X12274301Y-10136246D01*
X12274301Y-10136246D02*
X12283825Y-10088627D01*
X12283825Y-10088627D02*
X12293349Y-10060055D01*
X12293349Y-10060055D02*
X12302872Y-10041008D01*
X12302872Y-10041008D02*
X12321920Y-10012436D01*
X12321920Y-10012436D02*
X12331444Y-10002912D01*
X12407634Y-10098150D02*
X12407634Y-10231484D01*
X12407634Y-10117198D02*
X12417158Y-10107674D01*
X12417158Y-10107674D02*
X12436206Y-10098150D01*
X12436206Y-10098150D02*
X12464777Y-10098150D01*
X12464777Y-10098150D02*
X12483825Y-10107674D01*
X12483825Y-10107674D02*
X12493349Y-10126722D01*
X12493349Y-10126722D02*
X12493349Y-10231484D01*
X12617158Y-10231484D02*
X12598111Y-10221960D01*
X12598111Y-10221960D02*
X12588587Y-10212436D01*
X12588587Y-10212436D02*
X12579063Y-10193389D01*
X12579063Y-10193389D02*
X12579063Y-10136246D01*
X12579063Y-10136246D02*
X12588587Y-10117198D01*
X12588587Y-10117198D02*
X12598111Y-10107674D01*
X12598111Y-10107674D02*
X12617158Y-10098150D01*
X12617158Y-10098150D02*
X12645730Y-10098150D01*
X12645730Y-10098150D02*
X12664777Y-10107674D01*
X12664777Y-10107674D02*
X12674301Y-10117198D01*
X12674301Y-10117198D02*
X12683825Y-10136246D01*
X12683825Y-10136246D02*
X12683825Y-10193389D01*
X12683825Y-10193389D02*
X12674301Y-10212436D01*
X12674301Y-10212436D02*
X12664777Y-10221960D01*
X12664777Y-10221960D02*
X12645730Y-10231484D01*
X12645730Y-10231484D02*
X12617158Y-10231484D01*
X12740968Y-10098150D02*
X12817158Y-10098150D01*
X12769539Y-10031484D02*
X12769539Y-10202912D01*
X12769539Y-10202912D02*
X12779063Y-10221960D01*
X12779063Y-10221960D02*
X12798111Y-10231484D01*
X12798111Y-10231484D02*
X12817158Y-10231484D01*
X13036206Y-10098150D02*
X13036206Y-10298150D01*
X13036206Y-10107674D02*
X13055253Y-10098150D01*
X13055253Y-10098150D02*
X13093349Y-10098150D01*
X13093349Y-10098150D02*
X13112396Y-10107674D01*
X13112396Y-10107674D02*
X13121920Y-10117198D01*
X13121920Y-10117198D02*
X13131444Y-10136246D01*
X13131444Y-10136246D02*
X13131444Y-10193389D01*
X13131444Y-10193389D02*
X13121920Y-10212436D01*
X13121920Y-10212436D02*
X13112396Y-10221960D01*
X13112396Y-10221960D02*
X13093349Y-10231484D01*
X13093349Y-10231484D02*
X13055253Y-10231484D01*
X13055253Y-10231484D02*
X13036206Y-10221960D01*
X13245730Y-10231484D02*
X13226682Y-10221960D01*
X13226682Y-10221960D02*
X13217158Y-10202912D01*
X13217158Y-10202912D02*
X13217158Y-10031484D01*
X13407634Y-10231484D02*
X13407634Y-10126722D01*
X13407634Y-10126722D02*
X13398111Y-10107674D01*
X13398111Y-10107674D02*
X13379063Y-10098150D01*
X13379063Y-10098150D02*
X13340968Y-10098150D01*
X13340968Y-10098150D02*
X13321920Y-10107674D01*
X13407634Y-10221960D02*
X13388587Y-10231484D01*
X13388587Y-10231484D02*
X13340968Y-10231484D01*
X13340968Y-10231484D02*
X13321920Y-10221960D01*
X13321920Y-10221960D02*
X13312396Y-10202912D01*
X13312396Y-10202912D02*
X13312396Y-10183865D01*
X13312396Y-10183865D02*
X13321920Y-10164817D01*
X13321920Y-10164817D02*
X13340968Y-10155293D01*
X13340968Y-10155293D02*
X13388587Y-10155293D01*
X13388587Y-10155293D02*
X13407634Y-10145770D01*
X13474301Y-10098150D02*
X13550492Y-10098150D01*
X13502873Y-10031484D02*
X13502873Y-10202912D01*
X13502873Y-10202912D02*
X13512396Y-10221960D01*
X13512396Y-10221960D02*
X13531444Y-10231484D01*
X13531444Y-10231484D02*
X13550492Y-10231484D01*
X13693349Y-10221960D02*
X13674301Y-10231484D01*
X13674301Y-10231484D02*
X13636206Y-10231484D01*
X13636206Y-10231484D02*
X13617158Y-10221960D01*
X13617158Y-10221960D02*
X13607634Y-10202912D01*
X13607634Y-10202912D02*
X13607634Y-10126722D01*
X13607634Y-10126722D02*
X13617158Y-10107674D01*
X13617158Y-10107674D02*
X13636206Y-10098150D01*
X13636206Y-10098150D02*
X13674301Y-10098150D01*
X13674301Y-10098150D02*
X13693349Y-10107674D01*
X13693349Y-10107674D02*
X13702873Y-10126722D01*
X13702873Y-10126722D02*
X13702873Y-10145770D01*
X13702873Y-10145770D02*
X13607634Y-10164817D01*
X13874301Y-10231484D02*
X13874301Y-10031484D01*
X13874301Y-10221960D02*
X13855254Y-10231484D01*
X13855254Y-10231484D02*
X13817158Y-10231484D01*
X13817158Y-10231484D02*
X13798111Y-10221960D01*
X13798111Y-10221960D02*
X13788587Y-10212436D01*
X13788587Y-10212436D02*
X13779063Y-10193389D01*
X13779063Y-10193389D02*
X13779063Y-10136246D01*
X13779063Y-10136246D02*
X13788587Y-10117198D01*
X13788587Y-10117198D02*
X13798111Y-10107674D01*
X13798111Y-10107674D02*
X13817158Y-10098150D01*
X13817158Y-10098150D02*
X13855254Y-10098150D01*
X13855254Y-10098150D02*
X13874301Y-10107674D01*
X13950492Y-10307674D02*
X13960015Y-10298150D01*
X13960015Y-10298150D02*
X13979063Y-10269579D01*
X13979063Y-10269579D02*
X13988587Y-10250531D01*
X13988587Y-10250531D02*
X13998111Y-10221960D01*
X13998111Y-10221960D02*
X14007634Y-10174341D01*
X14007634Y-10174341D02*
X14007634Y-10136246D01*
X14007634Y-10136246D02*
X13998111Y-10088627D01*
X13998111Y-10088627D02*
X13988587Y-10060055D01*
X13988587Y-10060055D02*
X13979063Y-10041008D01*
X13979063Y-10041008D02*
X13960015Y-10012436D01*
X13960015Y-10012436D02*
X13950492Y-10002912D01*
M02*
