M48
; DRILL file {KiCad 7.0.5} date Sat Nov  4 19:54:28 2023
; FORMAT={-:-/ absolute / metric / decimal}
; #@! TF.CreationDate,2023-11-04T19:54:28+08:00
; #@! TF.GenerationSoftware,Kicad,Pcbnew,7.0.5
; #@! TF.FileFunction,NonPlated,1,2,NPTH
FMAT,2
METRIC
; #@! TA.AperFunction,NonPlated,NPTH,ComponentDrill
T1C1.500
; #@! TA.AperFunction,NonPlated,NPTH,ComponentDrill
T2C1.750
; #@! TA.AperFunction,NonPlated,NPTH,ComponentDrill
T3C2.200
; #@! TA.AperFunction,NonPlated,NPTH,ComponentDrill
T4C3.500
; #@! TA.AperFunction,NonPlated,NPTH,ComponentDrill
T5C4.000
%
G90
G05
T2
X74.56Y-35.25
X74.56Y-54.3
X74.56Y-73.35
X84.72Y-35.25
X84.72Y-54.3
X84.72Y-73.35
X93.61Y-35.25
X93.61Y-54.3
X93.61Y-73.35
X103.77Y-35.25
X103.77Y-54.3
X103.77Y-73.35
X112.66Y-35.25
X112.66Y-54.3
X112.66Y-73.35
X122.82Y-35.25
X122.82Y-54.3
X122.82Y-73.35
X131.71Y-35.25
X131.71Y-54.3
X131.71Y-73.35
X141.87Y-35.25
X141.87Y-54.3
X141.87Y-73.35
T3
X163.005Y-52.475
X163.005Y-80.675
T4
X89.165Y-44.775
X89.165Y-63.825
X127.265Y-44.775
X127.265Y-63.825
T5
X79.64Y-35.25
X79.64Y-54.3
X79.64Y-73.35
X98.69Y-35.25
X98.69Y-54.3
X98.69Y-73.35
X117.74Y-35.25
X117.74Y-54.3
X117.74Y-73.35
X136.79Y-35.25
X136.79Y-54.3
X136.79Y-73.35
T1
X74.04Y-35.8G85X74.04Y-34.7
G05
X85.24Y-35.8G85X85.24Y-34.7
G05
X93.09Y-35.8G85X93.09Y-34.7
G05
X104.29Y-35.8G85X104.29Y-34.7
G05
X112.14Y-35.8G85X112.14Y-34.7
G05
X123.34Y-35.8G85X123.34Y-34.7
G05
X131.19Y-35.8G85X131.19Y-34.7
G05
X142.39Y-35.8G85X142.39Y-34.7
G05
T0
M30
