%TF.GenerationSoftware,KiCad,Pcbnew,7.0.5*%
%TF.CreationDate,2023-11-04T19:54:29+08:00*%
%TF.ProjectId,Three2One,54687265-6532-44f6-9e65-2e6b69636164,rev?*%
%TF.SameCoordinates,Original*%
%TF.FileFunction,Copper,L1,Top*%
%TF.FilePolarity,Positive*%
%FSLAX46Y46*%
G04 Gerber Fmt 4.6, Leading zero omitted, Abs format (unit mm)*
G04 Created by KiCad (PCBNEW 7.0.5) date 2023-11-04 19:54:29*
%MOMM*%
%LPD*%
G01*
G04 APERTURE LIST*
G04 Aperture macros list*
%AMRoundRect*
0 Rectangle with rounded corners*
0 $1 Rounding radius*
0 $2 $3 $4 $5 $6 $7 $8 $9 X,Y pos of 4 corners*
0 Add a 4 corners polygon primitive as box body*
4,1,4,$2,$3,$4,$5,$6,$7,$8,$9,$2,$3,0*
0 Add four circle primitives for the rounded corners*
1,1,$1+$1,$2,$3*
1,1,$1+$1,$4,$5*
1,1,$1+$1,$6,$7*
1,1,$1+$1,$8,$9*
0 Add four rect primitives between the rounded corners*
20,1,$1+$1,$2,$3,$4,$5,0*
20,1,$1+$1,$4,$5,$6,$7,0*
20,1,$1+$1,$6,$7,$8,$9,0*
20,1,$1+$1,$8,$9,$2,$3,0*%
G04 Aperture macros list end*
%TA.AperFunction,ComponentPad*%
%ADD10R,1.600000X1.600000*%
%TD*%
%TA.AperFunction,SMDPad,CuDef*%
%ADD11RoundRect,0.225000X-0.375000X0.225000X-0.375000X-0.225000X0.375000X-0.225000X0.375000X0.225000X0*%
%TD*%
%TA.AperFunction,ComponentPad*%
%ADD12O,1.600000X1.600000*%
%TD*%
%TA.AperFunction,ComponentPad*%
%ADD13R,2.000000X2.000000*%
%TD*%
%TA.AperFunction,ComponentPad*%
%ADD14C,2.000000*%
%TD*%
%TA.AperFunction,ComponentPad*%
%ADD15C,3.600000*%
%TD*%
%TA.AperFunction,ComponentPad*%
%ADD16R,1.752600X1.752600*%
%TD*%
%TA.AperFunction,ComponentPad*%
%ADD17RoundRect,0.438150X0.438150X0.438150X-0.438150X0.438150X-0.438150X-0.438150X0.438150X-0.438150X0*%
%TD*%
%TA.AperFunction,ComponentPad*%
%ADD18C,1.752600*%
%TD*%
%TA.AperFunction,ViaPad*%
%ADD19C,0.800000*%
%TD*%
%TA.AperFunction,Conductor*%
%ADD20C,0.200000*%
%TD*%
G04 APERTURE END LIST*
D10*
%TO.P,D5,1,K*%
%TO.N,row1*%
X148335000Y-62765000D03*
D11*
X148335000Y-64915000D03*
%TO.P,D5,2,A*%
%TO.N,Net-(D5-A)*%
X148335000Y-68215000D03*
D12*
X148335000Y-70365000D03*
%TD*%
D10*
%TO.P,D10,1,K*%
%TO.N,row2*%
X151885000Y-73765000D03*
D11*
X151885000Y-75915000D03*
%TO.P,D10,2,A*%
%TO.N,Net-(D10-A)*%
X151885000Y-79215000D03*
D12*
X151885000Y-81365000D03*
%TD*%
D10*
%TO.P,D11,1,K*%
%TO.N,row2*%
X155435000Y-73765000D03*
D11*
X155435000Y-75915000D03*
%TO.P,D11,2,A*%
%TO.N,Net-(D11-A)*%
X155435000Y-79215000D03*
D12*
X155435000Y-81365000D03*
%TD*%
D13*
%TO.P,RE3,A,CLK*%
%TO.N,A3*%
X115240000Y-42750000D03*
D14*
%TO.P,RE3,B,DT*%
%TO.N,B3*%
X120240000Y-42750000D03*
%TO.P,RE3,C,GND*%
%TO.N,GND*%
X117740000Y-42750000D03*
%TO.P,RE3,S1,GND*%
%TO.N,Net-(D3-A)*%
X120240000Y-28250000D03*
D15*
X120280000Y-30170000D03*
%TO.P,RE3,S2,SW*%
%TO.N,col2*%
X113930000Y-32710000D03*
D14*
X115240000Y-28250000D03*
%TD*%
D13*
%TO.P,RE4,A,CLK*%
%TO.N,A4*%
X134290000Y-42750000D03*
D14*
%TO.P,RE4,B,DT*%
%TO.N,B4*%
X139290000Y-42750000D03*
%TO.P,RE4,C,GND*%
%TO.N,GND*%
X136790000Y-42750000D03*
%TO.P,RE4,S1,GND*%
%TO.N,Net-(D4-A)*%
X139290000Y-28250000D03*
D15*
X139330000Y-30170000D03*
%TO.P,RE4,S2,SW*%
%TO.N,col3*%
X132980000Y-32710000D03*
D14*
X134290000Y-28250000D03*
%TD*%
D10*
%TO.P,D8,1,K*%
%TO.N,row1*%
X158985000Y-62765000D03*
D11*
X158985000Y-64915000D03*
%TO.P,D8,2,A*%
%TO.N,Net-(D8-A)*%
X158985000Y-68215000D03*
D12*
X158985000Y-70365000D03*
%TD*%
D15*
%TO.P,SW9,1,1*%
%TO.N,col0*%
X75830000Y-70810000D03*
%TO.P,SW9,2,2*%
%TO.N,Net-(D9-A)*%
X82180000Y-68270000D03*
%TD*%
%TO.P,SW6,1,1*%
%TO.N,col1*%
X94880000Y-51760000D03*
%TO.P,SW6,2,2*%
%TO.N,Net-(D6-A)*%
X101230000Y-49220000D03*
%TD*%
%TO.P,SW8,1,1*%
%TO.N,col3*%
X132980000Y-51760000D03*
%TO.P,SW8,2,2*%
%TO.N,Net-(D8-A)*%
X139330000Y-49220000D03*
%TD*%
D10*
%TO.P,D6,1,K*%
%TO.N,row1*%
X151885000Y-62765000D03*
D11*
X151885000Y-64915000D03*
%TO.P,D6,2,A*%
%TO.N,Net-(D6-A)*%
X151885000Y-68215000D03*
D12*
X151885000Y-70365000D03*
%TD*%
D13*
%TO.P,RE1,A,CLK*%
%TO.N,A1*%
X77140000Y-42750000D03*
D14*
%TO.P,RE1,B,DT*%
%TO.N,B1*%
X82140000Y-42750000D03*
%TO.P,RE1,C,GND*%
%TO.N,GND*%
X79640000Y-42750000D03*
%TO.P,RE1,S1,GND*%
%TO.N,Net-(D1-A)*%
X82140000Y-28250000D03*
D15*
X82180000Y-30170000D03*
%TO.P,RE1,S2,SW*%
%TO.N,col0*%
X75830000Y-32710000D03*
D14*
X77140000Y-28250000D03*
%TD*%
D10*
%TO.P,D9,1,K*%
%TO.N,row2*%
X148335000Y-73765000D03*
D11*
X148335000Y-75915000D03*
%TO.P,D9,2,A*%
%TO.N,Net-(D9-A)*%
X148335000Y-79215000D03*
D12*
X148335000Y-81365000D03*
%TD*%
D10*
%TO.P,D2,1,K*%
%TO.N,row0*%
X151885000Y-51765000D03*
D11*
X151885000Y-53915000D03*
%TO.P,D2,2,A*%
%TO.N,Net-(D2-A)*%
X151885000Y-57215000D03*
D12*
X151885000Y-59365000D03*
%TD*%
D10*
%TO.P,D3,1,K*%
%TO.N,row0*%
X155435000Y-51765000D03*
D11*
X155435000Y-53915000D03*
%TO.P,D3,2,A*%
%TO.N,Net-(D3-A)*%
X155435000Y-57215000D03*
D12*
X155435000Y-59365000D03*
%TD*%
D10*
%TO.P,D7,1,K*%
%TO.N,row1*%
X155435000Y-62765000D03*
D11*
X155435000Y-64915000D03*
%TO.P,D7,2,A*%
%TO.N,Net-(D7-A)*%
X155435000Y-68215000D03*
D12*
X155435000Y-70365000D03*
%TD*%
D15*
%TO.P,SW12,1,1*%
%TO.N,col3*%
X132980000Y-70810000D03*
%TO.P,SW12,2,2*%
%TO.N,Net-(D12-A)*%
X139330000Y-68270000D03*
%TD*%
%TO.P,SW10,1,1*%
%TO.N,col1*%
X94880000Y-70810000D03*
%TO.P,SW10,2,2*%
%TO.N,Net-(D10-A)*%
X101230000Y-68270000D03*
%TD*%
D13*
%TO.P,RE2,A,CLK*%
%TO.N,A2*%
X96190000Y-42750000D03*
D14*
%TO.P,RE2,B,DT*%
%TO.N,B2*%
X101190000Y-42750000D03*
%TO.P,RE2,C,GND*%
%TO.N,GND*%
X98690000Y-42750000D03*
%TO.P,RE2,S1,GND*%
%TO.N,Net-(D2-A)*%
X101190000Y-28250000D03*
D15*
X101230000Y-30170000D03*
%TO.P,RE2,S2,SW*%
%TO.N,col1*%
X94880000Y-32710000D03*
D14*
X96190000Y-28250000D03*
%TD*%
D15*
%TO.P,SW7,1,1*%
%TO.N,col2*%
X113930000Y-51760000D03*
%TO.P,SW7,2,2*%
%TO.N,Net-(D7-A)*%
X120280000Y-49220000D03*
%TD*%
%TO.P,SW11,1,1*%
%TO.N,col2*%
X113930000Y-70810000D03*
%TO.P,SW11,2,2*%
%TO.N,Net-(D11-A)*%
X120280000Y-68270000D03*
%TD*%
%TO.P,SW5,1,1*%
%TO.N,col0*%
X75830000Y-51760000D03*
%TO.P,SW5,2,2*%
%TO.N,Net-(D5-A)*%
X82180000Y-49220000D03*
%TD*%
D10*
%TO.P,D1,1,K*%
%TO.N,row0*%
X148335000Y-51765000D03*
D11*
X148335000Y-53915000D03*
%TO.P,D1,2,A*%
%TO.N,Net-(D1-A)*%
X148335000Y-57215000D03*
D12*
X148335000Y-59365000D03*
%TD*%
D10*
%TO.P,D12,1,K*%
%TO.N,row2*%
X158985000Y-73765000D03*
D11*
X158985000Y-75915000D03*
%TO.P,D12,2,A*%
%TO.N,Net-(D12-A)*%
X158985000Y-79215000D03*
D12*
X158985000Y-81365000D03*
%TD*%
D10*
%TO.P,D4,1,K*%
%TO.N,row0*%
X158985000Y-51765000D03*
D11*
X158985000Y-53915000D03*
%TO.P,D4,2,A*%
%TO.N,Net-(D4-A)*%
X158985000Y-57215000D03*
D12*
X158985000Y-59365000D03*
%TD*%
D16*
%TO.P,U1,1,5V*%
%TO.N,VCC*%
X163685000Y-27315000D03*
D17*
%TO.P,U1,2,GND*%
%TO.N,GND*%
X163685000Y-29855000D03*
D16*
%TO.P,U1,3,3V3*%
%TO.N,+3V3*%
X163685000Y-32395000D03*
D18*
%TO.P,U1,4,GP29*%
%TO.N,unconnected-(U1-GP29-Pad4)*%
X163685000Y-34935000D03*
%TO.P,U1,5,GP28*%
%TO.N,unconnected-(U1-GP28-Pad5)*%
X163685000Y-37475000D03*
%TO.P,U1,6,GP27*%
%TO.N,unconnected-(U1-GP27-Pad6)*%
X163685000Y-40015000D03*
%TO.P,U1,7,GP26*%
%TO.N,unconnected-(U1-GP26-Pad7)*%
X163685000Y-42555000D03*
%TO.P,U1,8,GP15*%
%TO.N,unconnected-(U1-GP15-Pad8)*%
X163685000Y-45095000D03*
%TO.P,U1,9,GP14*%
%TO.N,row2*%
X163685000Y-47635000D03*
%TO.P,U1,10,GP0*%
%TO.N,A1*%
X148335000Y-27315000D03*
%TO.P,U1,11,GP1*%
%TO.N,B1*%
X148335000Y-29855000D03*
%TO.P,U1,12,GP2*%
%TO.N,A2*%
X148335000Y-32395000D03*
%TO.P,U1,13,GP3*%
%TO.N,B2*%
X148335000Y-34935000D03*
%TO.P,U1,14,GP4*%
%TO.N,A3*%
X148335000Y-37475000D03*
%TO.P,U1,15,GP5*%
%TO.N,B3*%
X148335000Y-40015000D03*
%TO.P,U1,16,GP6*%
%TO.N,A4*%
X148335000Y-42555000D03*
%TO.P,U1,17,GP7*%
%TO.N,B4*%
X148335000Y-45095000D03*
%TO.P,U1,18,GP8*%
%TO.N,col0*%
X148335000Y-47635000D03*
%TO.P,U1,19,GP9*%
%TO.N,col1*%
X150930000Y-47955000D03*
%TO.P,U1,20,GP10*%
%TO.N,col2*%
X153470000Y-47955000D03*
%TO.P,U1,21,GP11*%
%TO.N,col3*%
X156010000Y-47955000D03*
%TO.P,U1,22,GP12*%
%TO.N,row0*%
X158550000Y-47955000D03*
%TO.P,U1,23,GP13*%
%TO.N,row1*%
X161090000Y-47955000D03*
%TD*%
D19*
%TO.N,Net-(D1-A)*%
X84950000Y-43410000D03*
%TO.N,Net-(D2-A)*%
X104010000Y-43410000D03*
%TO.N,Net-(D3-A)*%
X123040000Y-43410000D03*
%TO.N,Net-(D4-A)*%
X142090000Y-43449500D03*
%TO.N,GND*%
X113230500Y-44060000D03*
X161090000Y-45100000D03*
X161850000Y-53950000D03*
X130260000Y-43790000D03*
X94180500Y-44360000D03*
%TO.N,col0*%
X144590000Y-60030000D03*
X147399500Y-49170497D03*
X144590000Y-51400000D03*
%TO.N,col1*%
X145600000Y-60040500D03*
X147399500Y-50170000D03*
X145595378Y-55464622D03*
X94880000Y-60840000D03*
%TO.N,col2*%
X140193151Y-57386849D03*
X113930000Y-60450500D03*
X153130000Y-61070000D03*
%TO.N,col3*%
X140030000Y-52250000D03*
X132980000Y-58886349D03*
X154190000Y-61070000D03*
%TD*%
D20*
%TO.N,GND*%
X162020000Y-31520000D02*
X163685000Y-29855000D01*
X161090000Y-45100000D02*
X162020000Y-44170000D01*
X162020000Y-44170000D02*
X162020000Y-31520000D01*
%TO.N,row0*%
X158985000Y-51765000D02*
X158985000Y-53915000D01*
X148335000Y-51765000D02*
X158985000Y-51765000D01*
X158985000Y-50635000D02*
X158550000Y-50200000D01*
X158550000Y-50200000D02*
X158550000Y-47955000D01*
X148335000Y-53915000D02*
X148335000Y-51765000D01*
X155435000Y-53915000D02*
X155435000Y-51765000D01*
X151885000Y-51765000D02*
X151885000Y-53915000D01*
X158985000Y-51765000D02*
X158985000Y-50635000D01*
%TO.N,Net-(D1-A)*%
X148335000Y-59365000D02*
X148335000Y-57215000D01*
X145500000Y-54380000D02*
X148335000Y-57215000D01*
X125298630Y-47700000D02*
X129131372Y-47700000D01*
X90855000Y-46875000D02*
X92160000Y-45570000D01*
X84950000Y-44310000D02*
X87515000Y-46875000D01*
X131251372Y-45580000D02*
X142523442Y-45580000D01*
X123168630Y-45570000D02*
X125298630Y-47700000D01*
X129131372Y-47700000D02*
X131251372Y-45580000D01*
X142523442Y-45580000D02*
X145500000Y-48556558D01*
X145500000Y-48556558D02*
X145500000Y-54380000D01*
X92160000Y-45570000D02*
X123168630Y-45570000D01*
X87515000Y-46875000D02*
X90855000Y-46875000D01*
X84950000Y-43410000D02*
X84950000Y-44310000D01*
%TO.N,Net-(D2-A)*%
X128965686Y-47300000D02*
X131085686Y-45180000D01*
X147415686Y-55730000D02*
X150400000Y-55730000D01*
X104010000Y-43410000D02*
X104010000Y-44290000D01*
X145900000Y-48390872D02*
X145900000Y-54214314D01*
X104010000Y-44290000D02*
X104890000Y-45170000D01*
X151885000Y-59365000D02*
X151885000Y-57215000D01*
X145900000Y-54214314D02*
X147415686Y-55730000D01*
X142689128Y-45180000D02*
X145900000Y-48390872D01*
X131085686Y-45180000D02*
X142689128Y-45180000D01*
X125464315Y-47300000D02*
X128965686Y-47300000D01*
X123334315Y-45170000D02*
X125464315Y-47300000D01*
X150400000Y-55730000D02*
X151885000Y-57215000D01*
X104890000Y-45170000D02*
X123334315Y-45170000D01*
%TO.N,Net-(D3-A)*%
X130920000Y-44780000D02*
X142854814Y-44780000D01*
X147581372Y-55330000D02*
X153550000Y-55330000D01*
X155435000Y-57215000D02*
X155435000Y-59365000D01*
X123040000Y-43410000D02*
X123040000Y-44310000D01*
X125630000Y-46900000D02*
X128800000Y-46900000D01*
X146300000Y-48225186D02*
X146300000Y-54048628D01*
X153550000Y-55330000D02*
X155435000Y-57215000D01*
X128800000Y-46900000D02*
X130920000Y-44780000D01*
X123040000Y-44310000D02*
X125630000Y-46900000D01*
X146300000Y-54048628D02*
X147581372Y-55330000D01*
X142854814Y-44780000D02*
X146300000Y-48225186D01*
%TO.N,Net-(D4-A)*%
X146700000Y-53882942D02*
X147747058Y-54930000D01*
X147747058Y-54930000D02*
X156700000Y-54930000D01*
X146700000Y-48059500D02*
X146700000Y-53882942D01*
X158985000Y-59365000D02*
X158985000Y-57215000D01*
X142090000Y-43449500D02*
X146700000Y-48059500D01*
X156700000Y-54930000D02*
X158985000Y-57215000D01*
%TO.N,row1*%
X161090000Y-47955000D02*
X161090000Y-51448604D01*
X160240000Y-52298604D02*
X160240000Y-61510000D01*
X161090000Y-51448604D02*
X160240000Y-52298604D01*
X148335000Y-62765000D02*
X158985000Y-62765000D01*
X160240000Y-61510000D02*
X158985000Y-62765000D01*
X148335000Y-62765000D02*
X148335000Y-64915000D01*
X158985000Y-64915000D02*
X158985000Y-62765000D01*
X155435000Y-62765000D02*
X155435000Y-64915000D01*
X151885000Y-64915000D02*
X151885000Y-62765000D01*
%TO.N,Net-(D5-A)*%
X148335000Y-70365000D02*
X148335000Y-68215000D01*
X82180000Y-49220000D02*
X94510000Y-61550000D01*
X94510000Y-61550000D02*
X141670000Y-61550000D01*
X141670000Y-61550000D02*
X148335000Y-68215000D01*
%TO.N,Net-(D6-A)*%
X113160000Y-61150000D02*
X141835686Y-61150000D01*
X101230000Y-49220000D02*
X113160000Y-61150000D01*
X141835686Y-61150000D02*
X147425686Y-66740000D01*
X151885000Y-68215000D02*
X151885000Y-70365000D01*
X150410000Y-66740000D02*
X151885000Y-68215000D01*
X147425686Y-66740000D02*
X150410000Y-66740000D01*
%TO.N,Net-(D7-A)*%
X155435000Y-70365000D02*
X155435000Y-68215000D01*
X120280000Y-49220000D02*
X131810000Y-60750000D01*
X147591372Y-66340000D02*
X153560000Y-66340000D01*
X131810000Y-60750000D02*
X142001372Y-60750000D01*
X142001372Y-60750000D02*
X147591372Y-66340000D01*
X153560000Y-66340000D02*
X155435000Y-68215000D01*
%TO.N,Net-(D8-A)*%
X139330000Y-57512942D02*
X147757058Y-65940000D01*
X158985000Y-68215000D02*
X158985000Y-70365000D01*
X139330000Y-49220000D02*
X139330000Y-57512942D01*
X147757058Y-65940000D02*
X156710000Y-65940000D01*
X156710000Y-65940000D02*
X158985000Y-68215000D01*
%TO.N,row2*%
X148335000Y-75915000D02*
X148335000Y-73765000D01*
X160690000Y-72060000D02*
X158985000Y-73765000D01*
X163685000Y-47635000D02*
X163685000Y-49490000D01*
X148335000Y-73765000D02*
X158985000Y-73765000D01*
X163685000Y-49490000D02*
X160690000Y-52485000D01*
X155435000Y-75915000D02*
X155435000Y-73765000D01*
X160690000Y-52485000D02*
X160690000Y-72060000D01*
X158985000Y-73765000D02*
X158985000Y-75915000D01*
X151885000Y-73765000D02*
X151885000Y-75915000D01*
%TO.N,Net-(D9-A)*%
X147250000Y-78130000D02*
X148335000Y-79215000D01*
X82180000Y-68270000D02*
X92040000Y-78130000D01*
X148335000Y-81365000D02*
X148335000Y-79215000D01*
X92040000Y-78130000D02*
X147250000Y-78130000D01*
%TO.N,Net-(D10-A)*%
X150400000Y-77730000D02*
X151885000Y-79215000D01*
X110690000Y-77730000D02*
X150400000Y-77730000D01*
X101230000Y-68270000D02*
X110690000Y-77730000D01*
X151885000Y-79215000D02*
X151885000Y-81365000D01*
%TO.N,Net-(D11-A)*%
X155435000Y-81365000D02*
X155435000Y-79215000D01*
X153550000Y-77330000D02*
X155435000Y-79215000D01*
X129340000Y-77330000D02*
X153550000Y-77330000D01*
X120280000Y-68270000D02*
X129340000Y-77330000D01*
%TO.N,Net-(D12-A)*%
X139330000Y-68287817D02*
X147972183Y-76930000D01*
X147972183Y-76930000D02*
X156700000Y-76930000D01*
X156700000Y-76930000D02*
X158985000Y-79215000D01*
X158985000Y-79215000D02*
X158985000Y-81365000D01*
X139330000Y-68270000D02*
X139330000Y-68287817D01*
%TO.N,A1*%
X80865000Y-39025000D02*
X144522256Y-39025000D01*
X145958700Y-29691300D02*
X148335000Y-27315000D01*
X77140000Y-42750000D02*
X80865000Y-39025000D01*
X145958700Y-37588556D02*
X145958700Y-29691300D01*
X144522256Y-39025000D02*
X145958700Y-37588556D01*
%TO.N,B1*%
X146358700Y-37754242D02*
X146358700Y-31831300D01*
X146358700Y-31831300D02*
X148335000Y-29855000D01*
X144687942Y-39425000D02*
X146358700Y-37754242D01*
X82140000Y-42750000D02*
X85465000Y-39425000D01*
X85465000Y-39425000D02*
X144687942Y-39425000D01*
%TO.N,GND*%
X116080000Y-44410000D02*
X117740000Y-42750000D01*
X94420500Y-44600000D02*
X96840000Y-44600000D01*
X132480000Y-43790000D02*
X133070000Y-44380000D01*
X94180500Y-44360000D02*
X94420500Y-44600000D01*
X135160000Y-44380000D02*
X136790000Y-42750000D01*
X113580500Y-44410000D02*
X116080000Y-44410000D01*
X130260000Y-43790000D02*
X132480000Y-43790000D01*
X133070000Y-44380000D02*
X135160000Y-44380000D01*
X113230500Y-44060000D02*
X113580500Y-44410000D01*
X96840000Y-44600000D02*
X98690000Y-42750000D01*
%TO.N,col0*%
X144590000Y-51400000D02*
X144590000Y-60030000D01*
X148335000Y-48234997D02*
X147399500Y-49170497D01*
X148335000Y-47635000D02*
X148335000Y-48234997D01*
X75830000Y-32710000D02*
X75830000Y-70810000D01*
%TO.N,A2*%
X146758700Y-37919927D02*
X146758700Y-33971300D01*
X96190000Y-42750000D02*
X99115000Y-39825000D01*
X146758700Y-33971300D02*
X148335000Y-32395000D01*
X144853628Y-39825000D02*
X146758700Y-37919927D01*
X99115000Y-39825000D02*
X144853628Y-39825000D01*
%TO.N,B2*%
X147158700Y-38085614D02*
X147158700Y-36111300D01*
X103715000Y-40225000D02*
X145019314Y-40225000D01*
X101190000Y-42750000D02*
X103715000Y-40225000D01*
X147158700Y-36111300D02*
X148335000Y-34935000D01*
X145019314Y-40225000D02*
X147158700Y-38085614D01*
%TO.N,col1*%
X94880000Y-51760000D02*
X94880000Y-60840000D01*
X145600000Y-60040500D02*
X145600000Y-55469244D01*
X145600000Y-55469244D02*
X145595378Y-55464622D01*
X148715000Y-50170000D02*
X147399500Y-50170000D01*
X150930000Y-47955000D02*
X148715000Y-50170000D01*
%TO.N,A3*%
X117365000Y-40625000D02*
X145185000Y-40625000D01*
X115240000Y-42750000D02*
X117365000Y-40625000D01*
X145185000Y-40625000D02*
X148335000Y-37475000D01*
%TO.N,B3*%
X146435686Y-39940000D02*
X148260000Y-39940000D01*
X145350686Y-41025000D02*
X146435686Y-39940000D01*
X120240000Y-42750000D02*
X121965000Y-41025000D01*
X121965000Y-41025000D02*
X145350686Y-41025000D01*
X148260000Y-39940000D02*
X148335000Y-40015000D01*
%TO.N,col2*%
X143522744Y-61140000D02*
X140193151Y-57810407D01*
X153060000Y-61140000D02*
X143522744Y-61140000D01*
X140193151Y-57810407D02*
X140193151Y-57386849D01*
X113930000Y-51760000D02*
X113930000Y-60450500D01*
X153130000Y-61070000D02*
X153060000Y-61140000D01*
%TO.N,A4*%
X134290000Y-42750000D02*
X135615000Y-41425000D01*
X135615000Y-41425000D02*
X147205000Y-41425000D01*
X147205000Y-41425000D02*
X148335000Y-42555000D01*
%TO.N,B4*%
X145990000Y-42750000D02*
X148335000Y-45095000D01*
X139290000Y-42750000D02*
X145990000Y-42750000D01*
%TO.N,col3*%
X140893151Y-57944721D02*
X140893151Y-57096899D01*
X132980000Y-51760000D02*
X132980000Y-58886349D01*
X140893151Y-57096899D02*
X140030000Y-56233748D01*
X154190000Y-61070000D02*
X153490000Y-60370000D01*
X140030000Y-56233748D02*
X140030000Y-52250000D01*
X143688430Y-60740000D02*
X140893151Y-57944721D01*
X152400000Y-60740000D02*
X143688430Y-60740000D01*
X153490000Y-60370000D02*
X152770000Y-60370000D01*
X152770000Y-60370000D02*
X152400000Y-60740000D01*
%TD*%
%TA.AperFunction,Conductor*%
%TO.N,GND*%
G36*
X148066133Y-25745185D02*
G01*
X148111888Y-25797989D01*
X148121832Y-25867147D01*
X148092807Y-25930703D01*
X148034029Y-25968477D01*
X148019504Y-25971809D01*
X147995853Y-25975755D01*
X147780057Y-26049839D01*
X147780049Y-26049842D01*
X147579379Y-26158440D01*
X147399323Y-26298582D01*
X147399319Y-26298586D01*
X147244787Y-26466451D01*
X147119989Y-26657470D01*
X147028335Y-26866422D01*
X146972323Y-27087608D01*
X146972321Y-27087616D01*
X146953481Y-27314994D01*
X146953481Y-27315005D01*
X146972321Y-27542383D01*
X146972325Y-27542403D01*
X147012827Y-27702338D01*
X147010203Y-27772159D01*
X146980303Y-27820460D01*
X145564796Y-29235968D01*
X145558693Y-29241320D01*
X145530418Y-29263017D01*
X145506249Y-29294513D01*
X145506250Y-29294514D01*
X145434164Y-29388458D01*
X145434161Y-29388463D01*
X145373657Y-29534534D01*
X145373655Y-29534539D01*
X145361242Y-29628830D01*
X145353018Y-29691300D01*
X145355423Y-29709571D01*
X145357669Y-29726626D01*
X145358200Y-29734727D01*
X145358200Y-37288458D01*
X145338515Y-37355497D01*
X145321881Y-37376139D01*
X144309840Y-38388181D01*
X144248517Y-38421666D01*
X144222159Y-38424500D01*
X80908434Y-38424500D01*
X80900334Y-38423969D01*
X80865000Y-38419317D01*
X80864999Y-38419317D01*
X80660011Y-38446305D01*
X80637467Y-38468583D01*
X80626144Y-38473959D01*
X80562162Y-38500462D01*
X80436714Y-38596721D01*
X80415024Y-38624990D01*
X80409671Y-38631094D01*
X77827583Y-41213181D01*
X77766260Y-41246666D01*
X77739902Y-41249500D01*
X76554500Y-41249500D01*
X76487461Y-41229815D01*
X76441706Y-41177011D01*
X76430500Y-41125500D01*
X76430500Y-35024443D01*
X76450185Y-34957404D01*
X76502989Y-34911649D01*
X76514631Y-34907028D01*
X76712252Y-34839945D01*
X76982718Y-34706566D01*
X77233461Y-34539025D01*
X77275063Y-34502540D01*
X77338446Y-34473136D01*
X77407662Y-34482668D01*
X77460738Y-34528107D01*
X77480822Y-34595028D01*
X77475257Y-34632505D01*
X77445907Y-34727118D01*
X77410525Y-34936880D01*
X77395791Y-35024230D01*
X77390042Y-35196202D01*
X77385723Y-35325373D01*
X77415881Y-35625160D01*
X77415882Y-35625162D01*
X77485728Y-35918252D01*
X77485733Y-35918266D01*
X77594020Y-36199427D01*
X77594024Y-36199436D01*
X77738825Y-36463665D01*
X77738829Y-36463671D01*
X77878658Y-36653448D01*
X77917554Y-36706238D01*
X77917561Y-36706245D01*
X78127019Y-36922823D01*
X78363478Y-37109553D01*
X78363480Y-37109554D01*
X78363485Y-37109558D01*
X78622730Y-37263109D01*
X78900128Y-37380736D01*
X79190729Y-37460340D01*
X79489347Y-37500500D01*
X79489351Y-37500500D01*
X79715252Y-37500500D01*
X79879164Y-37489526D01*
X79940634Y-37485412D01*
X80235903Y-37425396D01*
X80520537Y-37326560D01*
X80789459Y-37190668D01*
X81037869Y-37020144D01*
X81261333Y-36818032D01*
X81455865Y-36587939D01*
X81617993Y-36333970D01*
X81744823Y-36060658D01*
X81834093Y-35772879D01*
X81884209Y-35475770D01*
X81893556Y-35196202D01*
X83590660Y-35196202D01*
X83600887Y-35410901D01*
X83651563Y-35619791D01*
X83651565Y-35619795D01*
X83726348Y-35783548D01*
X83740854Y-35815310D01*
X83837775Y-35951417D01*
X83865535Y-35990400D01*
X83865540Y-35990406D01*
X84021094Y-36138725D01*
X84021096Y-36138726D01*
X84021097Y-36138727D01*
X84201920Y-36254935D01*
X84313568Y-36299632D01*
X84349088Y-36313852D01*
X84404010Y-36357043D01*
X84411419Y-36368789D01*
X84414586Y-36374494D01*
X84414593Y-36374505D01*
X84547132Y-36528893D01*
X84547134Y-36528895D01*
X84708037Y-36653445D01*
X84708038Y-36653445D01*
X84708042Y-36653448D01*
X84890729Y-36743060D01*
X85087715Y-36794063D01*
X85290936Y-36804369D01*
X85492071Y-36773556D01*
X85682887Y-36702886D01*
X85855571Y-36595252D01*
X86003053Y-36455059D01*
X86119295Y-36288049D01*
X86199540Y-36101058D01*
X86240500Y-35901741D01*
X86240500Y-35850743D01*
X92089500Y-35850743D01*
X92104925Y-36002439D01*
X92165837Y-36196579D01*
X92165844Y-36196594D01*
X92264589Y-36374499D01*
X92264592Y-36374504D01*
X92397132Y-36528893D01*
X92397134Y-36528895D01*
X92558037Y-36653445D01*
X92558038Y-36653445D01*
X92558042Y-36653448D01*
X92740729Y-36743060D01*
X92937715Y-36794063D01*
X93140936Y-36804369D01*
X93342071Y-36773556D01*
X93532887Y-36702886D01*
X93705571Y-36595252D01*
X93853053Y-36455059D01*
X93918572Y-36360923D01*
X93973025Y-36317146D01*
X93985413Y-36312784D01*
X94030209Y-36299631D01*
X94221259Y-36201138D01*
X94390217Y-36068268D01*
X94530976Y-35905824D01*
X94533334Y-35901741D01*
X94638446Y-35719680D01*
X94638448Y-35719677D01*
X94708750Y-35516554D01*
X94739339Y-35303797D01*
X94731727Y-35143999D01*
X94748200Y-35076101D01*
X94798767Y-35027885D01*
X94863700Y-35014367D01*
X94880000Y-35015436D01*
X95180920Y-34995713D01*
X95476691Y-34936880D01*
X95762252Y-34839945D01*
X96032718Y-34706566D01*
X96283461Y-34539025D01*
X96325063Y-34502540D01*
X96388446Y-34473136D01*
X96457662Y-34482668D01*
X96510738Y-34528107D01*
X96530822Y-34595028D01*
X96525257Y-34632505D01*
X96495907Y-34727118D01*
X96460525Y-34936880D01*
X96445791Y-35024230D01*
X96440042Y-35196202D01*
X96435723Y-35325373D01*
X96465881Y-35625160D01*
X96465882Y-35625162D01*
X96535728Y-35918252D01*
X96535733Y-35918266D01*
X96644020Y-36199427D01*
X96644024Y-36199436D01*
X96788825Y-36463665D01*
X96788829Y-36463671D01*
X96928658Y-36653448D01*
X96967554Y-36706238D01*
X96967561Y-36706245D01*
X97177019Y-36922823D01*
X97413478Y-37109553D01*
X97413480Y-37109554D01*
X97413485Y-37109558D01*
X97672730Y-37263109D01*
X97950128Y-37380736D01*
X98240729Y-37460340D01*
X98539347Y-37500500D01*
X98539351Y-37500500D01*
X98765252Y-37500500D01*
X98929164Y-37489526D01*
X98990634Y-37485412D01*
X99285903Y-37425396D01*
X99570537Y-37326560D01*
X99839459Y-37190668D01*
X100087869Y-37020144D01*
X100311333Y-36818032D01*
X100505865Y-36587939D01*
X100667993Y-36333970D01*
X100794823Y-36060658D01*
X100884093Y-35772879D01*
X100934209Y-35475770D01*
X100943556Y-35196202D01*
X102640660Y-35196202D01*
X102650887Y-35410901D01*
X102701563Y-35619791D01*
X102701565Y-35619795D01*
X102776348Y-35783548D01*
X102790854Y-35815310D01*
X102887775Y-35951417D01*
X102915535Y-35990400D01*
X102915540Y-35990406D01*
X103071094Y-36138725D01*
X103071096Y-36138726D01*
X103071097Y-36138727D01*
X103251920Y-36254935D01*
X103363568Y-36299632D01*
X103399088Y-36313852D01*
X103454010Y-36357043D01*
X103461419Y-36368789D01*
X103464586Y-36374494D01*
X103464593Y-36374505D01*
X103597132Y-36528893D01*
X103597134Y-36528895D01*
X103758037Y-36653445D01*
X103758038Y-36653445D01*
X103758042Y-36653448D01*
X103940729Y-36743060D01*
X104137715Y-36794063D01*
X104340936Y-36804369D01*
X104542071Y-36773556D01*
X104732887Y-36702886D01*
X104905571Y-36595252D01*
X105053053Y-36455059D01*
X105169295Y-36288049D01*
X105249540Y-36101058D01*
X105290500Y-35901741D01*
X105290500Y-34649258D01*
X105288797Y-34632505D01*
X105285314Y-34598258D01*
X111139499Y-34598258D01*
X111139500Y-35850743D01*
X111154925Y-36002439D01*
X111215837Y-36196579D01*
X111215844Y-36196594D01*
X111314589Y-36374499D01*
X111314592Y-36374504D01*
X111447132Y-36528893D01*
X111447134Y-36528895D01*
X111608037Y-36653445D01*
X111608038Y-36653445D01*
X111608042Y-36653448D01*
X111790729Y-36743060D01*
X111987715Y-36794063D01*
X112190936Y-36804369D01*
X112392071Y-36773556D01*
X112582887Y-36702886D01*
X112755571Y-36595252D01*
X112903053Y-36455059D01*
X112968572Y-36360923D01*
X113023025Y-36317146D01*
X113035413Y-36312784D01*
X113080209Y-36299631D01*
X113271259Y-36201138D01*
X113440217Y-36068268D01*
X113580976Y-35905824D01*
X113583334Y-35901741D01*
X113688446Y-35719680D01*
X113688448Y-35719677D01*
X113758750Y-35516554D01*
X113789339Y-35303797D01*
X113781727Y-35143999D01*
X113798200Y-35076101D01*
X113848767Y-35027885D01*
X113913700Y-35014367D01*
X113930000Y-35015436D01*
X114230920Y-34995713D01*
X114526691Y-34936880D01*
X114812252Y-34839945D01*
X115082718Y-34706566D01*
X115333461Y-34539025D01*
X115375063Y-34502540D01*
X115438446Y-34473136D01*
X115507662Y-34482668D01*
X115560738Y-34528107D01*
X115580822Y-34595028D01*
X115575257Y-34632505D01*
X115545907Y-34727118D01*
X115510525Y-34936880D01*
X115495791Y-35024230D01*
X115490042Y-35196202D01*
X115485723Y-35325373D01*
X115515881Y-35625160D01*
X115515882Y-35625162D01*
X115585728Y-35918252D01*
X115585733Y-35918266D01*
X115694020Y-36199427D01*
X115694024Y-36199436D01*
X115838825Y-36463665D01*
X115838829Y-36463671D01*
X115978658Y-36653448D01*
X116017554Y-36706238D01*
X116017561Y-36706245D01*
X116227019Y-36922823D01*
X116463478Y-37109553D01*
X116463480Y-37109554D01*
X116463485Y-37109558D01*
X116722730Y-37263109D01*
X117000128Y-37380736D01*
X117290729Y-37460340D01*
X117589347Y-37500500D01*
X117589351Y-37500500D01*
X117815252Y-37500500D01*
X117979164Y-37489526D01*
X118040634Y-37485412D01*
X118335903Y-37425396D01*
X118620537Y-37326560D01*
X118889459Y-37190668D01*
X119137869Y-37020144D01*
X119361333Y-36818032D01*
X119555865Y-36587939D01*
X119717993Y-36333970D01*
X119844823Y-36060658D01*
X119934093Y-35772879D01*
X119984209Y-35475770D01*
X119993556Y-35196202D01*
X121690660Y-35196202D01*
X121700887Y-35410901D01*
X121751563Y-35619791D01*
X121751565Y-35619795D01*
X121826348Y-35783548D01*
X121840854Y-35815310D01*
X121937775Y-35951417D01*
X121965535Y-35990400D01*
X121965540Y-35990406D01*
X122121094Y-36138725D01*
X122121096Y-36138726D01*
X122121097Y-36138727D01*
X122301920Y-36254935D01*
X122413568Y-36299632D01*
X122449088Y-36313852D01*
X122504010Y-36357043D01*
X122511419Y-36368789D01*
X122514586Y-36374494D01*
X122514593Y-36374505D01*
X122647132Y-36528893D01*
X122647134Y-36528895D01*
X122808037Y-36653445D01*
X122808038Y-36653445D01*
X122808042Y-36653448D01*
X122990729Y-36743060D01*
X123187715Y-36794063D01*
X123390936Y-36804369D01*
X123592071Y-36773556D01*
X123782887Y-36702886D01*
X123955571Y-36595252D01*
X124103053Y-36455059D01*
X124219295Y-36288049D01*
X124299540Y-36101058D01*
X124340500Y-35901741D01*
X124340500Y-34649258D01*
X124338797Y-34632505D01*
X124335314Y-34598258D01*
X130189499Y-34598258D01*
X130189500Y-35850743D01*
X130204925Y-36002439D01*
X130265837Y-36196579D01*
X130265844Y-36196594D01*
X130364589Y-36374499D01*
X130364592Y-36374504D01*
X130497132Y-36528893D01*
X130497134Y-36528895D01*
X130658037Y-36653445D01*
X130658038Y-36653445D01*
X130658042Y-36653448D01*
X130840729Y-36743060D01*
X131037715Y-36794063D01*
X131240936Y-36804369D01*
X131442071Y-36773556D01*
X131632887Y-36702886D01*
X131805571Y-36595252D01*
X131953053Y-36455059D01*
X132018572Y-36360923D01*
X132073025Y-36317146D01*
X132085413Y-36312784D01*
X132130209Y-36299631D01*
X132321259Y-36201138D01*
X132490217Y-36068268D01*
X132630976Y-35905824D01*
X132633334Y-35901741D01*
X132738446Y-35719680D01*
X132738448Y-35719677D01*
X132808750Y-35516554D01*
X132839339Y-35303797D01*
X132831727Y-35143999D01*
X132848200Y-35076101D01*
X132898767Y-35027885D01*
X132963700Y-35014367D01*
X132980000Y-35015436D01*
X133280920Y-34995713D01*
X133576691Y-34936880D01*
X133862252Y-34839945D01*
X134132718Y-34706566D01*
X134383461Y-34539025D01*
X134425063Y-34502540D01*
X134488446Y-34473136D01*
X134557662Y-34482668D01*
X134610738Y-34528107D01*
X134630822Y-34595028D01*
X134625257Y-34632505D01*
X134595907Y-34727118D01*
X134560525Y-34936880D01*
X134545791Y-35024230D01*
X134540042Y-35196202D01*
X134535723Y-35325373D01*
X134565881Y-35625160D01*
X134565882Y-35625162D01*
X134635728Y-35918252D01*
X134635733Y-35918266D01*
X134744020Y-36199427D01*
X134744024Y-36199436D01*
X134888825Y-36463665D01*
X134888829Y-36463671D01*
X135028658Y-36653448D01*
X135067554Y-36706238D01*
X135067561Y-36706245D01*
X135277019Y-36922823D01*
X135513478Y-37109553D01*
X135513480Y-37109554D01*
X135513485Y-37109558D01*
X135772730Y-37263109D01*
X136050128Y-37380736D01*
X136340729Y-37460340D01*
X136639347Y-37500500D01*
X136639351Y-37500500D01*
X136865252Y-37500500D01*
X137029164Y-37489526D01*
X137090634Y-37485412D01*
X137385903Y-37425396D01*
X137670537Y-37326560D01*
X137939459Y-37190668D01*
X138187869Y-37020144D01*
X138411333Y-36818032D01*
X138605865Y-36587939D01*
X138767993Y-36333970D01*
X138894823Y-36060658D01*
X138984093Y-35772879D01*
X139034209Y-35475770D01*
X139043556Y-35196202D01*
X140740660Y-35196202D01*
X140750887Y-35410901D01*
X140801563Y-35619791D01*
X140801565Y-35619795D01*
X140876348Y-35783548D01*
X140890854Y-35815310D01*
X140987775Y-35951417D01*
X141015535Y-35990400D01*
X141015540Y-35990406D01*
X141171094Y-36138725D01*
X141171096Y-36138726D01*
X141171097Y-36138727D01*
X141351920Y-36254935D01*
X141463568Y-36299632D01*
X141499088Y-36313852D01*
X141554010Y-36357043D01*
X141561419Y-36368789D01*
X141564586Y-36374494D01*
X141564593Y-36374505D01*
X141697132Y-36528893D01*
X141697134Y-36528895D01*
X141858037Y-36653445D01*
X141858038Y-36653445D01*
X141858042Y-36653448D01*
X142040729Y-36743060D01*
X142237715Y-36794063D01*
X142440936Y-36804369D01*
X142642071Y-36773556D01*
X142832887Y-36702886D01*
X143005571Y-36595252D01*
X143153053Y-36455059D01*
X143269295Y-36288049D01*
X143349540Y-36101058D01*
X143390500Y-35901741D01*
X143390500Y-34649258D01*
X143388797Y-34632505D01*
X143375074Y-34497560D01*
X143314162Y-34303420D01*
X143314160Y-34303416D01*
X143314159Y-34303412D01*
X143215409Y-34125498D01*
X143215408Y-34125497D01*
X143215407Y-34125495D01*
X143082867Y-33971106D01*
X143082865Y-33971104D01*
X142921962Y-33846554D01*
X142921959Y-33846553D01*
X142921958Y-33846552D01*
X142739271Y-33756940D01*
X142542285Y-33705937D01*
X142542287Y-33705937D01*
X142406804Y-33699066D01*
X142339064Y-33695631D01*
X142339063Y-33695631D01*
X142339061Y-33695631D01*
X142137936Y-33726442D01*
X142137924Y-33726445D01*
X141947118Y-33797111D01*
X141947111Y-33797115D01*
X141774432Y-33904745D01*
X141774427Y-33904749D01*
X141626949Y-34044937D01*
X141626946Y-34044941D01*
X141561426Y-34139075D01*
X141506972Y-34182853D01*
X141494590Y-34187213D01*
X141449796Y-34200366D01*
X141258736Y-34298864D01*
X141089785Y-34431729D01*
X141089782Y-34431733D01*
X140949021Y-34594178D01*
X140841553Y-34780319D01*
X140771251Y-34983442D01*
X140771250Y-34983444D01*
X140740661Y-35196200D01*
X140740660Y-35196202D01*
X139043556Y-35196202D01*
X139044277Y-35174631D01*
X139014118Y-34874838D01*
X138944269Y-34581739D01*
X138835977Y-34300566D01*
X138691175Y-34036335D01*
X138643112Y-33971104D01*
X138594219Y-33904745D01*
X138512446Y-33793762D01*
X138302980Y-33577176D01*
X138066521Y-33390446D01*
X138066517Y-33390443D01*
X138066515Y-33390442D01*
X137807270Y-33236891D01*
X137529872Y-33119264D01*
X137529863Y-33119261D01*
X137239272Y-33039660D01*
X137164616Y-33029620D01*
X136940653Y-32999500D01*
X136714756Y-32999500D01*
X136714748Y-32999500D01*
X136489368Y-33014587D01*
X136489359Y-33014589D01*
X136194094Y-33074604D01*
X135909464Y-33173439D01*
X135909459Y-33173441D01*
X135640546Y-33309328D01*
X135509479Y-33399301D01*
X135392131Y-33479856D01*
X135392128Y-33479858D01*
X135392123Y-33479862D01*
X135388865Y-33482435D01*
X135387836Y-33481131D01*
X135331092Y-33508514D01*
X135261738Y-33500039D01*
X135207976Y-33455413D01*
X135186875Y-33388806D01*
X135193428Y-33346319D01*
X135206880Y-33306691D01*
X135265713Y-33010920D01*
X135285436Y-32710000D01*
X135265713Y-32409080D01*
X135263286Y-32396881D01*
X135244005Y-32299946D01*
X135206880Y-32113309D01*
X135109945Y-31827748D01*
X135096354Y-31800189D01*
X134976568Y-31557286D01*
X134976564Y-31557279D01*
X134809026Y-31306540D01*
X134610189Y-31079810D01*
X134383459Y-30880973D01*
X134132720Y-30713435D01*
X134132713Y-30713431D01*
X133862268Y-30580062D01*
X133862247Y-30580053D01*
X133576698Y-30483122D01*
X133576692Y-30483120D01*
X133576691Y-30483120D01*
X133576689Y-30483119D01*
X133576683Y-30483118D01*
X133280930Y-30424288D01*
X133280921Y-30424287D01*
X133280920Y-30424287D01*
X132980000Y-30404564D01*
X132679080Y-30424287D01*
X132679079Y-30424287D01*
X132679069Y-30424288D01*
X132383316Y-30483118D01*
X132383301Y-30483122D01*
X132097752Y-30580053D01*
X132097731Y-30580062D01*
X131827286Y-30713431D01*
X131827279Y-30713435D01*
X131576540Y-30880973D01*
X131349810Y-31079810D01*
X131150973Y-31306540D01*
X130983435Y-31557279D01*
X130983431Y-31557286D01*
X130850062Y-31827731D01*
X130850053Y-31827752D01*
X130753122Y-32113301D01*
X130753118Y-32113316D01*
X130694288Y-32409069D01*
X130694287Y-32409079D01*
X130694287Y-32409080D01*
X130674564Y-32710000D01*
X130688430Y-32921565D01*
X130694287Y-33010918D01*
X130694288Y-33010930D01*
X130753118Y-33306683D01*
X130753122Y-33306698D01*
X130850053Y-33592247D01*
X130850060Y-33592262D01*
X130858749Y-33609882D01*
X130870744Y-33678714D01*
X130843622Y-33743105D01*
X130790605Y-33781005D01*
X130747117Y-33797112D01*
X130747108Y-33797116D01*
X130574432Y-33904745D01*
X130574427Y-33904749D01*
X130426949Y-34044938D01*
X130426948Y-34044940D01*
X130310705Y-34211949D01*
X130230459Y-34398943D01*
X130189499Y-34598258D01*
X124335314Y-34598258D01*
X124325074Y-34497560D01*
X124264162Y-34303420D01*
X124264160Y-34303416D01*
X124264159Y-34303412D01*
X124165409Y-34125498D01*
X124165408Y-34125497D01*
X124165407Y-34125495D01*
X124032867Y-33971106D01*
X124032865Y-33971104D01*
X123871962Y-33846554D01*
X123871959Y-33846553D01*
X123871958Y-33846552D01*
X123689271Y-33756940D01*
X123492285Y-33705937D01*
X123492287Y-33705937D01*
X123356804Y-33699066D01*
X123289064Y-33695631D01*
X123289063Y-33695631D01*
X123289061Y-33695631D01*
X123087936Y-33726442D01*
X123087924Y-33726445D01*
X122897118Y-33797111D01*
X122897111Y-33797115D01*
X122724432Y-33904745D01*
X122724427Y-33904749D01*
X122576949Y-34044937D01*
X122576946Y-34044941D01*
X122511426Y-34139075D01*
X122456972Y-34182853D01*
X122444590Y-34187213D01*
X122399796Y-34200366D01*
X122208736Y-34298864D01*
X122039785Y-34431729D01*
X122039782Y-34431733D01*
X121899021Y-34594178D01*
X121791553Y-34780319D01*
X121721251Y-34983442D01*
X121721250Y-34983444D01*
X121690661Y-35196200D01*
X121690660Y-35196202D01*
X119993556Y-35196202D01*
X119994277Y-35174631D01*
X119964118Y-34874838D01*
X119894269Y-34581739D01*
X119785977Y-34300566D01*
X119641175Y-34036335D01*
X119593112Y-33971104D01*
X119544219Y-33904745D01*
X119462446Y-33793762D01*
X119252980Y-33577176D01*
X119252979Y-33577175D01*
X119016521Y-33390446D01*
X119016517Y-33390443D01*
X119016515Y-33390442D01*
X118757270Y-33236891D01*
X118479872Y-33119264D01*
X118479863Y-33119261D01*
X118189272Y-33039660D01*
X118114616Y-33029620D01*
X117890653Y-32999500D01*
X117664756Y-32999500D01*
X117664748Y-32999500D01*
X117439368Y-33014587D01*
X117439359Y-33014589D01*
X117144094Y-33074604D01*
X116859464Y-33173439D01*
X116859459Y-33173441D01*
X116590546Y-33309328D01*
X116459479Y-33399301D01*
X116342131Y-33479856D01*
X116342128Y-33479858D01*
X116342123Y-33479862D01*
X116338865Y-33482435D01*
X116337836Y-33481131D01*
X116281092Y-33508514D01*
X116211738Y-33500039D01*
X116157976Y-33455413D01*
X116136875Y-33388806D01*
X116143428Y-33346319D01*
X116156880Y-33306691D01*
X116215713Y-33010920D01*
X116235436Y-32710000D01*
X116215713Y-32409080D01*
X116213286Y-32396881D01*
X116194005Y-32299946D01*
X116156880Y-32113309D01*
X116059945Y-31827748D01*
X116046354Y-31800189D01*
X115926568Y-31557286D01*
X115926564Y-31557279D01*
X115759026Y-31306540D01*
X115560189Y-31079810D01*
X115333459Y-30880973D01*
X115082720Y-30713435D01*
X115082713Y-30713431D01*
X114812268Y-30580062D01*
X114812247Y-30580053D01*
X114526698Y-30483122D01*
X114526692Y-30483120D01*
X114526691Y-30483120D01*
X114526689Y-30483119D01*
X114526683Y-30483118D01*
X114230930Y-30424288D01*
X114230921Y-30424287D01*
X114230920Y-30424287D01*
X113930000Y-30404564D01*
X113629080Y-30424287D01*
X113629079Y-30424287D01*
X113629069Y-30424288D01*
X113333316Y-30483118D01*
X113333301Y-30483122D01*
X113047752Y-30580053D01*
X113047731Y-30580062D01*
X112777286Y-30713431D01*
X112777279Y-30713435D01*
X112526540Y-30880973D01*
X112299810Y-31079810D01*
X112100973Y-31306540D01*
X111933435Y-31557279D01*
X111933431Y-31557286D01*
X111800062Y-31827731D01*
X111800053Y-31827752D01*
X111703122Y-32113301D01*
X111703118Y-32113316D01*
X111644288Y-32409069D01*
X111644287Y-32409079D01*
X111644287Y-32409080D01*
X111624564Y-32710000D01*
X111638430Y-32921565D01*
X111644287Y-33010918D01*
X111644288Y-33010930D01*
X111703118Y-33306683D01*
X111703122Y-33306698D01*
X111800053Y-33592247D01*
X111800060Y-33592262D01*
X111808749Y-33609882D01*
X111820744Y-33678714D01*
X111793622Y-33743105D01*
X111740605Y-33781005D01*
X111697117Y-33797112D01*
X111697108Y-33797116D01*
X111524432Y-33904745D01*
X111524427Y-33904749D01*
X111376949Y-34044938D01*
X111376948Y-34044940D01*
X111260705Y-34211949D01*
X111180459Y-34398943D01*
X111139499Y-34598258D01*
X105285314Y-34598258D01*
X105275074Y-34497560D01*
X105214162Y-34303420D01*
X105214160Y-34303416D01*
X105214159Y-34303412D01*
X105115409Y-34125498D01*
X105115408Y-34125497D01*
X105115407Y-34125495D01*
X104982867Y-33971106D01*
X104982865Y-33971104D01*
X104821962Y-33846554D01*
X104821959Y-33846553D01*
X104821958Y-33846552D01*
X104639271Y-33756940D01*
X104442285Y-33705937D01*
X104442287Y-33705937D01*
X104306804Y-33699066D01*
X104239064Y-33695631D01*
X104239063Y-33695631D01*
X104239061Y-33695631D01*
X104037936Y-33726442D01*
X104037924Y-33726445D01*
X103847118Y-33797111D01*
X103847111Y-33797115D01*
X103674432Y-33904745D01*
X103674427Y-33904749D01*
X103526949Y-34044937D01*
X103526946Y-34044941D01*
X103461426Y-34139075D01*
X103406972Y-34182853D01*
X103394590Y-34187213D01*
X103349796Y-34200366D01*
X103158736Y-34298864D01*
X102989785Y-34431729D01*
X102989782Y-34431733D01*
X102849021Y-34594178D01*
X102741553Y-34780319D01*
X102671251Y-34983442D01*
X102671250Y-34983444D01*
X102640661Y-35196200D01*
X102640660Y-35196202D01*
X100943556Y-35196202D01*
X100944277Y-35174631D01*
X100914118Y-34874838D01*
X100844269Y-34581739D01*
X100735977Y-34300566D01*
X100591175Y-34036335D01*
X100543112Y-33971104D01*
X100494219Y-33904745D01*
X100412446Y-33793762D01*
X100202980Y-33577176D01*
X99966521Y-33390446D01*
X99966517Y-33390443D01*
X99966515Y-33390442D01*
X99707270Y-33236891D01*
X99429872Y-33119264D01*
X99429863Y-33119261D01*
X99139272Y-33039660D01*
X99064616Y-33029620D01*
X98840653Y-32999500D01*
X98614756Y-32999500D01*
X98614748Y-32999500D01*
X98389368Y-33014587D01*
X98389359Y-33014589D01*
X98094094Y-33074604D01*
X97809464Y-33173439D01*
X97809459Y-33173441D01*
X97540546Y-33309328D01*
X97409479Y-33399301D01*
X97292131Y-33479856D01*
X97292128Y-33479858D01*
X97292123Y-33479862D01*
X97288865Y-33482435D01*
X97287836Y-33481131D01*
X97231092Y-33508514D01*
X97161738Y-33500039D01*
X97107976Y-33455413D01*
X97086875Y-33388806D01*
X97093428Y-33346319D01*
X97106880Y-33306691D01*
X97165713Y-33010920D01*
X97185436Y-32710000D01*
X97165713Y-32409080D01*
X97163286Y-32396881D01*
X97144005Y-32299946D01*
X97106880Y-32113309D01*
X97009945Y-31827748D01*
X96996354Y-31800189D01*
X96876568Y-31557286D01*
X96876564Y-31557279D01*
X96709026Y-31306540D01*
X96510189Y-31079810D01*
X96283459Y-30880973D01*
X96032720Y-30713435D01*
X96032713Y-30713431D01*
X95762268Y-30580062D01*
X95762247Y-30580053D01*
X95476698Y-30483122D01*
X95476692Y-30483120D01*
X95476691Y-30483120D01*
X95476689Y-30483119D01*
X95476683Y-30483118D01*
X95180930Y-30424288D01*
X95180921Y-30424287D01*
X95180920Y-30424287D01*
X94880000Y-30404564D01*
X94579080Y-30424287D01*
X94579079Y-30424287D01*
X94579069Y-30424288D01*
X94283316Y-30483118D01*
X94283301Y-30483122D01*
X93997752Y-30580053D01*
X93997731Y-30580062D01*
X93727286Y-30713431D01*
X93727279Y-30713435D01*
X93476540Y-30880973D01*
X93249810Y-31079810D01*
X93050973Y-31306540D01*
X92883435Y-31557279D01*
X92883431Y-31557286D01*
X92750062Y-31827731D01*
X92750053Y-31827752D01*
X92653122Y-32113301D01*
X92653118Y-32113316D01*
X92594288Y-32409069D01*
X92594287Y-32409079D01*
X92594287Y-32409080D01*
X92574564Y-32710000D01*
X92588430Y-32921565D01*
X92594287Y-33010918D01*
X92594288Y-33010930D01*
X92653118Y-33306683D01*
X92653122Y-33306698D01*
X92750053Y-33592247D01*
X92750060Y-33592262D01*
X92758749Y-33609882D01*
X92770744Y-33678714D01*
X92743622Y-33743105D01*
X92690605Y-33781005D01*
X92647117Y-33797112D01*
X92647108Y-33797116D01*
X92474432Y-33904745D01*
X92474427Y-33904749D01*
X92326949Y-34044938D01*
X92326948Y-34044940D01*
X92210705Y-34211949D01*
X92130459Y-34398943D01*
X92089500Y-34598258D01*
X92089500Y-35850743D01*
X86240500Y-35850743D01*
X86240500Y-34649258D01*
X86238797Y-34632505D01*
X86225074Y-34497560D01*
X86164162Y-34303420D01*
X86164160Y-34303416D01*
X86164159Y-34303412D01*
X86065409Y-34125498D01*
X86065408Y-34125497D01*
X86065407Y-34125495D01*
X85932867Y-33971106D01*
X85932865Y-33971104D01*
X85771962Y-33846554D01*
X85771959Y-33846553D01*
X85771958Y-33846552D01*
X85589271Y-33756940D01*
X85392285Y-33705937D01*
X85392287Y-33705937D01*
X85256804Y-33699066D01*
X85189064Y-33695631D01*
X85189063Y-33695631D01*
X85189061Y-33695631D01*
X84987936Y-33726442D01*
X84987924Y-33726445D01*
X84797118Y-33797111D01*
X84797111Y-33797115D01*
X84624432Y-33904745D01*
X84624427Y-33904749D01*
X84476949Y-34044937D01*
X84476946Y-34044941D01*
X84411426Y-34139075D01*
X84356972Y-34182853D01*
X84344590Y-34187213D01*
X84299796Y-34200366D01*
X84108736Y-34298864D01*
X83939785Y-34431729D01*
X83939782Y-34431733D01*
X83799021Y-34594178D01*
X83691553Y-34780319D01*
X83621251Y-34983442D01*
X83621250Y-34983444D01*
X83590661Y-35196200D01*
X83590660Y-35196202D01*
X81893556Y-35196202D01*
X81894277Y-35174631D01*
X81864118Y-34874838D01*
X81794269Y-34581739D01*
X81685977Y-34300566D01*
X81541175Y-34036335D01*
X81493112Y-33971104D01*
X81444219Y-33904745D01*
X81362446Y-33793762D01*
X81152980Y-33577176D01*
X81152980Y-33577175D01*
X80916521Y-33390446D01*
X80916517Y-33390443D01*
X80916515Y-33390442D01*
X80657270Y-33236891D01*
X80379872Y-33119264D01*
X80379863Y-33119261D01*
X80089272Y-33039660D01*
X80014616Y-33029620D01*
X79790653Y-32999500D01*
X79564756Y-32999500D01*
X79564748Y-32999500D01*
X79339368Y-33014587D01*
X79339359Y-33014589D01*
X79044094Y-33074604D01*
X78759464Y-33173439D01*
X78759459Y-33173441D01*
X78490546Y-33309328D01*
X78359479Y-33399301D01*
X78242131Y-33479856D01*
X78242128Y-33479858D01*
X78242123Y-33479862D01*
X78238865Y-33482435D01*
X78237836Y-33481131D01*
X78181092Y-33508514D01*
X78111738Y-33500039D01*
X78057976Y-33455413D01*
X78036875Y-33388806D01*
X78043428Y-33346319D01*
X78056880Y-33306691D01*
X78115713Y-33010920D01*
X78135436Y-32710000D01*
X78115713Y-32409080D01*
X78113286Y-32396881D01*
X78094005Y-32299946D01*
X78056880Y-32113309D01*
X77959945Y-31827748D01*
X77946354Y-31800189D01*
X77826568Y-31557286D01*
X77826564Y-31557279D01*
X77659026Y-31306540D01*
X77460189Y-31079810D01*
X77233459Y-30880973D01*
X76982720Y-30713435D01*
X76982713Y-30713431D01*
X76712268Y-30580062D01*
X76712247Y-30580053D01*
X76426698Y-30483122D01*
X76426692Y-30483120D01*
X76426691Y-30483120D01*
X76426689Y-30483119D01*
X76426683Y-30483118D01*
X76130930Y-30424288D01*
X76130921Y-30424287D01*
X76130920Y-30424287D01*
X75830000Y-30404564D01*
X75529080Y-30424287D01*
X75529079Y-30424287D01*
X75529069Y-30424288D01*
X75233316Y-30483118D01*
X75233301Y-30483122D01*
X74947752Y-30580053D01*
X74947731Y-30580062D01*
X74677286Y-30713431D01*
X74677279Y-30713435D01*
X74426540Y-30880973D01*
X74199810Y-31079810D01*
X74000973Y-31306540D01*
X73833435Y-31557279D01*
X73833431Y-31557286D01*
X73700062Y-31827731D01*
X73700053Y-31827752D01*
X73603122Y-32113301D01*
X73603118Y-32113316D01*
X73544288Y-32409069D01*
X73544287Y-32409079D01*
X73544287Y-32409080D01*
X73524564Y-32710000D01*
X73538430Y-32921565D01*
X73544287Y-33010918D01*
X73544288Y-33010930D01*
X73603118Y-33306683D01*
X73603122Y-33306698D01*
X73700053Y-33592247D01*
X73700060Y-33592262D01*
X73708749Y-33609882D01*
X73720744Y-33678714D01*
X73693622Y-33743105D01*
X73640605Y-33781005D01*
X73597117Y-33797112D01*
X73597108Y-33797116D01*
X73424432Y-33904745D01*
X73424427Y-33904749D01*
X73276949Y-34044938D01*
X73276948Y-34044940D01*
X73160705Y-34211949D01*
X73080459Y-34398943D01*
X73039500Y-34598258D01*
X73039500Y-35850743D01*
X73054925Y-36002439D01*
X73115837Y-36196579D01*
X73115844Y-36196594D01*
X73214589Y-36374499D01*
X73214592Y-36374504D01*
X73347132Y-36528893D01*
X73347134Y-36528895D01*
X73508037Y-36653445D01*
X73508038Y-36653445D01*
X73508042Y-36653448D01*
X73690729Y-36743060D01*
X73887715Y-36794063D01*
X74090936Y-36804369D01*
X74292071Y-36773556D01*
X74482887Y-36702886D01*
X74655571Y-36595252D01*
X74803053Y-36455059D01*
X74868572Y-36360923D01*
X74923025Y-36317146D01*
X74935413Y-36312784D01*
X74980209Y-36299631D01*
X75048679Y-36264332D01*
X75117287Y-36251108D01*
X75182152Y-36277076D01*
X75222680Y-36333990D01*
X75229500Y-36374547D01*
X75229500Y-49445555D01*
X75209815Y-49512594D01*
X75157011Y-49558349D01*
X75145359Y-49562974D01*
X74947744Y-49630056D01*
X74677286Y-49763431D01*
X74677279Y-49763435D01*
X74426540Y-49930973D01*
X74199810Y-50129810D01*
X74000973Y-50356540D01*
X73833435Y-50607279D01*
X73833431Y-50607286D01*
X73700062Y-50877731D01*
X73700053Y-50877752D01*
X73603122Y-51163301D01*
X73603118Y-51163316D01*
X73544288Y-51459069D01*
X73544287Y-51459079D01*
X73544287Y-51459080D01*
X73524564Y-51760000D01*
X73535851Y-51932216D01*
X73544287Y-52060918D01*
X73544288Y-52060930D01*
X73603118Y-52356683D01*
X73603122Y-52356698D01*
X73700053Y-52642247D01*
X73700062Y-52642268D01*
X73833430Y-52912711D01*
X73833432Y-52912714D01*
X73833434Y-52912718D01*
X73897629Y-53008793D01*
X74002578Y-53165861D01*
X74023455Y-53232538D01*
X74004970Y-53299918D01*
X73956299Y-53344965D01*
X73948739Y-53348862D01*
X73779785Y-53481729D01*
X73779782Y-53481733D01*
X73639021Y-53644178D01*
X73531553Y-53830319D01*
X73461251Y-54033442D01*
X73461250Y-54033444D01*
X73430661Y-54246200D01*
X73430660Y-54246202D01*
X73440887Y-54460901D01*
X73491563Y-54669791D01*
X73491565Y-54669795D01*
X73580818Y-54865233D01*
X73580854Y-54865310D01*
X73661953Y-54979198D01*
X73705535Y-55040400D01*
X73705540Y-55040406D01*
X73861094Y-55188725D01*
X73861096Y-55188726D01*
X73861097Y-55188727D01*
X74041920Y-55304935D01*
X74241468Y-55384822D01*
X74346997Y-55405161D01*
X74452527Y-55425500D01*
X74452528Y-55425500D01*
X74613612Y-55425500D01*
X74613618Y-55425500D01*
X74773971Y-55410188D01*
X74980209Y-55349631D01*
X75048679Y-55314332D01*
X75117287Y-55301108D01*
X75182152Y-55327076D01*
X75222680Y-55383990D01*
X75229500Y-55424547D01*
X75229500Y-68495555D01*
X75209815Y-68562594D01*
X75157011Y-68608349D01*
X75145359Y-68612974D01*
X74947744Y-68680056D01*
X74677286Y-68813431D01*
X74677279Y-68813435D01*
X74426540Y-68980973D01*
X74199810Y-69179810D01*
X74000973Y-69406540D01*
X73833435Y-69657279D01*
X73833431Y-69657286D01*
X73700062Y-69927731D01*
X73700053Y-69927752D01*
X73603122Y-70213301D01*
X73603118Y-70213316D01*
X73544288Y-70509069D01*
X73544287Y-70509079D01*
X73544287Y-70509080D01*
X73524564Y-70810000D01*
X73540619Y-71054963D01*
X73544287Y-71110918D01*
X73544288Y-71110930D01*
X73603118Y-71406683D01*
X73603122Y-71406698D01*
X73700053Y-71692247D01*
X73700062Y-71692268D01*
X73833430Y-71962711D01*
X73833432Y-71962714D01*
X73833434Y-71962718D01*
X73898435Y-72059999D01*
X74002578Y-72215861D01*
X74023455Y-72282538D01*
X74004970Y-72349918D01*
X73956299Y-72394965D01*
X73948739Y-72398862D01*
X73779785Y-72531729D01*
X73779782Y-72531733D01*
X73639021Y-72694178D01*
X73531553Y-72880319D01*
X73461251Y-73083442D01*
X73461250Y-73083444D01*
X73430661Y-73296200D01*
X73430660Y-73296202D01*
X73440887Y-73510901D01*
X73466519Y-73616557D01*
X73491563Y-73719790D01*
X73580854Y-73915310D01*
X73705534Y-74090399D01*
X73705535Y-74090400D01*
X73705540Y-74090406D01*
X73861094Y-74238725D01*
X73861096Y-74238726D01*
X73861097Y-74238727D01*
X74041920Y-74354935D01*
X74241468Y-74434822D01*
X74346997Y-74455161D01*
X74452527Y-74475500D01*
X74452528Y-74475500D01*
X74613612Y-74475500D01*
X74613618Y-74475500D01*
X74773971Y-74460188D01*
X74980209Y-74399631D01*
X75171259Y-74301138D01*
X75340217Y-74168268D01*
X75480976Y-74005824D01*
X75588448Y-73819677D01*
X75658750Y-73616554D01*
X75689339Y-73403797D01*
X75681727Y-73243999D01*
X75698200Y-73176101D01*
X75748767Y-73127885D01*
X75813700Y-73114367D01*
X75830000Y-73115436D01*
X76130920Y-73095713D01*
X76426691Y-73036880D01*
X76712252Y-72939945D01*
X76982718Y-72806566D01*
X77233461Y-72639025D01*
X77275063Y-72602540D01*
X77338446Y-72573136D01*
X77407662Y-72582668D01*
X77460738Y-72628107D01*
X77480822Y-72695028D01*
X77475257Y-72732505D01*
X77445907Y-72827118D01*
X77410525Y-73036880D01*
X77395791Y-73124230D01*
X77389980Y-73298057D01*
X77385723Y-73425373D01*
X77415881Y-73725160D01*
X77415882Y-73725162D01*
X77485728Y-74018252D01*
X77485733Y-74018266D01*
X77594020Y-74299427D01*
X77594024Y-74299436D01*
X77738825Y-74563665D01*
X77738829Y-74563671D01*
X77917551Y-74806234D01*
X77917554Y-74806238D01*
X78127020Y-75022824D01*
X78187841Y-75070854D01*
X78363478Y-75209553D01*
X78363480Y-75209554D01*
X78363485Y-75209558D01*
X78622730Y-75363109D01*
X78900128Y-75480736D01*
X79190729Y-75560340D01*
X79489347Y-75600500D01*
X79489351Y-75600500D01*
X79715252Y-75600500D01*
X79879164Y-75589526D01*
X79940634Y-75585412D01*
X80235903Y-75525396D01*
X80520537Y-75426560D01*
X80789459Y-75290668D01*
X81037869Y-75120144D01*
X81261333Y-74918032D01*
X81455865Y-74687939D01*
X81617993Y-74433970D01*
X81744823Y-74160658D01*
X81834093Y-73872879D01*
X81884209Y-73575770D01*
X81894277Y-73274631D01*
X81864118Y-72974838D01*
X81794269Y-72681739D01*
X81685977Y-72400566D01*
X81541175Y-72136335D01*
X81475954Y-72047817D01*
X81362448Y-71893765D01*
X81362446Y-71893762D01*
X81152980Y-71677176D01*
X81044792Y-71591741D01*
X80916521Y-71490446D01*
X80916517Y-71490443D01*
X80916515Y-71490442D01*
X80657270Y-71336891D01*
X80379872Y-71219264D01*
X80379863Y-71219261D01*
X80089272Y-71139660D01*
X80014616Y-71129620D01*
X79790653Y-71099500D01*
X79564756Y-71099500D01*
X79564748Y-71099500D01*
X79339368Y-71114587D01*
X79339359Y-71114589D01*
X79044094Y-71174604D01*
X78759464Y-71273439D01*
X78759459Y-71273441D01*
X78490546Y-71409328D01*
X78364919Y-71495567D01*
X78242131Y-71579856D01*
X78242128Y-71579858D01*
X78242123Y-71579862D01*
X78238865Y-71582435D01*
X78237836Y-71581131D01*
X78181092Y-71608514D01*
X78111738Y-71600039D01*
X78057976Y-71555413D01*
X78036875Y-71488806D01*
X78043428Y-71446319D01*
X78056880Y-71406691D01*
X78115713Y-71110920D01*
X78135436Y-70810000D01*
X78115713Y-70509080D01*
X78113286Y-70496881D01*
X78094005Y-70399946D01*
X78056880Y-70213309D01*
X77959945Y-69927748D01*
X77955386Y-69918504D01*
X77826568Y-69657286D01*
X77826564Y-69657279D01*
X77659026Y-69406540D01*
X77460189Y-69179810D01*
X77233459Y-68980973D01*
X76982720Y-68813435D01*
X76982713Y-68813431D01*
X76712255Y-68680056D01*
X76514641Y-68612974D01*
X76457487Y-68572785D01*
X76431134Y-68508076D01*
X76430500Y-68495555D01*
X76430500Y-63825001D01*
X87159390Y-63825001D01*
X87179804Y-64110433D01*
X87240628Y-64390037D01*
X87240630Y-64390043D01*
X87240631Y-64390046D01*
X87334474Y-64641647D01*
X87340635Y-64658166D01*
X87477770Y-64909309D01*
X87477775Y-64909317D01*
X87649254Y-65138387D01*
X87649270Y-65138405D01*
X87851594Y-65340729D01*
X87851612Y-65340745D01*
X88080682Y-65512224D01*
X88080690Y-65512229D01*
X88331833Y-65649364D01*
X88331832Y-65649364D01*
X88331836Y-65649365D01*
X88331839Y-65649367D01*
X88599954Y-65749369D01*
X88599960Y-65749370D01*
X88599962Y-65749371D01*
X88879566Y-65810195D01*
X88879568Y-65810195D01*
X88879572Y-65810196D01*
X89093552Y-65825500D01*
X89236448Y-65825500D01*
X89450428Y-65810196D01*
X89730046Y-65749369D01*
X89998161Y-65649367D01*
X90249315Y-65512226D01*
X90478395Y-65340739D01*
X90680739Y-65138395D01*
X90852226Y-64909315D01*
X90989367Y-64658161D01*
X91089369Y-64390046D01*
X91090037Y-64386974D01*
X91150195Y-64110433D01*
X91150195Y-64110432D01*
X91150196Y-64110428D01*
X91170610Y-63825000D01*
X91150196Y-63539572D01*
X91116611Y-63385185D01*
X91089371Y-63259962D01*
X91089370Y-63259960D01*
X91089369Y-63259954D01*
X90989367Y-62991839D01*
X90852226Y-62740685D01*
X90852224Y-62740682D01*
X90680745Y-62511612D01*
X90680729Y-62511594D01*
X90478405Y-62309270D01*
X90478387Y-62309254D01*
X90249317Y-62137775D01*
X90249309Y-62137770D01*
X89998166Y-62000635D01*
X89998167Y-62000635D01*
X89887335Y-61959297D01*
X89730046Y-61900631D01*
X89730043Y-61900630D01*
X89730037Y-61900628D01*
X89450433Y-61839804D01*
X89236450Y-61824500D01*
X89236448Y-61824500D01*
X89093552Y-61824500D01*
X89093549Y-61824500D01*
X88879566Y-61839804D01*
X88599962Y-61900628D01*
X88331833Y-62000635D01*
X88080690Y-62137770D01*
X88080682Y-62137775D01*
X87851612Y-62309254D01*
X87851594Y-62309270D01*
X87649270Y-62511594D01*
X87649254Y-62511612D01*
X87477775Y-62740682D01*
X87477770Y-62740690D01*
X87340635Y-62991833D01*
X87240628Y-63259962D01*
X87179804Y-63539566D01*
X87159390Y-63824998D01*
X87159390Y-63825001D01*
X76430500Y-63825001D01*
X76430500Y-54074443D01*
X76450185Y-54007404D01*
X76502989Y-53961649D01*
X76514631Y-53957028D01*
X76712252Y-53889945D01*
X76982718Y-53756566D01*
X77233461Y-53589025D01*
X77275063Y-53552540D01*
X77338446Y-53523136D01*
X77407662Y-53532668D01*
X77460738Y-53578107D01*
X77480822Y-53645028D01*
X77475257Y-53682505D01*
X77445907Y-53777118D01*
X77425296Y-53899309D01*
X77395791Y-54074230D01*
X77390042Y-54246202D01*
X77385723Y-54375373D01*
X77415881Y-54675160D01*
X77415882Y-54675162D01*
X77485728Y-54968252D01*
X77485733Y-54968266D01*
X77594020Y-55249427D01*
X77594024Y-55249436D01*
X77738825Y-55513665D01*
X77738829Y-55513671D01*
X77884250Y-55711038D01*
X77917554Y-55756238D01*
X77917561Y-55756245D01*
X78127019Y-55972823D01*
X78363478Y-56159553D01*
X78363480Y-56159554D01*
X78363485Y-56159558D01*
X78622730Y-56313109D01*
X78900128Y-56430736D01*
X79190729Y-56510340D01*
X79489347Y-56550500D01*
X79489351Y-56550500D01*
X79715252Y-56550500D01*
X79879163Y-56539526D01*
X79940634Y-56535412D01*
X80235903Y-56475396D01*
X80520537Y-56376560D01*
X80789459Y-56240668D01*
X81037869Y-56070144D01*
X81261333Y-55868032D01*
X81455865Y-55637939D01*
X81617993Y-55383970D01*
X81744823Y-55110658D01*
X81834093Y-54822879D01*
X81884209Y-54525770D01*
X81894277Y-54224631D01*
X81864118Y-53924838D01*
X81796630Y-53641647D01*
X81794271Y-53631747D01*
X81794270Y-53631746D01*
X81794269Y-53631739D01*
X81685977Y-53350566D01*
X81541175Y-53086335D01*
X81521101Y-53059091D01*
X81432370Y-52938664D01*
X81362446Y-52843762D01*
X81152980Y-52627176D01*
X81141711Y-52618277D01*
X80916521Y-52440446D01*
X80916517Y-52440443D01*
X80916515Y-52440442D01*
X80657270Y-52286891D01*
X80379872Y-52169264D01*
X80379863Y-52169261D01*
X80089272Y-52089660D01*
X79964559Y-52072888D01*
X79790653Y-52049500D01*
X79564756Y-52049500D01*
X79564748Y-52049500D01*
X79339368Y-52064587D01*
X79339359Y-52064589D01*
X79044094Y-52124604D01*
X78759464Y-52223439D01*
X78759459Y-52223441D01*
X78490546Y-52359328D01*
X78359479Y-52449301D01*
X78242131Y-52529856D01*
X78242128Y-52529858D01*
X78242123Y-52529862D01*
X78238865Y-52532435D01*
X78237836Y-52531131D01*
X78181092Y-52558514D01*
X78111738Y-52550039D01*
X78057976Y-52505413D01*
X78036875Y-52438806D01*
X78043428Y-52396319D01*
X78056880Y-52356691D01*
X78115713Y-52060920D01*
X78135436Y-51760000D01*
X78115713Y-51459080D01*
X78113286Y-51446881D01*
X78094005Y-51349946D01*
X78056880Y-51163309D01*
X77959945Y-50877748D01*
X77955031Y-50867784D01*
X77826568Y-50607286D01*
X77826564Y-50607279D01*
X77659026Y-50356540D01*
X77460189Y-50129810D01*
X77233459Y-49930973D01*
X76982720Y-49763435D01*
X76982713Y-49763431D01*
X76712255Y-49630056D01*
X76514641Y-49562974D01*
X76457487Y-49522785D01*
X76431134Y-49458076D01*
X76430500Y-49445555D01*
X76430500Y-44374499D01*
X76450185Y-44307460D01*
X76502989Y-44261705D01*
X76554500Y-44250499D01*
X78187871Y-44250499D01*
X78187872Y-44250499D01*
X78247483Y-44244091D01*
X78382331Y-44193796D01*
X78497546Y-44107546D01*
X78583796Y-43992331D01*
X78583796Y-43992329D01*
X78585461Y-43990106D01*
X78641395Y-43948235D01*
X78711087Y-43943251D01*
X78760890Y-43966564D01*
X78816762Y-44010051D01*
X78816771Y-44010057D01*
X79035385Y-44128364D01*
X79035396Y-44128369D01*
X79270506Y-44209083D01*
X79515707Y-44250000D01*
X79764293Y-44250000D01*
X80009493Y-44209083D01*
X80244603Y-44128369D01*
X80244614Y-44128364D01*
X80463228Y-44010057D01*
X80463231Y-44010055D01*
X80510056Y-43973609D01*
X79772533Y-43236086D01*
X79782315Y-43234680D01*
X79913100Y-43174952D01*
X80021761Y-43080798D01*
X80099493Y-42959844D01*
X80123076Y-42879524D01*
X80872625Y-43629073D01*
X80906111Y-43635244D01*
X80947122Y-43671949D01*
X80948683Y-43670735D01*
X80951830Y-43674779D01*
X80989722Y-43715940D01*
X81120256Y-43857738D01*
X81316491Y-44010474D01*
X81316493Y-44010475D01*
X81534332Y-44128364D01*
X81535190Y-44128828D01*
X81724426Y-44193793D01*
X81768964Y-44209083D01*
X81770386Y-44209571D01*
X82015665Y-44250500D01*
X82264335Y-44250500D01*
X82509614Y-44209571D01*
X82744810Y-44128828D01*
X82963509Y-44010474D01*
X83159744Y-43857738D01*
X83328164Y-43674785D01*
X83464173Y-43466607D01*
X83564063Y-43238881D01*
X83625108Y-42997821D01*
X83631786Y-42917235D01*
X83645643Y-42750005D01*
X83645643Y-42749994D01*
X83625109Y-42502187D01*
X83625108Y-42502183D01*
X83625108Y-42502179D01*
X83613319Y-42455627D01*
X83563992Y-42260839D01*
X83566616Y-42191018D01*
X83596514Y-42142719D01*
X85677415Y-40061819D01*
X85738739Y-40028334D01*
X85765097Y-40025500D01*
X97765903Y-40025500D01*
X97832942Y-40045185D01*
X97878697Y-40097989D01*
X97888641Y-40167147D01*
X97859616Y-40230703D01*
X97853584Y-40237181D01*
X96877582Y-41213181D01*
X96816259Y-41246666D01*
X96789901Y-41249500D01*
X95142129Y-41249500D01*
X95142123Y-41249501D01*
X95082516Y-41255908D01*
X94947671Y-41306202D01*
X94947664Y-41306206D01*
X94832455Y-41392452D01*
X94832452Y-41392455D01*
X94746206Y-41507664D01*
X94746202Y-41507671D01*
X94695908Y-41642517D01*
X94689501Y-41702116D01*
X94689500Y-41702135D01*
X94689500Y-43797870D01*
X94689501Y-43797876D01*
X94695908Y-43857483D01*
X94746202Y-43992328D01*
X94746206Y-43992335D01*
X94832452Y-44107544D01*
X94832455Y-44107547D01*
X94947664Y-44193793D01*
X94947671Y-44193797D01*
X95082517Y-44244091D01*
X95082516Y-44244091D01*
X95089444Y-44244835D01*
X95142127Y-44250500D01*
X97237872Y-44250499D01*
X97297483Y-44244091D01*
X97432331Y-44193796D01*
X97547546Y-44107546D01*
X97633796Y-43992331D01*
X97633796Y-43992329D01*
X97635461Y-43990106D01*
X97691395Y-43948235D01*
X97761087Y-43943251D01*
X97810890Y-43966564D01*
X97866762Y-44010051D01*
X97866771Y-44010057D01*
X98085385Y-44128364D01*
X98085396Y-44128369D01*
X98320506Y-44209083D01*
X98565707Y-44250000D01*
X98814293Y-44250000D01*
X99059493Y-44209083D01*
X99294603Y-44128369D01*
X99294614Y-44128364D01*
X99513228Y-44010057D01*
X99513231Y-44010055D01*
X99560056Y-43973609D01*
X98822533Y-43236086D01*
X98832315Y-43234680D01*
X98963100Y-43174952D01*
X99071761Y-43080798D01*
X99149493Y-42959844D01*
X99173076Y-42879524D01*
X99922625Y-43629073D01*
X99956111Y-43635244D01*
X99997122Y-43671949D01*
X99998683Y-43670735D01*
X100001830Y-43674779D01*
X100039722Y-43715940D01*
X100170256Y-43857738D01*
X100366491Y-44010474D01*
X100366493Y-44010475D01*
X100584332Y-44128364D01*
X100585190Y-44128828D01*
X100774426Y-44193793D01*
X100818964Y-44209083D01*
X100820386Y-44209571D01*
X101065665Y-44250500D01*
X101314335Y-44250500D01*
X101559614Y-44209571D01*
X101794810Y-44128828D01*
X102013509Y-44010474D01*
X102209744Y-43857738D01*
X102378164Y-43674785D01*
X102514173Y-43466607D01*
X102614063Y-43238881D01*
X102675108Y-42997821D01*
X102681786Y-42917235D01*
X102695643Y-42750005D01*
X102695643Y-42749994D01*
X102675109Y-42502187D01*
X102675108Y-42502183D01*
X102675108Y-42502179D01*
X102663319Y-42455627D01*
X102613992Y-42260839D01*
X102616616Y-42191018D01*
X102646514Y-42142719D01*
X103927415Y-40861819D01*
X103988739Y-40828334D01*
X104015097Y-40825500D01*
X116015903Y-40825500D01*
X116082942Y-40845185D01*
X116128697Y-40897989D01*
X116138641Y-40967147D01*
X116109616Y-41030703D01*
X116103590Y-41037173D01*
X116015264Y-41125500D01*
X115927583Y-41213181D01*
X115866260Y-41246666D01*
X115839902Y-41249500D01*
X114192129Y-41249500D01*
X114192123Y-41249501D01*
X114132516Y-41255908D01*
X113997671Y-41306202D01*
X113997664Y-41306206D01*
X113882455Y-41392452D01*
X113882452Y-41392455D01*
X113796206Y-41507664D01*
X113796202Y-41507671D01*
X113745908Y-41642517D01*
X113739501Y-41702116D01*
X113739500Y-41702135D01*
X113739500Y-43797870D01*
X113739501Y-43797876D01*
X113745908Y-43857483D01*
X113796202Y-43992328D01*
X113796206Y-43992335D01*
X113882452Y-44107544D01*
X113882455Y-44107547D01*
X113997664Y-44193793D01*
X113997671Y-44193797D01*
X114132517Y-44244091D01*
X114132516Y-44244091D01*
X114139444Y-44244835D01*
X114192127Y-44250500D01*
X116287872Y-44250499D01*
X116347483Y-44244091D01*
X116482331Y-44193796D01*
X116597546Y-44107546D01*
X116683796Y-43992331D01*
X116683796Y-43992329D01*
X116685461Y-43990106D01*
X116741395Y-43948235D01*
X116811087Y-43943251D01*
X116860890Y-43966564D01*
X116916762Y-44010051D01*
X116916771Y-44010057D01*
X117135385Y-44128364D01*
X117135396Y-44128369D01*
X117370506Y-44209083D01*
X117615707Y-44250000D01*
X117864293Y-44250000D01*
X118109493Y-44209083D01*
X118344603Y-44128369D01*
X118344614Y-44128364D01*
X118563228Y-44010057D01*
X118563231Y-44010055D01*
X118610056Y-43973609D01*
X117872533Y-43236086D01*
X117882315Y-43234680D01*
X118013100Y-43174952D01*
X118121761Y-43080798D01*
X118199493Y-42959844D01*
X118223076Y-42879524D01*
X118972625Y-43629073D01*
X119006111Y-43635244D01*
X119047122Y-43671949D01*
X119048683Y-43670735D01*
X119051830Y-43674779D01*
X119089722Y-43715940D01*
X119220256Y-43857738D01*
X119416491Y-44010474D01*
X119416493Y-44010475D01*
X119634332Y-44128364D01*
X119635190Y-44128828D01*
X119824426Y-44193793D01*
X119868964Y-44209083D01*
X119870386Y-44209571D01*
X120115665Y-44250500D01*
X120364335Y-44250500D01*
X120609614Y-44209571D01*
X120844810Y-44128828D01*
X121063509Y-44010474D01*
X121259744Y-43857738D01*
X121428164Y-43674785D01*
X121564173Y-43466607D01*
X121664063Y-43238881D01*
X121725108Y-42997821D01*
X121731786Y-42917235D01*
X121745643Y-42750005D01*
X121745643Y-42749994D01*
X121725109Y-42502187D01*
X121725108Y-42502183D01*
X121725108Y-42502179D01*
X121713319Y-42455627D01*
X121663992Y-42260839D01*
X121666616Y-42191018D01*
X121696514Y-42142719D01*
X122177415Y-41661819D01*
X122238739Y-41628334D01*
X122265097Y-41625500D01*
X132665500Y-41625500D01*
X132732539Y-41645185D01*
X132778294Y-41697989D01*
X132789500Y-41749500D01*
X132789500Y-43797870D01*
X132789501Y-43797876D01*
X132795908Y-43857483D01*
X132846203Y-43992330D01*
X132848246Y-43996071D01*
X132849152Y-44000237D01*
X132849303Y-44000641D01*
X132849244Y-44000662D01*
X132863099Y-44064343D01*
X132838684Y-44129808D01*
X132782751Y-44171681D01*
X132739415Y-44179500D01*
X130963428Y-44179500D01*
X130955329Y-44178969D01*
X130920000Y-44174318D01*
X130880639Y-44179500D01*
X130763239Y-44194955D01*
X130763237Y-44194956D01*
X130617157Y-44255464D01*
X130491719Y-44351716D01*
X130470019Y-44379994D01*
X130464668Y-44386096D01*
X129398643Y-45452120D01*
X129337320Y-45485605D01*
X129267628Y-45480621D01*
X129211695Y-45438749D01*
X129187278Y-45373285D01*
X129189795Y-45338084D01*
X129250196Y-45060428D01*
X129270610Y-44775000D01*
X129269712Y-44762451D01*
X129259012Y-44612839D01*
X129250196Y-44489572D01*
X129240883Y-44446762D01*
X129189371Y-44209962D01*
X129189370Y-44209960D01*
X129189369Y-44209954D01*
X129089367Y-43941839D01*
X129087510Y-43938439D01*
X128952229Y-43690690D01*
X128952224Y-43690682D01*
X128780745Y-43461612D01*
X128780729Y-43461594D01*
X128578405Y-43259270D01*
X128578387Y-43259254D01*
X128349317Y-43087775D01*
X128349309Y-43087770D01*
X128098166Y-42950635D01*
X128098167Y-42950635D01*
X127902848Y-42877785D01*
X127830046Y-42850631D01*
X127830043Y-42850630D01*
X127830037Y-42850628D01*
X127550433Y-42789804D01*
X127336450Y-42774500D01*
X127336448Y-42774500D01*
X127193552Y-42774500D01*
X127193549Y-42774500D01*
X126979566Y-42789804D01*
X126699962Y-42850628D01*
X126431833Y-42950635D01*
X126180690Y-43087770D01*
X126180682Y-43087775D01*
X125951612Y-43259254D01*
X125951594Y-43259270D01*
X125749270Y-43461594D01*
X125749254Y-43461612D01*
X125577775Y-43690682D01*
X125577770Y-43690690D01*
X125440635Y-43941833D01*
X125340628Y-44209962D01*
X125279804Y-44489566D01*
X125259390Y-44774998D01*
X125259390Y-44775001D01*
X125279804Y-45060433D01*
X125336790Y-45322391D01*
X125340631Y-45340046D01*
X125353029Y-45373285D01*
X125392069Y-45477957D01*
X125397053Y-45547649D01*
X125363568Y-45608972D01*
X125302245Y-45642456D01*
X125232553Y-45637472D01*
X125188206Y-45608971D01*
X123736777Y-44157542D01*
X123703292Y-44096219D01*
X123708276Y-44026527D01*
X123732307Y-43986891D01*
X123772533Y-43942216D01*
X123867179Y-43778284D01*
X123925674Y-43598256D01*
X123945460Y-43410000D01*
X123925674Y-43221744D01*
X123867179Y-43041716D01*
X123772533Y-42877784D01*
X123645871Y-42737112D01*
X123603966Y-42706666D01*
X123492734Y-42625851D01*
X123492729Y-42625848D01*
X123319807Y-42548857D01*
X123319802Y-42548855D01*
X123174001Y-42517865D01*
X123134646Y-42509500D01*
X122945354Y-42509500D01*
X122912897Y-42516398D01*
X122760197Y-42548855D01*
X122760192Y-42548857D01*
X122587270Y-42625848D01*
X122587265Y-42625851D01*
X122434129Y-42737111D01*
X122307466Y-42877785D01*
X122212821Y-43041715D01*
X122212818Y-43041722D01*
X122154327Y-43221740D01*
X122154326Y-43221744D01*
X122134540Y-43410000D01*
X122154326Y-43598256D01*
X122154327Y-43598259D01*
X122212818Y-43778277D01*
X122212821Y-43778284D01*
X122307467Y-43942216D01*
X122383381Y-44026527D01*
X122407649Y-44053479D01*
X122437879Y-44116470D01*
X122439499Y-44136451D01*
X122439499Y-44266567D01*
X122438968Y-44274666D01*
X122436950Y-44290000D01*
X122434318Y-44310000D01*
X122439499Y-44349360D01*
X122445585Y-44395597D01*
X122445591Y-44395630D01*
X122450026Y-44429313D01*
X122439261Y-44498348D01*
X122392882Y-44550605D01*
X122327087Y-44569500D01*
X105190097Y-44569500D01*
X105123058Y-44549815D01*
X105102416Y-44533181D01*
X104716253Y-44147018D01*
X104682768Y-44085695D01*
X104687752Y-44016003D01*
X104711781Y-43976369D01*
X104742533Y-43942216D01*
X104837179Y-43778284D01*
X104895674Y-43598256D01*
X104915460Y-43410000D01*
X104895674Y-43221744D01*
X104837179Y-43041716D01*
X104742533Y-42877784D01*
X104615871Y-42737112D01*
X104573966Y-42706666D01*
X104462734Y-42625851D01*
X104462729Y-42625848D01*
X104289807Y-42548857D01*
X104289802Y-42548855D01*
X104144000Y-42517865D01*
X104104646Y-42509500D01*
X103915354Y-42509500D01*
X103882897Y-42516398D01*
X103730197Y-42548855D01*
X103730192Y-42548857D01*
X103557270Y-42625848D01*
X103557265Y-42625851D01*
X103404129Y-42737111D01*
X103277466Y-42877785D01*
X103182821Y-43041715D01*
X103182818Y-43041722D01*
X103124327Y-43221740D01*
X103124326Y-43221744D01*
X103104540Y-43410000D01*
X103124326Y-43598256D01*
X103124327Y-43598259D01*
X103182818Y-43778277D01*
X103182821Y-43778284D01*
X103277467Y-43942216D01*
X103353381Y-44026527D01*
X103377650Y-44053480D01*
X103407880Y-44116471D01*
X103409500Y-44136452D01*
X103409500Y-44246571D01*
X103408969Y-44254669D01*
X103406867Y-44270638D01*
X103404318Y-44289999D01*
X103404318Y-44290000D01*
X103409500Y-44329360D01*
X103424955Y-44446760D01*
X103424956Y-44446762D01*
X103442688Y-44489572D01*
X103485464Y-44592841D01*
X103581718Y-44718282D01*
X103609995Y-44739980D01*
X103616085Y-44745320D01*
X103628583Y-44757819D01*
X103628584Y-44757819D01*
X103662069Y-44819142D01*
X103657085Y-44888834D01*
X103615213Y-44944767D01*
X103549749Y-44969184D01*
X103540903Y-44969500D01*
X92203428Y-44969500D01*
X92195329Y-44968969D01*
X92160000Y-44964318D01*
X92120639Y-44969500D01*
X92003239Y-44984955D01*
X92003237Y-44984956D01*
X91857157Y-45045464D01*
X91731719Y-45141716D01*
X91710019Y-45169994D01*
X91704668Y-45176096D01*
X91223947Y-45656816D01*
X91162624Y-45690301D01*
X91092932Y-45685317D01*
X91036999Y-45643445D01*
X91012582Y-45577981D01*
X91020082Y-45525808D01*
X91089369Y-45340046D01*
X91125661Y-45173216D01*
X91150195Y-45060433D01*
X91150195Y-45060431D01*
X91150196Y-45060428D01*
X91170610Y-44775000D01*
X91169712Y-44762451D01*
X91159012Y-44612839D01*
X91150196Y-44489572D01*
X91140883Y-44446762D01*
X91089371Y-44209962D01*
X91089370Y-44209960D01*
X91089369Y-44209954D01*
X90989367Y-43941839D01*
X90987510Y-43938439D01*
X90852229Y-43690690D01*
X90852224Y-43690682D01*
X90680745Y-43461612D01*
X90680729Y-43461594D01*
X90478405Y-43259270D01*
X90478387Y-43259254D01*
X90249317Y-43087775D01*
X90249309Y-43087770D01*
X89998166Y-42950635D01*
X89998167Y-42950635D01*
X89802848Y-42877785D01*
X89730046Y-42850631D01*
X89730043Y-42850630D01*
X89730037Y-42850628D01*
X89450433Y-42789804D01*
X89236450Y-42774500D01*
X89236448Y-42774500D01*
X89093552Y-42774500D01*
X89093549Y-42774500D01*
X88879566Y-42789804D01*
X88599962Y-42850628D01*
X88331833Y-42950635D01*
X88080690Y-43087770D01*
X88080682Y-43087775D01*
X87851612Y-43259254D01*
X87851594Y-43259270D01*
X87649270Y-43461594D01*
X87649254Y-43461612D01*
X87477775Y-43690682D01*
X87477770Y-43690690D01*
X87340635Y-43941833D01*
X87240628Y-44209962D01*
X87179804Y-44489566D01*
X87159390Y-44774998D01*
X87159390Y-44775001D01*
X87179804Y-45060433D01*
X87236790Y-45322391D01*
X87240631Y-45340046D01*
X87282433Y-45452120D01*
X87286121Y-45462009D01*
X87291105Y-45531700D01*
X87257620Y-45593023D01*
X87196297Y-45626508D01*
X87126605Y-45621524D01*
X87082258Y-45593023D01*
X85646777Y-44157542D01*
X85613292Y-44096219D01*
X85618276Y-44026527D01*
X85642307Y-43986891D01*
X85682533Y-43942216D01*
X85777179Y-43778284D01*
X85835674Y-43598256D01*
X85855460Y-43410000D01*
X85835674Y-43221744D01*
X85777179Y-43041716D01*
X85682533Y-42877784D01*
X85555871Y-42737112D01*
X85513966Y-42706666D01*
X85402734Y-42625851D01*
X85402729Y-42625848D01*
X85229807Y-42548857D01*
X85229802Y-42548855D01*
X85084000Y-42517865D01*
X85044646Y-42509500D01*
X84855354Y-42509500D01*
X84822897Y-42516398D01*
X84670197Y-42548855D01*
X84670192Y-42548857D01*
X84497270Y-42625848D01*
X84497265Y-42625851D01*
X84344129Y-42737111D01*
X84217466Y-42877785D01*
X84122821Y-43041715D01*
X84122818Y-43041722D01*
X84064327Y-43221740D01*
X84064326Y-43221744D01*
X84044540Y-43410000D01*
X84064326Y-43598256D01*
X84064327Y-43598259D01*
X84122818Y-43778277D01*
X84122821Y-43778284D01*
X84217467Y-43942216D01*
X84293381Y-44026527D01*
X84317650Y-44053480D01*
X84347880Y-44116471D01*
X84349500Y-44136452D01*
X84349500Y-44266571D01*
X84348969Y-44274673D01*
X84344318Y-44309999D01*
X84344318Y-44310000D01*
X84349500Y-44349360D01*
X84364955Y-44466760D01*
X84364956Y-44466762D01*
X84415811Y-44589538D01*
X84425464Y-44612841D01*
X84521718Y-44738282D01*
X84549995Y-44759980D01*
X84556085Y-44765320D01*
X85879160Y-46088395D01*
X87059669Y-47268904D01*
X87065020Y-47275005D01*
X87086718Y-47303282D01*
X87201002Y-47390975D01*
X87212159Y-47399536D01*
X87358238Y-47460044D01*
X87436618Y-47470363D01*
X87514999Y-47480682D01*
X87515000Y-47480682D01*
X87550329Y-47476030D01*
X87558428Y-47475500D01*
X90811572Y-47475500D01*
X90819670Y-47476030D01*
X90855000Y-47480682D01*
X90855001Y-47480682D01*
X90907254Y-47473802D01*
X91011762Y-47460044D01*
X91157841Y-47399536D01*
X91168998Y-47390975D01*
X91283282Y-47303282D01*
X91304984Y-47274998D01*
X91310310Y-47268923D01*
X92372415Y-46206819D01*
X92433739Y-46173334D01*
X92460097Y-46170500D01*
X122868533Y-46170500D01*
X122935572Y-46190185D01*
X122956214Y-46206819D01*
X124843299Y-48093904D01*
X124848650Y-48100005D01*
X124870348Y-48128282D01*
X124985006Y-48216262D01*
X124995789Y-48224536D01*
X125141868Y-48285044D01*
X125198723Y-48292529D01*
X125298629Y-48305682D01*
X125298630Y-48305682D01*
X125333959Y-48301030D01*
X125342058Y-48300500D01*
X129087944Y-48300500D01*
X129096042Y-48301030D01*
X129131372Y-48305682D01*
X129131373Y-48305682D01*
X129183625Y-48298802D01*
X129288134Y-48285044D01*
X129434213Y-48224536D01*
X129444996Y-48216262D01*
X129559654Y-48128282D01*
X129581356Y-48099998D01*
X129586682Y-48093923D01*
X131463787Y-46216819D01*
X131525111Y-46183334D01*
X131551469Y-46180500D01*
X142223345Y-46180500D01*
X142290384Y-46200185D01*
X142311026Y-46216819D01*
X144863181Y-48768973D01*
X144896666Y-48830296D01*
X144899500Y-48856654D01*
X144899500Y-50392041D01*
X144879815Y-50459080D01*
X144827011Y-50504835D01*
X144757853Y-50514779D01*
X144749726Y-50513333D01*
X144684646Y-50499500D01*
X144495354Y-50499500D01*
X144470255Y-50504835D01*
X144310197Y-50538855D01*
X144310192Y-50538857D01*
X144137270Y-50615848D01*
X144137265Y-50615851D01*
X143984129Y-50727111D01*
X143857466Y-50867785D01*
X143762821Y-51031715D01*
X143762818Y-51031722D01*
X143707786Y-51201094D01*
X143704326Y-51211744D01*
X143684540Y-51400000D01*
X143704326Y-51588256D01*
X143704327Y-51588259D01*
X143762818Y-51768277D01*
X143762821Y-51768284D01*
X143857467Y-51932216D01*
X143957650Y-52043480D01*
X143987880Y-52106471D01*
X143989500Y-52126452D01*
X143989500Y-59303547D01*
X143969815Y-59370586D01*
X143957650Y-59386519D01*
X143857466Y-59497785D01*
X143762821Y-59661715D01*
X143762817Y-59661725D01*
X143750934Y-59698296D01*
X143711496Y-59755971D01*
X143647137Y-59783168D01*
X143578291Y-59771253D01*
X143545323Y-59747657D01*
X141529970Y-57732304D01*
X141496485Y-57670981D01*
X141493651Y-57644623D01*
X141493651Y-57140326D01*
X141494182Y-57132225D01*
X141498833Y-57096899D01*
X141498833Y-57096897D01*
X141478195Y-56940138D01*
X141478195Y-56940137D01*
X141417687Y-56794058D01*
X141366277Y-56727059D01*
X141321433Y-56668617D01*
X141293156Y-56646919D01*
X141287055Y-56641568D01*
X140666819Y-56021332D01*
X140633334Y-55960009D01*
X140630500Y-55933651D01*
X140630500Y-54865233D01*
X140650185Y-54798194D01*
X140702989Y-54752439D01*
X140772147Y-54742495D01*
X140835703Y-54771520D01*
X140867293Y-54813720D01*
X140890854Y-54865310D01*
X140971953Y-54979198D01*
X141015535Y-55040400D01*
X141015540Y-55040406D01*
X141171094Y-55188725D01*
X141171096Y-55188726D01*
X141171097Y-55188727D01*
X141351920Y-55304935D01*
X141551468Y-55384822D01*
X141656997Y-55405160D01*
X141762527Y-55425500D01*
X141762528Y-55425500D01*
X141923612Y-55425500D01*
X141923618Y-55425500D01*
X142083971Y-55410188D01*
X142290209Y-55349631D01*
X142481259Y-55251138D01*
X142650217Y-55118268D01*
X142790976Y-54955824D01*
X142813686Y-54916490D01*
X142867732Y-54822879D01*
X142898448Y-54769677D01*
X142968750Y-54566554D01*
X142999339Y-54353797D01*
X142989112Y-54139096D01*
X142938437Y-53930210D01*
X142849146Y-53734690D01*
X142724466Y-53559601D01*
X142724464Y-53559599D01*
X142724459Y-53559593D01*
X142568905Y-53411274D01*
X142388080Y-53295065D01*
X142188530Y-53215177D01*
X141977473Y-53174500D01*
X141977472Y-53174500D01*
X141816382Y-53174500D01*
X141656029Y-53189812D01*
X141656025Y-53189813D01*
X141449793Y-53250368D01*
X141258736Y-53348864D01*
X141089785Y-53481729D01*
X141089782Y-53481733D01*
X140949021Y-53644178D01*
X140861887Y-53795100D01*
X140811320Y-53843316D01*
X140742713Y-53856539D01*
X140677848Y-53830570D01*
X140637320Y-53773656D01*
X140630500Y-53733100D01*
X140630500Y-52976452D01*
X140650185Y-52909413D01*
X140662350Y-52893480D01*
X140670433Y-52884503D01*
X140762533Y-52782216D01*
X140857179Y-52618284D01*
X140915674Y-52438256D01*
X140935460Y-52250000D01*
X140915674Y-52061744D01*
X140857179Y-51881716D01*
X140762533Y-51717784D01*
X140635871Y-51577112D01*
X140635870Y-51577111D01*
X140482734Y-51465851D01*
X140482732Y-51465850D01*
X140458619Y-51455114D01*
X140405382Y-51409863D01*
X140385062Y-51343013D01*
X140404108Y-51275790D01*
X140454212Y-51230623D01*
X140482718Y-51216566D01*
X140733461Y-51049025D01*
X140960189Y-50850189D01*
X141159025Y-50623461D01*
X141326566Y-50372718D01*
X141459945Y-50102252D01*
X141556880Y-49816691D01*
X141615713Y-49520920D01*
X141635436Y-49220000D01*
X141615713Y-48919080D01*
X141556880Y-48623309D01*
X141459945Y-48337748D01*
X141441838Y-48301031D01*
X141326568Y-48067286D01*
X141326564Y-48067279D01*
X141159026Y-47816540D01*
X140960189Y-47589810D01*
X140733459Y-47390973D01*
X140482720Y-47223435D01*
X140482713Y-47223431D01*
X140212268Y-47090062D01*
X140212247Y-47090053D01*
X139926698Y-46993122D01*
X139926692Y-46993120D01*
X139926691Y-46993120D01*
X139926689Y-46993119D01*
X139926683Y-46993118D01*
X139630930Y-46934288D01*
X139630921Y-46934287D01*
X139630920Y-46934287D01*
X139330000Y-46914564D01*
X139029080Y-46934287D01*
X139029079Y-46934287D01*
X139029069Y-46934288D01*
X138733316Y-46993118D01*
X138733301Y-46993122D01*
X138447752Y-47090053D01*
X138447731Y-47090062D01*
X138177286Y-47223431D01*
X138177279Y-47223435D01*
X137926540Y-47390973D01*
X137699810Y-47589810D01*
X137500973Y-47816540D01*
X137333435Y-48067279D01*
X137333431Y-48067286D01*
X137200062Y-48337731D01*
X137200053Y-48337752D01*
X137103122Y-48623301D01*
X137103118Y-48623316D01*
X137044288Y-48919069D01*
X137044287Y-48919081D01*
X137027809Y-49170497D01*
X137024564Y-49220000D01*
X137042260Y-49490001D01*
X137044287Y-49520918D01*
X137044288Y-49520930D01*
X137103118Y-49816683D01*
X137103122Y-49816698D01*
X137200053Y-50102247D01*
X137200062Y-50102268D01*
X137333431Y-50372713D01*
X137333435Y-50372720D01*
X137500973Y-50623459D01*
X137699810Y-50850189D01*
X137926540Y-51049026D01*
X138177279Y-51216564D01*
X138177286Y-51216568D01*
X138447731Y-51349937D01*
X138447734Y-51349938D01*
X138447748Y-51349945D01*
X138645359Y-51417025D01*
X138702513Y-51457213D01*
X138728866Y-51521922D01*
X138729500Y-51534443D01*
X138729500Y-52761765D01*
X138709815Y-52828804D01*
X138657011Y-52874559D01*
X138587853Y-52884503D01*
X138524297Y-52855478D01*
X138515499Y-52846575D01*
X138515328Y-52846742D01*
X138302980Y-52627176D01*
X138066521Y-52440446D01*
X138066517Y-52440443D01*
X138066515Y-52440442D01*
X137807270Y-52286891D01*
X137529872Y-52169264D01*
X137529863Y-52169261D01*
X137239272Y-52089660D01*
X137114559Y-52072888D01*
X136940653Y-52049500D01*
X136714756Y-52049500D01*
X136714748Y-52049500D01*
X136489368Y-52064587D01*
X136489359Y-52064589D01*
X136194094Y-52124604D01*
X135909464Y-52223439D01*
X135909459Y-52223441D01*
X135640546Y-52359328D01*
X135509479Y-52449301D01*
X135392131Y-52529856D01*
X135392128Y-52529858D01*
X135392123Y-52529862D01*
X135388865Y-52532435D01*
X135387836Y-52531131D01*
X135331092Y-52558514D01*
X135261738Y-52550039D01*
X135207976Y-52505413D01*
X135186875Y-52438806D01*
X135193428Y-52396319D01*
X135206880Y-52356691D01*
X135265713Y-52060920D01*
X135285436Y-51760000D01*
X135265713Y-51459080D01*
X135263286Y-51446881D01*
X135244005Y-51349946D01*
X135206880Y-51163309D01*
X135109945Y-50877748D01*
X135105031Y-50867784D01*
X134976568Y-50607286D01*
X134976564Y-50607279D01*
X134809026Y-50356540D01*
X134610189Y-50129810D01*
X134383459Y-49930973D01*
X134132720Y-49763435D01*
X134132713Y-49763431D01*
X133862268Y-49630062D01*
X133862247Y-49630053D01*
X133576698Y-49533122D01*
X133576692Y-49533120D01*
X133576691Y-49533120D01*
X133576689Y-49533119D01*
X133576683Y-49533118D01*
X133280930Y-49474288D01*
X133280921Y-49474287D01*
X133280920Y-49474287D01*
X132980000Y-49454564D01*
X132979999Y-49454564D01*
X132926416Y-49458076D01*
X132679080Y-49474287D01*
X132679079Y-49474287D01*
X132679069Y-49474288D01*
X132383316Y-49533118D01*
X132383301Y-49533122D01*
X132097752Y-49630053D01*
X132097731Y-49630062D01*
X131827286Y-49763431D01*
X131827279Y-49763435D01*
X131576540Y-49930973D01*
X131349810Y-50129810D01*
X131150973Y-50356540D01*
X130983435Y-50607279D01*
X130983431Y-50607286D01*
X130850062Y-50877731D01*
X130850053Y-50877752D01*
X130753122Y-51163301D01*
X130753118Y-51163316D01*
X130694288Y-51459069D01*
X130694287Y-51459079D01*
X130694287Y-51459080D01*
X130674564Y-51760000D01*
X130685851Y-51932216D01*
X130694287Y-52060918D01*
X130694288Y-52060930D01*
X130753118Y-52356683D01*
X130753122Y-52356698D01*
X130850053Y-52642247D01*
X130850062Y-52642268D01*
X130983430Y-52912711D01*
X130983432Y-52912714D01*
X130983434Y-52912718D01*
X131047629Y-53008793D01*
X131152578Y-53165861D01*
X131173455Y-53232538D01*
X131154970Y-53299918D01*
X131106299Y-53344965D01*
X131098739Y-53348862D01*
X130929785Y-53481729D01*
X130929782Y-53481733D01*
X130789021Y-53644178D01*
X130681553Y-53830319D01*
X130611251Y-54033442D01*
X130611250Y-54033444D01*
X130580661Y-54246200D01*
X130580660Y-54246202D01*
X130590887Y-54460901D01*
X130641563Y-54669791D01*
X130641565Y-54669795D01*
X130730818Y-54865233D01*
X130730854Y-54865310D01*
X130811953Y-54979198D01*
X130855535Y-55040400D01*
X130855540Y-55040406D01*
X131011094Y-55188725D01*
X131011096Y-55188726D01*
X131011097Y-55188727D01*
X131191920Y-55304935D01*
X131391468Y-55384822D01*
X131496997Y-55405160D01*
X131602527Y-55425500D01*
X131602528Y-55425500D01*
X131763612Y-55425500D01*
X131763618Y-55425500D01*
X131923971Y-55410188D01*
X132130209Y-55349631D01*
X132198679Y-55314332D01*
X132267287Y-55301108D01*
X132332152Y-55327076D01*
X132372680Y-55383990D01*
X132379500Y-55424547D01*
X132379500Y-58159896D01*
X132359815Y-58226935D01*
X132347650Y-58242868D01*
X132247466Y-58354134D01*
X132152821Y-58518064D01*
X132152818Y-58518071D01*
X132094327Y-58698089D01*
X132094326Y-58698093D01*
X132074540Y-58886349D01*
X132094326Y-59074605D01*
X132094327Y-59074608D01*
X132152818Y-59254626D01*
X132152821Y-59254633D01*
X132247467Y-59418565D01*
X132374129Y-59559236D01*
X132374129Y-59559237D01*
X132527265Y-59670497D01*
X132527270Y-59670500D01*
X132700192Y-59747491D01*
X132700197Y-59747493D01*
X132885354Y-59786849D01*
X132885355Y-59786849D01*
X133074644Y-59786849D01*
X133074646Y-59786849D01*
X133259803Y-59747493D01*
X133432730Y-59670500D01*
X133585871Y-59559237D01*
X133712533Y-59418565D01*
X133807179Y-59254633D01*
X133865674Y-59074605D01*
X133885460Y-58886349D01*
X133865674Y-58698093D01*
X133807179Y-58518065D01*
X133712533Y-58354133D01*
X133612348Y-58242867D01*
X133582119Y-58179877D01*
X133580500Y-58159908D01*
X133580500Y-54074442D01*
X133600185Y-54007404D01*
X133652989Y-53961649D01*
X133664631Y-53957028D01*
X133862252Y-53889945D01*
X134132718Y-53756566D01*
X134383461Y-53589025D01*
X134425063Y-53552540D01*
X134488446Y-53523136D01*
X134557662Y-53532668D01*
X134610738Y-53578107D01*
X134630822Y-53645028D01*
X134625257Y-53682505D01*
X134595907Y-53777118D01*
X134575296Y-53899309D01*
X134545791Y-54074230D01*
X134540042Y-54246202D01*
X134535723Y-54375373D01*
X134565881Y-54675160D01*
X134565882Y-54675162D01*
X134635728Y-54968252D01*
X134635733Y-54968266D01*
X134744020Y-55249427D01*
X134744024Y-55249436D01*
X134888825Y-55513665D01*
X134888829Y-55513671D01*
X135034250Y-55711038D01*
X135067554Y-55756238D01*
X135067561Y-55756245D01*
X135277019Y-55972823D01*
X135513478Y-56159553D01*
X135513480Y-56159554D01*
X135513485Y-56159558D01*
X135772730Y-56313109D01*
X136050128Y-56430736D01*
X136340729Y-56510340D01*
X136639347Y-56550500D01*
X136639351Y-56550500D01*
X136865252Y-56550500D01*
X137029164Y-56539526D01*
X137090634Y-56535412D01*
X137385903Y-56475396D01*
X137670537Y-56376560D01*
X137939459Y-56240668D01*
X138187869Y-56070144D01*
X138411333Y-55868032D01*
X138510808Y-55750371D01*
X138569122Y-55711887D01*
X138638986Y-55711038D01*
X138698219Y-55748095D01*
X138728014Y-55811294D01*
X138729500Y-55830431D01*
X138729500Y-57469513D01*
X138728969Y-57477611D01*
X138724318Y-57512942D01*
X138742842Y-57653645D01*
X138744956Y-57669704D01*
X138805464Y-57815783D01*
X138901718Y-57941224D01*
X138929995Y-57962922D01*
X138936085Y-57968262D01*
X140042428Y-59074605D01*
X140905642Y-59937819D01*
X140939127Y-59999142D01*
X140934143Y-60068834D01*
X140892271Y-60124767D01*
X140826807Y-60149184D01*
X140817961Y-60149500D01*
X132110097Y-60149500D01*
X132043058Y-60129815D01*
X132022416Y-60113181D01*
X122341176Y-50431941D01*
X122307691Y-50370618D01*
X122312675Y-50300926D01*
X122317639Y-50289428D01*
X122409945Y-50102252D01*
X122506880Y-49816691D01*
X122565713Y-49520920D01*
X122585436Y-49220000D01*
X122565713Y-48919080D01*
X122506880Y-48623309D01*
X122409945Y-48337748D01*
X122391838Y-48301031D01*
X122276568Y-48067286D01*
X122276564Y-48067279D01*
X122109026Y-47816540D01*
X121910189Y-47589810D01*
X121683459Y-47390973D01*
X121432720Y-47223435D01*
X121432713Y-47223431D01*
X121162268Y-47090062D01*
X121162247Y-47090053D01*
X120876698Y-46993122D01*
X120876692Y-46993120D01*
X120876691Y-46993120D01*
X120876689Y-46993119D01*
X120876683Y-46993118D01*
X120580930Y-46934288D01*
X120580921Y-46934287D01*
X120580920Y-46934287D01*
X120280000Y-46914564D01*
X119979080Y-46934287D01*
X119979079Y-46934287D01*
X119979069Y-46934288D01*
X119683316Y-46993118D01*
X119683301Y-46993122D01*
X119397752Y-47090053D01*
X119397731Y-47090062D01*
X119127286Y-47223431D01*
X119127279Y-47223435D01*
X118876540Y-47390973D01*
X118649810Y-47589810D01*
X118450973Y-47816540D01*
X118283435Y-48067279D01*
X118283431Y-48067286D01*
X118150062Y-48337731D01*
X118150053Y-48337752D01*
X118053122Y-48623301D01*
X118053118Y-48623316D01*
X117994288Y-48919069D01*
X117994287Y-48919081D01*
X117977809Y-49170497D01*
X117974564Y-49220000D01*
X117992260Y-49490001D01*
X117994287Y-49520918D01*
X117994288Y-49520930D01*
X118053118Y-49816683D01*
X118053122Y-49816698D01*
X118150053Y-50102247D01*
X118150062Y-50102268D01*
X118283431Y-50372713D01*
X118283435Y-50372720D01*
X118450973Y-50623459D01*
X118649810Y-50850189D01*
X118876540Y-51049026D01*
X119127279Y-51216564D01*
X119127286Y-51216568D01*
X119397731Y-51349937D01*
X119397736Y-51349939D01*
X119397748Y-51349945D01*
X119683309Y-51446880D01*
X119883251Y-51486651D01*
X119979069Y-51505711D01*
X119979070Y-51505711D01*
X119979080Y-51505713D01*
X120280000Y-51525436D01*
X120580920Y-51505713D01*
X120876691Y-51446880D01*
X121162252Y-51349945D01*
X121349418Y-51257644D01*
X121418248Y-51245648D01*
X121482639Y-51272770D01*
X121491941Y-51281176D01*
X123208582Y-52997817D01*
X123242067Y-53059140D01*
X123237083Y-53128832D01*
X123195211Y-53184765D01*
X123129747Y-53209182D01*
X123097434Y-53207257D01*
X122927473Y-53174500D01*
X122927472Y-53174500D01*
X122766382Y-53174500D01*
X122606029Y-53189812D01*
X122606025Y-53189813D01*
X122399793Y-53250368D01*
X122208736Y-53348864D01*
X122039785Y-53481729D01*
X122039782Y-53481733D01*
X121899021Y-53644178D01*
X121791553Y-53830319D01*
X121721251Y-54033442D01*
X121721250Y-54033444D01*
X121690661Y-54246200D01*
X121690660Y-54246202D01*
X121700887Y-54460901D01*
X121751563Y-54669791D01*
X121751565Y-54669795D01*
X121840818Y-54865233D01*
X121840854Y-54865310D01*
X121921953Y-54979198D01*
X121965535Y-55040400D01*
X121965540Y-55040406D01*
X122121094Y-55188725D01*
X122121096Y-55188726D01*
X122121097Y-55188727D01*
X122301920Y-55304935D01*
X122501468Y-55384822D01*
X122606998Y-55405160D01*
X122712527Y-55425500D01*
X122712528Y-55425500D01*
X122873612Y-55425500D01*
X122873618Y-55425500D01*
X123033971Y-55410188D01*
X123240209Y-55349631D01*
X123431259Y-55251138D01*
X123600217Y-55118268D01*
X123740976Y-54955824D01*
X123763686Y-54916490D01*
X123817732Y-54822879D01*
X123848448Y-54769677D01*
X123918750Y-54566554D01*
X123949339Y-54353797D01*
X123939112Y-54139096D01*
X123911678Y-54026011D01*
X123915003Y-53956224D01*
X123955531Y-53899309D01*
X124020396Y-53873341D01*
X124089003Y-53886564D01*
X124119864Y-53909099D01*
X130548584Y-60337819D01*
X130582069Y-60399142D01*
X130577085Y-60468834D01*
X130535213Y-60524767D01*
X130469749Y-60549184D01*
X130460903Y-60549500D01*
X114957515Y-60549500D01*
X114890476Y-60529815D01*
X114844721Y-60477011D01*
X114834195Y-60438465D01*
X114815674Y-60262244D01*
X114757179Y-60082216D01*
X114662533Y-59918284D01*
X114603067Y-59852240D01*
X114562350Y-59807019D01*
X114532120Y-59744027D01*
X114530500Y-59724047D01*
X114530500Y-54074443D01*
X114550185Y-54007404D01*
X114602989Y-53961649D01*
X114614631Y-53957028D01*
X114812252Y-53889945D01*
X115082718Y-53756566D01*
X115333461Y-53589025D01*
X115375063Y-53552540D01*
X115438446Y-53523136D01*
X115507662Y-53532668D01*
X115560738Y-53578107D01*
X115580822Y-53645028D01*
X115575257Y-53682505D01*
X115545907Y-53777118D01*
X115525296Y-53899309D01*
X115495791Y-54074230D01*
X115490042Y-54246202D01*
X115485723Y-54375373D01*
X115515881Y-54675160D01*
X115515882Y-54675162D01*
X115585728Y-54968252D01*
X115585733Y-54968266D01*
X115694020Y-55249427D01*
X115694024Y-55249436D01*
X115838825Y-55513665D01*
X115838829Y-55513671D01*
X115984250Y-55711038D01*
X116017554Y-55756238D01*
X116017561Y-55756245D01*
X116227019Y-55972823D01*
X116463478Y-56159553D01*
X116463480Y-56159554D01*
X116463485Y-56159558D01*
X116722730Y-56313109D01*
X117000128Y-56430736D01*
X117290729Y-56510340D01*
X117589347Y-56550500D01*
X117589351Y-56550500D01*
X117815252Y-56550500D01*
X117979163Y-56539526D01*
X118040634Y-56535412D01*
X118335903Y-56475396D01*
X118620537Y-56376560D01*
X118889459Y-56240668D01*
X119137869Y-56070144D01*
X119361333Y-55868032D01*
X119555865Y-55637939D01*
X119717993Y-55383970D01*
X119844823Y-55110658D01*
X119934093Y-54822879D01*
X119984209Y-54525770D01*
X119994277Y-54224631D01*
X119964118Y-53924838D01*
X119896630Y-53641647D01*
X119894271Y-53631747D01*
X119894270Y-53631746D01*
X119894269Y-53631739D01*
X119785977Y-53350566D01*
X119641175Y-53086335D01*
X119621101Y-53059091D01*
X119532370Y-52938664D01*
X119462446Y-52843762D01*
X119252980Y-52627176D01*
X119241711Y-52618277D01*
X119016521Y-52440446D01*
X119016517Y-52440443D01*
X119016515Y-52440442D01*
X118757270Y-52286891D01*
X118479872Y-52169264D01*
X118479863Y-52169261D01*
X118189272Y-52089660D01*
X118064559Y-52072888D01*
X117890653Y-52049500D01*
X117664756Y-52049500D01*
X117664748Y-52049500D01*
X117439368Y-52064587D01*
X117439359Y-52064589D01*
X117144094Y-52124604D01*
X116859464Y-52223439D01*
X116859459Y-52223441D01*
X116590546Y-52359328D01*
X116459479Y-52449301D01*
X116342131Y-52529856D01*
X116342128Y-52529858D01*
X116342123Y-52529862D01*
X116338865Y-52532435D01*
X116337836Y-52531131D01*
X116281092Y-52558514D01*
X116211738Y-52550039D01*
X116157976Y-52505413D01*
X116136875Y-52438806D01*
X116143428Y-52396319D01*
X116156880Y-52356691D01*
X116215713Y-52060920D01*
X116235436Y-51760000D01*
X116215713Y-51459080D01*
X116213286Y-51446881D01*
X116194005Y-51349946D01*
X116156880Y-51163309D01*
X116059945Y-50877748D01*
X116055031Y-50867784D01*
X115926568Y-50607286D01*
X115926564Y-50607279D01*
X115759026Y-50356540D01*
X115560189Y-50129810D01*
X115333459Y-49930973D01*
X115082720Y-49763435D01*
X115082713Y-49763431D01*
X114812268Y-49630062D01*
X114812247Y-49630053D01*
X114526698Y-49533122D01*
X114526692Y-49533120D01*
X114526691Y-49533120D01*
X114526689Y-49533119D01*
X114526683Y-49533118D01*
X114230930Y-49474288D01*
X114230921Y-49474287D01*
X114230920Y-49474287D01*
X113930000Y-49454564D01*
X113929999Y-49454564D01*
X113876416Y-49458076D01*
X113629080Y-49474287D01*
X113629079Y-49474287D01*
X113629069Y-49474288D01*
X113333316Y-49533118D01*
X113333301Y-49533122D01*
X113047752Y-49630053D01*
X113047731Y-49630062D01*
X112777286Y-49763431D01*
X112777279Y-49763435D01*
X112526540Y-49930973D01*
X112299810Y-50129810D01*
X112100973Y-50356540D01*
X111933435Y-50607279D01*
X111933431Y-50607286D01*
X111800062Y-50877731D01*
X111800053Y-50877752D01*
X111703122Y-51163301D01*
X111703118Y-51163316D01*
X111644288Y-51459069D01*
X111644287Y-51459079D01*
X111644287Y-51459080D01*
X111624564Y-51760000D01*
X111635851Y-51932216D01*
X111644287Y-52060918D01*
X111644288Y-52060930D01*
X111703118Y-52356683D01*
X111703122Y-52356698D01*
X111800053Y-52642247D01*
X111800062Y-52642268D01*
X111933430Y-52912711D01*
X111933432Y-52912714D01*
X111933434Y-52912718D01*
X111997629Y-53008793D01*
X112102578Y-53165861D01*
X112123455Y-53232538D01*
X112104970Y-53299918D01*
X112056299Y-53344965D01*
X112048739Y-53348862D01*
X111879785Y-53481729D01*
X111879782Y-53481733D01*
X111739021Y-53644178D01*
X111631553Y-53830319D01*
X111561251Y-54033442D01*
X111561250Y-54033444D01*
X111530661Y-54246200D01*
X111530660Y-54246202D01*
X111540887Y-54460901D01*
X111591563Y-54669791D01*
X111591565Y-54669795D01*
X111680818Y-54865233D01*
X111680854Y-54865310D01*
X111761953Y-54979198D01*
X111805535Y-55040400D01*
X111805540Y-55040406D01*
X111961094Y-55188725D01*
X111961096Y-55188726D01*
X111961097Y-55188727D01*
X112141920Y-55304935D01*
X112341468Y-55384822D01*
X112446998Y-55405161D01*
X112552527Y-55425500D01*
X112552528Y-55425500D01*
X112713612Y-55425500D01*
X112713618Y-55425500D01*
X112873971Y-55410188D01*
X113080209Y-55349631D01*
X113148679Y-55314332D01*
X113217287Y-55301108D01*
X113282152Y-55327076D01*
X113322680Y-55383990D01*
X113329500Y-55424547D01*
X113329500Y-59724047D01*
X113309815Y-59791086D01*
X113297650Y-59807019D01*
X113197466Y-59918285D01*
X113124555Y-60044571D01*
X113073988Y-60092787D01*
X113005381Y-60106010D01*
X112940516Y-60080042D01*
X112929487Y-60070252D01*
X103291176Y-50431941D01*
X103257691Y-50370618D01*
X103262675Y-50300926D01*
X103267639Y-50289428D01*
X103359945Y-50102252D01*
X103456880Y-49816691D01*
X103515713Y-49520920D01*
X103535436Y-49220000D01*
X103515713Y-48919080D01*
X103456880Y-48623309D01*
X103359945Y-48337748D01*
X103341838Y-48301031D01*
X103226568Y-48067286D01*
X103226564Y-48067279D01*
X103059026Y-47816540D01*
X102860189Y-47589810D01*
X102633459Y-47390973D01*
X102382720Y-47223435D01*
X102382713Y-47223431D01*
X102112268Y-47090062D01*
X102112247Y-47090053D01*
X101826698Y-46993122D01*
X101826692Y-46993120D01*
X101826691Y-46993120D01*
X101826689Y-46993119D01*
X101826683Y-46993118D01*
X101530930Y-46934288D01*
X101530921Y-46934287D01*
X101530920Y-46934287D01*
X101230000Y-46914564D01*
X100929080Y-46934287D01*
X100929079Y-46934287D01*
X100929069Y-46934288D01*
X100633316Y-46993118D01*
X100633301Y-46993122D01*
X100347752Y-47090053D01*
X100347731Y-47090062D01*
X100077286Y-47223431D01*
X100077279Y-47223435D01*
X99826540Y-47390973D01*
X99599810Y-47589810D01*
X99400973Y-47816540D01*
X99233435Y-48067279D01*
X99233431Y-48067286D01*
X99100062Y-48337731D01*
X99100053Y-48337752D01*
X99003122Y-48623301D01*
X99003118Y-48623316D01*
X98944288Y-48919069D01*
X98944287Y-48919081D01*
X98927809Y-49170497D01*
X98924564Y-49220000D01*
X98942260Y-49490001D01*
X98944287Y-49520918D01*
X98944288Y-49520930D01*
X99003118Y-49816683D01*
X99003122Y-49816698D01*
X99100053Y-50102247D01*
X99100062Y-50102268D01*
X99233431Y-50372713D01*
X99233435Y-50372720D01*
X99400973Y-50623459D01*
X99599810Y-50850189D01*
X99826540Y-51049026D01*
X100077279Y-51216564D01*
X100077286Y-51216568D01*
X100347731Y-51349937D01*
X100347736Y-51349939D01*
X100347748Y-51349945D01*
X100633309Y-51446880D01*
X100833251Y-51486651D01*
X100929069Y-51505711D01*
X100929070Y-51505711D01*
X100929080Y-51505713D01*
X101230000Y-51525436D01*
X101530920Y-51505713D01*
X101826691Y-51446880D01*
X102112252Y-51349945D01*
X102299418Y-51257644D01*
X102368248Y-51245648D01*
X102432639Y-51272770D01*
X102441941Y-51281176D01*
X104158582Y-52997817D01*
X104192067Y-53059140D01*
X104187083Y-53128832D01*
X104145211Y-53184765D01*
X104079747Y-53209182D01*
X104047434Y-53207257D01*
X103877473Y-53174500D01*
X103877472Y-53174500D01*
X103716382Y-53174500D01*
X103556029Y-53189812D01*
X103556025Y-53189813D01*
X103349793Y-53250368D01*
X103158736Y-53348864D01*
X102989785Y-53481729D01*
X102989782Y-53481733D01*
X102849021Y-53644178D01*
X102741553Y-53830319D01*
X102671251Y-54033442D01*
X102671250Y-54033444D01*
X102640661Y-54246200D01*
X102640660Y-54246202D01*
X102650887Y-54460901D01*
X102701563Y-54669791D01*
X102701565Y-54669795D01*
X102790818Y-54865233D01*
X102790854Y-54865310D01*
X102871953Y-54979198D01*
X102915535Y-55040400D01*
X102915540Y-55040406D01*
X103071094Y-55188725D01*
X103071096Y-55188726D01*
X103071097Y-55188727D01*
X103251920Y-55304935D01*
X103451468Y-55384822D01*
X103556997Y-55405160D01*
X103662527Y-55425500D01*
X103662528Y-55425500D01*
X103823612Y-55425500D01*
X103823618Y-55425500D01*
X103983971Y-55410188D01*
X104190209Y-55349631D01*
X104381259Y-55251138D01*
X104550217Y-55118268D01*
X104690976Y-54955824D01*
X104713686Y-54916490D01*
X104767732Y-54822879D01*
X104798448Y-54769677D01*
X104868750Y-54566554D01*
X104899339Y-54353797D01*
X104889112Y-54139096D01*
X104861678Y-54026011D01*
X104865003Y-53956224D01*
X104905531Y-53899309D01*
X104970396Y-53873341D01*
X105039003Y-53886564D01*
X105069864Y-53909099D01*
X111898584Y-60737819D01*
X111932069Y-60799142D01*
X111927085Y-60868834D01*
X111885213Y-60924767D01*
X111819749Y-60949184D01*
X111810903Y-60949500D01*
X95908619Y-60949500D01*
X95841580Y-60929815D01*
X95795825Y-60877011D01*
X95785298Y-60838462D01*
X95765674Y-60651744D01*
X95707179Y-60471716D01*
X95612533Y-60307784D01*
X95557628Y-60246806D01*
X95512350Y-60196519D01*
X95482120Y-60133527D01*
X95480500Y-60113547D01*
X95480500Y-54074443D01*
X95500185Y-54007404D01*
X95552989Y-53961649D01*
X95564631Y-53957028D01*
X95762252Y-53889945D01*
X96032718Y-53756566D01*
X96283461Y-53589025D01*
X96325063Y-53552540D01*
X96388446Y-53523136D01*
X96457662Y-53532668D01*
X96510738Y-53578107D01*
X96530822Y-53645028D01*
X96525257Y-53682505D01*
X96495907Y-53777118D01*
X96475296Y-53899309D01*
X96445791Y-54074230D01*
X96440042Y-54246202D01*
X96435723Y-54375373D01*
X96465881Y-54675160D01*
X96465882Y-54675162D01*
X96535728Y-54968252D01*
X96535733Y-54968266D01*
X96644020Y-55249427D01*
X96644024Y-55249436D01*
X96788825Y-55513665D01*
X96788829Y-55513671D01*
X96934250Y-55711038D01*
X96967554Y-55756238D01*
X96967561Y-55756245D01*
X97177019Y-55972823D01*
X97413478Y-56159553D01*
X97413480Y-56159554D01*
X97413485Y-56159558D01*
X97672730Y-56313109D01*
X97950128Y-56430736D01*
X98240729Y-56510340D01*
X98539347Y-56550500D01*
X98539351Y-56550500D01*
X98765252Y-56550500D01*
X98929164Y-56539526D01*
X98990634Y-56535412D01*
X99285903Y-56475396D01*
X99570537Y-56376560D01*
X99839459Y-56240668D01*
X100087869Y-56070144D01*
X100311333Y-55868032D01*
X100505865Y-55637939D01*
X100667993Y-55383970D01*
X100794823Y-55110658D01*
X100884093Y-54822879D01*
X100934209Y-54525770D01*
X100944277Y-54224631D01*
X100914118Y-53924838D01*
X100846630Y-53641647D01*
X100844271Y-53631747D01*
X100844270Y-53631746D01*
X100844269Y-53631739D01*
X100735977Y-53350566D01*
X100591175Y-53086335D01*
X100571101Y-53059091D01*
X100482370Y-52938664D01*
X100412446Y-52843762D01*
X100202980Y-52627176D01*
X100191711Y-52618277D01*
X99966521Y-52440446D01*
X99966517Y-52440443D01*
X99966515Y-52440442D01*
X99707270Y-52286891D01*
X99429872Y-52169264D01*
X99429863Y-52169261D01*
X99139272Y-52089660D01*
X99014559Y-52072888D01*
X98840653Y-52049500D01*
X98614756Y-52049500D01*
X98614748Y-52049500D01*
X98389368Y-52064587D01*
X98389359Y-52064589D01*
X98094094Y-52124604D01*
X97809464Y-52223439D01*
X97809459Y-52223441D01*
X97540546Y-52359328D01*
X97409479Y-52449301D01*
X97292131Y-52529856D01*
X97292128Y-52529858D01*
X97292123Y-52529862D01*
X97288865Y-52532435D01*
X97287836Y-52531131D01*
X97231092Y-52558514D01*
X97161738Y-52550039D01*
X97107976Y-52505413D01*
X97086875Y-52438806D01*
X97093428Y-52396319D01*
X97106880Y-52356691D01*
X97165713Y-52060920D01*
X97185436Y-51760000D01*
X97165713Y-51459080D01*
X97163286Y-51446881D01*
X97144005Y-51349946D01*
X97106880Y-51163309D01*
X97009945Y-50877748D01*
X97005031Y-50867784D01*
X96876568Y-50607286D01*
X96876564Y-50607279D01*
X96709026Y-50356540D01*
X96510189Y-50129810D01*
X96283459Y-49930973D01*
X96032720Y-49763435D01*
X96032713Y-49763431D01*
X95762268Y-49630062D01*
X95762247Y-49630053D01*
X95476698Y-49533122D01*
X95476692Y-49533120D01*
X95476691Y-49533120D01*
X95476689Y-49533119D01*
X95476683Y-49533118D01*
X95180930Y-49474288D01*
X95180921Y-49474287D01*
X95180920Y-49474287D01*
X94880000Y-49454564D01*
X94579080Y-49474287D01*
X94579079Y-49474287D01*
X94579069Y-49474288D01*
X94283316Y-49533118D01*
X94283301Y-49533122D01*
X93997752Y-49630053D01*
X93997731Y-49630062D01*
X93727286Y-49763431D01*
X93727279Y-49763435D01*
X93476540Y-49930973D01*
X93249810Y-50129810D01*
X93050973Y-50356540D01*
X92883435Y-50607279D01*
X92883431Y-50607286D01*
X92750062Y-50877731D01*
X92750053Y-50877752D01*
X92653122Y-51163301D01*
X92653118Y-51163316D01*
X92594288Y-51459069D01*
X92594287Y-51459079D01*
X92594287Y-51459080D01*
X92574564Y-51760000D01*
X92585851Y-51932216D01*
X92594287Y-52060918D01*
X92594288Y-52060930D01*
X92653118Y-52356683D01*
X92653122Y-52356698D01*
X92750053Y-52642247D01*
X92750062Y-52642268D01*
X92883430Y-52912711D01*
X92883432Y-52912714D01*
X92883434Y-52912718D01*
X92947629Y-53008793D01*
X93052578Y-53165861D01*
X93073455Y-53232538D01*
X93054970Y-53299918D01*
X93006299Y-53344965D01*
X92998739Y-53348862D01*
X92829785Y-53481729D01*
X92829782Y-53481733D01*
X92689021Y-53644178D01*
X92581553Y-53830319D01*
X92511251Y-54033442D01*
X92511250Y-54033444D01*
X92480661Y-54246200D01*
X92480660Y-54246202D01*
X92490887Y-54460901D01*
X92541563Y-54669791D01*
X92541565Y-54669795D01*
X92630818Y-54865233D01*
X92630854Y-54865310D01*
X92711953Y-54979198D01*
X92755535Y-55040400D01*
X92755540Y-55040406D01*
X92911094Y-55188725D01*
X92911096Y-55188726D01*
X92911097Y-55188727D01*
X93091920Y-55304935D01*
X93291468Y-55384822D01*
X93396997Y-55405160D01*
X93502527Y-55425500D01*
X93502528Y-55425500D01*
X93663612Y-55425500D01*
X93663618Y-55425500D01*
X93823971Y-55410188D01*
X94030209Y-55349631D01*
X94098679Y-55314332D01*
X94167287Y-55301108D01*
X94232152Y-55327076D01*
X94272680Y-55383990D01*
X94279500Y-55424547D01*
X94279500Y-60113547D01*
X94259815Y-60180586D01*
X94247650Y-60196519D01*
X94220475Y-60226700D01*
X94160989Y-60263349D01*
X94091132Y-60262019D01*
X94040644Y-60231409D01*
X84241176Y-50431941D01*
X84207691Y-50370618D01*
X84212675Y-50300926D01*
X84217639Y-50289428D01*
X84309945Y-50102252D01*
X84406880Y-49816691D01*
X84465713Y-49520920D01*
X84485436Y-49220000D01*
X84465713Y-48919080D01*
X84406880Y-48623309D01*
X84309945Y-48337748D01*
X84291838Y-48301031D01*
X84176568Y-48067286D01*
X84176564Y-48067279D01*
X84009026Y-47816540D01*
X83810189Y-47589810D01*
X83583459Y-47390973D01*
X83332720Y-47223435D01*
X83332713Y-47223431D01*
X83062268Y-47090062D01*
X83062247Y-47090053D01*
X82776698Y-46993122D01*
X82776692Y-46993120D01*
X82776691Y-46993120D01*
X82776689Y-46993119D01*
X82776683Y-46993118D01*
X82480930Y-46934288D01*
X82480921Y-46934287D01*
X82480920Y-46934287D01*
X82180000Y-46914564D01*
X81879080Y-46934287D01*
X81879079Y-46934287D01*
X81879069Y-46934288D01*
X81583316Y-46993118D01*
X81583301Y-46993122D01*
X81297752Y-47090053D01*
X81297731Y-47090062D01*
X81027286Y-47223431D01*
X81027279Y-47223435D01*
X80776540Y-47390973D01*
X80549810Y-47589810D01*
X80350973Y-47816540D01*
X80183435Y-48067279D01*
X80183431Y-48067286D01*
X80050062Y-48337731D01*
X80050053Y-48337752D01*
X79953122Y-48623301D01*
X79953118Y-48623316D01*
X79894288Y-48919069D01*
X79894287Y-48919079D01*
X79894287Y-48919080D01*
X79874564Y-49220000D01*
X79892260Y-49490001D01*
X79894287Y-49520918D01*
X79894288Y-49520930D01*
X79953118Y-49816683D01*
X79953122Y-49816698D01*
X80050053Y-50102247D01*
X80050062Y-50102268D01*
X80183431Y-50372713D01*
X80183435Y-50372720D01*
X80350973Y-50623459D01*
X80549810Y-50850189D01*
X80776540Y-51049026D01*
X81027279Y-51216564D01*
X81027286Y-51216568D01*
X81297731Y-51349937D01*
X81297736Y-51349939D01*
X81297748Y-51349945D01*
X81583309Y-51446880D01*
X81783251Y-51486651D01*
X81879069Y-51505711D01*
X81879070Y-51505711D01*
X81879080Y-51505713D01*
X82180000Y-51525436D01*
X82480920Y-51505713D01*
X82776691Y-51446880D01*
X83062252Y-51349945D01*
X83249418Y-51257644D01*
X83318248Y-51245648D01*
X83382639Y-51272770D01*
X83391941Y-51281176D01*
X85108582Y-52997817D01*
X85142067Y-53059140D01*
X85137083Y-53128832D01*
X85095211Y-53184765D01*
X85029747Y-53209182D01*
X84997434Y-53207257D01*
X84827473Y-53174500D01*
X84827472Y-53174500D01*
X84666382Y-53174500D01*
X84506029Y-53189812D01*
X84506025Y-53189813D01*
X84299793Y-53250368D01*
X84108736Y-53348864D01*
X83939785Y-53481729D01*
X83939782Y-53481733D01*
X83799021Y-53644178D01*
X83691553Y-53830319D01*
X83621251Y-54033442D01*
X83621250Y-54033444D01*
X83590661Y-54246200D01*
X83590660Y-54246202D01*
X83600887Y-54460901D01*
X83651563Y-54669791D01*
X83651565Y-54669795D01*
X83740818Y-54865233D01*
X83740854Y-54865310D01*
X83821953Y-54979198D01*
X83865535Y-55040400D01*
X83865540Y-55040406D01*
X84021094Y-55188725D01*
X84021096Y-55188726D01*
X84021097Y-55188727D01*
X84201920Y-55304935D01*
X84401468Y-55384822D01*
X84506997Y-55405161D01*
X84612527Y-55425500D01*
X84612528Y-55425500D01*
X84773612Y-55425500D01*
X84773618Y-55425500D01*
X84933971Y-55410188D01*
X85140209Y-55349631D01*
X85331259Y-55251138D01*
X85500217Y-55118268D01*
X85640976Y-54955824D01*
X85663686Y-54916490D01*
X85717732Y-54822879D01*
X85748448Y-54769677D01*
X85818750Y-54566554D01*
X85849339Y-54353797D01*
X85839112Y-54139096D01*
X85811678Y-54026011D01*
X85815003Y-53956224D01*
X85855531Y-53899309D01*
X85920396Y-53873341D01*
X85989003Y-53886564D01*
X86019864Y-53909099D01*
X94054669Y-61943904D01*
X94060020Y-61950005D01*
X94081718Y-61978282D01*
X94155030Y-62034536D01*
X94207159Y-62074536D01*
X94207161Y-62074536D01*
X94207163Y-62074538D01*
X94249347Y-62092011D01*
X94353238Y-62135044D01*
X94427457Y-62144815D01*
X94509999Y-62155682D01*
X94510000Y-62155682D01*
X94545329Y-62151030D01*
X94553428Y-62150500D01*
X125811003Y-62150500D01*
X125878042Y-62170185D01*
X125923797Y-62222989D01*
X125933741Y-62292147D01*
X125904716Y-62355703D01*
X125898684Y-62362181D01*
X125749270Y-62511594D01*
X125749254Y-62511612D01*
X125577775Y-62740682D01*
X125577770Y-62740690D01*
X125440635Y-62991833D01*
X125340628Y-63259962D01*
X125279804Y-63539566D01*
X125259390Y-63824998D01*
X125259390Y-63825001D01*
X125279804Y-64110433D01*
X125340628Y-64390037D01*
X125340630Y-64390043D01*
X125340631Y-64390046D01*
X125434474Y-64641647D01*
X125440635Y-64658166D01*
X125577770Y-64909309D01*
X125577775Y-64909317D01*
X125749254Y-65138387D01*
X125749270Y-65138405D01*
X125951594Y-65340729D01*
X125951612Y-65340745D01*
X126180682Y-65512224D01*
X126180690Y-65512229D01*
X126431833Y-65649364D01*
X126431832Y-65649364D01*
X126431836Y-65649365D01*
X126431839Y-65649367D01*
X126699954Y-65749369D01*
X126699960Y-65749370D01*
X126699962Y-65749371D01*
X126979566Y-65810195D01*
X126979568Y-65810195D01*
X126979572Y-65810196D01*
X127193552Y-65825500D01*
X127336448Y-65825500D01*
X127550428Y-65810196D01*
X127830046Y-65749369D01*
X128098161Y-65649367D01*
X128349315Y-65512226D01*
X128578395Y-65340739D01*
X128780739Y-65138395D01*
X128952226Y-64909315D01*
X129089367Y-64658161D01*
X129189369Y-64390046D01*
X129190037Y-64386974D01*
X129250195Y-64110433D01*
X129250195Y-64110432D01*
X129250196Y-64110428D01*
X129270610Y-63825000D01*
X129250196Y-63539572D01*
X129216611Y-63385185D01*
X129189371Y-63259962D01*
X129189370Y-63259960D01*
X129189369Y-63259954D01*
X129089367Y-62991839D01*
X128952226Y-62740685D01*
X128952224Y-62740682D01*
X128780745Y-62511612D01*
X128780729Y-62511594D01*
X128631316Y-62362181D01*
X128597831Y-62300858D01*
X128602815Y-62231166D01*
X128644687Y-62175233D01*
X128710151Y-62150816D01*
X128718997Y-62150500D01*
X141369903Y-62150500D01*
X141436942Y-62170185D01*
X141457584Y-62186819D01*
X147198181Y-67927416D01*
X147231666Y-67988739D01*
X147234500Y-68015097D01*
X147234500Y-68488337D01*
X147234501Y-68488355D01*
X147244650Y-68587707D01*
X147244651Y-68587710D01*
X147297996Y-68748694D01*
X147298001Y-68748705D01*
X147387029Y-68893040D01*
X147387032Y-68893044D01*
X147506955Y-69012967D01*
X147506959Y-69012970D01*
X147607853Y-69075203D01*
X147654578Y-69127151D01*
X147665799Y-69196113D01*
X147637956Y-69260195D01*
X147613879Y-69282316D01*
X147495859Y-69364953D01*
X147334954Y-69525858D01*
X147204432Y-69712265D01*
X147204431Y-69712267D01*
X147108261Y-69918502D01*
X147108258Y-69918511D01*
X147049366Y-70138302D01*
X147049364Y-70138313D01*
X147029532Y-70364998D01*
X147029532Y-70365001D01*
X147049364Y-70591686D01*
X147049366Y-70591697D01*
X147108258Y-70811488D01*
X147108261Y-70811497D01*
X147204431Y-71017732D01*
X147204432Y-71017734D01*
X147334954Y-71204141D01*
X147495858Y-71365045D01*
X147495861Y-71365047D01*
X147682266Y-71495568D01*
X147888504Y-71591739D01*
X148108308Y-71650635D01*
X148270230Y-71664801D01*
X148334998Y-71670468D01*
X148335000Y-71670468D01*
X148335002Y-71670468D01*
X148391673Y-71665509D01*
X148561692Y-71650635D01*
X148781496Y-71591739D01*
X148987734Y-71495568D01*
X149174139Y-71365047D01*
X149335047Y-71204139D01*
X149465568Y-71017734D01*
X149561739Y-70811496D01*
X149620635Y-70591692D01*
X149640468Y-70365000D01*
X149620635Y-70138308D01*
X149561739Y-69918504D01*
X149465568Y-69712266D01*
X149335047Y-69525861D01*
X149335045Y-69525858D01*
X149174141Y-69364954D01*
X149056120Y-69282316D01*
X149012495Y-69227740D01*
X149005301Y-69158241D01*
X149036823Y-69095886D01*
X149062140Y-69075206D01*
X149163044Y-69012968D01*
X149282968Y-68893044D01*
X149372003Y-68748697D01*
X149425349Y-68587708D01*
X149435500Y-68488345D01*
X149435499Y-67941656D01*
X149434044Y-67927416D01*
X149425349Y-67842292D01*
X149425348Y-67842289D01*
X149372003Y-67681303D01*
X149371999Y-67681297D01*
X149371998Y-67681294D01*
X149279177Y-67530809D01*
X149281605Y-67529311D01*
X149260348Y-67476593D01*
X149273401Y-67407953D01*
X149321491Y-67357267D01*
X149383757Y-67340500D01*
X150109903Y-67340500D01*
X150176942Y-67360185D01*
X150197584Y-67376819D01*
X150748181Y-67927416D01*
X150781666Y-67988739D01*
X150784500Y-68015097D01*
X150784500Y-68488337D01*
X150784501Y-68488355D01*
X150794650Y-68587707D01*
X150794651Y-68587710D01*
X150847996Y-68748694D01*
X150848001Y-68748705D01*
X150937029Y-68893040D01*
X150937032Y-68893044D01*
X151056955Y-69012967D01*
X151056959Y-69012970D01*
X151157853Y-69075203D01*
X151204578Y-69127151D01*
X151215799Y-69196113D01*
X151187956Y-69260195D01*
X151163879Y-69282316D01*
X151045859Y-69364953D01*
X150884954Y-69525858D01*
X150754432Y-69712265D01*
X150754431Y-69712267D01*
X150658261Y-69918502D01*
X150658258Y-69918511D01*
X150599366Y-70138302D01*
X150599364Y-70138313D01*
X150579532Y-70364998D01*
X150579532Y-70365001D01*
X150599364Y-70591686D01*
X150599366Y-70591697D01*
X150658258Y-70811488D01*
X150658261Y-70811497D01*
X150754431Y-71017732D01*
X150754432Y-71017734D01*
X150884954Y-71204141D01*
X151045858Y-71365045D01*
X151045861Y-71365047D01*
X151232266Y-71495568D01*
X151438504Y-71591739D01*
X151658308Y-71650635D01*
X151820230Y-71664801D01*
X151884998Y-71670468D01*
X151885000Y-71670468D01*
X151885002Y-71670468D01*
X151941672Y-71665509D01*
X152111692Y-71650635D01*
X152331496Y-71591739D01*
X152537734Y-71495568D01*
X152724139Y-71365047D01*
X152885047Y-71204139D01*
X153015568Y-71017734D01*
X153111739Y-70811496D01*
X153170635Y-70591692D01*
X153190468Y-70365000D01*
X153170635Y-70138308D01*
X153111739Y-69918504D01*
X153015568Y-69712266D01*
X152885047Y-69525861D01*
X152885045Y-69525858D01*
X152724141Y-69364954D01*
X152606120Y-69282316D01*
X152562495Y-69227740D01*
X152555301Y-69158241D01*
X152586823Y-69095886D01*
X152612140Y-69075206D01*
X152713044Y-69012968D01*
X152832968Y-68893044D01*
X152922003Y-68748697D01*
X152975349Y-68587708D01*
X152985500Y-68488345D01*
X152985499Y-67941656D01*
X152984044Y-67927416D01*
X152975349Y-67842292D01*
X152975348Y-67842289D01*
X152922003Y-67681303D01*
X152921999Y-67681297D01*
X152921998Y-67681294D01*
X152832970Y-67536959D01*
X152832967Y-67536955D01*
X152713044Y-67417032D01*
X152713040Y-67417029D01*
X152568705Y-67328001D01*
X152568699Y-67327998D01*
X152568697Y-67327997D01*
X152568694Y-67327996D01*
X152407709Y-67274651D01*
X152308352Y-67264500D01*
X152308345Y-67264500D01*
X151835097Y-67264500D01*
X151768058Y-67244815D01*
X151747416Y-67228181D01*
X151671416Y-67152181D01*
X151637931Y-67090858D01*
X151642915Y-67021166D01*
X151684787Y-66965233D01*
X151750251Y-66940816D01*
X151759097Y-66940500D01*
X153259903Y-66940500D01*
X153326942Y-66960185D01*
X153347584Y-66976819D01*
X154298181Y-67927416D01*
X154331666Y-67988739D01*
X154334500Y-68015097D01*
X154334500Y-68488337D01*
X154334501Y-68488355D01*
X154344650Y-68587707D01*
X154344651Y-68587710D01*
X154397996Y-68748694D01*
X154398001Y-68748705D01*
X154487029Y-68893040D01*
X154487032Y-68893044D01*
X154606955Y-69012967D01*
X154606959Y-69012970D01*
X154707853Y-69075203D01*
X154754578Y-69127151D01*
X154765799Y-69196113D01*
X154737956Y-69260195D01*
X154713879Y-69282316D01*
X154595859Y-69364953D01*
X154434954Y-69525858D01*
X154304432Y-69712265D01*
X154304431Y-69712267D01*
X154208261Y-69918502D01*
X154208258Y-69918511D01*
X154149366Y-70138302D01*
X154149364Y-70138313D01*
X154129532Y-70364998D01*
X154129532Y-70365001D01*
X154149364Y-70591686D01*
X154149366Y-70591697D01*
X154208258Y-70811488D01*
X154208261Y-70811497D01*
X154304431Y-71017732D01*
X154304432Y-71017734D01*
X154434954Y-71204141D01*
X154595858Y-71365045D01*
X154595861Y-71365047D01*
X154782266Y-71495568D01*
X154988504Y-71591739D01*
X155208308Y-71650635D01*
X155370230Y-71664801D01*
X155434998Y-71670468D01*
X155435000Y-71670468D01*
X155435002Y-71670468D01*
X155491673Y-71665509D01*
X155661692Y-71650635D01*
X155881496Y-71591739D01*
X156087734Y-71495568D01*
X156274139Y-71365047D01*
X156435047Y-71204139D01*
X156565568Y-71017734D01*
X156661739Y-70811496D01*
X156720635Y-70591692D01*
X156740468Y-70365000D01*
X156720635Y-70138308D01*
X156661739Y-69918504D01*
X156565568Y-69712266D01*
X156435047Y-69525861D01*
X156435045Y-69525858D01*
X156274141Y-69364954D01*
X156156120Y-69282316D01*
X156112495Y-69227740D01*
X156105301Y-69158241D01*
X156136823Y-69095886D01*
X156162140Y-69075206D01*
X156263044Y-69012968D01*
X156382968Y-68893044D01*
X156472003Y-68748697D01*
X156525349Y-68587708D01*
X156535500Y-68488345D01*
X156535499Y-67941656D01*
X156534044Y-67927416D01*
X156525349Y-67842292D01*
X156525348Y-67842289D01*
X156472003Y-67681303D01*
X156471999Y-67681297D01*
X156471998Y-67681294D01*
X156382970Y-67536959D01*
X156382967Y-67536955D01*
X156263044Y-67417032D01*
X156263040Y-67417029D01*
X156118705Y-67328001D01*
X156118699Y-67327998D01*
X156118697Y-67327997D01*
X156118694Y-67327996D01*
X155957709Y-67274651D01*
X155858352Y-67264500D01*
X155858345Y-67264500D01*
X155385097Y-67264500D01*
X155318058Y-67244815D01*
X155297416Y-67228181D01*
X154821416Y-66752181D01*
X154787931Y-66690858D01*
X154792915Y-66621166D01*
X154834787Y-66565233D01*
X154900251Y-66540816D01*
X154909097Y-66540500D01*
X156409903Y-66540500D01*
X156476942Y-66560185D01*
X156497584Y-66576819D01*
X157848181Y-67927416D01*
X157881666Y-67988739D01*
X157884500Y-68015097D01*
X157884500Y-68488337D01*
X157884501Y-68488355D01*
X157894650Y-68587707D01*
X157894651Y-68587710D01*
X157947996Y-68748694D01*
X157948001Y-68748705D01*
X158037029Y-68893040D01*
X158037032Y-68893044D01*
X158156955Y-69012967D01*
X158156959Y-69012970D01*
X158257853Y-69075203D01*
X158304578Y-69127151D01*
X158315799Y-69196113D01*
X158287956Y-69260195D01*
X158263879Y-69282316D01*
X158145859Y-69364953D01*
X157984954Y-69525858D01*
X157854432Y-69712265D01*
X157854431Y-69712267D01*
X157758261Y-69918502D01*
X157758258Y-69918511D01*
X157699366Y-70138302D01*
X157699364Y-70138313D01*
X157679532Y-70364998D01*
X157679532Y-70365001D01*
X157699364Y-70591686D01*
X157699366Y-70591697D01*
X157758258Y-70811488D01*
X157758261Y-70811497D01*
X157854431Y-71017732D01*
X157854432Y-71017734D01*
X157984954Y-71204141D01*
X158145858Y-71365045D01*
X158145861Y-71365047D01*
X158332266Y-71495568D01*
X158538504Y-71591739D01*
X158758308Y-71650635D01*
X158920230Y-71664801D01*
X158984998Y-71670468D01*
X158985000Y-71670468D01*
X158985002Y-71670468D01*
X159041672Y-71665509D01*
X159211692Y-71650635D01*
X159431496Y-71591739D01*
X159637734Y-71495568D01*
X159824139Y-71365047D01*
X159877818Y-71311368D01*
X159939141Y-71277882D01*
X160008833Y-71282866D01*
X160064766Y-71324737D01*
X160089184Y-71390201D01*
X160089500Y-71399048D01*
X160089500Y-71759902D01*
X160069815Y-71826941D01*
X160053181Y-71847583D01*
X159472583Y-72428181D01*
X159411260Y-72461666D01*
X159384902Y-72464500D01*
X158137129Y-72464500D01*
X158137123Y-72464501D01*
X158077516Y-72470908D01*
X157942671Y-72521202D01*
X157942664Y-72521206D01*
X157827455Y-72607452D01*
X157827452Y-72607455D01*
X157741206Y-72722664D01*
X157741202Y-72722671D01*
X157690908Y-72857517D01*
X157684501Y-72917116D01*
X157684501Y-72917123D01*
X157684500Y-72917135D01*
X157684500Y-73040500D01*
X157664815Y-73107539D01*
X157612011Y-73153294D01*
X157560500Y-73164500D01*
X156859499Y-73164500D01*
X156792460Y-73144815D01*
X156746705Y-73092011D01*
X156735499Y-73040500D01*
X156735499Y-72917129D01*
X156735498Y-72917123D01*
X156735497Y-72917116D01*
X156729091Y-72857517D01*
X156710088Y-72806568D01*
X156678797Y-72722671D01*
X156678793Y-72722664D01*
X156592547Y-72607455D01*
X156592544Y-72607452D01*
X156477335Y-72521206D01*
X156477328Y-72521202D01*
X156342482Y-72470908D01*
X156342483Y-72470908D01*
X156282883Y-72464501D01*
X156282881Y-72464500D01*
X156282873Y-72464500D01*
X156282864Y-72464500D01*
X154587129Y-72464500D01*
X154587123Y-72464501D01*
X154527516Y-72470908D01*
X154392671Y-72521202D01*
X154392664Y-72521206D01*
X154277455Y-72607452D01*
X154277452Y-72607455D01*
X154191206Y-72722664D01*
X154191202Y-72722671D01*
X154140908Y-72857517D01*
X154134501Y-72917116D01*
X154134501Y-72917123D01*
X154134500Y-72917135D01*
X154134500Y-73040500D01*
X154114815Y-73107539D01*
X154062011Y-73153294D01*
X154010500Y-73164500D01*
X153309499Y-73164500D01*
X153242460Y-73144815D01*
X153196705Y-73092011D01*
X153185499Y-73040500D01*
X153185499Y-72917129D01*
X153185498Y-72917123D01*
X153185497Y-72917116D01*
X153179091Y-72857517D01*
X153160088Y-72806568D01*
X153128797Y-72722671D01*
X153128793Y-72722664D01*
X153042547Y-72607455D01*
X153042544Y-72607452D01*
X152927335Y-72521206D01*
X152927328Y-72521202D01*
X152792482Y-72470908D01*
X152792483Y-72470908D01*
X152732883Y-72464501D01*
X152732881Y-72464500D01*
X152732873Y-72464500D01*
X152732864Y-72464500D01*
X151037129Y-72464500D01*
X151037123Y-72464501D01*
X150977516Y-72470908D01*
X150842671Y-72521202D01*
X150842664Y-72521206D01*
X150727455Y-72607452D01*
X150727452Y-72607455D01*
X150641206Y-72722664D01*
X150641202Y-72722671D01*
X150590908Y-72857517D01*
X150584501Y-72917116D01*
X150584501Y-72917123D01*
X150584500Y-72917135D01*
X150584500Y-73040500D01*
X150564815Y-73107539D01*
X150512011Y-73153294D01*
X150460500Y-73164500D01*
X149759499Y-73164500D01*
X149692460Y-73144815D01*
X149646705Y-73092011D01*
X149635499Y-73040500D01*
X149635499Y-72917129D01*
X149635498Y-72917123D01*
X149635497Y-72917116D01*
X149629091Y-72857517D01*
X149610088Y-72806568D01*
X149578797Y-72722671D01*
X149578793Y-72722664D01*
X149492547Y-72607455D01*
X149492544Y-72607452D01*
X149377335Y-72521206D01*
X149377328Y-72521202D01*
X149242482Y-72470908D01*
X149242483Y-72470908D01*
X149182883Y-72464501D01*
X149182881Y-72464500D01*
X149182873Y-72464500D01*
X149182864Y-72464500D01*
X147487129Y-72464500D01*
X147487123Y-72464501D01*
X147427516Y-72470908D01*
X147292671Y-72521202D01*
X147292664Y-72521206D01*
X147177455Y-72607452D01*
X147177452Y-72607455D01*
X147091206Y-72722664D01*
X147091202Y-72722671D01*
X147040908Y-72857517D01*
X147034501Y-72917116D01*
X147034501Y-72917123D01*
X147034500Y-72917135D01*
X147034500Y-74612870D01*
X147034501Y-74612876D01*
X147040908Y-74672483D01*
X147091202Y-74807328D01*
X147091206Y-74807335D01*
X147177452Y-74922544D01*
X147177455Y-74922547D01*
X147292664Y-75008793D01*
X147292673Y-75008798D01*
X147346792Y-75028983D01*
X147402726Y-75070854D01*
X147427144Y-75136318D01*
X147412293Y-75204591D01*
X147391146Y-75232841D01*
X147387034Y-75236952D01*
X147387029Y-75236959D01*
X147370681Y-75263463D01*
X147318732Y-75310187D01*
X147249769Y-75321407D01*
X147185688Y-75293562D01*
X147177463Y-75286045D01*
X141385292Y-69493874D01*
X141351807Y-69432551D01*
X141356791Y-69362859D01*
X141361761Y-69351349D01*
X141395805Y-69282316D01*
X141459945Y-69152252D01*
X141556880Y-68866691D01*
X141615713Y-68570920D01*
X141635436Y-68270000D01*
X141615713Y-67969080D01*
X141607425Y-67927416D01*
X141590492Y-67842289D01*
X141556880Y-67673309D01*
X141459945Y-67387748D01*
X141454555Y-67376819D01*
X141326568Y-67117286D01*
X141326564Y-67117279D01*
X141159026Y-66866540D01*
X140960189Y-66639810D01*
X140733459Y-66440973D01*
X140482720Y-66273435D01*
X140482713Y-66273431D01*
X140212268Y-66140062D01*
X140212247Y-66140053D01*
X139926698Y-66043122D01*
X139926692Y-66043120D01*
X139926691Y-66043120D01*
X139926689Y-66043119D01*
X139926683Y-66043118D01*
X139630930Y-65984288D01*
X139630921Y-65984287D01*
X139630920Y-65984287D01*
X139330000Y-65964564D01*
X139029080Y-65984287D01*
X139029079Y-65984287D01*
X139029069Y-65984288D01*
X138733316Y-66043118D01*
X138733301Y-66043122D01*
X138447752Y-66140053D01*
X138447731Y-66140062D01*
X138177286Y-66273431D01*
X138177279Y-66273435D01*
X137926540Y-66440973D01*
X137699810Y-66639810D01*
X137500973Y-66866540D01*
X137333435Y-67117279D01*
X137333431Y-67117286D01*
X137200062Y-67387731D01*
X137200053Y-67387752D01*
X137103122Y-67673301D01*
X137103118Y-67673316D01*
X137044288Y-67969069D01*
X137044287Y-67969079D01*
X137044287Y-67969080D01*
X137024564Y-68270000D01*
X137039347Y-68495555D01*
X137044287Y-68570918D01*
X137044288Y-68570930D01*
X137103118Y-68866683D01*
X137103122Y-68866698D01*
X137200053Y-69152247D01*
X137200062Y-69152268D01*
X137333431Y-69422713D01*
X137333435Y-69422720D01*
X137500973Y-69673459D01*
X137699810Y-69900189D01*
X137926540Y-70099026D01*
X138177279Y-70266564D01*
X138177286Y-70266568D01*
X138447731Y-70399937D01*
X138447736Y-70399939D01*
X138447748Y-70399945D01*
X138733309Y-70496880D01*
X138933251Y-70536651D01*
X139029069Y-70555711D01*
X139029070Y-70555711D01*
X139029080Y-70555713D01*
X139330000Y-70575436D01*
X139630920Y-70555713D01*
X139926691Y-70496880D01*
X140212252Y-70399945D01*
X140387486Y-70313528D01*
X140456314Y-70301532D01*
X140520705Y-70328653D01*
X140530008Y-70337060D01*
X142236511Y-72043563D01*
X142269996Y-72104886D01*
X142265012Y-72174578D01*
X142223140Y-72230511D01*
X142157676Y-72254928D01*
X142125363Y-72253003D01*
X141977473Y-72224500D01*
X141977472Y-72224500D01*
X141816382Y-72224500D01*
X141656028Y-72239812D01*
X141656029Y-72239812D01*
X141656025Y-72239813D01*
X141449793Y-72300368D01*
X141258736Y-72398864D01*
X141089785Y-72531729D01*
X141089782Y-72531733D01*
X140949021Y-72694178D01*
X140841553Y-72880319D01*
X140771251Y-73083442D01*
X140771250Y-73083444D01*
X140740661Y-73296200D01*
X140740660Y-73296202D01*
X140750887Y-73510901D01*
X140776519Y-73616557D01*
X140801563Y-73719790D01*
X140890854Y-73915310D01*
X141015534Y-74090399D01*
X141015535Y-74090400D01*
X141015540Y-74090406D01*
X141171094Y-74238725D01*
X141171096Y-74238726D01*
X141171097Y-74238727D01*
X141351920Y-74354935D01*
X141551468Y-74434822D01*
X141656997Y-74455160D01*
X141762527Y-74475500D01*
X141762528Y-74475500D01*
X141923612Y-74475500D01*
X141923618Y-74475500D01*
X142083971Y-74460188D01*
X142290209Y-74399631D01*
X142481259Y-74301138D01*
X142650217Y-74168268D01*
X142790976Y-74005824D01*
X142898448Y-73819677D01*
X142968750Y-73616554D01*
X142999339Y-73403797D01*
X142989112Y-73189096D01*
X142967385Y-73099536D01*
X142970710Y-73029748D01*
X143011238Y-72972833D01*
X143076103Y-72946865D01*
X143144710Y-72960088D01*
X143175571Y-72982623D01*
X146710767Y-76517819D01*
X146744252Y-76579142D01*
X146739268Y-76648834D01*
X146697396Y-76704767D01*
X146631932Y-76729184D01*
X146623086Y-76729500D01*
X129640097Y-76729500D01*
X129573058Y-76709815D01*
X129552416Y-76693181D01*
X126155437Y-73296202D01*
X130580660Y-73296202D01*
X130590887Y-73510901D01*
X130616519Y-73616557D01*
X130641563Y-73719790D01*
X130730854Y-73915310D01*
X130855534Y-74090399D01*
X130855535Y-74090400D01*
X130855540Y-74090406D01*
X131011094Y-74238725D01*
X131011096Y-74238726D01*
X131011097Y-74238727D01*
X131191920Y-74354935D01*
X131391468Y-74434822D01*
X131496997Y-74455160D01*
X131602527Y-74475500D01*
X131602528Y-74475500D01*
X131763612Y-74475500D01*
X131763618Y-74475500D01*
X131923971Y-74460188D01*
X132130209Y-74399631D01*
X132321259Y-74301138D01*
X132490217Y-74168268D01*
X132630976Y-74005824D01*
X132738448Y-73819677D01*
X132808750Y-73616554D01*
X132839339Y-73403797D01*
X132831727Y-73243999D01*
X132848200Y-73176101D01*
X132898767Y-73127885D01*
X132963700Y-73114367D01*
X132980000Y-73115436D01*
X133280920Y-73095713D01*
X133576691Y-73036880D01*
X133862252Y-72939945D01*
X134132718Y-72806566D01*
X134383461Y-72639025D01*
X134425063Y-72602540D01*
X134488446Y-72573136D01*
X134557662Y-72582668D01*
X134610738Y-72628107D01*
X134630822Y-72695028D01*
X134625257Y-72732505D01*
X134595907Y-72827118D01*
X134560525Y-73036880D01*
X134545791Y-73124230D01*
X134539980Y-73298057D01*
X134535723Y-73425373D01*
X134565881Y-73725160D01*
X134565882Y-73725162D01*
X134635728Y-74018252D01*
X134635733Y-74018266D01*
X134744020Y-74299427D01*
X134744024Y-74299436D01*
X134888825Y-74563665D01*
X134888829Y-74563671D01*
X135067551Y-74806234D01*
X135067554Y-74806238D01*
X135277020Y-75022824D01*
X135337841Y-75070854D01*
X135513478Y-75209553D01*
X135513480Y-75209554D01*
X135513485Y-75209558D01*
X135772730Y-75363109D01*
X136050128Y-75480736D01*
X136340729Y-75560340D01*
X136639347Y-75600500D01*
X136639351Y-75600500D01*
X136865252Y-75600500D01*
X137029164Y-75589526D01*
X137090634Y-75585412D01*
X137385903Y-75525396D01*
X137670537Y-75426560D01*
X137939459Y-75290668D01*
X138187869Y-75120144D01*
X138411333Y-74918032D01*
X138605865Y-74687939D01*
X138767993Y-74433970D01*
X138894823Y-74160658D01*
X138984093Y-73872879D01*
X139034209Y-73575770D01*
X139044277Y-73274631D01*
X139014118Y-72974838D01*
X138944269Y-72681739D01*
X138835977Y-72400566D01*
X138691175Y-72136335D01*
X138625954Y-72047817D01*
X138512448Y-71893765D01*
X138512446Y-71893762D01*
X138302980Y-71677176D01*
X138194792Y-71591741D01*
X138066521Y-71490446D01*
X138066517Y-71490443D01*
X138066515Y-71490442D01*
X137807270Y-71336891D01*
X137529872Y-71219264D01*
X137529863Y-71219261D01*
X137239272Y-71139660D01*
X137164616Y-71129620D01*
X136940653Y-71099500D01*
X136714756Y-71099500D01*
X136714748Y-71099500D01*
X136489368Y-71114587D01*
X136489359Y-71114589D01*
X136194094Y-71174604D01*
X135909464Y-71273439D01*
X135909459Y-71273441D01*
X135640546Y-71409328D01*
X135514919Y-71495567D01*
X135392131Y-71579856D01*
X135392128Y-71579858D01*
X135392123Y-71579862D01*
X135388865Y-71582435D01*
X135387836Y-71581131D01*
X135331092Y-71608514D01*
X135261738Y-71600039D01*
X135207976Y-71555413D01*
X135186875Y-71488806D01*
X135193428Y-71446319D01*
X135206880Y-71406691D01*
X135265713Y-71110920D01*
X135285436Y-70810000D01*
X135265713Y-70509080D01*
X135263286Y-70496881D01*
X135244005Y-70399946D01*
X135206880Y-70213309D01*
X135109945Y-69927748D01*
X135105386Y-69918504D01*
X134976568Y-69657286D01*
X134976564Y-69657279D01*
X134809026Y-69406540D01*
X134610189Y-69179810D01*
X134383459Y-68980973D01*
X134132720Y-68813435D01*
X134132713Y-68813431D01*
X133862268Y-68680062D01*
X133862247Y-68680053D01*
X133576698Y-68583122D01*
X133576692Y-68583120D01*
X133576691Y-68583120D01*
X133576689Y-68583119D01*
X133576683Y-68583118D01*
X133280930Y-68524288D01*
X133280921Y-68524287D01*
X133280920Y-68524287D01*
X132980000Y-68504564D01*
X132979999Y-68504564D01*
X132926416Y-68508076D01*
X132679080Y-68524287D01*
X132679079Y-68524287D01*
X132679069Y-68524288D01*
X132383316Y-68583118D01*
X132383301Y-68583122D01*
X132097752Y-68680053D01*
X132097731Y-68680062D01*
X131827286Y-68813431D01*
X131827279Y-68813435D01*
X131576540Y-68980973D01*
X131349810Y-69179810D01*
X131150973Y-69406540D01*
X130983435Y-69657279D01*
X130983431Y-69657286D01*
X130850062Y-69927731D01*
X130850053Y-69927752D01*
X130753122Y-70213301D01*
X130753118Y-70213316D01*
X130694288Y-70509069D01*
X130694287Y-70509079D01*
X130694287Y-70509080D01*
X130674564Y-70810000D01*
X130690619Y-71054963D01*
X130694287Y-71110918D01*
X130694288Y-71110930D01*
X130753118Y-71406683D01*
X130753122Y-71406698D01*
X130850053Y-71692247D01*
X130850062Y-71692268D01*
X130983430Y-71962711D01*
X130983432Y-71962714D01*
X130983434Y-71962718D01*
X131048435Y-72059999D01*
X131152578Y-72215861D01*
X131173455Y-72282538D01*
X131154970Y-72349918D01*
X131106299Y-72394965D01*
X131098739Y-72398862D01*
X130929785Y-72531729D01*
X130929782Y-72531733D01*
X130789021Y-72694178D01*
X130681553Y-72880319D01*
X130611251Y-73083442D01*
X130611250Y-73083444D01*
X130580661Y-73296200D01*
X130580660Y-73296202D01*
X126155437Y-73296202D01*
X122341176Y-69481941D01*
X122307691Y-69420618D01*
X122312675Y-69350926D01*
X122317639Y-69339428D01*
X122409945Y-69152252D01*
X122506880Y-68866691D01*
X122565713Y-68570920D01*
X122585436Y-68270000D01*
X122565713Y-67969080D01*
X122557425Y-67927416D01*
X122540492Y-67842289D01*
X122506880Y-67673309D01*
X122409945Y-67387748D01*
X122404555Y-67376819D01*
X122276568Y-67117286D01*
X122276564Y-67117279D01*
X122109026Y-66866540D01*
X121910189Y-66639810D01*
X121683459Y-66440973D01*
X121432720Y-66273435D01*
X121432713Y-66273431D01*
X121162268Y-66140062D01*
X121162247Y-66140053D01*
X120876698Y-66043122D01*
X120876692Y-66043120D01*
X120876691Y-66043120D01*
X120876689Y-66043119D01*
X120876683Y-66043118D01*
X120580930Y-65984288D01*
X120580921Y-65984287D01*
X120580920Y-65984287D01*
X120280000Y-65964564D01*
X119979080Y-65984287D01*
X119979079Y-65984287D01*
X119979069Y-65984288D01*
X119683316Y-66043118D01*
X119683301Y-66043122D01*
X119397752Y-66140053D01*
X119397731Y-66140062D01*
X119127286Y-66273431D01*
X119127279Y-66273435D01*
X118876540Y-66440973D01*
X118649810Y-66639810D01*
X118450973Y-66866540D01*
X118283435Y-67117279D01*
X118283431Y-67117286D01*
X118150062Y-67387731D01*
X118150053Y-67387752D01*
X118053122Y-67673301D01*
X118053118Y-67673316D01*
X117994288Y-67969069D01*
X117994287Y-67969079D01*
X117994287Y-67969080D01*
X117974564Y-68270000D01*
X117989347Y-68495555D01*
X117994287Y-68570918D01*
X117994288Y-68570930D01*
X118053118Y-68866683D01*
X118053122Y-68866698D01*
X118150053Y-69152247D01*
X118150062Y-69152268D01*
X118283431Y-69422713D01*
X118283435Y-69422720D01*
X118450973Y-69673459D01*
X118649810Y-69900189D01*
X118876540Y-70099026D01*
X119127279Y-70266564D01*
X119127286Y-70266568D01*
X119397731Y-70399937D01*
X119397736Y-70399939D01*
X119397748Y-70399945D01*
X119683309Y-70496880D01*
X119883251Y-70536651D01*
X119979069Y-70555711D01*
X119979070Y-70555711D01*
X119979080Y-70555713D01*
X120280000Y-70575436D01*
X120580920Y-70555713D01*
X120876691Y-70496880D01*
X121162252Y-70399945D01*
X121349418Y-70307644D01*
X121418248Y-70295648D01*
X121482639Y-70322770D01*
X121491941Y-70331176D01*
X123208582Y-72047817D01*
X123242067Y-72109140D01*
X123237083Y-72178832D01*
X123195211Y-72234765D01*
X123129747Y-72259182D01*
X123097434Y-72257257D01*
X122927473Y-72224500D01*
X122927472Y-72224500D01*
X122766382Y-72224500D01*
X122606028Y-72239812D01*
X122606029Y-72239812D01*
X122606025Y-72239813D01*
X122399793Y-72300368D01*
X122208736Y-72398864D01*
X122039785Y-72531729D01*
X122039782Y-72531733D01*
X121899021Y-72694178D01*
X121791553Y-72880319D01*
X121721251Y-73083442D01*
X121721250Y-73083444D01*
X121690661Y-73296200D01*
X121690660Y-73296202D01*
X121700887Y-73510901D01*
X121726519Y-73616557D01*
X121751563Y-73719790D01*
X121840854Y-73915310D01*
X121965534Y-74090399D01*
X121965535Y-74090400D01*
X121965540Y-74090406D01*
X122121094Y-74238725D01*
X122121096Y-74238726D01*
X122121097Y-74238727D01*
X122301920Y-74354935D01*
X122501468Y-74434822D01*
X122606997Y-74455161D01*
X122712527Y-74475500D01*
X122712528Y-74475500D01*
X122873612Y-74475500D01*
X122873618Y-74475500D01*
X123033971Y-74460188D01*
X123240209Y-74399631D01*
X123431259Y-74301138D01*
X123600217Y-74168268D01*
X123740976Y-74005824D01*
X123848448Y-73819677D01*
X123918750Y-73616554D01*
X123949339Y-73403797D01*
X123939112Y-73189096D01*
X123911678Y-73076011D01*
X123915003Y-73006224D01*
X123955531Y-72949309D01*
X124020396Y-72923341D01*
X124089003Y-72936564D01*
X124119864Y-72959099D01*
X128078584Y-76917819D01*
X128112069Y-76979142D01*
X128107085Y-77048834D01*
X128065213Y-77104767D01*
X127999749Y-77129184D01*
X127990903Y-77129500D01*
X110990097Y-77129500D01*
X110923058Y-77109815D01*
X110902416Y-77093181D01*
X107105437Y-73296202D01*
X111530660Y-73296202D01*
X111540887Y-73510901D01*
X111566519Y-73616557D01*
X111591563Y-73719790D01*
X111680854Y-73915310D01*
X111805534Y-74090399D01*
X111805535Y-74090400D01*
X111805540Y-74090406D01*
X111961094Y-74238725D01*
X111961096Y-74238726D01*
X111961097Y-74238727D01*
X112141920Y-74354935D01*
X112341468Y-74434822D01*
X112446998Y-74455161D01*
X112552527Y-74475500D01*
X112552528Y-74475500D01*
X112713612Y-74475500D01*
X112713618Y-74475500D01*
X112873971Y-74460188D01*
X113080209Y-74399631D01*
X113271259Y-74301138D01*
X113440217Y-74168268D01*
X113580976Y-74005824D01*
X113688448Y-73819677D01*
X113758750Y-73616554D01*
X113789339Y-73403797D01*
X113781727Y-73243999D01*
X113798200Y-73176101D01*
X113848767Y-73127885D01*
X113913700Y-73114367D01*
X113930000Y-73115436D01*
X114230920Y-73095713D01*
X114526691Y-73036880D01*
X114812252Y-72939945D01*
X115082718Y-72806566D01*
X115333461Y-72639025D01*
X115375063Y-72602540D01*
X115438446Y-72573136D01*
X115507662Y-72582668D01*
X115560738Y-72628107D01*
X115580822Y-72695028D01*
X115575257Y-72732505D01*
X115545907Y-72827118D01*
X115510525Y-73036880D01*
X115495791Y-73124230D01*
X115489980Y-73298057D01*
X115485723Y-73425373D01*
X115515881Y-73725160D01*
X115515882Y-73725162D01*
X115585728Y-74018252D01*
X115585733Y-74018266D01*
X115694020Y-74299427D01*
X115694024Y-74299436D01*
X115838825Y-74563665D01*
X115838829Y-74563671D01*
X116017551Y-74806234D01*
X116017554Y-74806238D01*
X116227020Y-75022824D01*
X116287841Y-75070854D01*
X116463478Y-75209553D01*
X116463480Y-75209554D01*
X116463485Y-75209558D01*
X116722730Y-75363109D01*
X117000128Y-75480736D01*
X117290729Y-75560340D01*
X117589347Y-75600500D01*
X117589351Y-75600500D01*
X117815252Y-75600500D01*
X117979164Y-75589526D01*
X118040634Y-75585412D01*
X118335903Y-75525396D01*
X118620537Y-75426560D01*
X118889459Y-75290668D01*
X119137869Y-75120144D01*
X119361333Y-74918032D01*
X119555865Y-74687939D01*
X119717993Y-74433970D01*
X119844823Y-74160658D01*
X119934093Y-73872879D01*
X119984209Y-73575770D01*
X119994277Y-73274631D01*
X119964118Y-72974838D01*
X119894269Y-72681739D01*
X119785977Y-72400566D01*
X119641175Y-72136335D01*
X119575954Y-72047817D01*
X119462448Y-71893765D01*
X119462446Y-71893762D01*
X119252980Y-71677176D01*
X119144792Y-71591741D01*
X119016521Y-71490446D01*
X119016517Y-71490443D01*
X119016515Y-71490442D01*
X118757270Y-71336891D01*
X118479872Y-71219264D01*
X118479863Y-71219261D01*
X118189272Y-71139660D01*
X118114616Y-71129620D01*
X117890653Y-71099500D01*
X117664756Y-71099500D01*
X117664748Y-71099500D01*
X117439368Y-71114587D01*
X117439359Y-71114589D01*
X117144094Y-71174604D01*
X116859464Y-71273439D01*
X116859459Y-71273441D01*
X116590546Y-71409328D01*
X116464919Y-71495567D01*
X116342131Y-71579856D01*
X116342128Y-71579858D01*
X116342123Y-71579862D01*
X116338865Y-71582435D01*
X116337836Y-71581131D01*
X116281092Y-71608514D01*
X116211738Y-71600039D01*
X116157976Y-71555413D01*
X116136875Y-71488806D01*
X116143428Y-71446319D01*
X116156880Y-71406691D01*
X116215713Y-71110920D01*
X116235436Y-70810000D01*
X116215713Y-70509080D01*
X116213286Y-70496881D01*
X116194005Y-70399946D01*
X116156880Y-70213309D01*
X116059945Y-69927748D01*
X116055386Y-69918504D01*
X115926568Y-69657286D01*
X115926564Y-69657279D01*
X115759026Y-69406540D01*
X115560189Y-69179810D01*
X115333459Y-68980973D01*
X115082720Y-68813435D01*
X115082713Y-68813431D01*
X114812268Y-68680062D01*
X114812247Y-68680053D01*
X114526698Y-68583122D01*
X114526692Y-68583120D01*
X114526691Y-68583120D01*
X114526689Y-68583119D01*
X114526683Y-68583118D01*
X114230930Y-68524288D01*
X114230921Y-68524287D01*
X114230920Y-68524287D01*
X113930000Y-68504564D01*
X113929999Y-68504564D01*
X113876416Y-68508076D01*
X113629080Y-68524287D01*
X113629079Y-68524287D01*
X113629069Y-68524288D01*
X113333316Y-68583118D01*
X113333301Y-68583122D01*
X113047752Y-68680053D01*
X113047731Y-68680062D01*
X112777286Y-68813431D01*
X112777279Y-68813435D01*
X112526540Y-68980973D01*
X112299810Y-69179810D01*
X112100973Y-69406540D01*
X111933435Y-69657279D01*
X111933431Y-69657286D01*
X111800062Y-69927731D01*
X111800053Y-69927752D01*
X111703122Y-70213301D01*
X111703118Y-70213316D01*
X111644288Y-70509069D01*
X111644287Y-70509079D01*
X111644287Y-70509080D01*
X111624564Y-70810000D01*
X111640619Y-71054963D01*
X111644287Y-71110918D01*
X111644288Y-71110930D01*
X111703118Y-71406683D01*
X111703122Y-71406698D01*
X111800053Y-71692247D01*
X111800062Y-71692268D01*
X111933430Y-71962711D01*
X111933432Y-71962714D01*
X111933434Y-71962718D01*
X111998435Y-72059999D01*
X112102578Y-72215861D01*
X112123455Y-72282538D01*
X112104970Y-72349918D01*
X112056299Y-72394965D01*
X112048739Y-72398862D01*
X111879785Y-72531729D01*
X111879782Y-72531733D01*
X111739021Y-72694178D01*
X111631553Y-72880319D01*
X111561251Y-73083442D01*
X111561250Y-73083444D01*
X111530661Y-73296200D01*
X111530660Y-73296202D01*
X107105437Y-73296202D01*
X103291176Y-69481941D01*
X103257691Y-69420618D01*
X103262675Y-69350926D01*
X103267639Y-69339428D01*
X103359945Y-69152252D01*
X103456880Y-68866691D01*
X103515713Y-68570920D01*
X103535436Y-68270000D01*
X103515713Y-67969080D01*
X103507425Y-67927416D01*
X103490492Y-67842289D01*
X103456880Y-67673309D01*
X103359945Y-67387748D01*
X103354555Y-67376819D01*
X103226568Y-67117286D01*
X103226564Y-67117279D01*
X103059026Y-66866540D01*
X102860189Y-66639810D01*
X102633459Y-66440973D01*
X102382720Y-66273435D01*
X102382713Y-66273431D01*
X102112268Y-66140062D01*
X102112247Y-66140053D01*
X101826698Y-66043122D01*
X101826692Y-66043120D01*
X101826691Y-66043120D01*
X101826689Y-66043119D01*
X101826683Y-66043118D01*
X101530930Y-65984288D01*
X101530921Y-65984287D01*
X101530920Y-65984287D01*
X101230000Y-65964564D01*
X100929080Y-65984287D01*
X100929079Y-65984287D01*
X100929069Y-65984288D01*
X100633316Y-66043118D01*
X100633301Y-66043122D01*
X100347752Y-66140053D01*
X100347731Y-66140062D01*
X100077286Y-66273431D01*
X100077279Y-66273435D01*
X99826540Y-66440973D01*
X99599810Y-66639810D01*
X99400973Y-66866540D01*
X99233435Y-67117279D01*
X99233431Y-67117286D01*
X99100062Y-67387731D01*
X99100053Y-67387752D01*
X99003122Y-67673301D01*
X99003118Y-67673316D01*
X98944288Y-67969069D01*
X98944287Y-67969079D01*
X98944287Y-67969080D01*
X98924564Y-68270000D01*
X98939347Y-68495555D01*
X98944287Y-68570918D01*
X98944288Y-68570930D01*
X99003118Y-68866683D01*
X99003122Y-68866698D01*
X99100053Y-69152247D01*
X99100062Y-69152268D01*
X99233431Y-69422713D01*
X99233435Y-69422720D01*
X99400973Y-69673459D01*
X99599810Y-69900189D01*
X99826540Y-70099026D01*
X100077279Y-70266564D01*
X100077286Y-70266568D01*
X100347731Y-70399937D01*
X100347736Y-70399939D01*
X100347748Y-70399945D01*
X100633309Y-70496880D01*
X100833251Y-70536651D01*
X100929069Y-70555711D01*
X100929070Y-70555711D01*
X100929080Y-70555713D01*
X101230000Y-70575436D01*
X101530920Y-70555713D01*
X101826691Y-70496880D01*
X102112252Y-70399945D01*
X102299418Y-70307644D01*
X102368248Y-70295648D01*
X102432639Y-70322770D01*
X102441941Y-70331176D01*
X104158582Y-72047817D01*
X104192067Y-72109140D01*
X104187083Y-72178832D01*
X104145211Y-72234765D01*
X104079747Y-72259182D01*
X104047434Y-72257257D01*
X103877473Y-72224500D01*
X103877472Y-72224500D01*
X103716382Y-72224500D01*
X103556028Y-72239812D01*
X103556029Y-72239812D01*
X103556025Y-72239813D01*
X103349793Y-72300368D01*
X103158736Y-72398864D01*
X102989785Y-72531729D01*
X102989782Y-72531733D01*
X102849021Y-72694178D01*
X102741553Y-72880319D01*
X102671251Y-73083442D01*
X102671250Y-73083444D01*
X102640661Y-73296200D01*
X102640660Y-73296202D01*
X102650887Y-73510901D01*
X102676519Y-73616557D01*
X102701563Y-73719790D01*
X102790854Y-73915310D01*
X102915534Y-74090399D01*
X102915535Y-74090400D01*
X102915540Y-74090406D01*
X103071094Y-74238725D01*
X103071096Y-74238726D01*
X103071097Y-74238727D01*
X103251920Y-74354935D01*
X103451468Y-74434822D01*
X103556997Y-74455160D01*
X103662527Y-74475500D01*
X103662528Y-74475500D01*
X103823612Y-74475500D01*
X103823618Y-74475500D01*
X103983971Y-74460188D01*
X104190209Y-74399631D01*
X104381259Y-74301138D01*
X104550217Y-74168268D01*
X104690976Y-74005824D01*
X104798448Y-73819677D01*
X104868750Y-73616554D01*
X104899339Y-73403797D01*
X104889112Y-73189096D01*
X104861678Y-73076011D01*
X104865003Y-73006224D01*
X104905531Y-72949309D01*
X104970396Y-72923341D01*
X105039003Y-72936564D01*
X105069864Y-72959099D01*
X109428584Y-77317819D01*
X109462069Y-77379142D01*
X109457085Y-77448834D01*
X109415213Y-77504767D01*
X109349749Y-77529184D01*
X109340903Y-77529500D01*
X92340097Y-77529500D01*
X92273058Y-77509815D01*
X92252416Y-77493181D01*
X88055437Y-73296202D01*
X92480660Y-73296202D01*
X92490887Y-73510901D01*
X92516519Y-73616557D01*
X92541563Y-73719790D01*
X92630854Y-73915310D01*
X92755534Y-74090399D01*
X92755535Y-74090400D01*
X92755540Y-74090406D01*
X92911094Y-74238725D01*
X92911096Y-74238726D01*
X92911097Y-74238727D01*
X93091920Y-74354935D01*
X93291468Y-74434822D01*
X93396997Y-74455160D01*
X93502527Y-74475500D01*
X93502528Y-74475500D01*
X93663612Y-74475500D01*
X93663618Y-74475500D01*
X93823971Y-74460188D01*
X94030209Y-74399631D01*
X94221259Y-74301138D01*
X94390217Y-74168268D01*
X94530976Y-74005824D01*
X94638448Y-73819677D01*
X94708750Y-73616554D01*
X94739339Y-73403797D01*
X94731727Y-73243999D01*
X94748200Y-73176101D01*
X94798767Y-73127885D01*
X94863700Y-73114367D01*
X94880000Y-73115436D01*
X95180920Y-73095713D01*
X95476691Y-73036880D01*
X95762252Y-72939945D01*
X96032718Y-72806566D01*
X96283461Y-72639025D01*
X96325063Y-72602540D01*
X96388446Y-72573136D01*
X96457662Y-72582668D01*
X96510738Y-72628107D01*
X96530822Y-72695028D01*
X96525257Y-72732505D01*
X96495907Y-72827118D01*
X96460525Y-73036880D01*
X96445791Y-73124230D01*
X96439980Y-73298057D01*
X96435723Y-73425373D01*
X96465881Y-73725160D01*
X96465882Y-73725162D01*
X96535728Y-74018252D01*
X96535733Y-74018266D01*
X96644020Y-74299427D01*
X96644024Y-74299436D01*
X96788825Y-74563665D01*
X96788829Y-74563671D01*
X96967551Y-74806234D01*
X96967554Y-74806238D01*
X97177020Y-75022824D01*
X97237841Y-75070854D01*
X97413478Y-75209553D01*
X97413480Y-75209554D01*
X97413485Y-75209558D01*
X97672730Y-75363109D01*
X97950128Y-75480736D01*
X98240729Y-75560340D01*
X98539347Y-75600500D01*
X98539351Y-75600500D01*
X98765252Y-75600500D01*
X98929164Y-75589526D01*
X98990634Y-75585412D01*
X99285903Y-75525396D01*
X99570537Y-75426560D01*
X99839459Y-75290668D01*
X100087869Y-75120144D01*
X100311333Y-74918032D01*
X100505865Y-74687939D01*
X100667993Y-74433970D01*
X100794823Y-74160658D01*
X100884093Y-73872879D01*
X100934209Y-73575770D01*
X100944277Y-73274631D01*
X100914118Y-72974838D01*
X100844269Y-72681739D01*
X100735977Y-72400566D01*
X100591175Y-72136335D01*
X100525954Y-72047817D01*
X100412448Y-71893765D01*
X100412446Y-71893762D01*
X100202980Y-71677176D01*
X100094792Y-71591741D01*
X99966521Y-71490446D01*
X99966517Y-71490443D01*
X99966515Y-71490442D01*
X99707270Y-71336891D01*
X99429872Y-71219264D01*
X99429863Y-71219261D01*
X99139272Y-71139660D01*
X99064616Y-71129620D01*
X98840653Y-71099500D01*
X98614756Y-71099500D01*
X98614748Y-71099500D01*
X98389368Y-71114587D01*
X98389359Y-71114589D01*
X98094094Y-71174604D01*
X97809464Y-71273439D01*
X97809459Y-71273441D01*
X97540546Y-71409328D01*
X97414919Y-71495567D01*
X97292131Y-71579856D01*
X97292128Y-71579858D01*
X97292123Y-71579862D01*
X97288865Y-71582435D01*
X97287836Y-71581131D01*
X97231092Y-71608514D01*
X97161738Y-71600039D01*
X97107976Y-71555413D01*
X97086875Y-71488806D01*
X97093428Y-71446319D01*
X97106880Y-71406691D01*
X97165713Y-71110920D01*
X97185436Y-70810000D01*
X97165713Y-70509080D01*
X97163286Y-70496881D01*
X97144005Y-70399946D01*
X97106880Y-70213309D01*
X97009945Y-69927748D01*
X97005386Y-69918504D01*
X96876568Y-69657286D01*
X96876564Y-69657279D01*
X96709026Y-69406540D01*
X96510189Y-69179810D01*
X96283459Y-68980973D01*
X96032720Y-68813435D01*
X96032713Y-68813431D01*
X95762268Y-68680062D01*
X95762247Y-68680053D01*
X95476698Y-68583122D01*
X95476692Y-68583120D01*
X95476691Y-68583120D01*
X95476689Y-68583119D01*
X95476683Y-68583118D01*
X95180930Y-68524288D01*
X95180921Y-68524287D01*
X95180920Y-68524287D01*
X94880000Y-68504564D01*
X94579080Y-68524287D01*
X94579079Y-68524287D01*
X94579069Y-68524288D01*
X94283316Y-68583118D01*
X94283301Y-68583122D01*
X93997752Y-68680053D01*
X93997731Y-68680062D01*
X93727286Y-68813431D01*
X93727279Y-68813435D01*
X93476540Y-68980973D01*
X93249810Y-69179810D01*
X93050973Y-69406540D01*
X92883435Y-69657279D01*
X92883431Y-69657286D01*
X92750062Y-69927731D01*
X92750053Y-69927752D01*
X92653122Y-70213301D01*
X92653118Y-70213316D01*
X92594288Y-70509069D01*
X92594287Y-70509079D01*
X92594287Y-70509080D01*
X92574564Y-70810000D01*
X92590619Y-71054963D01*
X92594287Y-71110918D01*
X92594288Y-71110930D01*
X92653118Y-71406683D01*
X92653122Y-71406698D01*
X92750053Y-71692247D01*
X92750062Y-71692268D01*
X92883430Y-71962711D01*
X92883432Y-71962714D01*
X92883434Y-71962718D01*
X92948435Y-72059999D01*
X93052578Y-72215861D01*
X93073455Y-72282538D01*
X93054970Y-72349918D01*
X93006299Y-72394965D01*
X92998739Y-72398862D01*
X92829785Y-72531729D01*
X92829782Y-72531733D01*
X92689021Y-72694178D01*
X92581553Y-72880319D01*
X92511251Y-73083442D01*
X92511250Y-73083444D01*
X92480661Y-73296200D01*
X92480660Y-73296202D01*
X88055437Y-73296202D01*
X84241176Y-69481941D01*
X84207691Y-69420618D01*
X84212675Y-69350926D01*
X84217639Y-69339428D01*
X84309945Y-69152252D01*
X84406880Y-68866691D01*
X84465713Y-68570920D01*
X84485436Y-68270000D01*
X84465713Y-67969080D01*
X84457425Y-67927416D01*
X84440492Y-67842289D01*
X84406880Y-67673309D01*
X84309945Y-67387748D01*
X84304555Y-67376819D01*
X84176568Y-67117286D01*
X84176564Y-67117279D01*
X84009026Y-66866540D01*
X83810189Y-66639810D01*
X83583459Y-66440973D01*
X83332720Y-66273435D01*
X83332713Y-66273431D01*
X83062268Y-66140062D01*
X83062247Y-66140053D01*
X82776698Y-66043122D01*
X82776692Y-66043120D01*
X82776691Y-66043120D01*
X82776689Y-66043119D01*
X82776683Y-66043118D01*
X82480930Y-65984288D01*
X82480921Y-65984287D01*
X82480920Y-65984287D01*
X82180000Y-65964564D01*
X81879080Y-65984287D01*
X81879079Y-65984287D01*
X81879069Y-65984288D01*
X81583316Y-66043118D01*
X81583301Y-66043122D01*
X81297752Y-66140053D01*
X81297731Y-66140062D01*
X81027286Y-66273431D01*
X81027279Y-66273435D01*
X80776540Y-66440973D01*
X80549810Y-66639810D01*
X80350973Y-66866540D01*
X80183435Y-67117279D01*
X80183431Y-67117286D01*
X80050062Y-67387731D01*
X80050053Y-67387752D01*
X79953122Y-67673301D01*
X79953118Y-67673316D01*
X79894288Y-67969069D01*
X79894287Y-67969079D01*
X79894287Y-67969080D01*
X79874564Y-68270000D01*
X79889347Y-68495555D01*
X79894287Y-68570918D01*
X79894288Y-68570930D01*
X79953118Y-68866683D01*
X79953122Y-68866698D01*
X80050053Y-69152247D01*
X80050062Y-69152268D01*
X80183431Y-69422713D01*
X80183435Y-69422720D01*
X80350973Y-69673459D01*
X80549810Y-69900189D01*
X80776540Y-70099026D01*
X81027279Y-70266564D01*
X81027286Y-70266568D01*
X81297731Y-70399937D01*
X81297736Y-70399939D01*
X81297748Y-70399945D01*
X81583309Y-70496880D01*
X81783251Y-70536651D01*
X81879069Y-70555711D01*
X81879070Y-70555711D01*
X81879080Y-70555713D01*
X82180000Y-70575436D01*
X82480920Y-70555713D01*
X82776691Y-70496880D01*
X83062252Y-70399945D01*
X83249418Y-70307644D01*
X83318248Y-70295648D01*
X83382639Y-70322770D01*
X83391941Y-70331176D01*
X85108582Y-72047817D01*
X85142067Y-72109140D01*
X85137083Y-72178832D01*
X85095211Y-72234765D01*
X85029747Y-72259182D01*
X84997434Y-72257257D01*
X84827473Y-72224500D01*
X84827472Y-72224500D01*
X84666382Y-72224500D01*
X84506028Y-72239812D01*
X84506029Y-72239812D01*
X84506025Y-72239813D01*
X84299793Y-72300368D01*
X84108736Y-72398864D01*
X83939785Y-72531729D01*
X83939782Y-72531733D01*
X83799021Y-72694178D01*
X83691553Y-72880319D01*
X83621251Y-73083442D01*
X83621250Y-73083444D01*
X83590661Y-73296200D01*
X83590660Y-73296202D01*
X83600887Y-73510901D01*
X83626519Y-73616557D01*
X83651563Y-73719790D01*
X83740854Y-73915310D01*
X83865534Y-74090399D01*
X83865535Y-74090400D01*
X83865540Y-74090406D01*
X84021094Y-74238725D01*
X84021096Y-74238726D01*
X84021097Y-74238727D01*
X84201920Y-74354935D01*
X84401468Y-74434822D01*
X84506997Y-74455161D01*
X84612527Y-74475500D01*
X84612528Y-74475500D01*
X84773612Y-74475500D01*
X84773618Y-74475500D01*
X84933971Y-74460188D01*
X85140209Y-74399631D01*
X85331259Y-74301138D01*
X85500217Y-74168268D01*
X85640976Y-74005824D01*
X85748448Y-73819677D01*
X85818750Y-73616554D01*
X85849339Y-73403797D01*
X85839112Y-73189096D01*
X85811678Y-73076011D01*
X85815003Y-73006224D01*
X85855531Y-72949309D01*
X85920396Y-72923341D01*
X85989003Y-72936564D01*
X86019864Y-72959099D01*
X91584669Y-78523904D01*
X91590022Y-78530007D01*
X91611717Y-78558281D01*
X91678229Y-78609317D01*
X91678230Y-78609319D01*
X91726035Y-78646000D01*
X91737159Y-78654536D01*
X91737161Y-78654536D01*
X91737163Y-78654538D01*
X91801758Y-78681294D01*
X91883238Y-78715044D01*
X91961619Y-78725363D01*
X92039999Y-78735682D01*
X92040000Y-78735682D01*
X92075329Y-78731030D01*
X92083428Y-78730500D01*
X146949903Y-78730500D01*
X147016942Y-78750185D01*
X147037584Y-78766819D01*
X147198181Y-78927416D01*
X147231666Y-78988739D01*
X147234500Y-79015097D01*
X147234500Y-79488337D01*
X147234501Y-79488355D01*
X147244650Y-79587707D01*
X147244651Y-79587710D01*
X147297996Y-79748694D01*
X147298001Y-79748705D01*
X147387029Y-79893040D01*
X147387032Y-79893044D01*
X147506955Y-80012967D01*
X147506959Y-80012970D01*
X147607853Y-80075203D01*
X147654578Y-80127151D01*
X147665799Y-80196113D01*
X147637956Y-80260195D01*
X147613879Y-80282316D01*
X147495859Y-80364953D01*
X147334954Y-80525858D01*
X147204432Y-80712265D01*
X147204431Y-80712267D01*
X147108261Y-80918502D01*
X147108258Y-80918511D01*
X147049366Y-81138302D01*
X147049364Y-81138313D01*
X147029532Y-81364998D01*
X147029532Y-81365001D01*
X147049364Y-81591686D01*
X147049366Y-81591697D01*
X147108258Y-81811488D01*
X147108261Y-81811497D01*
X147204431Y-82017732D01*
X147204432Y-82017734D01*
X147334954Y-82204141D01*
X147495858Y-82365045D01*
X147495861Y-82365047D01*
X147682266Y-82495568D01*
X147888504Y-82591739D01*
X147888509Y-82591740D01*
X147888511Y-82591741D01*
X148034002Y-82630725D01*
X148093663Y-82667090D01*
X148124192Y-82729937D01*
X148115897Y-82799312D01*
X148071412Y-82853190D01*
X148004860Y-82874465D01*
X148001909Y-82874500D01*
X72316878Y-82874500D01*
X72313133Y-82874387D01*
X72215896Y-82868504D01*
X72046340Y-82857391D01*
X72039214Y-82856507D01*
X71915767Y-82833885D01*
X71808618Y-82812572D01*
X71774172Y-82805720D01*
X71767831Y-82804107D01*
X71689516Y-82779703D01*
X71643682Y-82765420D01*
X71642198Y-82764937D01*
X71510704Y-82720300D01*
X71505185Y-82718127D01*
X71418604Y-82679161D01*
X71384745Y-82663923D01*
X71382818Y-82663015D01*
X71317341Y-82630725D01*
X71260047Y-82602470D01*
X71255391Y-82599921D01*
X71141548Y-82531100D01*
X71139178Y-82529593D01*
X71026180Y-82454089D01*
X71022387Y-82451343D01*
X70917288Y-82369003D01*
X70914645Y-82366811D01*
X70812771Y-82277470D01*
X70809809Y-82274696D01*
X70715302Y-82180189D01*
X70712528Y-82177227D01*
X70623187Y-82075353D01*
X70620995Y-82072710D01*
X70584008Y-82025500D01*
X70538651Y-81967606D01*
X70535909Y-81963818D01*
X70460405Y-81850820D01*
X70458898Y-81848450D01*
X70436559Y-81811497D01*
X70390074Y-81734602D01*
X70387528Y-81729951D01*
X70326960Y-81607132D01*
X70326099Y-81605305D01*
X70271871Y-81484813D01*
X70269698Y-81479294D01*
X70225039Y-81347735D01*
X70224601Y-81346388D01*
X70185884Y-81222142D01*
X70184284Y-81215854D01*
X70156113Y-81074231D01*
X70133490Y-80950780D01*
X70132610Y-80943683D01*
X70121485Y-80773958D01*
X70115613Y-80676866D01*
X70115500Y-80673123D01*
X70115500Y-30170000D01*
X79874564Y-30170000D01*
X79894287Y-30470918D01*
X79894288Y-30470930D01*
X79953118Y-30766683D01*
X79953122Y-30766698D01*
X80050053Y-31052247D01*
X80050062Y-31052268D01*
X80183431Y-31322713D01*
X80183435Y-31322720D01*
X80350973Y-31573459D01*
X80549810Y-31800189D01*
X80776540Y-31999026D01*
X81027279Y-32166564D01*
X81027286Y-32166568D01*
X81297731Y-32299937D01*
X81297736Y-32299939D01*
X81297748Y-32299945D01*
X81583309Y-32396880D01*
X81783251Y-32436651D01*
X81879069Y-32455711D01*
X81879070Y-32455711D01*
X81879080Y-32455713D01*
X82180000Y-32475436D01*
X82480920Y-32455713D01*
X82776691Y-32396880D01*
X83062252Y-32299945D01*
X83332718Y-32166566D01*
X83583461Y-31999025D01*
X83810189Y-31800189D01*
X84009025Y-31573461D01*
X84176566Y-31322718D01*
X84309945Y-31052252D01*
X84406880Y-30766691D01*
X84465713Y-30470920D01*
X84485436Y-30170000D01*
X98924564Y-30170000D01*
X98933881Y-30312159D01*
X98944287Y-30470918D01*
X98944288Y-30470930D01*
X99003118Y-30766683D01*
X99003122Y-30766698D01*
X99100053Y-31052247D01*
X99100062Y-31052268D01*
X99233431Y-31322713D01*
X99233435Y-31322720D01*
X99400973Y-31573459D01*
X99599810Y-31800189D01*
X99826540Y-31999026D01*
X100077279Y-32166564D01*
X100077286Y-32166568D01*
X100347731Y-32299937D01*
X100347736Y-32299939D01*
X100347748Y-32299945D01*
X100633309Y-32396880D01*
X100833251Y-32436651D01*
X100929069Y-32455711D01*
X100929070Y-32455711D01*
X100929080Y-32455713D01*
X101230000Y-32475436D01*
X101530920Y-32455713D01*
X101826691Y-32396880D01*
X102112252Y-32299945D01*
X102382718Y-32166566D01*
X102633461Y-31999025D01*
X102860189Y-31800189D01*
X103059025Y-31573461D01*
X103226566Y-31322718D01*
X103359945Y-31052252D01*
X103456880Y-30766691D01*
X103515713Y-30470920D01*
X103535436Y-30170000D01*
X117974564Y-30170000D01*
X117983881Y-30312159D01*
X117994287Y-30470918D01*
X117994288Y-30470930D01*
X118053118Y-30766683D01*
X118053122Y-30766698D01*
X118150053Y-31052247D01*
X118150062Y-31052268D01*
X118283431Y-31322713D01*
X118283435Y-31322720D01*
X118450973Y-31573459D01*
X118649810Y-31800189D01*
X118876540Y-31999026D01*
X119127279Y-32166564D01*
X119127286Y-32166568D01*
X119397731Y-32299937D01*
X119397736Y-32299939D01*
X119397748Y-32299945D01*
X119683309Y-32396880D01*
X119883251Y-32436651D01*
X119979069Y-32455711D01*
X119979070Y-32455711D01*
X119979080Y-32455713D01*
X120280000Y-32475436D01*
X120580920Y-32455713D01*
X120876691Y-32396880D01*
X121162252Y-32299945D01*
X121432718Y-32166566D01*
X121683461Y-31999025D01*
X121910189Y-31800189D01*
X122109025Y-31573461D01*
X122276566Y-31322718D01*
X122409945Y-31052252D01*
X122506880Y-30766691D01*
X122565713Y-30470920D01*
X122585436Y-30170000D01*
X137024564Y-30170000D01*
X137033881Y-30312159D01*
X137044287Y-30470918D01*
X137044288Y-30470930D01*
X137103118Y-30766683D01*
X137103122Y-30766698D01*
X137200053Y-31052247D01*
X137200062Y-31052268D01*
X137333431Y-31322713D01*
X137333435Y-31322720D01*
X137500973Y-31573459D01*
X137699810Y-31800189D01*
X137926540Y-31999026D01*
X138177279Y-32166564D01*
X138177286Y-32166568D01*
X138447731Y-32299937D01*
X138447736Y-32299939D01*
X138447748Y-32299945D01*
X138733309Y-32396880D01*
X138933251Y-32436651D01*
X139029069Y-32455711D01*
X139029070Y-32455711D01*
X139029080Y-32455713D01*
X139330000Y-32475436D01*
X139630920Y-32455713D01*
X139926691Y-32396880D01*
X140212252Y-32299945D01*
X140482718Y-32166566D01*
X140733461Y-31999025D01*
X140960189Y-31800189D01*
X141159025Y-31573461D01*
X141326566Y-31322718D01*
X141459945Y-31052252D01*
X141556880Y-30766691D01*
X141615713Y-30470920D01*
X141635436Y-30170000D01*
X141615713Y-29869080D01*
X141556880Y-29573309D01*
X141459945Y-29287748D01*
X141437049Y-29241320D01*
X141326568Y-29017286D01*
X141326564Y-29017279D01*
X141159026Y-28766540D01*
X140960196Y-28539819D01*
X140960195Y-28539818D01*
X140960189Y-28539811D01*
X140831378Y-28426846D01*
X140793955Y-28367845D01*
X140789562Y-28323377D01*
X140795643Y-28250003D01*
X140795643Y-28249995D01*
X140775109Y-28002187D01*
X140775107Y-28002175D01*
X140714063Y-27761118D01*
X140614173Y-27533393D01*
X140478166Y-27325217D01*
X140411051Y-27252311D01*
X140309744Y-27142262D01*
X140113509Y-26989526D01*
X140113507Y-26989525D01*
X140113506Y-26989524D01*
X139894811Y-26871172D01*
X139894802Y-26871169D01*
X139659616Y-26790429D01*
X139414335Y-26749500D01*
X139165665Y-26749500D01*
X138920383Y-26790429D01*
X138685197Y-26871169D01*
X138685188Y-26871172D01*
X138466493Y-26989524D01*
X138270257Y-27142261D01*
X138101833Y-27325217D01*
X137965826Y-27533393D01*
X137865936Y-27761118D01*
X137804892Y-28002175D01*
X137804890Y-28002187D01*
X137784357Y-28249994D01*
X137784357Y-28250000D01*
X137788399Y-28298783D01*
X137795856Y-28388787D01*
X137781774Y-28457222D01*
X137754040Y-28492251D01*
X137699814Y-28539808D01*
X137699803Y-28539819D01*
X137500973Y-28766540D01*
X137333435Y-29017279D01*
X137333431Y-29017286D01*
X137200062Y-29287731D01*
X137200053Y-29287752D01*
X137103122Y-29573301D01*
X137103118Y-29573316D01*
X137044288Y-29869069D01*
X137044287Y-29869079D01*
X137044287Y-29869080D01*
X137024564Y-30170000D01*
X122585436Y-30170000D01*
X122565713Y-29869080D01*
X122506880Y-29573309D01*
X122409945Y-29287748D01*
X122387049Y-29241320D01*
X122276568Y-29017286D01*
X122276564Y-29017279D01*
X122109026Y-28766540D01*
X121910196Y-28539819D01*
X121910195Y-28539818D01*
X121910189Y-28539811D01*
X121781378Y-28426846D01*
X121743955Y-28367845D01*
X121739562Y-28323377D01*
X121745643Y-28250005D01*
X132784357Y-28250005D01*
X132804890Y-28497812D01*
X132804892Y-28497824D01*
X132865936Y-28738881D01*
X132965826Y-28966606D01*
X133101833Y-29174782D01*
X133101836Y-29174785D01*
X133270256Y-29357738D01*
X133466491Y-29510474D01*
X133466493Y-29510475D01*
X133682935Y-29627608D01*
X133685190Y-29628828D01*
X133920386Y-29709571D01*
X134165665Y-29750500D01*
X134414335Y-29750500D01*
X134659614Y-29709571D01*
X134894810Y-29628828D01*
X135113509Y-29510474D01*
X135309744Y-29357738D01*
X135478164Y-29174785D01*
X135614173Y-28966607D01*
X135714063Y-28738881D01*
X135775108Y-28497821D01*
X135778472Y-28457222D01*
X135795643Y-28250005D01*
X135795643Y-28249994D01*
X135775109Y-28002187D01*
X135775107Y-28002175D01*
X135714063Y-27761118D01*
X135614173Y-27533393D01*
X135478166Y-27325217D01*
X135411051Y-27252311D01*
X135309744Y-27142262D01*
X135113509Y-26989526D01*
X135113507Y-26989525D01*
X135113506Y-26989524D01*
X134894811Y-26871172D01*
X134894802Y-26871169D01*
X134659616Y-26790429D01*
X134414335Y-26749500D01*
X134165665Y-26749500D01*
X133920383Y-26790429D01*
X133685197Y-26871169D01*
X133685188Y-26871172D01*
X133466493Y-26989524D01*
X133270257Y-27142261D01*
X133101833Y-27325217D01*
X132965826Y-27533393D01*
X132865936Y-27761118D01*
X132804892Y-28002175D01*
X132804890Y-28002187D01*
X132784357Y-28249994D01*
X132784357Y-28250005D01*
X121745643Y-28250005D01*
X121745643Y-28250003D01*
X121745643Y-28250000D01*
X121725108Y-28002179D01*
X121705564Y-27925000D01*
X121664063Y-27761118D01*
X121564173Y-27533393D01*
X121428166Y-27325217D01*
X121361051Y-27252311D01*
X121259744Y-27142262D01*
X121063509Y-26989526D01*
X121063507Y-26989525D01*
X121063506Y-26989524D01*
X120844811Y-26871172D01*
X120844802Y-26871169D01*
X120609616Y-26790429D01*
X120364335Y-26749500D01*
X120115665Y-26749500D01*
X119870383Y-26790429D01*
X119635197Y-26871169D01*
X119635188Y-26871172D01*
X119416493Y-26989524D01*
X119220257Y-27142261D01*
X119051833Y-27325217D01*
X118915826Y-27533393D01*
X118815936Y-27761118D01*
X118754892Y-28002175D01*
X118754890Y-28002187D01*
X118734357Y-28249994D01*
X118734357Y-28250000D01*
X118738399Y-28298783D01*
X118745856Y-28388787D01*
X118731774Y-28457222D01*
X118704040Y-28492251D01*
X118649814Y-28539808D01*
X118649803Y-28539819D01*
X118450973Y-28766540D01*
X118283435Y-29017279D01*
X118283431Y-29017286D01*
X118150062Y-29287731D01*
X118150053Y-29287752D01*
X118053122Y-29573301D01*
X118053118Y-29573316D01*
X117994288Y-29869069D01*
X117994287Y-29869079D01*
X117994287Y-29869080D01*
X117974564Y-30170000D01*
X103535436Y-30170000D01*
X103515713Y-29869080D01*
X103456880Y-29573309D01*
X103359945Y-29287748D01*
X103337049Y-29241320D01*
X103226568Y-29017286D01*
X103226564Y-29017279D01*
X103059026Y-28766540D01*
X102860196Y-28539819D01*
X102860195Y-28539818D01*
X102860189Y-28539811D01*
X102731378Y-28426846D01*
X102693955Y-28367845D01*
X102689562Y-28323377D01*
X102695643Y-28250005D01*
X113734357Y-28250005D01*
X113754890Y-28497812D01*
X113754892Y-28497824D01*
X113815936Y-28738881D01*
X113915826Y-28966606D01*
X114051833Y-29174782D01*
X114051836Y-29174785D01*
X114220256Y-29357738D01*
X114416491Y-29510474D01*
X114416493Y-29510475D01*
X114632935Y-29627608D01*
X114635190Y-29628828D01*
X114870386Y-29709571D01*
X115115665Y-29750500D01*
X115364335Y-29750500D01*
X115609614Y-29709571D01*
X115844810Y-29628828D01*
X116063509Y-29510474D01*
X116259744Y-29357738D01*
X116428164Y-29174785D01*
X116564173Y-28966607D01*
X116664063Y-28738881D01*
X116725108Y-28497821D01*
X116728472Y-28457222D01*
X116745643Y-28250005D01*
X116745643Y-28249994D01*
X116725109Y-28002187D01*
X116725107Y-28002175D01*
X116664063Y-27761118D01*
X116564173Y-27533393D01*
X116428166Y-27325217D01*
X116361051Y-27252311D01*
X116259744Y-27142262D01*
X116063509Y-26989526D01*
X116063507Y-26989525D01*
X116063506Y-26989524D01*
X115844811Y-26871172D01*
X115844802Y-26871169D01*
X115609616Y-26790429D01*
X115364335Y-26749500D01*
X115115665Y-26749500D01*
X114870383Y-26790429D01*
X114635197Y-26871169D01*
X114635188Y-26871172D01*
X114416493Y-26989524D01*
X114220257Y-27142261D01*
X114051833Y-27325217D01*
X113915826Y-27533393D01*
X113815936Y-27761118D01*
X113754892Y-28002175D01*
X113754890Y-28002187D01*
X113734357Y-28249994D01*
X113734357Y-28250005D01*
X102695643Y-28250005D01*
X102695643Y-28250003D01*
X102695643Y-28250000D01*
X102675108Y-28002179D01*
X102655564Y-27925000D01*
X102614063Y-27761118D01*
X102514173Y-27533393D01*
X102378166Y-27325217D01*
X102311051Y-27252311D01*
X102209744Y-27142262D01*
X102013509Y-26989526D01*
X102013507Y-26989525D01*
X102013506Y-26989524D01*
X101794811Y-26871172D01*
X101794802Y-26871169D01*
X101559616Y-26790429D01*
X101314335Y-26749500D01*
X101065665Y-26749500D01*
X100820383Y-26790429D01*
X100585197Y-26871169D01*
X100585188Y-26871172D01*
X100366493Y-26989524D01*
X100170257Y-27142261D01*
X100001833Y-27325217D01*
X99865826Y-27533393D01*
X99765936Y-27761118D01*
X99704892Y-28002175D01*
X99704890Y-28002187D01*
X99684357Y-28249994D01*
X99684357Y-28250000D01*
X99688399Y-28298783D01*
X99695856Y-28388787D01*
X99681774Y-28457222D01*
X99654040Y-28492251D01*
X99599814Y-28539808D01*
X99599803Y-28539819D01*
X99400973Y-28766540D01*
X99233435Y-29017279D01*
X99233431Y-29017286D01*
X99100062Y-29287731D01*
X99100053Y-29287752D01*
X99003122Y-29573301D01*
X99003118Y-29573316D01*
X98944288Y-29869069D01*
X98944287Y-29869079D01*
X98944287Y-29869080D01*
X98924564Y-30170000D01*
X84485436Y-30170000D01*
X84465713Y-29869080D01*
X84406880Y-29573309D01*
X84309945Y-29287748D01*
X84287049Y-29241320D01*
X84176568Y-29017286D01*
X84176564Y-29017279D01*
X84009026Y-28766540D01*
X83810196Y-28539819D01*
X83810195Y-28539818D01*
X83810189Y-28539811D01*
X83681378Y-28426846D01*
X83643955Y-28367845D01*
X83639562Y-28323377D01*
X83645643Y-28250005D01*
X94684357Y-28250005D01*
X94704890Y-28497812D01*
X94704892Y-28497824D01*
X94765936Y-28738881D01*
X94865826Y-28966606D01*
X95001833Y-29174782D01*
X95001836Y-29174785D01*
X95170256Y-29357738D01*
X95366491Y-29510474D01*
X95366493Y-29510475D01*
X95582935Y-29627608D01*
X95585190Y-29628828D01*
X95820386Y-29709571D01*
X96065665Y-29750500D01*
X96314335Y-29750500D01*
X96559614Y-29709571D01*
X96794810Y-29628828D01*
X97013509Y-29510474D01*
X97209744Y-29357738D01*
X97378164Y-29174785D01*
X97514173Y-28966607D01*
X97614063Y-28738881D01*
X97675108Y-28497821D01*
X97678472Y-28457222D01*
X97695643Y-28250005D01*
X97695643Y-28249994D01*
X97675109Y-28002187D01*
X97675107Y-28002175D01*
X97614063Y-27761118D01*
X97514173Y-27533393D01*
X97378166Y-27325217D01*
X97311051Y-27252311D01*
X97209744Y-27142262D01*
X97013509Y-26989526D01*
X97013507Y-26989525D01*
X97013506Y-26989524D01*
X96794811Y-26871172D01*
X96794802Y-26871169D01*
X96559616Y-26790429D01*
X96314335Y-26749500D01*
X96065665Y-26749500D01*
X95820383Y-26790429D01*
X95585197Y-26871169D01*
X95585188Y-26871172D01*
X95366493Y-26989524D01*
X95170257Y-27142261D01*
X95001833Y-27325217D01*
X94865826Y-27533393D01*
X94765936Y-27761118D01*
X94704892Y-28002175D01*
X94704890Y-28002187D01*
X94684357Y-28249994D01*
X94684357Y-28250005D01*
X83645643Y-28250005D01*
X83645643Y-28250003D01*
X83645643Y-28250000D01*
X83625108Y-28002179D01*
X83605564Y-27925000D01*
X83564063Y-27761118D01*
X83464173Y-27533393D01*
X83328166Y-27325217D01*
X83261051Y-27252311D01*
X83159744Y-27142262D01*
X82963509Y-26989526D01*
X82963507Y-26989525D01*
X82963506Y-26989524D01*
X82744811Y-26871172D01*
X82744802Y-26871169D01*
X82509616Y-26790429D01*
X82264335Y-26749500D01*
X82015665Y-26749500D01*
X81770383Y-26790429D01*
X81535197Y-26871169D01*
X81535188Y-26871172D01*
X81316493Y-26989524D01*
X81120257Y-27142261D01*
X80951833Y-27325217D01*
X80815826Y-27533393D01*
X80715936Y-27761118D01*
X80654892Y-28002175D01*
X80654890Y-28002187D01*
X80634357Y-28249994D01*
X80634357Y-28250000D01*
X80638399Y-28298783D01*
X80645856Y-28388787D01*
X80631774Y-28457222D01*
X80604040Y-28492251D01*
X80549814Y-28539808D01*
X80549803Y-28539819D01*
X80350973Y-28766540D01*
X80183435Y-29017279D01*
X80183431Y-29017286D01*
X80050062Y-29287731D01*
X80050053Y-29287752D01*
X79953122Y-29573301D01*
X79953118Y-29573316D01*
X79894288Y-29869069D01*
X79894287Y-29869081D01*
X79874564Y-30170000D01*
X70115500Y-30170000D01*
X70115500Y-28250005D01*
X75634357Y-28250005D01*
X75654890Y-28497812D01*
X75654892Y-28497824D01*
X75715936Y-28738881D01*
X75815826Y-28966606D01*
X75951833Y-29174782D01*
X75951836Y-29174785D01*
X76120256Y-29357738D01*
X76316491Y-29510474D01*
X76316493Y-29510475D01*
X76532935Y-29627608D01*
X76535190Y-29628828D01*
X76770386Y-29709571D01*
X77015665Y-29750500D01*
X77264335Y-29750500D01*
X77509614Y-29709571D01*
X77744810Y-29628828D01*
X77963509Y-29510474D01*
X78159744Y-29357738D01*
X78328164Y-29174785D01*
X78464173Y-28966607D01*
X78564063Y-28738881D01*
X78625108Y-28497821D01*
X78628472Y-28457222D01*
X78645643Y-28250005D01*
X78645643Y-28249994D01*
X78625109Y-28002187D01*
X78625107Y-28002175D01*
X78564063Y-27761118D01*
X78464173Y-27533393D01*
X78328166Y-27325217D01*
X78261051Y-27252311D01*
X78159744Y-27142262D01*
X77963509Y-26989526D01*
X77963507Y-26989525D01*
X77963506Y-26989524D01*
X77744811Y-26871172D01*
X77744802Y-26871169D01*
X77509616Y-26790429D01*
X77264335Y-26749500D01*
X77015665Y-26749500D01*
X76770383Y-26790429D01*
X76535197Y-26871169D01*
X76535188Y-26871172D01*
X76316493Y-26989524D01*
X76120257Y-27142261D01*
X75951833Y-27325217D01*
X75815826Y-27533393D01*
X75715936Y-27761118D01*
X75654892Y-28002175D01*
X75654890Y-28002187D01*
X75634357Y-28249994D01*
X75634357Y-28250005D01*
X70115500Y-28250005D01*
X70115500Y-27926876D01*
X70115613Y-27923133D01*
X70115855Y-27919126D01*
X70121491Y-27825944D01*
X70132610Y-27656312D01*
X70133489Y-27649223D01*
X70156113Y-27525766D01*
X70184286Y-27384136D01*
X70185881Y-27377866D01*
X70224615Y-27253566D01*
X70225024Y-27252311D01*
X70269703Y-27120689D01*
X70271866Y-27115196D01*
X70326119Y-26994649D01*
X70326939Y-26992910D01*
X70387540Y-26870023D01*
X70390062Y-26865416D01*
X70458927Y-26751501D01*
X70460369Y-26749234D01*
X70535921Y-26636163D01*
X70538632Y-26632417D01*
X70621027Y-26527248D01*
X70623160Y-26524677D01*
X70712549Y-26422748D01*
X70715272Y-26419840D01*
X70809840Y-26325272D01*
X70812748Y-26322549D01*
X70914677Y-26233160D01*
X70917248Y-26231027D01*
X71022417Y-26148632D01*
X71026163Y-26145921D01*
X71139234Y-26070369D01*
X71141501Y-26068927D01*
X71255416Y-26000062D01*
X71260023Y-25997540D01*
X71382910Y-25936939D01*
X71384649Y-25936119D01*
X71505196Y-25881866D01*
X71510689Y-25879703D01*
X71642311Y-25835024D01*
X71643566Y-25834615D01*
X71767866Y-25795881D01*
X71774136Y-25794286D01*
X71915766Y-25766113D01*
X72039223Y-25743489D01*
X72046312Y-25742610D01*
X72215944Y-25731491D01*
X72309126Y-25725855D01*
X72313133Y-25725613D01*
X72316876Y-25725500D01*
X147999094Y-25725500D01*
X148066133Y-25745185D01*
G37*
%TD.AperFunction*%
%TA.AperFunction,Conductor*%
G36*
X165145963Y-48084432D02*
G01*
X165192507Y-48136542D01*
X165204500Y-48189744D01*
X165204500Y-80673122D01*
X165204387Y-80676868D01*
X165198504Y-80774102D01*
X165187391Y-80943658D01*
X165186507Y-80950784D01*
X165163885Y-81074231D01*
X165135722Y-81215821D01*
X165134105Y-81222176D01*
X165095420Y-81346316D01*
X165094937Y-81347800D01*
X165050300Y-81479294D01*
X165048127Y-81484813D01*
X164993935Y-81605228D01*
X164993003Y-81607205D01*
X164932470Y-81729951D01*
X164929921Y-81734607D01*
X164861100Y-81848450D01*
X164859593Y-81850820D01*
X164784089Y-81963818D01*
X164781343Y-81967611D01*
X164699003Y-82072710D01*
X164696811Y-82075353D01*
X164607470Y-82177227D01*
X164604696Y-82180189D01*
X164510189Y-82274696D01*
X164507227Y-82277470D01*
X164405353Y-82366811D01*
X164402710Y-82369003D01*
X164297611Y-82451343D01*
X164293818Y-82454089D01*
X164180820Y-82529593D01*
X164178450Y-82531100D01*
X164064607Y-82599921D01*
X164059951Y-82602470D01*
X163937205Y-82663003D01*
X163935228Y-82663935D01*
X163814813Y-82718127D01*
X163809294Y-82720300D01*
X163677800Y-82764937D01*
X163676316Y-82765420D01*
X163552176Y-82804105D01*
X163545821Y-82805722D01*
X163404231Y-82833885D01*
X163280784Y-82856507D01*
X163273658Y-82857391D01*
X163104102Y-82868504D01*
X163006868Y-82874387D01*
X163003122Y-82874500D01*
X159318091Y-82874500D01*
X159251052Y-82854815D01*
X159205297Y-82802011D01*
X159195353Y-82732853D01*
X159224378Y-82669297D01*
X159283156Y-82631523D01*
X159285998Y-82630725D01*
X159400960Y-82599921D01*
X159431496Y-82591739D01*
X159637734Y-82495568D01*
X159824139Y-82365047D01*
X159985047Y-82204139D01*
X160115568Y-82017734D01*
X160211739Y-81811496D01*
X160270635Y-81591692D01*
X160290468Y-81365000D01*
X160287480Y-81330852D01*
X160284801Y-81300230D01*
X160270635Y-81138308D01*
X160211739Y-80918504D01*
X160115568Y-80712266D01*
X160089474Y-80675000D01*
X161649341Y-80675000D01*
X161669936Y-80910403D01*
X161669938Y-80910413D01*
X161731094Y-81138655D01*
X161731096Y-81138659D01*
X161731097Y-81138663D01*
X161767077Y-81215821D01*
X161830964Y-81352828D01*
X161830965Y-81352830D01*
X161966505Y-81546402D01*
X162133597Y-81713494D01*
X162327169Y-81849034D01*
X162327171Y-81849035D01*
X162541337Y-81948903D01*
X162769592Y-82010063D01*
X162946032Y-82025499D01*
X162946033Y-82025500D01*
X162946034Y-82025500D01*
X163063967Y-82025500D01*
X163063967Y-82025499D01*
X163240408Y-82010063D01*
X163468663Y-81948903D01*
X163682829Y-81849035D01*
X163876401Y-81713495D01*
X164043495Y-81546401D01*
X164179035Y-81352830D01*
X164278903Y-81138663D01*
X164340063Y-80910408D01*
X164360659Y-80675000D01*
X164340063Y-80439592D01*
X164278903Y-80211337D01*
X164179035Y-79997171D01*
X164179034Y-79997169D01*
X164043494Y-79803597D01*
X163876402Y-79636505D01*
X163682830Y-79500965D01*
X163682828Y-79500964D01*
X163575745Y-79451031D01*
X163468663Y-79401097D01*
X163468659Y-79401096D01*
X163468655Y-79401094D01*
X163240413Y-79339938D01*
X163240403Y-79339936D01*
X163063967Y-79324500D01*
X163063966Y-79324500D01*
X162946034Y-79324500D01*
X162946033Y-79324500D01*
X162769596Y-79339936D01*
X162769586Y-79339938D01*
X162541344Y-79401094D01*
X162541335Y-79401098D01*
X162327171Y-79500964D01*
X162327169Y-79500965D01*
X162133597Y-79636505D01*
X161966506Y-79803597D01*
X161966501Y-79803604D01*
X161830967Y-79997165D01*
X161830965Y-79997169D01*
X161731098Y-80211335D01*
X161731094Y-80211344D01*
X161669938Y-80439586D01*
X161669936Y-80439596D01*
X161649341Y-80674999D01*
X161649341Y-80675000D01*
X160089474Y-80675000D01*
X159985047Y-80525861D01*
X159985045Y-80525858D01*
X159824141Y-80364954D01*
X159706120Y-80282316D01*
X159662495Y-80227740D01*
X159655301Y-80158241D01*
X159686823Y-80095886D01*
X159712140Y-80075206D01*
X159813044Y-80012968D01*
X159932968Y-79893044D01*
X160022003Y-79748697D01*
X160075349Y-79587708D01*
X160085500Y-79488345D01*
X160085499Y-78941656D01*
X160084044Y-78927416D01*
X160075349Y-78842292D01*
X160075348Y-78842289D01*
X160038305Y-78730500D01*
X160022003Y-78681303D01*
X160021999Y-78681297D01*
X160021998Y-78681294D01*
X159932970Y-78536959D01*
X159932967Y-78536955D01*
X159813044Y-78417032D01*
X159813040Y-78417029D01*
X159668705Y-78328001D01*
X159668699Y-78327998D01*
X159668697Y-78327997D01*
X159668694Y-78327996D01*
X159507709Y-78274651D01*
X159408352Y-78264500D01*
X159408345Y-78264500D01*
X158935097Y-78264500D01*
X158868058Y-78244815D01*
X158847416Y-78228181D01*
X157155328Y-76536093D01*
X157149974Y-76529988D01*
X157128286Y-76501722D01*
X157128283Y-76501720D01*
X157128282Y-76501718D01*
X157002841Y-76405464D01*
X156856762Y-76344956D01*
X156856760Y-76344955D01*
X156739361Y-76329500D01*
X156700000Y-76324318D01*
X156699999Y-76324318D01*
X156674658Y-76327654D01*
X156605622Y-76316888D01*
X156553367Y-76270508D01*
X156534482Y-76203239D01*
X156535116Y-76192108D01*
X156535498Y-76188361D01*
X156535500Y-76188345D01*
X156535499Y-75641656D01*
X156529753Y-75585410D01*
X156525349Y-75542292D01*
X156525348Y-75542289D01*
X156504952Y-75480738D01*
X156472003Y-75381303D01*
X156471999Y-75381297D01*
X156471998Y-75381294D01*
X156382970Y-75236959D01*
X156382967Y-75236955D01*
X156378858Y-75232846D01*
X156345373Y-75171523D01*
X156350357Y-75101831D01*
X156392229Y-75045898D01*
X156423207Y-75028983D01*
X156477326Y-75008798D01*
X156477326Y-75008797D01*
X156477331Y-75008796D01*
X156592546Y-74922546D01*
X156678796Y-74807331D01*
X156729091Y-74672483D01*
X156735500Y-74612873D01*
X156735500Y-74489500D01*
X156755185Y-74422461D01*
X156807989Y-74376706D01*
X156859500Y-74365500D01*
X157560501Y-74365500D01*
X157627540Y-74385185D01*
X157673295Y-74437989D01*
X157684501Y-74489500D01*
X157684501Y-74612876D01*
X157690908Y-74672483D01*
X157741202Y-74807328D01*
X157741206Y-74807335D01*
X157827452Y-74922544D01*
X157827455Y-74922547D01*
X157942664Y-75008793D01*
X157942673Y-75008798D01*
X157996792Y-75028983D01*
X158052726Y-75070854D01*
X158077144Y-75136318D01*
X158062293Y-75204591D01*
X158041146Y-75232841D01*
X158037034Y-75236952D01*
X158037029Y-75236959D01*
X157948001Y-75381294D01*
X157947996Y-75381305D01*
X157894651Y-75542290D01*
X157884500Y-75641647D01*
X157884500Y-76188337D01*
X157884501Y-76188355D01*
X157894650Y-76287707D01*
X157894651Y-76287710D01*
X157947996Y-76448694D01*
X157948001Y-76448705D01*
X158037029Y-76593040D01*
X158037032Y-76593044D01*
X158156955Y-76712967D01*
X158156959Y-76712970D01*
X158301294Y-76801998D01*
X158301297Y-76801999D01*
X158301303Y-76802003D01*
X158462292Y-76855349D01*
X158561655Y-76865500D01*
X159408344Y-76865499D01*
X159408352Y-76865498D01*
X159408355Y-76865498D01*
X159462760Y-76859940D01*
X159507708Y-76855349D01*
X159668697Y-76802003D01*
X159813044Y-76712968D01*
X159932968Y-76593044D01*
X160022003Y-76448697D01*
X160075349Y-76287708D01*
X160085500Y-76188345D01*
X160085499Y-75641656D01*
X160079753Y-75585410D01*
X160075349Y-75542292D01*
X160075348Y-75542289D01*
X160054952Y-75480738D01*
X160022003Y-75381303D01*
X160021999Y-75381297D01*
X160021998Y-75381294D01*
X159932970Y-75236959D01*
X159932967Y-75236955D01*
X159928858Y-75232846D01*
X159895373Y-75171523D01*
X159900357Y-75101831D01*
X159942229Y-75045898D01*
X159973207Y-75028983D01*
X160027326Y-75008798D01*
X160027326Y-75008797D01*
X160027331Y-75008796D01*
X160142546Y-74922546D01*
X160228796Y-74807331D01*
X160279091Y-74672483D01*
X160285500Y-74612873D01*
X160285499Y-73365095D01*
X160305184Y-73298057D01*
X160321813Y-73277420D01*
X161083922Y-72515311D01*
X161089999Y-72509983D01*
X161118282Y-72488282D01*
X161214536Y-72362841D01*
X161275044Y-72216762D01*
X161290500Y-72099361D01*
X161295682Y-72060000D01*
X161291030Y-72024669D01*
X161290500Y-72016571D01*
X161290500Y-52785096D01*
X161310185Y-52718057D01*
X161326815Y-52697419D01*
X161453256Y-52570978D01*
X161514578Y-52537494D01*
X161584270Y-52542478D01*
X161640203Y-52584350D01*
X161664464Y-52647852D01*
X161669936Y-52710403D01*
X161669938Y-52710413D01*
X161731094Y-52938655D01*
X161731096Y-52938659D01*
X161731097Y-52938663D01*
X161773214Y-53028983D01*
X161830964Y-53152828D01*
X161830965Y-53152830D01*
X161966505Y-53346402D01*
X162133597Y-53513494D01*
X162327169Y-53649034D01*
X162327171Y-53649035D01*
X162541337Y-53748903D01*
X162541343Y-53748904D01*
X162541344Y-53748905D01*
X162596285Y-53763626D01*
X162769592Y-53810063D01*
X162946032Y-53825499D01*
X162946033Y-53825500D01*
X162946034Y-53825500D01*
X163063967Y-53825500D01*
X163063967Y-53825499D01*
X163240408Y-53810063D01*
X163468663Y-53748903D01*
X163682829Y-53649035D01*
X163876401Y-53513495D01*
X164043495Y-53346401D01*
X164179035Y-53152830D01*
X164278903Y-52938663D01*
X164340063Y-52710408D01*
X164360659Y-52475000D01*
X164357635Y-52440442D01*
X164344201Y-52286891D01*
X164340063Y-52239592D01*
X164278903Y-52011337D01*
X164179035Y-51797171D01*
X164158809Y-51768284D01*
X164043494Y-51603597D01*
X163876402Y-51436505D01*
X163682830Y-51300965D01*
X163682828Y-51300964D01*
X163531979Y-51230622D01*
X163468663Y-51201097D01*
X163468659Y-51201096D01*
X163468655Y-51201094D01*
X163240413Y-51139938D01*
X163240403Y-51139936D01*
X163190573Y-51135576D01*
X163177850Y-51134463D01*
X163112783Y-51109011D01*
X163071804Y-51052421D01*
X163067926Y-50982659D01*
X163100976Y-50923257D01*
X164078922Y-49945311D01*
X164084999Y-49939983D01*
X164113282Y-49918282D01*
X164209536Y-49792841D01*
X164270044Y-49646762D01*
X164271226Y-49637784D01*
X164285005Y-49533120D01*
X164290682Y-49490001D01*
X164290682Y-49489999D01*
X164288873Y-49476266D01*
X164286030Y-49454669D01*
X164285500Y-49446571D01*
X164285500Y-48949395D01*
X164305185Y-48882356D01*
X164350483Y-48840340D01*
X164369043Y-48830296D01*
X164440619Y-48791561D01*
X164620677Y-48651417D01*
X164775213Y-48483547D01*
X164900010Y-48292530D01*
X164966944Y-48139933D01*
X165011900Y-48086448D01*
X165078635Y-48065758D01*
X165145963Y-48084432D01*
G37*
%TD.AperFunction*%
%TA.AperFunction,Conductor*%
G36*
X150625469Y-25745185D02*
G01*
X150646111Y-25761819D01*
X151073181Y-26188888D01*
X151106666Y-26250211D01*
X151109500Y-26276569D01*
X151109500Y-32850368D01*
X151109419Y-32850774D01*
X151109457Y-32874999D01*
X151109520Y-32875149D01*
X151109549Y-32875296D01*
X151109576Y-32875285D01*
X151109617Y-32875383D01*
X151109618Y-32875383D01*
X151120887Y-32886595D01*
X151353554Y-33119261D01*
X151492196Y-33257903D01*
X151492430Y-33258252D01*
X151509616Y-33275381D01*
X151509617Y-33275383D01*
X151509901Y-33275500D01*
X151510000Y-33275541D01*
X151510000Y-33275540D01*
X151510001Y-33275541D01*
X151534554Y-33275541D01*
X151534760Y-33275500D01*
X160485145Y-33275500D01*
X160485334Y-33275538D01*
X160509997Y-33275540D01*
X160510000Y-33275542D01*
X160510284Y-33275424D01*
X160510284Y-33275423D01*
X160510414Y-33275370D01*
X160512654Y-33274464D01*
X160518831Y-33266934D01*
X160528147Y-33257618D01*
X160528260Y-33257446D01*
X160898812Y-32886893D01*
X160910381Y-32875384D01*
X160910381Y-32875383D01*
X160910383Y-32875383D01*
X160910500Y-32875099D01*
X160910500Y-32875098D01*
X160910541Y-32875000D01*
X160910539Y-32874997D01*
X160910584Y-32850664D01*
X160910500Y-32850240D01*
X160910500Y-26276568D01*
X160930185Y-26209529D01*
X160946814Y-26188892D01*
X161373888Y-25761818D01*
X161435211Y-25728334D01*
X161461569Y-25725500D01*
X162601383Y-25725500D01*
X162668422Y-25745185D01*
X162714177Y-25797989D01*
X162724121Y-25867147D01*
X162695096Y-25930703D01*
X162644716Y-25965682D01*
X162566371Y-25994902D01*
X162566364Y-25994906D01*
X162451155Y-26081152D01*
X162451152Y-26081155D01*
X162364906Y-26196364D01*
X162364902Y-26196371D01*
X162314608Y-26331217D01*
X162308201Y-26390816D01*
X162308200Y-26390835D01*
X162308200Y-28239170D01*
X162308201Y-28239176D01*
X162314608Y-28298783D01*
X162364902Y-28433628D01*
X162364906Y-28433635D01*
X162451152Y-28548844D01*
X162451153Y-28548844D01*
X162451154Y-28548846D01*
X162486788Y-28575522D01*
X162529466Y-28607471D01*
X162571336Y-28663405D01*
X162576320Y-28733097D01*
X162551521Y-28784772D01*
X162455714Y-28903085D01*
X162366186Y-29078796D01*
X162315145Y-29269284D01*
X162315145Y-29269285D01*
X162308700Y-29351180D01*
X162308700Y-29605000D01*
X163194287Y-29605000D01*
X163145296Y-29742848D01*
X163135051Y-29892618D01*
X163165594Y-30039597D01*
X163199483Y-30105000D01*
X162308700Y-30105000D01*
X162308700Y-30358819D01*
X162315145Y-30440714D01*
X162315145Y-30440715D01*
X162366186Y-30631203D01*
X162455714Y-30806915D01*
X162551521Y-30925226D01*
X162578413Y-30989714D01*
X162566171Y-31058503D01*
X162529467Y-31102528D01*
X162451152Y-31161155D01*
X162364906Y-31276364D01*
X162364902Y-31276371D01*
X162314608Y-31411217D01*
X162308201Y-31470816D01*
X162308200Y-31470835D01*
X162308200Y-33319170D01*
X162308201Y-33319176D01*
X162314608Y-33378783D01*
X162364902Y-33513628D01*
X162364906Y-33513635D01*
X162451152Y-33628844D01*
X162451155Y-33628847D01*
X162566364Y-33715093D01*
X162566371Y-33715097D01*
X162669183Y-33753443D01*
X162725116Y-33795314D01*
X162749534Y-33860778D01*
X162734683Y-33929051D01*
X162717080Y-33953608D01*
X162594784Y-34086455D01*
X162469989Y-34277470D01*
X162378335Y-34486422D01*
X162322323Y-34707608D01*
X162322321Y-34707616D01*
X162303481Y-34934994D01*
X162303481Y-34935005D01*
X162322321Y-35162383D01*
X162322323Y-35162391D01*
X162378335Y-35383577D01*
X162469989Y-35592529D01*
X162594787Y-35783548D01*
X162749319Y-35951413D01*
X162749323Y-35951417D01*
X162929379Y-36091560D01*
X162929383Y-36091562D01*
X162937483Y-36095946D01*
X162987073Y-36145166D01*
X163002180Y-36213383D01*
X162978008Y-36278939D01*
X162937483Y-36314054D01*
X162929383Y-36318437D01*
X162929379Y-36318439D01*
X162749323Y-36458582D01*
X162749319Y-36458586D01*
X162594787Y-36626451D01*
X162469989Y-36817470D01*
X162378335Y-37026422D01*
X162322323Y-37247608D01*
X162322321Y-37247616D01*
X162303481Y-37474994D01*
X162303481Y-37475005D01*
X162322321Y-37702383D01*
X162322323Y-37702391D01*
X162378335Y-37923577D01*
X162469989Y-38132529D01*
X162594787Y-38323548D01*
X162749319Y-38491413D01*
X162749323Y-38491417D01*
X162929379Y-38631560D01*
X162929380Y-38631560D01*
X162929381Y-38631561D01*
X162937477Y-38635942D01*
X162987069Y-38685159D01*
X163002181Y-38753375D01*
X162978013Y-38818931D01*
X162937490Y-38854049D01*
X162929388Y-38858434D01*
X162929379Y-38858439D01*
X162749323Y-38998582D01*
X162749319Y-38998586D01*
X162594787Y-39166451D01*
X162469989Y-39357470D01*
X162378335Y-39566422D01*
X162322323Y-39787608D01*
X162322321Y-39787616D01*
X162303481Y-40014994D01*
X162303481Y-40015005D01*
X162322321Y-40242383D01*
X162322323Y-40242391D01*
X162378335Y-40463577D01*
X162469989Y-40672529D01*
X162594787Y-40863548D01*
X162749319Y-41031413D01*
X162749323Y-41031417D01*
X162929379Y-41171560D01*
X162929383Y-41171562D01*
X162937483Y-41175946D01*
X162987073Y-41225166D01*
X163002180Y-41293383D01*
X162978008Y-41358939D01*
X162937483Y-41394054D01*
X162929383Y-41398437D01*
X162929379Y-41398439D01*
X162749323Y-41538582D01*
X162749319Y-41538586D01*
X162594787Y-41706451D01*
X162469989Y-41897470D01*
X162378335Y-42106422D01*
X162322323Y-42327608D01*
X162322321Y-42327616D01*
X162303481Y-42554994D01*
X162303481Y-42555005D01*
X162322321Y-42782383D01*
X162322323Y-42782391D01*
X162378335Y-43003577D01*
X162469989Y-43212529D01*
X162594787Y-43403548D01*
X162749319Y-43571413D01*
X162749323Y-43571417D01*
X162929379Y-43711560D01*
X162929383Y-43711562D01*
X162937483Y-43715946D01*
X162987073Y-43765166D01*
X163002180Y-43833383D01*
X162978008Y-43898939D01*
X162937483Y-43934054D01*
X162929383Y-43938437D01*
X162929379Y-43938439D01*
X162749323Y-44078582D01*
X162749319Y-44078586D01*
X162594787Y-44246451D01*
X162469989Y-44437470D01*
X162378335Y-44646422D01*
X162322323Y-44867608D01*
X162322321Y-44867616D01*
X162303481Y-45094994D01*
X162303481Y-45095005D01*
X162322321Y-45322383D01*
X162322323Y-45322391D01*
X162378335Y-45543577D01*
X162469989Y-45752529D01*
X162594787Y-45943548D01*
X162749319Y-46111413D01*
X162749323Y-46111417D01*
X162929379Y-46251560D01*
X162929383Y-46251562D01*
X162937483Y-46255946D01*
X162987073Y-46305166D01*
X163002180Y-46373383D01*
X162978008Y-46438939D01*
X162937483Y-46474054D01*
X162929383Y-46478437D01*
X162929379Y-46478439D01*
X162749323Y-46618582D01*
X162749319Y-46618586D01*
X162594787Y-46786451D01*
X162469989Y-46977470D01*
X162411779Y-47110178D01*
X162366823Y-47163664D01*
X162300087Y-47184354D01*
X162232759Y-47165679D01*
X162194414Y-47128189D01*
X162180212Y-47106451D01*
X162025680Y-46938586D01*
X162025676Y-46938582D01*
X161845620Y-46798440D01*
X161845619Y-46798439D01*
X161644950Y-46689842D01*
X161644942Y-46689839D01*
X161429145Y-46615755D01*
X161204085Y-46578200D01*
X160975915Y-46578200D01*
X160750854Y-46615755D01*
X160535057Y-46689839D01*
X160535049Y-46689842D01*
X160334379Y-46798440D01*
X160154323Y-46938582D01*
X160154319Y-46938586D01*
X159999787Y-47106451D01*
X159923809Y-47222746D01*
X159870663Y-47268103D01*
X159801431Y-47277527D01*
X159738095Y-47248025D01*
X159716191Y-47222746D01*
X159640212Y-47106451D01*
X159485680Y-46938586D01*
X159485676Y-46938582D01*
X159305620Y-46798440D01*
X159305619Y-46798439D01*
X159104950Y-46689842D01*
X159104942Y-46689839D01*
X158889145Y-46615755D01*
X158664085Y-46578200D01*
X158435915Y-46578200D01*
X158210854Y-46615755D01*
X157995057Y-46689839D01*
X157995049Y-46689842D01*
X157794379Y-46798440D01*
X157614323Y-46938582D01*
X157614319Y-46938586D01*
X157459787Y-47106451D01*
X157383809Y-47222746D01*
X157330663Y-47268103D01*
X157261431Y-47277527D01*
X157198095Y-47248025D01*
X157176191Y-47222746D01*
X157100212Y-47106451D01*
X156945680Y-46938586D01*
X156945676Y-46938582D01*
X156765620Y-46798440D01*
X156765619Y-46798439D01*
X156564950Y-46689842D01*
X156564942Y-46689839D01*
X156349145Y-46615755D01*
X156124085Y-46578200D01*
X155895915Y-46578200D01*
X155670854Y-46615755D01*
X155455057Y-46689839D01*
X155455049Y-46689842D01*
X155254379Y-46798440D01*
X155074323Y-46938582D01*
X155074319Y-46938586D01*
X154919787Y-47106451D01*
X154843809Y-47222746D01*
X154790663Y-47268103D01*
X154721431Y-47277527D01*
X154658095Y-47248025D01*
X154636191Y-47222746D01*
X154560212Y-47106451D01*
X154405680Y-46938586D01*
X154405676Y-46938582D01*
X154225620Y-46798440D01*
X154225619Y-46798439D01*
X154024950Y-46689842D01*
X154024942Y-46689839D01*
X153809145Y-46615755D01*
X153584085Y-46578200D01*
X153355915Y-46578200D01*
X153130854Y-46615755D01*
X152915057Y-46689839D01*
X152915049Y-46689842D01*
X152714379Y-46798440D01*
X152534323Y-46938582D01*
X152534319Y-46938586D01*
X152379787Y-47106451D01*
X152303809Y-47222746D01*
X152250663Y-47268103D01*
X152181431Y-47277527D01*
X152118095Y-47248025D01*
X152096191Y-47222746D01*
X152020212Y-47106451D01*
X151865680Y-46938586D01*
X151865676Y-46938582D01*
X151685620Y-46798440D01*
X151685619Y-46798439D01*
X151484950Y-46689842D01*
X151484942Y-46689839D01*
X151269145Y-46615755D01*
X151044085Y-46578200D01*
X150815915Y-46578200D01*
X150590854Y-46615755D01*
X150375057Y-46689839D01*
X150375049Y-46689842D01*
X150174379Y-46798440D01*
X149994323Y-46938582D01*
X149994319Y-46938586D01*
X149839787Y-47106452D01*
X149839786Y-47106453D01*
X149825583Y-47128192D01*
X149772436Y-47173547D01*
X149703205Y-47182969D01*
X149639869Y-47153466D01*
X149608220Y-47110177D01*
X149550011Y-46977471D01*
X149425212Y-46786451D01*
X149270680Y-46618586D01*
X149270676Y-46618582D01*
X149090620Y-46478440D01*
X149090619Y-46478439D01*
X149082517Y-46474054D01*
X149032928Y-46424837D01*
X149017818Y-46356621D01*
X149041988Y-46291065D01*
X149082517Y-46255945D01*
X149090619Y-46251561D01*
X149270677Y-46111417D01*
X149425213Y-45943547D01*
X149550010Y-45752530D01*
X149641664Y-45543578D01*
X149697677Y-45322391D01*
X149697678Y-45322383D01*
X149716519Y-45095005D01*
X149716519Y-45094994D01*
X149697678Y-44867616D01*
X149697677Y-44867613D01*
X149697677Y-44867609D01*
X149641664Y-44646422D01*
X149550010Y-44437470D01*
X149493986Y-44351718D01*
X149425212Y-44246451D01*
X149270680Y-44078586D01*
X149270676Y-44078582D01*
X149090620Y-43938439D01*
X149090611Y-43938434D01*
X149082513Y-43934051D01*
X149032924Y-43884830D01*
X149017819Y-43816612D01*
X149041993Y-43751058D01*
X149082523Y-43715941D01*
X149090619Y-43711561D01*
X149270677Y-43571417D01*
X149425213Y-43403547D01*
X149550010Y-43212530D01*
X149641664Y-43003578D01*
X149697677Y-42782391D01*
X149700361Y-42749999D01*
X149716519Y-42555005D01*
X149716519Y-42554994D01*
X149697678Y-42327616D01*
X149697677Y-42327613D01*
X149697677Y-42327609D01*
X149641664Y-42106422D01*
X149550010Y-41897470D01*
X149502804Y-41825215D01*
X149425212Y-41706451D01*
X149270680Y-41538586D01*
X149270676Y-41538582D01*
X149090620Y-41398440D01*
X149090619Y-41398439D01*
X149082517Y-41394054D01*
X149032928Y-41344837D01*
X149017818Y-41276621D01*
X149041988Y-41211065D01*
X149082517Y-41175945D01*
X149090619Y-41171561D01*
X149270677Y-41031417D01*
X149425213Y-40863547D01*
X149550010Y-40672530D01*
X149641664Y-40463578D01*
X149697677Y-40242391D01*
X149698109Y-40237181D01*
X149716519Y-40015005D01*
X149716519Y-40014994D01*
X149697678Y-39787616D01*
X149697677Y-39787613D01*
X149697677Y-39787609D01*
X149641664Y-39566422D01*
X149550010Y-39357470D01*
X149425213Y-39166453D01*
X149425212Y-39166451D01*
X149270680Y-38998586D01*
X149270676Y-38998582D01*
X149090620Y-38858439D01*
X149090611Y-38858434D01*
X149082513Y-38854051D01*
X149032924Y-38804830D01*
X149017819Y-38736612D01*
X149041993Y-38671058D01*
X149082523Y-38635941D01*
X149090619Y-38631561D01*
X149270677Y-38491417D01*
X149425213Y-38323547D01*
X149550010Y-38132530D01*
X149585821Y-38050889D01*
X156659416Y-38050889D01*
X156659459Y-38075001D01*
X156659544Y-38075206D01*
X156659616Y-38075382D01*
X156659618Y-38075384D01*
X156659808Y-38075462D01*
X156660000Y-38075541D01*
X156660002Y-38075539D01*
X156684616Y-38075524D01*
X156684616Y-38075528D01*
X156684760Y-38075500D01*
X161635240Y-38075500D01*
X161635383Y-38075528D01*
X161635384Y-38075524D01*
X161659997Y-38075539D01*
X161660000Y-38075541D01*
X161660383Y-38075383D01*
X161660500Y-38075099D01*
X161660541Y-38075000D01*
X161660540Y-38074997D01*
X161660583Y-38050889D01*
X161660500Y-38050467D01*
X161660500Y-34599759D01*
X161660528Y-34599616D01*
X161660524Y-34599616D01*
X161660539Y-34575002D01*
X161660541Y-34575000D01*
X161660462Y-34574808D01*
X161660384Y-34574618D01*
X161660383Y-34574617D01*
X161660381Y-34574616D01*
X161660090Y-34574496D01*
X161660001Y-34574459D01*
X161635446Y-34574459D01*
X161635240Y-34574500D01*
X156684760Y-34574500D01*
X156684554Y-34574459D01*
X156659998Y-34574459D01*
X156659909Y-34574496D01*
X156659619Y-34574615D01*
X156659615Y-34574618D01*
X156659459Y-34574999D01*
X156659476Y-34599616D01*
X156659471Y-34599616D01*
X156659500Y-34599759D01*
X156659500Y-38050467D01*
X156659416Y-38050889D01*
X149585821Y-38050889D01*
X149641664Y-37923578D01*
X149697677Y-37702391D01*
X149714406Y-37500500D01*
X149716519Y-37475005D01*
X149716519Y-37474994D01*
X149697678Y-37247616D01*
X149697677Y-37247613D01*
X149697677Y-37247609D01*
X149641664Y-37026422D01*
X149550010Y-36817470D01*
X149501395Y-36743059D01*
X149425212Y-36626451D01*
X149270680Y-36458586D01*
X149270676Y-36458582D01*
X149090620Y-36318440D01*
X149090619Y-36318439D01*
X149082517Y-36314054D01*
X149032928Y-36264837D01*
X149017818Y-36196621D01*
X149041988Y-36131065D01*
X149082517Y-36095945D01*
X149090619Y-36091561D01*
X149270677Y-35951417D01*
X149425213Y-35783547D01*
X149550010Y-35592530D01*
X149641664Y-35383578D01*
X149697677Y-35162391D01*
X149699201Y-35144001D01*
X149716519Y-34935005D01*
X149716519Y-34934994D01*
X149697678Y-34707616D01*
X149697677Y-34707613D01*
X149697677Y-34707609D01*
X149641664Y-34486422D01*
X149550010Y-34277470D01*
X149499636Y-34200366D01*
X149425212Y-34086451D01*
X149270680Y-33918586D01*
X149270676Y-33918582D01*
X149090620Y-33778440D01*
X149090619Y-33778439D01*
X149082517Y-33774054D01*
X149032928Y-33724837D01*
X149017818Y-33656621D01*
X149041988Y-33591065D01*
X149082517Y-33555945D01*
X149090619Y-33551561D01*
X149270677Y-33411417D01*
X149425213Y-33243547D01*
X149550010Y-33052530D01*
X149641664Y-32843578D01*
X149697677Y-32622391D01*
X149710800Y-32464018D01*
X149716519Y-32395005D01*
X149716519Y-32394994D01*
X149697678Y-32167616D01*
X149697677Y-32167613D01*
X149697677Y-32167609D01*
X149641664Y-31946422D01*
X149550010Y-31737470D01*
X149425213Y-31546453D01*
X149425212Y-31546451D01*
X149270680Y-31378586D01*
X149270676Y-31378582D01*
X149090620Y-31238440D01*
X149090619Y-31238439D01*
X149082517Y-31234054D01*
X149032928Y-31184837D01*
X149017818Y-31116621D01*
X149041988Y-31051065D01*
X149082517Y-31015945D01*
X149090619Y-31011561D01*
X149270677Y-30871417D01*
X149425213Y-30703547D01*
X149550010Y-30512530D01*
X149641664Y-30303578D01*
X149697677Y-30082391D01*
X149697678Y-30082383D01*
X149716519Y-29855005D01*
X149716519Y-29854994D01*
X149697678Y-29627616D01*
X149697677Y-29627613D01*
X149697677Y-29627609D01*
X149641664Y-29406422D01*
X149550010Y-29197470D01*
X149425213Y-29006453D01*
X149425212Y-29006451D01*
X149270680Y-28838586D01*
X149270676Y-28838582D01*
X149090620Y-28698440D01*
X149090619Y-28698439D01*
X149082517Y-28694054D01*
X149032928Y-28644837D01*
X149017818Y-28576621D01*
X149041988Y-28511065D01*
X149082517Y-28475945D01*
X149090619Y-28471561D01*
X149270677Y-28331417D01*
X149425213Y-28163547D01*
X149550010Y-27972530D01*
X149641664Y-27763578D01*
X149697677Y-27542391D01*
X149698901Y-27527624D01*
X149716519Y-27315005D01*
X149716519Y-27314994D01*
X149697678Y-27087616D01*
X149697677Y-27087613D01*
X149697677Y-27087609D01*
X149641664Y-26866422D01*
X149550010Y-26657470D01*
X149464958Y-26527288D01*
X149425212Y-26466451D01*
X149270680Y-26298586D01*
X149270676Y-26298582D01*
X149090620Y-26158440D01*
X149090619Y-26158439D01*
X148889950Y-26049842D01*
X148889942Y-26049839D01*
X148674146Y-25975755D01*
X148650496Y-25971809D01*
X148587611Y-25941358D01*
X148551172Y-25881744D01*
X148552747Y-25811892D01*
X148591837Y-25753980D01*
X148656031Y-25726395D01*
X148670906Y-25725500D01*
X150558430Y-25725500D01*
X150625469Y-25745185D01*
G37*
%TD.AperFunction*%
%TA.AperFunction,Conductor*%
G36*
X138022625Y-43629073D02*
G01*
X138056111Y-43635244D01*
X138097122Y-43671949D01*
X138098683Y-43670735D01*
X138101830Y-43674779D01*
X138139722Y-43715940D01*
X138270256Y-43857738D01*
X138398620Y-43957648D01*
X138439432Y-44014357D01*
X138443107Y-44084130D01*
X138408476Y-44144813D01*
X138346534Y-44177140D01*
X138322457Y-44179500D01*
X137756728Y-44179500D01*
X137689689Y-44159815D01*
X137643934Y-44107011D01*
X137633990Y-44037853D01*
X137659541Y-43981902D01*
X137660056Y-43973609D01*
X136922533Y-43236086D01*
X136932315Y-43234680D01*
X137063100Y-43174952D01*
X137171761Y-43080798D01*
X137249493Y-42959844D01*
X137273076Y-42879524D01*
X138022625Y-43629073D01*
G37*
%TD.AperFunction*%
%TA.AperFunction,Conductor*%
G36*
X84182942Y-39645185D02*
G01*
X84228697Y-39697989D01*
X84238641Y-39767147D01*
X84209616Y-39830703D01*
X84203584Y-39837181D01*
X82743548Y-41297215D01*
X82682225Y-41330700D01*
X82615604Y-41326815D01*
X82509616Y-41290429D01*
X82264335Y-41249500D01*
X82015665Y-41249500D01*
X81770383Y-41290429D01*
X81535197Y-41371169D01*
X81535188Y-41371172D01*
X81316493Y-41489524D01*
X81120257Y-41642261D01*
X80951837Y-41825213D01*
X80948690Y-41829258D01*
X80946973Y-41827922D01*
X80900771Y-41867294D01*
X80871596Y-41871954D01*
X80123076Y-42620475D01*
X80099493Y-42540156D01*
X80021761Y-42419202D01*
X79913100Y-42325048D01*
X79782315Y-42265320D01*
X79772533Y-42263913D01*
X80510057Y-41526389D01*
X80463229Y-41489943D01*
X80244614Y-41371635D01*
X80244603Y-41371630D01*
X80009493Y-41290916D01*
X79766180Y-41250314D01*
X79703295Y-41219863D01*
X79666855Y-41160248D01*
X79668431Y-41090396D01*
X79698906Y-41040327D01*
X81077415Y-39661819D01*
X81138739Y-39628334D01*
X81165097Y-39625500D01*
X84115903Y-39625500D01*
X84182942Y-39645185D01*
G37*
%TD.AperFunction*%
%TA.AperFunction,Conductor*%
G36*
X102432942Y-40445185D02*
G01*
X102478697Y-40497989D01*
X102488641Y-40567147D01*
X102459616Y-40630703D01*
X102453584Y-40637181D01*
X101793548Y-41297215D01*
X101732225Y-41330700D01*
X101665604Y-41326815D01*
X101559616Y-41290429D01*
X101314335Y-41249500D01*
X101065665Y-41249500D01*
X100820383Y-41290429D01*
X100585197Y-41371169D01*
X100585188Y-41371172D01*
X100366493Y-41489524D01*
X100170257Y-41642261D01*
X100001837Y-41825213D01*
X99998690Y-41829258D01*
X99996973Y-41827922D01*
X99950771Y-41867294D01*
X99921596Y-41871954D01*
X99173076Y-42620475D01*
X99149493Y-42540156D01*
X99071761Y-42419202D01*
X98963100Y-42325048D01*
X98832315Y-42265320D01*
X98822533Y-42263913D01*
X99560057Y-41526389D01*
X99513229Y-41489943D01*
X99294614Y-41371635D01*
X99294603Y-41371630D01*
X99059493Y-41290916D01*
X98816180Y-41250314D01*
X98753295Y-41219863D01*
X98716855Y-41160248D01*
X98718431Y-41090396D01*
X98748906Y-41040328D01*
X99327415Y-40461819D01*
X99388739Y-40428334D01*
X99415097Y-40425500D01*
X102365903Y-40425500D01*
X102432942Y-40445185D01*
G37*
%TD.AperFunction*%
%TA.AperFunction,Conductor*%
G36*
X119481742Y-41245185D02*
G01*
X119527497Y-41297989D01*
X119537441Y-41367147D01*
X119508416Y-41430703D01*
X119473720Y-41458555D01*
X119416496Y-41489522D01*
X119416494Y-41489523D01*
X119220257Y-41642261D01*
X119051837Y-41825213D01*
X119048690Y-41829258D01*
X119046973Y-41827922D01*
X119000771Y-41867294D01*
X118971596Y-41871954D01*
X118223076Y-42620474D01*
X118199493Y-42540156D01*
X118121761Y-42419202D01*
X118013100Y-42325048D01*
X117882315Y-42265320D01*
X117872533Y-42263913D01*
X118610057Y-41526389D01*
X118563231Y-41489945D01*
X118505228Y-41458555D01*
X118455638Y-41409335D01*
X118440530Y-41341119D01*
X118464700Y-41275563D01*
X118520476Y-41233482D01*
X118564246Y-41225500D01*
X119414703Y-41225500D01*
X119481742Y-41245185D01*
G37*
%TD.AperFunction*%
%TD*%
M02*
